<?xml version="1.0" encoding="utf-8"?>
<!-- Generator: Adobe Illustrator 23.0.2, SVG Export Plug-In . SVG Version: 6.00 Build 0)  -->
<svg version="1.1" id="Layer_1" xmlns="http://www.w3.org/2000/svg" xmlns:xlink="http://www.w3.org/1999/xlink" x="0px" y="0px"
	 viewBox="0 0 994.3 950" style="enable-background:new 0 0 994.3 950;" xml:space="preserve">
<style type="text/css">
	.st0{clip-path:url(#SVGID_2_);}
	.st1{clip-path:url(#SVGID_4_);}
	.st2{clip-path:url(#SVGID_6_);}
	.st3{clip-path:url(#SVGID_8_);}
	.st4{clip-path:url(#SVGID_10_);}
	.st5{clip-path:url(#SVGID_12_);}
	.st6{fill:#333333;}
	.st7{font-family:'RobotoCondensed-Bold';}
	.st8{font-size:40px;}
	.st9{fill:#287AA0;}
	.st10{clip-path:url(#SVGID_14_);}
	.st11{clip-path:url(#SVGID_16_);}
	.st12{clip-path:url(#SVGID_18_);}
	.st13{clip-path:url(#SVGID_20_);}
	.st14{clip-path:url(#SVGID_22_);}
	.st15{clip-path:url(#SVGID_24_);}
	.st16{fill:#70A8B7;}
	.st17{fill:#68AABC;}
	.st18{fill:#7FB9C6;}
	.st19{fill:#99C9D1;}
	.st20{clip-path:url(#SVGID_26_);}
	.st21{clip-path:url(#SVGID_28_);}
	.st22{clip-path:url(#SVGID_30_);}
	.st23{clip-path:url(#SVGID_32_);}
	.st24{clip-path:url(#SVGID_34_);}
	.st25{clip-path:url(#SVGID_36_);}
</style>
<g>
	
		<image style="overflow:visible;opacity:0.2;" width="1055" height="1011" xlink:href="D02C24ED.png"  transform="matrix(1 0 0 1 -30.5107 -30.5714)">
	</image>
	<g>
		<g>
			<g>
				<defs>
					<path id="XMLID_98_" d="M413.1,59.9C210,59.9,45.3,224.6,45.3,427.7S210,795.5,413.1,795.5s367.8-164.7,367.8-367.8
						S616.2,59.9,413.1,59.9z M410.1,705.9c-153.6,0-278.2-124.6-278.2-278.2s124.6-278.2,278.2-278.2s278.2,124.6,278.2,278.2
						S563.7,705.9,410.1,705.9z"/>
				</defs>
				<clipPath id="XMLID_2_">
					<use xlink:href="#XMLID_98_"  style="overflow:visible;"/>
				</clipPath>
			</g>
			<g>
				<defs>
					<polygon id="SVGID_1_" points="848.7,288 409.6,462.9 409.6,0 832.3,0 					"/>
				</defs>
				<clipPath id="SVGID_2_">
					<use xlink:href="#SVGID_1_"  style="overflow:visible;"/>
				</clipPath>
				<g class="st0">
					<defs>
						<path id="XMLID_97_" d="M412.6,59.9c-203.1,0-367.8,164.7-367.8,367.8s164.7,367.8,367.8,367.8s367.8-164.7,367.8-367.8
							S615.7,59.9,412.6,59.9z M409.6,705.9c-153.6,0-278.2-124.6-278.2-278.2s124.6-278.2,278.2-278.2s278.2,124.6,278.2,278.2
							S563.2,705.9,409.6,705.9z"/>
					</defs>
					<clipPath id="XMLID_3_">
						<use xlink:href="#XMLID_97_"  style="overflow:visible;"/>
					</clipPath>
				</g>
			</g>
			<g>
				<defs>
					<polygon id="SVGID_3_" points="409.6,462.3 916.1,259.7 869.6,646.3 					"/>
				</defs>
				<clipPath id="SVGID_4_">
					<use xlink:href="#SVGID_3_"  style="overflow:visible;"/>
				</clipPath>
				<g class="st1">
					<defs>
						<path id="XMLID_96_" d="M412.6,59.4C209.5,59.4,44.8,224,44.8,427.1s164.7,367.8,367.8,367.8s367.8-164.7,367.8-367.8
							S615.7,59.4,412.6,59.4z M409.6,705.3c-153.6,0-278.2-124.6-278.2-278.2s124.6-278.2,278.2-278.2s278.2,124.6,278.2,278.2
							S563.2,705.3,409.6,705.3z"/>
					</defs>
					<clipPath id="XMLID_4_">
						<use xlink:href="#XMLID_96_"  style="overflow:visible;"/>
					</clipPath>
				</g>
			</g>
			<g>
				<defs>
					<polygon id="SVGID_5_" points="408.9,461.9 869.6,647.3 559.4,885.6 					"/>
				</defs>
				<clipPath id="SVGID_6_">
					<use xlink:href="#SVGID_5_"  style="overflow:visible;"/>
				</clipPath>
				<g class="st2">
					<defs>
						<path id="XMLID_95_" d="M413.4,58.9c-203.1,0-367.8,164.7-367.8,367.8s164.7,367.8,367.8,367.8s367.8-164.7,367.8-367.8
							S616.5,58.9,413.4,58.9z M410.4,704.9c-153.6,0-278.2-124.6-278.2-278.2s124.6-278.2,278.2-278.2s278.2,124.6,278.2,278.2
							S564,704.9,410.4,704.9z"/>
					</defs>
					<clipPath id="XMLID_7_">
						<use xlink:href="#XMLID_95_"  style="overflow:visible;"/>
					</clipPath>
				</g>
			</g>
			<g>
				<defs>
					<polygon id="SVGID_7_" points="410.7,460.9 582.6,950 311.8,878.7 					"/>
				</defs>
				<clipPath id="SVGID_8_">
					<use xlink:href="#SVGID_7_"  style="overflow:visible;"/>
				</clipPath>
				<g class="st3">
					<defs>
						<path id="XMLID_94_" d="M414,59.9c-203.1,0-367.8,164.7-367.8,367.8S210.9,795.5,414,795.5s367.8-164.7,367.8-367.8
							S617.1,59.9,414,59.9z M411,705.9c-153.6,0-278.2-124.6-278.2-278.2S257.3,149.5,411,149.5s278.2,124.6,278.2,278.2
							S564.6,705.9,411,705.9z"/>
					</defs>
					<clipPath id="XMLID_9_">
						<use xlink:href="#XMLID_94_"  style="overflow:visible;"/>
					</clipPath>
				</g>
			</g>
			<g>
				<defs>
					<polygon id="SVGID_9_" points="409.6,462.9 319.2,856.2 124.1,856.2 					"/>
				</defs>
				<clipPath id="SVGID_10_">
					<use xlink:href="#SVGID_9_"  style="overflow:visible;"/>
				</clipPath>
				<g class="st4">
					<defs>
						<path id="XMLID_93_" d="M412.2,59.9c-203.1,0-367.8,164.7-367.8,367.8s164.7,367.8,367.8,367.8S780,630.8,780,427.7
							S615.4,59.9,412.2,59.9z M409.2,705.9C255.6,705.9,131,581.4,131,427.7s124.6-278.2,278.2-278.2s278.2,124.6,278.2,278.2
							S562.9,705.9,409.2,705.9z"/>
					</defs>
					<clipPath id="XMLID_10_">
						<use xlink:href="#XMLID_93_"  style="overflow:visible;"/>
					</clipPath>
				</g>
			</g>
			<g>
				<defs>
					<line id="SVGID_11_" x1="76.3" y1="150.8" x2="220.7" y2="50.9"/>
				</defs>
				<clipPath id="SVGID_12_">
					<use xlink:href="#SVGID_11_"  style="overflow:visible;"/>
				</clipPath>
				<g class="st5">
					<defs>
						<path id="XMLID_92_" d="M473,72.5C273.2,36,81.6,168.3,45,368.1s95.8,391.4,295.6,428s391.4-95.8,428-295.6
							C805.1,300.7,672.8,109.1,473,72.5z M353.7,707.4c-151.1-27.7-251.2-172.6-223.6-323.7s172.6-251.2,323.7-223.6
							s251.2,172.6,223.6,323.7S504.9,735.1,353.7,707.4z"/>
					</defs>
					<clipPath id="XMLID_12_">
						<use xlink:href="#XMLID_92_"  style="overflow:visible;"/>
					</clipPath>
				</g>
			</g>
		</g>
		<g>
			<g>
				<text transform="matrix(1 0 0 1 726.5207 150.7557)" class="st6 st7 st8">21.39%</text>
			</g>
			<g>
				<text transform="matrix(1 0 0 1 810.5692 509.0306)" class="st6 st7 st8">15.98%</text>
			</g>
			<g>
				<text transform="matrix(1 0 0 1 639.2346 795.4896)" class="st6 st7 st8">16.58%</text>
			</g>
			<g>
				<text transform="matrix(1 0 0 1 425.0303 856.1732)" class="st6 st7 st8">9.08%</text>
			</g>
			<g>
				<text transform="matrix(1 0 0 1 217.8897 826.1732)" class="st6 st7 st8">8.03%</text>
			</g>
			<g>
				<text transform="matrix(1 0 0 1 99.0326 753.6019)" class="st6 st7 st8">5.28%</text>
			</g>
			<g>
				<text transform="matrix(1 0 0 1 27.806 688.4589)" class="st6 st7 st8">3.12</text>
			</g>
			<g>
				<text transform="matrix(1 0 0 1 -1.220703e-04 616.5458)" class="st6 st7 st8">2.37</text>
			</g>
			<g>
				<defs>
					<path id="XMLID_91_" d="M413.1,59.9C210,59.9,45.3,224.6,45.3,427.7S210,795.5,413.1,795.5s367.8-164.7,367.8-367.8
						S616.2,59.9,413.1,59.9z M410.1,705.9c-153.6,0-278.2-124.6-278.2-278.2s124.6-278.2,278.2-278.2s278.2,124.6,278.2,278.2
						S563.7,705.9,410.1,705.9z"/>
				</defs>
				<use xlink:href="#XMLID_91_"  style="overflow:visible;fill:#F2F2F2;"/>
				<clipPath id="XMLID_13_">
					<use xlink:href="#XMLID_91_"  style="overflow:visible;"/>
				</clipPath>
			</g>
			<path class="st9" d="M994.3,427.7"/>
			<g>
				<defs>
					<polygon id="SVGID_13_" points="848.7,288 409.6,462.9 409.6,0 832.3,0 					"/>
				</defs>
				<clipPath id="SVGID_14_">
					<use xlink:href="#SVGID_13_"  style="overflow:visible;"/>
				</clipPath>
				<g class="st10">
					<defs>
						<path id="XMLID_90_" d="M412.6,59.9c-203.1,0-367.8,164.7-367.8,367.8s164.7,367.8,367.8,367.8s367.8-164.7,367.8-367.8
							S615.7,59.9,412.6,59.9z M409.6,705.9c-153.6,0-278.2-124.6-278.2-278.2s124.6-278.2,278.2-278.2s278.2,124.6,278.2,278.2
							S563.2,705.9,409.6,705.9z"/>
					</defs>
					<use xlink:href="#XMLID_90_"  style="overflow:visible;fill:#21778E;"/>
					<clipPath id="XMLID_14_">
						<use xlink:href="#XMLID_90_"  style="overflow:visible;"/>
					</clipPath>
				</g>
			</g>
			<g>
				<defs>
					<polygon id="SVGID_15_" points="409.6,462.3 916.1,259.7 869.6,646.3 					"/>
				</defs>
				<clipPath id="SVGID_16_">
					<use xlink:href="#SVGID_15_"  style="overflow:visible;"/>
				</clipPath>
				<g class="st11">
					<defs>
						<path id="XMLID_89_" d="M412.6,59.4C209.5,59.4,44.8,224,44.8,427.1s164.7,367.8,367.8,367.8s367.8-164.7,367.8-367.8
							S615.7,59.4,412.6,59.4z M409.6,705.3c-153.6,0-278.2-124.6-278.2-278.2s124.6-278.2,278.2-278.2s278.2,124.6,278.2,278.2
							S563.2,705.3,409.6,705.3z"/>
					</defs>
					<use xlink:href="#XMLID_89_"  style="overflow:visible;fill:#0F8FBC;"/>
					<clipPath id="XMLID_15_">
						<use xlink:href="#XMLID_89_"  style="overflow:visible;"/>
					</clipPath>
				</g>
			</g>
			<g>
				<defs>
					<polygon id="SVGID_17_" points="408.9,461.9 869.6,647.3 559.4,885.6 					"/>
				</defs>
				<clipPath id="SVGID_18_">
					<use xlink:href="#SVGID_17_"  style="overflow:visible;"/>
				</clipPath>
				<g class="st12">
					<defs>
						<path id="XMLID_88_" d="M413.4,58.9c-203.1,0-367.8,164.7-367.8,367.8s164.7,367.8,367.8,367.8s367.8-164.7,367.8-367.8
							S616.5,58.9,413.4,58.9z M410.4,704.9c-153.6,0-278.2-124.6-278.2-278.2s124.6-278.2,278.2-278.2s278.2,124.6,278.2,278.2
							S564,704.9,410.4,704.9z"/>
					</defs>
					<use xlink:href="#XMLID_88_"  style="overflow:visible;fill:#3796B7;"/>
					<clipPath id="XMLID_16_">
						<use xlink:href="#XMLID_88_"  style="overflow:visible;"/>
					</clipPath>
				</g>
			</g>
			<g>
				<defs>
					<polygon id="SVGID_19_" points="410.7,460.9 582.6,950 311.8,878.7 					"/>
				</defs>
				<clipPath id="SVGID_20_">
					<use xlink:href="#SVGID_19_"  style="overflow:visible;"/>
				</clipPath>
				<g class="st13">
					<defs>
						<path id="XMLID_87_" d="M414,59.9c-203.1,0-367.8,164.7-367.8,367.8S210.9,795.5,414,795.5s367.8-164.7,367.8-367.8
							S617.1,59.9,414,59.9z M411,705.9c-153.6,0-278.2-124.6-278.2-278.2S257.3,149.5,411,149.5s278.2,124.6,278.2,278.2
							S564.6,705.9,411,705.9z"/>
					</defs>
					<use xlink:href="#XMLID_87_"  style="overflow:visible;fill:#1287AF;"/>
					<clipPath id="XMLID_17_">
						<use xlink:href="#XMLID_87_"  style="overflow:visible;"/>
					</clipPath>
				</g>
			</g>
			<g>
				<defs>
					<polygon id="SVGID_21_" points="409.6,462.9 319.2,856.2 124.1,856.2 					"/>
				</defs>
				<clipPath id="SVGID_22_">
					<use xlink:href="#SVGID_21_"  style="overflow:visible;"/>
				</clipPath>
				<g class="st14">
					<defs>
						<path id="XMLID_86_" d="M412.2,59.9c-203.1,0-367.8,164.7-367.8,367.8s164.7,367.8,367.8,367.8S780,630.8,780,427.7
							S615.4,59.9,412.2,59.9z M409.2,705.9C255.6,705.9,131,581.4,131,427.7s124.6-278.2,278.2-278.2s278.2,124.6,278.2,278.2
							S562.9,705.9,409.2,705.9z"/>
					</defs>
					<use xlink:href="#XMLID_86_"  style="overflow:visible;fill:#489EBC;"/>
					<clipPath id="XMLID_18_">
						<use xlink:href="#XMLID_86_"  style="overflow:visible;"/>
					</clipPath>
				</g>
			</g>
			<g>
				<defs>
					<line id="SVGID_23_" x1="76.3" y1="150.8" x2="220.7" y2="50.9"/>
				</defs>
				<clipPath id="SVGID_24_">
					<use xlink:href="#SVGID_23_"  style="overflow:visible;"/>
				</clipPath>
				<g class="st15">
					<defs>
						<path id="XMLID_85_" d="M473,72.5C273.2,36,81.6,168.3,45,368.1s95.8,391.4,295.6,428s391.4-95.8,428-295.6
							C805.1,300.7,672.8,109.1,473,72.5z M353.7,707.4c-151.1-27.7-251.2-172.6-223.6-323.7s172.6-251.2,323.7-223.6
							s251.2,172.6,223.6,323.7S504.9,735.1,353.7,707.4z"/>
					</defs>
					<use xlink:href="#XMLID_85_"  style="overflow:visible;fill:#287AA0;"/>
					<clipPath id="XMLID_21_">
						<use xlink:href="#XMLID_85_"  style="overflow:visible;"/>
					</clipPath>
				</g>
			</g>
			<path class="st16" d="M209.8,734.3"/>
			<path class="st16" d="M260.2,662.6"/>
			<path class="st17" d="M205.8,616.5c0,0,32.1,34.1,57.4,48l-51.5,71c0,0-48-34-68.2-57.6L205.8,616.5z"/>
			<path class="st18" d="M171.1,570.6c0,0,15.1,25.5,35,46.2l-62.6,61c0,0-26.5-25.8-41.4-53L171.1,570.6z"/>
			<path class="st19" d="M149.3,524.8c0,0,7.6,22.7,21.8,45.9l-69,54.2c0,0-13.6-22.9-26.2-50L149.3,524.8z"/>
		</g>
		<g>
			<g>
				<defs>
					<path id="XMLID_84_" d="M413.1,59.9C210,59.9,45.3,224.6,45.3,427.7S210,795.5,413.1,795.5s367.8-164.7,367.8-367.8
						S616.2,59.9,413.1,59.9z M410.1,705.9c-153.6,0-278.2-124.6-278.2-278.2s124.6-278.2,278.2-278.2s278.2,124.6,278.2,278.2
						S563.7,705.9,410.1,705.9z"/>
				</defs>
				<clipPath id="XMLID_22_">
					<use xlink:href="#XMLID_84_"  style="overflow:visible;"/>
				</clipPath>
			</g>
			<g>
				<defs>
					<polygon id="SVGID_25_" points="848.7,288 409.6,462.9 409.6,0 832.3,0 					"/>
				</defs>
				<clipPath id="SVGID_26_">
					<use xlink:href="#SVGID_25_"  style="overflow:visible;"/>
				</clipPath>
				<g class="st20">
					<defs>
						<path id="XMLID_83_" d="M412.6,59.9c-203.1,0-367.8,164.7-367.8,367.8s164.7,367.8,367.8,367.8s367.8-164.7,367.8-367.8
							S615.7,59.9,412.6,59.9z M409.6,705.9c-153.6,0-278.2-124.6-278.2-278.2s124.6-278.2,278.2-278.2s278.2,124.6,278.2,278.2
							S563.2,705.9,409.6,705.9z"/>
					</defs>
					<clipPath id="XMLID_24_">
						<use xlink:href="#XMLID_83_"  style="overflow:visible;"/>
					</clipPath>
				</g>
			</g>
			<g>
				<defs>
					<polygon id="SVGID_27_" points="409.6,462.3 916.1,259.7 869.6,646.3 					"/>
				</defs>
				<clipPath id="SVGID_28_">
					<use xlink:href="#SVGID_27_"  style="overflow:visible;"/>
				</clipPath>
				<g class="st21">
					<defs>
						<path id="XMLID_82_" d="M412.6,59.4C209.5,59.4,44.8,224,44.8,427.1s164.7,367.8,367.8,367.8s367.8-164.7,367.8-367.8
							S615.7,59.4,412.6,59.4z M409.6,705.3c-153.6,0-278.2-124.6-278.2-278.2s124.6-278.2,278.2-278.2s278.2,124.6,278.2,278.2
							S563.2,705.3,409.6,705.3z"/>
					</defs>
					<clipPath id="XMLID_25_">
						<use xlink:href="#XMLID_82_"  style="overflow:visible;"/>
					</clipPath>
				</g>
			</g>
			<g>
				<defs>
					<polygon id="SVGID_29_" points="408.9,461.9 869.6,647.3 559.4,885.6 					"/>
				</defs>
				<clipPath id="SVGID_30_">
					<use xlink:href="#SVGID_29_"  style="overflow:visible;"/>
				</clipPath>
				<g class="st22">
					<defs>
						<path id="XMLID_81_" d="M413.4,58.9c-203.1,0-367.8,164.7-367.8,367.8s164.7,367.8,367.8,367.8s367.8-164.7,367.8-367.8
							S616.5,58.9,413.4,58.9z M410.4,704.9c-153.6,0-278.2-124.6-278.2-278.2s124.6-278.2,278.2-278.2s278.2,124.6,278.2,278.2
							S564,704.9,410.4,704.9z"/>
					</defs>
					<clipPath id="XMLID_26_">
						<use xlink:href="#XMLID_81_"  style="overflow:visible;"/>
					</clipPath>
				</g>
			</g>
			<g>
				<defs>
					<polygon id="SVGID_31_" points="410.7,460.9 582.6,950 311.8,878.7 					"/>
				</defs>
				<clipPath id="SVGID_32_">
					<use xlink:href="#SVGID_31_"  style="overflow:visible;"/>
				</clipPath>
				<g class="st23">
					<defs>
						<path id="XMLID_80_" d="M414,59.9c-203.1,0-367.8,164.7-367.8,367.8S210.9,795.5,414,795.5s367.8-164.7,367.8-367.8
							S617.1,59.9,414,59.9z M411,705.9c-153.6,0-278.2-124.6-278.2-278.2S257.3,149.5,411,149.5s278.2,124.6,278.2,278.2
							S564.6,705.9,411,705.9z"/>
					</defs>
					<clipPath id="XMLID_27_">
						<use xlink:href="#XMLID_80_"  style="overflow:visible;"/>
					</clipPath>
				</g>
			</g>
			<g>
				<defs>
					<polygon id="SVGID_33_" points="409.6,462.9 319.2,856.2 124.1,856.2 					"/>
				</defs>
				<clipPath id="SVGID_34_">
					<use xlink:href="#SVGID_33_"  style="overflow:visible;"/>
				</clipPath>
				<g class="st24">
					<defs>
						<path id="XMLID_79_" d="M412.2,59.9c-203.1,0-367.8,164.7-367.8,367.8s164.7,367.8,367.8,367.8S780,630.8,780,427.7
							S615.4,59.9,412.2,59.9z M409.2,705.9C255.6,705.9,131,581.4,131,427.7s124.6-278.2,278.2-278.2s278.2,124.6,278.2,278.2
							S562.9,705.9,409.2,705.9z"/>
					</defs>
					<clipPath id="XMLID_28_">
						<use xlink:href="#XMLID_79_"  style="overflow:visible;"/>
					</clipPath>
				</g>
			</g>
			<g>
				<defs>
					<line id="SVGID_35_" x1="76.3" y1="150.8" x2="220.7" y2="50.9"/>
				</defs>
				<clipPath id="SVGID_36_">
					<use xlink:href="#SVGID_35_"  style="overflow:visible;"/>
				</clipPath>
				<g class="st25">
					<defs>
						<path id="XMLID_78_" d="M473,72.5C273.2,36,81.6,168.3,45,368.1s95.8,391.4,295.6,428s391.4-95.8,428-295.6
							C805.1,300.7,672.8,109.1,473,72.5z M353.7,707.4c-151.1-27.7-251.2-172.6-223.6-323.7s172.6-251.2,323.7-223.6
							s251.2,172.6,223.6,323.7S504.9,735.1,353.7,707.4z"/>
					</defs>
					<clipPath id="XMLID_29_">
						<use xlink:href="#XMLID_78_"  style="overflow:visible;"/>
					</clipPath>
				</g>
			</g>
		</g>
	</g>
</g>
<g>
	<text transform="matrix(1 0 0 1 244.8152 417.7142)"><tspan x="0" y="0" class="st6 st7 st8">Indian Manufacturing  </tspan><tspan x="-27.7" y="48" class="st6 st7 st8">Industry Sector Statistics</tspan></text>
</g>
</svg>
