<?xml version="1.0" encoding="utf-8"?>
<!-- Generator: Adobe Illustrator 23.0.2, SVG Export Plug-In . SVG Version: 6.00 Build 0)  -->
<svg version="1.1"
	 id="Layer_1" mapsvg:geoViewBox="68.184010 35.503723 97.418146 6.751272" xmlns:dc="http://purl.org/dc/elements/1.1/" xmlns:mapsvg="http://mapsvg.com" xmlns:rdf="http://www.w3.org/1999/02/22-rdf-syntax-ns#" xmlns:svg="http://www.w3.org/2000/svg"
	 xmlns="http://www.w3.org/2000/svg" xmlns:xlink="http://www.w3.org/1999/xlink" x="0px" y="0px" viewBox="0 0 612.6 691.1"
	 style="enable-background:new 0 0 612.6 691.1;" xml:space="preserve">
<style type="text/css">
	.st0{fill:#287AA0;stroke:#FFFFFF;stroke-width:0.1;stroke-miterlimit:10;}
	.st1{fill:#287AA0;}
</style>
<path id="IN-AP" class="st0" d="M298.7,472.5L298.7,472.5L298.7,472.5L298.7,472.5z M299.3,472.5l-0.4,2.4l-0.7-1l0-0.8L299.3,472.5
	L299.3,472.5z M298.7,472.5l-0.1-0.6l-0.3,0.4l-1.2,0.1l-0.1-0.7l-0.9,0.6l1.7,0.7l0,0l0,1l0.4,0.1l0.6,1.4l-7.3,3.6l-4.5,1.8
	l-3.6-1l-3,0.4l-2.5,1.3l-2.5,5.4l0.1,0.9l-2.8,2.9l-0.3,0.4l0.4,0.8l-0.9,0.8l-2.9,0.4l-0.8-1.4l0.2-0.7l0.4,0l-0.1-0.5l-2.4-0.8
	l-3,0.6l-2.1,1l-1.8,1.2l-1.4,1.6l-1.4,4.3l-2,3.2l-1,4.8l1.3,7.1l1.7,2.9l-1.4,9.5l2.3,6.2l-0.2,3.7l1.6,4.2l-2.9-5.2l-0.5-0.2
	l-0.1,1.8l-0.6-0.6l0.3-0.6l-0.4-0.1l-1.1,1.8l2.2,2l1.5,0l1.5,1.3l0,0l0,1.1l-0.7-0.4l-0.9-1.8l-1.6,0l-1.7-1.2l-1.5,0.2l-0.1,0.4
	l0.9,0.2l0.1,0.4l-0.6-0.1l-0.2,0.6l-0.7,0.2l0,0.7l-0.6,0.3l0.4,0.6l-0.6,0.8l-1.5,0.7l-1,0l-0.4,0.5l-0.5-0.4l-0.7,0.6l1.3,1
	l-0.8,0.6l-0.4-0.5l-0.7,0.3l0.1-0.5l-0.5,0.1l-0.1-1.1l-1.8,0.7l-0.6-0.4l-0.3-0.9l-2.1-0.3l-1.1,0.4l1,0.4l-0.3,1.4l0.5-0.4
	l0.2,0.3l-0.5,0.2l0,0.4l-1.5,0.5l0.1,0.7l-0.9,0.7l-0.8-0.9l-1,0.1l0,0.6l-0.6,0.4l-0.7,1.6l-1.7-0.1l-1.8-1.3l-1.3,0.2l-0.4,0.7
	l0.6,0.3l-0.9,0l-0.1-1.4l-2.6,0.8l-0.9-0.2l-0.2,1.1l-0.9-0.3l-0.7,0.8l0.7,1.2l-0.4,0l-0.9,3l-0.7,0.5l0,1.2l-0.5,0.1l-0.2-0.5
	l0,0l0,0l0,0l-0.1,0l-0.3,0l-0.1,0.8l-0.6,0l0,0.9l-1.8,0.1l-1.6-0.8l-0.5-0.8l-1.5,0.2l0.7-0.7l-0.1-0.8l0,0l0.4-1.9l1.2,0l0.8-1.6
	l0.7,0.7l1.1-0.1l-0.3-1.4l0.7,0.1l-0.1-1.4l1.1-0.4l-0.1-0.6l0.5-0.3l-0.4-0.5l1.2-0.8l-0.6-0.6l0.6-0.3l0.2-1.2l-0.4-0.8l-0.7,0.9
	l-1-1.1l-0.7,0.2l-0.2-0.4l-0.7,0.3l-0.5-0.3l0.6-0.3l-0.8-0.5l0.7-4.6l-3.3-0.2l-0.9,0.6l0.2-1.2l-0.7-0.1l-0.1-0.5l-1.5,0.3
	l-0.4-0.6l0.1-0.4l0.8,0.1l0.1-0.5l-0.5-0.5l0.7-0.9l-0.1-1.3l-1.4-0.9l-0.1,0.7l-1.1-0.2l-0.4,0.8l-0.4,0l0-1.2l0.7-0.3l-0.2-1.2
	l-1.1,1.1l-0.5-0.7l-1.4-0.1l-0.2,0.5l0.4,1l-1,0.5l0,0.5l-1.3,0.5l-0.1,1.2l-0.3-0.6l-0.6,0.2l0.1-0.5l-0.4,0l-0.8,0.4l0.5,0.4
	l-0.3,0.2l-0.5-0.3l-0.8,0.6l-0.7-0.6l-0.1,1.2l-0.5-0.4l-0.1,0.6l-0.7,0.1l0.2-2.5l-1,0l0.3-0.7l-1.3-0.2l-0.8,0.4l-0.3-0.6
	l-1.1,0.4l-0.3-1.1l-0.4,0.7l-0.1-0.4l-0.5,0.4l0-1.2l-0.4,0.4l0.1,0.9l-0.8,0.2l0.8,0.6l0.1,1.3l-1.4-0.1l-0.7,0.5l-0.7-0.7
	l-0.3,0.8l-0.4-0.2l-0.5-1.5l1-1.6l0.5-0.1l-0.1-0.6l-2.1-2l0.9-0.9l-1-1.3l-0.9-0.1l0.2-0.6l0.9-0.1l0.1-0.5l1.6,0.3l-0.2,1.5
	l0.3,0.9l1.9,0.2l0.5,1l3.3-0.7l0.8,0.9l-0.1,1.8l0.8,0l0,0.4l0.7-0.6l-0.4-0.5l0.5-0.7l-1.1,0l0.2-0.8l-1.1-0.3l1.4-1.6l-0.1-0.3
	l-0.9,0.5l0.1-0.6l0.6-0.1l0.3-0.7l2.2,0.3l-0.1-2.5l-0.8,0l-0.2-0.8l-1.1-0.3l-0.2,0.6l0.8,1.7l-0.6,0.4l-0.6-0.8l0.1-0.8l-1.6-0.1
	l0-1.1l-1,0.4l-1.6-0.5l-0.8,1L195,524l-0.6,0.1l-0.5-0.6l-2.2,0l-0.3-0.7l0.5-0.4l-1.4-1.1l0.1-0.9l0.6-0.5l0.6,0.3l0-0.9l0.6-0.7
	l-2.1,0.2l-0.9-1.1l-0.6-0.1l-0.8-1.5l0.8-2.7l-0.4-0.9l1.4-0.5l0.3-3.3l-0.7,0.3l-1.3-0.4l0.4-1l-0.2-1.1l0.5-0.4l1.6,1.3l2.1,0.4
	l0.4-0.4l0.9,0l-0.1,0.5l0.8,0.1l1.5-2.5l-0.4-0.5l0.5-0.1l0-0.9l-0.7-0.6l0.9-0.8l-0.3-0.5l-0.6-0.1l-0.1-0.8l-1,0.1l-0.7-2.3
	l-1.1-1.1l0-0.3l1.1,0.1l0.1-2.8l1-0.4l0.7,0.6l0.2-0.7l-1.6-1.6l0.4-1.8l-0.8-0.2l0.9-1.4l1.5-0.9l2.1-0.4l5.2,0.8l0,0l1.9,0.2
	l1.1,0.7l1.1-0.2l1.7,0.4l1.8-0.6l2.3,0.8l0.7-0.9l0.5,1.2l0.9,0.4l0.3-0.4l0.8,0l0.3-1.1l1.2-0.6l0.4-2.1l1.2,0l1.8-1.1l3.1,0.5
	l1.2-0.9l1.9,1.5l1.2,0.1l1.2-1.3l0-1.4l0.5,0.1l0.2,0.9l0.8,0.1l-0.1-1.6l0.4-0.4l2.1-0.9l2.9,0.6l0.8-0.5l0.1-5.6l0.8-1.1l3.2-0.4
	l1.4-1l3-0.7l2.5-1.4l0.7,0.8l1-0.2l0.8,1.3l1.1-0.1l1.8-2.1l0.4-1.4l-0.7-0.8l-0.8-0.2l0.4-0.9l0.7-1.2l1.8-0.4l1-1.2l0.4,0.7
	l1.2,0.1l0.8,1.1l0.4,1.8l0.8,0.3l0.3,0.9l0.5-0.8l1.1,0.7l0.1,0.5l2.1,0.6l0.8-0.5l-1-0.8l0.2-0.9l0.4-0.1l-0.1-1.1l-1.9-0.5
	l-0.1,0.6l-2.6-1.1l0.6-0.9l-0.4-0.9l0.6-0.4l0.5,1.1l0.5,0.2l0.7-0.7l0.3-1.2l1.3-0.6l1.9,1l-0.3,0.7l1.7-0.2l2.1,0.8l0.5-0.5
	l0.2-2l0.9,0l-0.2-1.1l1.7,0.4l1.1-0.7l2.3-0.4l0.4-1.9l1.7,0l1.1-1.5l0.9,0.7l0.9-0.1l1.6-1.8l0.2-1.9l0.4-0.6l-0.4-0.4l1.4-2
	l0.1-0.8l4.1-2.2l0.2-0.4l-0.7-0.9l0,0l0.9-0.9l3-1.2l1.5-1.4l2.7,0.3l0.3,0.7l1.3,0.6l0.5-0.1l0-1.3l0.6-0.3l0.2,0.5l0.5-0.1
	l0.1-2.1l0.5,0.4l0.2-0.3l-1.2-1.2l0.5-0.4l0.1-1.1l0.7-0.2l0.4-0.7l-1.2-0.2l1-1.1l-0.5-0.9l2.3-2.7l0.5,0.7l0.5,0l0.1,1.5l0.5-0.1
	l-0.4,1l1.3,0.4l0.2,0.5l-0.7,0.8l0.1,0.8l0.9,0.9l0.6-1.2l2.2-0.9l0.5-1.3l-0.3-0.5l0.5-0.4l0.9,0.6l0.8-0.1l0.1,1l0.8,0.3l1.7-0.7
	l0.7,0.2l0.1-1.1l-0.4,0.2l-0.4-0.5l1.5-2l-1.1-0.2l-0.1-0.4l0.5-0.4l-0.9,0l0.1-1.1l0.8-0.3l1.6-2.5l1.4,0.6l0.1,0.6l0.3-1l0.9,0.2
	l0.3-0.7l1.5-0.2l0.1-0.7l0.7,0l0.3-0.6l-1.3-1.4l0.7,0.1l-0.7-0.7l-0.3,0.8l-0.5-1.5l0.8-0.4l1.2,0.3l0.9,1.1l-0.1-1.1l0.5,0
	l0.1-0.4l-0.4-1l0.3-0.2l0.4,0.5l0.2-0.2l0.2,0.8l-0.4,0l0,0.3l0.7,0.1l0.3-1.4l0.6,0.5l0.5-0.8l-0.2-0.7l0.6-0.7l1.5,2.9l0.5,0.1
	l-0.3,0.6l0.8,1.4l0.7,0.2l-0.8-1.5l0.9-0.6l1.7,4l1.4,0.5l1.7-0.1l1.1,1.2l0.8-0.1l0.6-0.6l3.6-0.3l0.1-1.6l0.5,0.3l0.2-0.3
	l-0.4-0.3l0.7,0.1L340,427l0.6,0.2l0.6-0.6l-0.3-0.5l0.5-0.6l-0.5-1l1.1,0.7l0.4-0.8l1.5-0.9l0.4,1.1l0.5-0.9l0.8,0.1l0-0.6
	l-0.7,0.1l-0.6-1l1.4,0l0.1-0.7l0.7,0.1l-0.2,0.7l0.5,0.5l0,0l0.8,0.5l-3.6,4.1l-0.6,1.8l-1.8,1.7l-2.2,3.3l-4.6,4.3l0,0.9l-8.1,4.1
	l-2.9,2l-0.9,1.4l-2.4,2.2v0.7l-1.3,1.8l-2.6,2.8l-12.1,6.1l-4.8,3.7l-1.4,1.8l-0.5,1.9l-0.5,0.2l0.1,0.9l1.1,1l0.8-0.2l-0.2,2.4
	L298.7,472.5L298.7,472.5z"/>
<path id="IN-AR" class="st0" d="M575.5,198.3l0.6,0.9L576,200l1.2,1.7l1,0l1.4-1.1l0.6,0.7l-0.9,1.9l-1.7,0.2l-1.5,1.5l-1.4,0.4
	l0.7,0.6l0.7,1.5l-0.8,1.1l0.4,0.7l1.6-0.8l2-2l1.8-0.1l1.8-0.9l-1,1.9l0.2,0.7l0.6-0.1l0.4,2l1.6,2.4l-0.6,1.3l-2.3,0.8l0.4,1.1
	l-1.3,1.2l-0.5-0.2l0.1,0.7l-1,0.1l-0.6,0.6l0.9,1.1l-2.2,1.7l1.1,0.6l1-0.2l0.6,1.1l0.5-0.1l0.7-1.5l1,0l1.4-1l1.7-0.1l1.7,1
	l0.5,1.1l1.6,0.1l0.9-0.4l0.5,0.9l1.4,0.6l1.9-1.2l1.6,1.6l2.2,0.5l2.4,1.7l-0.7,0.1l-0.7,0.8l0.2,1l-0.6,1l1.3,0.2l0.1,0.7l0.8,0.3
	l-0.7,0.9l0.2,2l-1.4,0.2l-0.2-0.9l-1,0.5l-3.1,2.6l-0.1,1l-1.4,0l-1,1.7l-0.7,0.1l-0.9,1l0.8,2l-0.5,1.5l5.2,7.3l-0.5,0.8l-0.8-0.4
	l-0.7,0.3l-1.7-1.3l-2.2-0.6l-0.2-0.6l0.5-0.4l-0.1-0.7l-0.5-0.1l-1.2-1.8l-1.8-0.6l-0.3,0.3l-1.7-0.1l-1.8,1.7l-1-0.4l-4.7,0.6
	l-4,2l-2,3.2l-1.2,0.7l-1.4,0l-1.5,3l-1.1-0.5l-1.2,2l-1.6-0.2l-2.1,2.9l-2.5,1l-1.3-0.7l0,0l-0.4-1.1l0.6-1.2l-0.6-0.2l-0.1-1.2
	l-0.5-0.3l1-0.6l-0.8-3.4l0,0l1.1,0.3l2-1.7l2.2-0.7l0-1.7l1.1-1.2l1.5,0.9l4.3-1.4l1.1-0.1l0.7,0.7l0.2-0.6l2.2-1.7l-0.8-1.5
	l-0.2,0.3l-0.4-0.5l-0.7,0l-0.5,0.8l-0.1-0.9l-0.4,0.6l-0.4-0.3l0.8-1.7l-0.2-1.1l-0.8-0.3l-0.3-0.8l-0.7-0.5l0.3-0.6l-0.5-0.5
	l0.4-0.4l-0.8-1l0.6-0.2l-0.1-0.4l0.9-1.1l2.1-1.8l1-1.8l-3-0.2l-4.4,0.4l-1.8,1.7l-2.6,0.9l-1.4-0.7l-5.7,2.2l-3.4,0.8l-0.4,0.8
	l-0.9,0.1l-0.8,0.7l-1.3,0l-0.1,0.4l-4.4,2.1l-0.6-1l-1.3,0.6l-1.4-0.6l-0.4,0.2l-0.5-1.1l-0.8,0.7l0.9,1.2l0.1,0.8l-2,1l-1.9,2.6
	l-2.1,1.5l-3.2,3.5l0.5,0.4l0.2,1l-1.2,0.3l-1.9,2l-3.7,0.7l-2.8-0.6l-6.6,1l-2-1.1l0-0.5l-0.9-0.5l-4.3-0.7l-0.4,0.4l0.1,0.7
	l-1.2,0.6l-2.5,0l-1.2,0.8l-0.9-0.2l-1.5,0.7l-3.4,0.2l0,0l-0.1-2.5l-1.4-1.3l-0.2-2.2l0.9-1.4l-0.6-1l1.2-0.1l0.4-0.4l-1.2-0.9
	l-0.1-1.6l-0.7-1.8l-1.6,0.4l-1.5-0.5l-2.9,0.3l-0.6-0.7l-0.9,0.4l-1.6-2l0.2-0.7l-0.4-0.6l1.3-1.6l0.3-1.3l-0.2-0.8l-0.6-0.4
	l-0.7,0.1l-0.4-0.9l2.4-0.1l1,1l2.3,0.1l0.7,1.6l1.2,0.5l1.3-1.2l1.4,0.2l3.1-2.2l1.1,0l1,1.8l1.3-0.4l0.5-0.6l1,0.4l0.9-0.9
	l1.2,0.5l0.9-1.3l1.3-0.5l1.4-2l-1.5-1.7l0.5-1.4l2.2-1.7l0.5,0.7l1.4-0.7l1.4-1.3l0.7,0.7l0.7-0.7l-0.2-0.9l3.9-0.7l0.3-1.5l-1-0.9
	l1.9-1.5l0.6-1.4l-0.1-0.8l0.6-0.2l0.2-0.7l2.2-0.8l0.6,0.5l0.3-0.7l0.9,0.6l1.7,0l2.2-0.7l0.9,0.5l1.4-0.9l1.6,0.8l1.5-2.4
	l-0.3-0.5l0.2-1l3.2-2.6l1.2-2.9l1.5-1.5l1.4-0.1l0.3-0.9l1.2-0.8l2.5,0l1.4-2.7l1.7,1l1.3,1.4l0.4,1.7l1.5-0.4l3,1.2l-0.5-1l2,0.7
	l0.5,0.6l2.6,0.1l0.3,1.2l2.9,0.5l0.9-0.1l0.6-0.8l0.3-1.6l1,0.3l-0.2-1.9l1-0.1l0.3-1l0.8,0.3l2.8-2.4l0.4,0.5l1.7-1.3l1.5,0.2
	l2.5-1.8L575.5,198.3z"/>
<path id="IN-AS" class="st0" d="M449.9,284.3l0.2,1.2l-0.5,0.3l0,0L449.9,284.3z M494.6,254.4l3.4-0.2l1.5-0.7l0.9,0.2l1.2-0.8
	l2.5,0l1.2-0.6l-0.1-0.7l0.4-0.4l4.3,0.7l0.9,0.5l0,0.5l2,1.1l6.6-1l2.8,0.6l3.7-0.7l1.9-2l1.2-0.3l-0.2-1l-0.5-0.4l3.2-3.5l2.1-1.5
	l1.9-2.6l2-1l-0.1-0.8l-0.9-1.2l0.8-0.7l0.5,1.1l0.4-0.2l1.4,0.6l1.3-0.6l0.6,1l4.4-2.1l0.1-0.4l1.3,0l0.8-0.7l0.9-0.1l0.4-0.8
	l3.4-0.8l5.7-2.2l1.4,0.7l2.6-0.9l1.8-1.7l4.4-0.4l3,0.2l-1,1.8l-2.1,1.8l-0.9,1.1l0.1,0.4l-0.6,0.2l0.8,1l-0.4,0.4l0.5,0.5
	l-0.3,0.6l0.7,0.5l0.3,0.8l0.8,0.3l0.2,1.1l-0.8,1.7l0.4,0.3l0.4-0.6l0.1,0.9l0.5-0.8l0.7,0l0.4,0.5l0.2-0.3l0.8,1.5l-2.2,1.7
	l-0.2,0.6l-0.7-0.7l-1.1,0.1l-4.3,1.4l-1.5-0.9l-1.1,1.2l0,1.7l-2.2,0.7l-2,1.7l-1.1-0.3l0,0l-1.7,1.7l-1.8,0.9l-0.7,0.2l-1.1-0.8
	l-0.8,0.4l-1.7,2.8l-2.3,1.6l-1.2,0.3l-0.5-0.5l-0.6,1.1l-0.6-0.4l-1.5,0.9l-0.1,0.8l-1.1,0.5l-0.2,1.8l-1,0.5l-0.7,1l-0.5-0.4
	l-0.1-1.9l-0.3,0.1l-1.8,2.2l-0.2,2.6l-1.3,0.4l-2.1,3.4l-0.3,2.2l-0.7,1.4l0.5,1.9l-1.3,0.7l-0.7,0.9l-0.8-0.4l-0.9,1.1l-0.3-0.7
	l0.4-1.4l-0.5-1.2l-0.4,0.7l-1.3,0.6l0.4,1.3l-2.6,1.9l-1.5,2.3l-1.4,0.6l-1.9,1.9l1.3,1.8l1.3,0.6l0.3,1.2l-0.5,0.8l0.4,0.8l0,0
	l-1.7,1.4l-1.1,3.3l-0.6,1l-0.7,0l-0.4,0.7l0.3,1.5l-0.4,0.3l0.3,0.4l-0.5,0.9l-0.6,0.5l0,1l-0.9,0.5l-0.6-0.7l-0.3,0.2l-0.1,1.5
	l-0.6,0.7l0.6,0.8l-0.6,1.7l0.6,0.3l-0.9,0.2l0.2,0.3l-0.7,1.4l0.1,1.9l-0.8,0.2l0,0l-1.3,0.2l-0.5-0.4l-0.1,0.4l-0.8-0.1l-0.7,0.5
	l-1.3-3.1l-1.5,3.6l-1.3,0.5l-0.3,1.7l-1.2,0.2l-0.4,1.5l-0.9,0.3L502,315l-0.9-0.2l-0.3-2.2l-2.5,0l0,0l-1.7,0.1l1.2-2.8l-0.8-1.8
	l0-1l0,0l0.4-3.3l0.9-1.7l-1.2-3.6l1.2-0.5l1.9,1.5l0.8,0l0.3-0.6l0.9,0.1l0.3-0.7l-0.3-1.1l-0.4,0.3l-0.3-0.2l0.4-0.1l-0.3-0.4
	l-0.6,0.1l-0.1-1.3l0,0l0.7-0.1l0.4-1.6l1.2,0.2l-0.4-0.9l1.9,0.5l0.9-1.3l2.7-0.9l-0.8-0.7l0.5-0.8l-0.2-1l-0.5-0.1l-0.5-1
	l-0.4,0.1l-0.9-0.9l-0.3,0.1l-0.1-0.5l-0.9,0.4l-0.2-1.2l-0.6,0.1l1.5-1.5l0.2-1.2l-1,0.8l-0.6-0.1l-0.3-1.1l-1.1-0.2l-0.7-1.3
	l-0.7-0.2l0-0.9l-1-0.5l-1,0.6l-2.1,0.2l-1.4,1l-0.2-3.1l0.5-1.3l0.9-0.8l-1.2-0.1l-0.1-0.7l2.8-3l-1.1,0.4l-1.3-0.4l-0.9,0.7
	l-1.6,0.3l-1.2-0.2l-1.4,0.9l-1-1.2l0.1-1l-1.1-0.5l-1.8,1.3l-0.2,2.3l-1,1.1l-1.2-0.8l0.5-0.6l-0.1-1.3l-1.1-0.2l-1.5,2.5l0.6-0.1
	l-1.1,1.2l0.7,0.1l0.4-0.5l-0.1,0.4l-1.6,0.7l-0.5-0.3l-1.7,0.4l-1.2,2l-1,0.5l-0.6-0.1l-0.2-1l0.3-1.8l-2.7,0.9l-0.3-0.2l0.6-0.5
	l-0.6,0.1l-1,0.6l0.6-1.5l-1.2,0l-0.5-1.3l-0.5,0.1l0.1,0.7l-0.7-0.8l-0.9,0.3l-0.5-0.3l-0.6,1l-0.7-0.2l0.1-0.9l-1.2,0.1l-1.2,1.1
	l-0.4-0.3l0.4-0.6l-0.9-0.5l-1.4,1.4l0.4-1.4l-1.1-1.3l-1,0.6l-0.6-0.6l-0.6,0.1l-0.8,0.8l-2.8,0.7l-1.3-0.4l-2.3,1.8l0.3,0.3
	l-0.3,0.4l-1.3,0.5l0.2,1.1l-0.4,0.7l-0.8,0.2l2.5,2.9l-2.9,1.3l0,0l0.3-1.9l-1-1.9l0.2-1.1l-0.6-1.1l1.5-2.7l-0.8-0.1l-0.2-0.4
	l0.7-0.3l-0.7-0.8l0,0.7l-0.3-0.1l-0.4-1.2l-0.5,0.1l0.5-0.5l-0.1-0.6l-0.8-0.5l0.2-0.4l-0.4-0.6l-0.6-0.2l0,0l0.3-0.2l-0.8-0.3
	l0.7-0.5l-0.7-0.1l0.6-0.5l-0.5-0.7l0.4,0.3l0.2-0.3l-0.4-0.8l0.8,0.4l-0.2-0.7l0.6-0.2l0-0.5l1.5-0.7l-0.2-0.4l-0.4,0.1l0.9-1.4
	l-0.4-0.6l0.2-2l0.3-0.1l-0.4-0.9l0.4-0.6l-0.4-1.2l0,0l0.1-0.7l1.9,0.3l3.8-0.7l0.9-0.3l-0.1-0.9l0.6-1l1.7,0.1l1.1-1.1l1.1-0.1
	l3,2.2l3,0.7l6.8-0.3l0.9-0.9l3.3,0.3l1.5,0.6l1.4-1.2l1.7,1l2.6-0.7l1.3,0.4l2.3-1l1.1-1.4l0.8,0l1.8,1.3l1.2,0.2l0.9-0.3
	L494.6,254.4L494.6,254.4z"/>
<path id="IN-BR" class="st0" d="M414.7,262.3L414.7,262.3L414.7,262.3L414.7,262.3z M335.1,240.6l0.7-0.1l0,0.7l1.1,0.4l0.1,0.6
	l0.9-0.2l0.8,1.5l6.5,1l1.4,2.8l-0.3,2.7l-0.6,1.1l2.3,1l0.3-0.3l0.4,0.5l0.7-0.5l1.2,1.1l1.4,0.2l0.3,0.5l-0.2,0.5l1.8,0.7
	l-0.8,0.7l3.5-0.2l-0.4,1.2l0.7,1.2l2.5,0.4l1.5-1.1l0.9,0.2l3.6-2l2,1.7l0,3.1l1.7,1.2l0.7-0.2l0,0.9l2-1l0.2-0.8l1.4-0.3l2.2,0.8
	l0,0.5l1.1-0.2l0.5,0.6l0.7-0.6l1.5-0.1l4.3,1.8l0.6,0.9l3.2,1.7l0.7-0.8l1.4,0.4l1.2-0.5l0-0.5l0.8-0.1l0.1-0.6l1.6-0.3l0.6-1.2
	l0.5,0l0.4,3l1.4,1l1.9-0.2l0.2,0.8l0.9,0.1l0.6,0.5l0.6-1.3l2-0.7l2.8,1.3l0.9-0.3l0.5-0.9l1.1,0.6l0.7-0.1l0.5-1.3l1.2,0.7
	l0.8-1.1l0.8,1.5l1.3,0.6l0.1,0.6l0.6,0l0.1-0.6l1.2-1l0.2-2.2l0,0l0.8,0.5l0.5-0.6l1.3-0.3l0,0.4l-1.1,0.9l0.3,0.4l0.6-0.1l0.1,0.6
	l0.8,0.6l-0.7,0.6l0.1,0.4l0.6-0.1l0.5,0.6l-1.6,1.6l-1.4,0.6l-1.5,1.7l-0.6,0l-0.5,0.8l-1-0.2l0.1,1.6l-0.6-0.1l-0.1,0.3l-0.4-0.5
	l-1.4,1l-0.2,2.4l-0.5,0.5l0.4,0.9l1.8,0.4l-0.5,0.5l0.5,0.3l-0.2,1l0.7,0l0.6,1l1.7,0.8l-0.3,1.2l0.4,0.1l-0.7,1l0.3,1.1l0.7,0.7
	l0,0.5l-0.9-0.1l-0.4-0.5l-0.1,0.4l-0.4-0.2l0-0.5l-1.2-0.3l-0.5,0.7l-0.4-0.3l-0.3,1.1l-0.6,0l-0.5,0.7l-0.5-0.2l-0.4,0.9l0.1,0.6
	l0.5,0.1l-0.1,0.9l1.4,1.2l-0.7,1l0.3,0.8l-1-0.5l0,0l-0.1-0.6l-1.5-0.2l-0.5-1.2l-1.5,0l-0.5-0.8l-0.7,0.4l-0.2,1.1l-1.2-0.3
	l0.3,0.7L402,291l0,1l-1.6-0.7l-0.4,0.5l-0.9-0.4l-0.6,2.9l-0.8-0.4l-0.8,0.4l-1.3,1.4l0.2,3l-0.1,0.6l-0.7,0.1l-0.7,0.7l0.4,0.5
	l-0.9,4.3l-2.4-0.8l-0.6,1.2l0.3,1l-0.7-0.6l-0.4,0.4l-0.4-0.4l-0.7,0.1l0.1-0.7l-0.6-0.6l-0.5,0l-0.4,0.9l-1.3,0.3l-1.3-1l-1.1,1.5
	l-0.8,0.4l-0.3,2l-0.5,0.1l-0.3,1.2l-0.7-0.2l-1.3-1.4l-1.4-0.4l0.7-1l-0.2-1.1l0.4-0.6l-1.2,0.2l-0.9-0.8l-0.4,0.6l-1.2-0.4
	l-0.2-2.2l-0.8-0.9l-0.9,0.1l0.2-0.8l-2,1l-1.4-1.5l-2,0l-0.8-0.5l-0.8,2.4l-0.9,0.6l0.3,2.3l-1.8-0.5l-0.2,0.8l-0.6,0l-0.4,0.9
	l-0.6-0.6l-4.1,0.5l0,0.6l-2.6,0.7l0.4,0.7l-1.6,1.1l-0.5-0.2l0.2-1.2l-0.5,0.5l-1.3,0.1l-0.4,0.8l-1.4,0.1l-0.4-2l-0.9,0.2l0-1.3
	l-0.7-0.4l-2.3,1.6l-0.4,1.4l-1.7-0.4l-0.1,0.6l-0.9,0.2l0.1,0.8l-0.6,1.1l-0.8-1.1l-0.7,0.2l0.1-0.6l-0.8-0.7l-0.9-0.1l-0.4-0.6
	l0.3-0.2l-0.7-0.4l0-0.7l0.6-0.5l-0.7-1.4l-0.5,0l0.2,0.3l-0.5,0.5l-0.4-0.5l-0.3,0.4l-0.6-0.4l-0.3,0.2l0.1,0.8l-0.7-0.7l-0.1,0.8
	l-0.6,0.5l-1.3-2.9l-1.1-0.6l-1.3,2l-1.2,0.3l-3,0.6l-4.4-0.5l0,0l0.9-2.2l-0.9-0.6l0.3-0.6l-0.7-0.5l0-0.7l-0.5,0.1l-1.3-1.1
	l0.1-1.1l-0.7-0.8l-0.2-3.1l-0.5-0.1l0.8-2.3l-0.4-1.3l0.3-0.4l0.8-0.2l0.4-0.9l1-0.1l1.6-1.4l0.5,0.2l1.2-0.5l0.6-0.8l0.8-0.1
	l-0.3-0.2l0.4-0.4l0.2,0.2l0.6-0.5l0.6,0.5l0.7-0.5l-0.1-0.5l0.9-0.1l-0.6-0.6l0.8-0.2l1.3-1.9l3.2-1.7L334,281l0.5-0.5l1.1-0.2
	l0.9,0.6l0.2,0.7l1.7,0.2l0-0.3l0.7,0.1l0.3-1.6l1-0.1l0.4,1.1l0.9-0.3l0.8,0.8l0.7-0.1l0.2-0.9l-0.1,0.7l0.4,0.2l0.1-1.2l1.5,0.2
	l-0.6-0.7l0.4-0.7l-1.3-1l-0.6,0.1l0-1l-2.1-0.3l-0.3-0.9l-1.1-0.6l-1.1,0.3l-1.9-1.2l-0.7,0.2l0-0.8l-1.5-1.6l-0.8-0.1l-0.6-1
	l-0.1-2.1l1.4,0.4l0.7-0.9l0.9,0.4l0.4-1.6l-0.2-1.3l-2-0.2l-1.2-1.4l-0.6,0.3l-1.6-0.3l0-1.5l1.2,0.2l0.2-0.5l1.5-0.3l0.7-1.2l0-1
	l3.8,1l2.8-0.6l-0.2-1l-1.5-0.3l-0.6-1.5l-1,0.5l-0.3-0.2l-0.2-0.4l0.6-1.1l-0.2-1.2l-0.6-0.2l-0.8,0.8l-0.7-0.5l0.2-0.7l-0.8-0.3
	l-0.2,0.5l-0.8-0.3l-0.1-0.9l-0.5-0.2l0.4-0.4l-0.1-1.8l-1-0.5l0.6-0.6l-1.6,0.1l0.8-2.4l-0.5-0.8l-1.1-0.5l0.6-1l-0.2-0.5l-1.2,0.3
	l-0.5-0.3l0.6-0.6l0,0l1-0.7l-0.7-0.2l-0.1-0.8l1.3-0.5l1.9,0.4l1.4-1.2l0-0.6L335.1,240.6L335.1,240.6z"/>
<path id="IN-CH" class="st0" d="M189.3,168.4l-0.5,0.4l-1.4-0.6l-0.7-1.5l1.4-0.9l0.2,0.5l0.5-0.2l-0.1,0.4l0.7,0.1l0,0L189.3,168.4
	z"/>
<path id="IN-CT" class="st0" d="M319.2,315.9l2,0.4l0.4,0.9l1.2,0.3l0.7,2.8l0.7,0.3l-0.3,0.5l2.7,0.9l0.7,1.4L327,325l1.2,1.8
	l3.2,0.8l0.1-1.3l1.4-0.2l0.3,1.9l-1.1,1.9l-0.1,1.6l0.8,0.6l0.7-0.5l0.5,1l-0.7,4.1l1.9,1.2l0.4,2.5l0.8-1.3l0.5,1l1.1-0.3l0.1,0.6
	l1.8-0.3l0.4,0.8l-0.4,1.6l-0.8,0.1l-0.9,2.1l-0.6,0l-0.6,0.6l-0.1,1.4l-1.4,0.7l-1.4,0l-1.5,1.4l-0.1,1l0,0l-0.4,0l-0.1,0.4
	l1.3,0.8l-0.7,2.1l-2.9,0.5l-2.2,2.2l-1.2-0.1l-0.9,0.4l-1.7,2.6l0.8,0.8l-1.2,0.2l-0.1,2l0.4,0.7l0.9,0.5l-0.6,0.8l0.3,0.6
	l-1.1,0.2l0.1,0.8l-0.9-0.4l-0.5,0.7l0.3,0.9l-1.3,1.4l1.3,1.1l-0.6,0.4l-0.2-0.9l-1.2,0.8l-0.9,2.5l0.3,1.1l0.9,1l0.2,1.1l-0.6,0.2
	l-2.1-0.7l-0.3,1.3l0.4,0.6l-1.1,0.5l-0.6,2.7l-1.4,0.7l-1.6-0.4l-1.7-1.2l-1.5,0.6l-1.3-0.2l-0.5,0.4l-0.7-0.4l-2.3,0.2l0.2,1
	l-0.7,0.7l0.3,0.7l-1.4,2l-1.3,0.8l-0.5,1.7l-0.9-0.1l-0.3-0.8l-1.1-0.5l-0.2,2.7l0.7,2.9l-0.9,1.5l1.1,0.9l0.2,1.2l0.4-0.4l0.4,1
	l-0.7,1.9l0.7,1.1l-0.5,0.4l0.2,1.3l-0.7,1.2l0.2,1.8l4.1,1.6l0.7-0.3l1.5,0.2l-0.1,2l0.3,0.5l-0.3,0.8l-1.1,0.1l-1.2,1.1l-0.3-1.1
	l0.4-0.9l-3-0.8l-1.1,0.4l-1,1.1l-2.2-3.5l-1,0.4l-2.4-1.5l-0.7,0.8l-1.7-1.9l-1.5,1.4l-0.6,1.8l0.2,0.9l2.2,1.1l0.4,1.2l1.6,0.3
	l-0.4,1.7l0.2,3.5l-0.5,0.8l1.4-0.2l0.5,1.8l1.3,0.1l-0.3,1.1l-0.5,0.1l0.8,0.9l-0.6,1.1l0.5,2.2l-0.4,0.7l0.8,0.2l0.2,0.6l-0.4,0.6
	l0.6,1l0.3,2.2l-1.3,0.3l-0.2,2.2l-0.6,0.7l-1,0l-0.1,0.9l-0.9-0.1l-1.3,0.6l-0.4,1.3l-1.2-0.5l0.1,0.6l1.3,0.7l-0.2,0.6l-0.8-0.1
	l-0.2,0.7l-0.8,0.3l-1.9,2.1l-0.3,1.4l-1.7,0.1l0,0.6l-1.3,0.2l-1.3,0.9l-0.5,1.6l0.4,0.6l-0.3,1.4l-0.7,1.3l0.1,1.2l-0.8,2
	l-0.9-0.2l-0.2,1.6l0,0l-2.6-0.1l-1.9-0.8l-1.7,1.4l-0.8-0.1l-1.8-6.1l0.6-1.8L270,443l-0.3-1.4l0.4-0.2l-0.8-0.6l-0.6,1.4l-1.3-0.1
	l0-1l1.1-0.7l-0.9-1l-0.6-1.7l0.2-0.5l-0.7-0.2l0.2-0.3l-1-0.8l-0.4-1l-3-2.3l-2.8,0.9l-1.5-2.8l0,0l-0.5-0.9l0.7-0.1l1.4-1.2
	l-1.6-2.2l0-1.2l1.1-1.8l0.1-1.4l1.2-1l-0.1-1.1l1.1-0.5l0.8-1.6l1.8-1.4l0.8,2l1.2-0.4l0.3,0.9l1.2-0.1l1.9-1.6l-1.1-1.4l2.1-0.8
	l-0.3-1.1l-0.7-0.2l-0.4-0.7l-1.2-0.1l-0.9-0.8l-1.3-0.1l0.2-1.7l-2.5-1.7l0.1-0.9l-1.5-0.1l0.2,1.1l-0.5-0.4l-1.2,0l0.1-0.5
	l0.7,0.1l1.3-1.2l-0.3-0.6l-1.5-0.1l0-0.6l0.7-0.4l0.7,0.5l0.8-0.1l0.5-1.2l0-1.7l-0.1-0.9l-0.8-0.6l-2.1-0.1l-0.2-0.4l0.6-0.6
	l-0.6-1.1l2.6-0.6l0.6-0.8l1.5-0.6l-0.6-1.3l0.7-4.4l-1.1-0.2l-1.1,0.6l-0.6-0.7l0.5-0.8l1.4-0.6l-0.7-1.7l-0.1-3.6l-1.7,0l-0.6-1.6
	l0.5-0.6l-0.3-1.3l0.5-1.6l3.6-1.6l0.8-1l-0.3-0.7l0,0l1.5-3l-0.4-2.4l0.2-2.7l0.5-1l1.4,0.2l0.4-1.2l0.1-2.8l-0.4-0.5l0.5-0.1
	l1.3-3.4l0.8,0.1l0.3,1.2l0.7-0.1l0.1-0.8l-0.7-0.4l0.9-0.4l0.1-2.1l1.3-0.4l0.6-1l-0.1-3.1l1.4-1.1l0.8,0.8l1.1-1l0.6,0.4l0.4-0.9
	l1.1,0.4l0.4,1.4l0.6-0.8l0.5,0.3l-0.2-0.6l0.8,0l0.8-1l1.9,0l0.2-0.5l0.5-0.1l0.2-1.4l1-0.4l0.3-0.6l0.4,0.6l0.4-0.3l-0.3-1.4
	l0.8-0.9l-0.5-1.5l0.2-0.8l1.7-0.4l0.1-0.5l1.6-0.9l-0.4-1.8l0.4-0.8l1.7,0l0.9-0.8l1,0.3l0.7-0.8l-0.2-1.9l0.9-1.2l-0.1-0.9l-1-0.8
	l-0.5,0.1l-0.2-0.9l-1.1,0.4l-0.6-0.2l0-0.8l-0.8,0.2l-1.2-2.6l-1.8,0.4l-0.5-0.7l-1.4-0.5l-0.9,1l-0.8-0.2l-0.5,0.9l-0.4-0.4l0-0.9
	l-0.6-0.1l-0.1-0.7l0.7-0.2l0.2-1.3l0.6,0l0.9-1.3l-0.3-0.7l-0.7-0.4l-0.2-1.3l-0.6-0.5l0.2-1.2l1-0.4l1.2,1.4l-0.1,0.4l1.3,0.6
	l1.4-0.3l1.3-1.1l0.7,0.4l1-0.2l0.9,0.9l2.3,0l0.8-0.7l-0.1,0.5l0.5,0.5l0.6-0.3l1.5,0.4l2.6-0.2l1.1,0.6l0.6-0.2l-0.3-0.6l1.2,0
	l1.3-0.7l0.1-1.1l1.8-0.3l1.2-0.9l0,0l2.6,1.9l3,0l2.1-0.9l0.5-1.5l1.2-0.7l0.3-1.1L319.2,315.9z"/>
<path id="IN-DD" class="st1" d="M66.5,387.6l0.1-1.7l1.3-3.1l0.6,0.6l1.5-0.2l0.8,0.5L71,385l-1.7,0.7l1.6,0.6l0,0.6l-0.5,0l0,0.6
	l-0.4,0l0.9,1.2l0,0l-0.4-0.2l0.1,0.3l-1,0.3C69.5,389.1,66.5,387.6,66.5,387.6z"/>
<path id="IN-DL" class="st0" d="M196.6,210.1l0.6,0.7l-0.4,0.9l0.6,0.2l1.2,1.7l0.8-0.1l-0.2,1.6l0.5,0.8l-0.8,1l0.9,1.3l0,0
	l-1.9,0.6l-0.3,0.5l0.3,0.8l-1.5,0.5l-0.9-0.8l-0.2-1.2l-0.7-0.6l-0.5,0.1l-0.9-0.6l0,0.6l-0.7-0.3l-1.8,0.4l-0.8-1.1l-0.1-0.8
	l0.4,0l0.5-1l1.1,0l-0.3-0.4l0.7-1.1l-0.2-2.6l1.8-0.4l0.9-1.1l1.1,0.4l0.2,0.5L196.6,210.1z"/>
<path id="IN-DN" class="st0" d="M117.3,401.2l-0.6,1.5l-0.9-0.7l-1.6-0.3l-0.2,0.7l-0.9-0.9l0.1-0.5l-0.6,0.5l-0.3-0.4l0.3-0.9
	l-0.3-0.9l0,0l-0.9-1.4l0.4-0.3l0.8,0.5l0.1-0.4l0.6,0l0-0.6l0.5,0.6l0.1-0.7l0.8-0.1l0.3-0.7l0.1,1.2l1-0.3l0.3,0.6l-0.4-0.1
	l-1,1.2l-0.7,0l0.1,1.5l0.2-0.4l0.6,0.4l0.5-0.3l-0.1-0.7l1.3,0.2l0.4,0.4l-0.6,0.9L117.3,401.2z"/>
<path id="IN-GA" class="st0" d="M126.6,493l3.1-0.3l0.6-1.2l0.3,1l1.3,0.2l0.5,2l0.6,0.7l0.6,0.1l2-0.9l0,0l0.9,0l0.3-0.6l0.5,0.7
	l0.4-0.4l0.5,0.3l0.3,0.9l-0.3,0.9l0.7,0.8l-0.6,0.8l0.5,1l0,1.1l0.9,0.4l0.3,1.5l-1.7,0.7l1,0.7l0.3,0.8l-0.6,0.8l-0.2,1l0.5,1.2
	l-0.8,1l0.2,0.5l-1.2,0.9l-0.8-0.6l0.1,0.9l-0.7-0.2l-0.8,0.5l0,0l-1.1-0.5l0.2-0.8l-1.7-2.2l-1.1-0.4l0.7-1.3l-1.1-3.8l-0.4-0.8
	l-0.6,0.2l-1.2-1l1.9,0.3l0.4-0.4l-1-0.8l-1.2-0.2l0.4-0.7l-0.8,0l-0.6-2.5L126.6,493z"/>
<path id="IN-GJ" class="st0" d="M45.6,351.4l0.6,0.7l-0.4,0.5l-1-0.7L45.6,351.4L45.6,351.4z M35.8,351l0.2,0.3l-1.2,0.9l0.2-0.9
	L35.8,351z M53.3,348.5l0.4,0.5l-1.4,0.4l0.1-0.6L53.3,348.5z M24.3,333l1.1,0.4l0.1,0.5l-0.8,0.2l0,0.3l-0.7-0.6l0.6-0.2L24.3,333
	L24.3,333z M24.9,331.7l0.6,0.4l0,0.6l-0.8-0.5l-0.2-0.4L24.9,331.7L24.9,331.7z M22.6,329.4l0.4,0.5l-0.2,1.1l-0.5-0.3l0.1-0.8
	l-0.8,0.7l-0.2-0.3L22.6,329.4z M22.8,326.8l0,0.8l-1,1.2l0.1-1.1L22.8,326.8L22.8,326.8z M22.2,326.2l0.2,0.5l-0.5,0.3l-0.1-0.6
	L22.2,326.2z M20.3,322.3l0.8,0.4l0.6-0.2l-0.7,3l-1.5,1.5l-0.8-0.2l0.4-0.2l-0.4-0.4l-0.6,0.2l0.2,0.3l-0.6,0l0.1-0.4l-0.6,0.2
	l-0.2-0.6l0.4-0.5l1.3,0l1.2-1.6L20.3,322.3z M19.5,322.5l0.1,1.4l-0.9,0.6l0-1.8L19.5,322.5z M23,321.8l0.4,1.7l-1.6,0.3l0.4-0.8
	l-0.2-0.7L23,321.8L23,321.8z M20.8,321.1l0.5,0l0.3,1.1l-1.2-0.1l-0.1-0.5L20.8,321.1z M22,319.5l0,1.4l-1.3-0.1l-0.5,0.7l0.1-1.1
	L22,319.5z M23.8,319.4l0.4,0.5l0.5,0.1l-1.3,1.2l-0.5-0.2l0.1-0.5l0.9-0.6L23.8,319.4z M22.8,318.2l0.7,1.5l-1.5,1.6l0.5-1.8
	l-0.3-0.4l-0.6,0.2l0.4-0.9L22.8,318.2L22.8,318.2z M21.7,318.2l-0.4,1.3l-1.3,0.7l-0.1,1.8l-0.3,0.3l-0.3-0.4l-0.8,0.7l0,2.2
	l-0.6,0.2l-0.9-1.1l0.8-1l-0.4-1.3l0.4,0l0.8-1.7l1.1-0.1l0.5-1.3l0.7,0.3L21.7,318.2L21.7,318.2z M75.2,303.2l3.8,1.6l1.1-1
	l0.6,0.7l2.1-1.1l2.6,0.1l0.9,0.8l2.7-0.8l0.3,1.1l0.9,0.4l0.4-1.6l0.9,0.2l0.5,0.9l2.2-1.7l0.7,0.2l0,1l1.6,0.8l0.9,0l0.4-0.4
	l1.7,0.5l0.8-0.2l-0.6,0.7l-0.9-0.3l-0.6,0.4l0.9,0.9l1.3-0.3l0,0l0.6,1.1l1.1-0.1l0,0l-0.1,1l0.6,1.2l0.9-0.1l-0.1-0.9l0.9-1.2
	l0.9,0.7l2.2,0.3l-0.1,0.8l0.8,1.3l2.7-0.1l1.1,0.9l1.3-0.8l-0.6-0.4l0.7-1.9l0.2-0.3l0.8,0.4l0.9-0.6l0.3,1.5l-0.5,0.7l1.7,1
	l0.8-0.5l0.4,0.2l-0.4,0.7l-0.4-0.2l-0.2,0.9l-0.7-0.1l-1.2,2.7l0.6,1l2.2,0.9l-0.5,1l0.9,0.9l0.9-0.4l0.8-1l0.1-0.9l0.8-0.3
	l-0.1,0.9l0.9,0.8l-0.2,1.3l0.4,1.3l-1.2,1.5l0,1.6l0.3,0.5l0.9-0.3l1.2,1.5l0.6,0.1l0.1,1.9l1.3-0.8l1.7,0.7l-0.5,1.6l0.4,1
	l-0.5,1.1l0.4,0.3l1-0.3l0.4,0.9l0.8-1l0.4,0.5l1-0.3l1.2,2.4l0.9-0.1l0.2-0.7l0.5-0.1l0.4,0.9l0.8,0.1l0.2,0.8l1.1,0l0.6,0.6
	l-0.1,2l1.1,0.6l0.5-0.9l0.8,0.1l0.8,1.5l-0.1,0.5l0.8,0.7l0,0l1,1.8l-0.6,0.3l0.4,0.7l0.8,0.7l1-0.5l0.5,1.4l-1.5,2.8l-0.4,1.9
	l-2.4,0l-2.2,2.7l-1.7-0.7l-0.6,0.9l0.2,0.4l0.8-0.4l-0.1,0.9l0.5,0l0.4,1l0.4-0.8l0.3,0.5l0.5-0.3l0.1-0.7l0.3,0.9l1,0.1l0.8,0.8
	l-0.7-0.1l-0.6,0.9l-0.4-0.2l-0.3,1l-1.1-0.2l-0.4-0.8l-0.8,0.2l-0.3,1.6l0.6,0.9l-0.3,0.5l0.9,0.2l0.1,2.5l0.5-0.2l0.5,0.4
	l-1.7,1.5l1.1,0.6l-0.2,0.7l0,0l-6.7,2.8l0.7,0.7l-0.3,0.6l1.3,1.3l-0.2,1.2l-2,0.4l0.7,0.6l0.7,2.2l4.2-1.4l2.3,0l0.4,0.6l0.6-0.4
	l0.6,0.3l0.7-0.6l0.5,0.5l0,1l-1.6,0.7l-0.4-0.4l-0.1,0.4l-1.9-0.1l-0.4,0.3l-0.8-0.7l-0.4,1.3l-1.6,0.6L132,374l-0.1,2.2l-1.1,0.7
	l-1.2-0.1l-0.2,2l-1.6,0.1l-0.1,0.6l-1.1-0.3l-0.9,0.4l-0.5-0.9l-0.5,0.2l1.4,1.3l1.8-0.1l-0.2,1.2l0.7,1l0.7-0.3l0.2,0.6l1.8,0.3
	l-0.2,0.9l1,2.1l0.1,2.1l-0.6,0.4l-0.7-0.1l-0.4,0.7l-0.8,0l0.5,0.6l-0.1,1.1l-1.8,1l-0.9-0.2l-0.6,0.3l-0.7-0.4l-0.6-1.2l-1.4-0.8
	l-0.8,0.4l-0.3-1.4l-0.6,0.1l-0.3,1l-0.7,0.5l0.8,1l0.8,0.2l0,0.9l0.4,0.1l-1.4,2.7l-0.8,0.5l0.6,0.8l0.1,3.1l-1.1,0.3l-0.1-0.4
	l-0.3,0.3l-0.8-0.2l-0.4,1.2l-1.5,0.6l0,0l-0.4-0.4l0.6-0.9l-0.4-0.4l-1.3-0.2l0.1,0.7l-0.5,0.3l-0.6-0.4l-0.2,0.4l-0.1-1.5l0.7,0
	l1-1.2l0.4,0.1l-0.3-0.6l-1,0.3l-0.1-1.2l-0.3,0.7l-0.8,0.1l-0.1,0.7l-0.5-0.6l0,0.6l-0.6,0l-0.1,0.4l-0.8-0.5l-0.4,0.3l0.9,1.4l0,0
	l-1.9-0.3l-0.8,0.8l0,0.9l-0.7-0.1l0,0.5l-1.3-0.2l0,0l0.4-3.3l1.3-1.7l1.3-2.7l0.3-1.8l-2.1-6.6l0-1l-0.4,0.2l-1-2.4l0.9-0.4
	l-1.3-0.2l0.3-1.5l-1.1-0.3l-0.2,1.4l-0.6,0.3l-0.2-3.1l-0.6-1.5l0.7-1.9l1.4-1.8l-1,0.7l0.6-1.8l0.6-0.2l-0.4-0.2l-1.1,1.1
	l-0.6-1.3l0.6-1.4l1.5-0.7l1.7,0.1l1-0.5l-1.1,0.1l-0.9-0.6l-4,0.5l-0.6-0.8l0.7-0.7l0.6-1.9l-1-0.7l-0.3-2.1l0.9-4.2l0.7-1.1
	l1.3-0.4l2.1,0.9l1.1-1.6l1.4,0.5l0.5-0.2l0.2-0.9l-0.4,0.7l-0.6,0.1l-0.5-0.9l-1.8,1.1l-1.3-0.2l-1.1-1l-1.9,0.9l-0.1-0.7l-1,1.6
	l0.1-0.9l-0.4,0l-0.7-1.3l-0.8-0.4l0.4-0.8l-0.7-0.6l-0.4,0.3l0.7,0.5l-0.4,0.8l0.8,0.3l0.1,1.5L101,357l-0.9-1.5l0.1,1.4l0.6,0.8
	l-0.3,0.4l-0.4-0.7l-0.2,1.3l-0.4-0.1l-0.9,4.2l-0.7-2.5l0.9-0.5l0.2,0.2l0-1l-1.3,1.1l0,0.8l-0.3,1.5l0.6,1l0.2,3.4l0.8,2.4l-1.7,4
	l-1.9,2.3l-0.3,1l-0.7-0.4l0.4,0.6l-0.3,0.6l0.6,1l-1.9,0.9l-0.2,0.5l0.1-1.1l-0.7,1.4l-3.1,1l-0.5,0.3l0.2,0.4l-1.8,0.4l-3,1.5
	l-1,0l0,0.5l-1.5,1.1l-1.2-0.1l0.1,0.4l-3.5,1.2l-1.1,0.5l-0.1,0.4h-1.2l-0.3,0.4l-2.3-0.1l-1.4,0.7l0,0l-0.7-0.9l0,0l0,0l0,0
	l-0.2-0.2l0.4,0l0-0.6l0.5,0l0-0.6l-1.6-0.6l1.7-0.7l-0.3-1.3l-0.8-0.5l-1.5,0.2l-0.6-0.6l-1.3,3.1l-0.1,1.7l0,0l-1.2-0.1l-3.5-1.8
	l-6.8-5.4l-7.7-9l1-1.1l-0.5-1.5l-0.3,0.4l-1-0.1l0.8,0.8l-0.4,0.2l0.6,0.5l-0.4,0.7l-9.4-8.6l-5.5-6.3l-0.4-1.6l1-2.2l1.7-1.4
	l0.4,0.2L34,352l0.5,0.8l2.5-0.6l0.2,0.5l-0.9,1.9l1.5,1.2l1.7-0.7l0.3-0.8l1.7,0.3l1.3-0.4l0.8-1.1l-0.5-1l1,0.7l0.2,1.1l1.9-0.1
	l0.2-0.7l0.7,0l0-1l-0.5-0.2l1.1-0.5L48,352l0.3-0.2l0.8,0.9l0.8-1.2l0.7,0.2l1.2-1.3l0.5,0.3l-0.1-0.7l1.7-0.7l0.5,0.3l2-0.1
	l1.6-2.4l0.2-1.5l1-0.5l1-2.4l1.4-1.3l1.4-3.1l-1.1,0.3l-0.7,0.7l-0.3,1.8l-0.8,0.4l-2.2-1.1l-0.3,0.5l-1.2,0.3l-0.8-0.4l0.2,0.8
	l-6.7,1.6l-0.9,0.7l-0.9,1.7l-1.3-0.5l-0.8,0.1l-0.9-0.7l-1.6,0.4l-2.3-1.2l-3.2-0.2l-7.6-4.9l-1.1-0.3l-3.4-2.9l-0.1-0.4l1.7-0.8
	l-0.6,0.1l-0.1-1.7l-0.6-0.7l-0.9-0.1l0-0.7l-0.5,0l-0.7-1l-0.3-3.6l0.2-0.5l0.4,0.1l0.1-0.8l2.2-1.5l0.7-1.1l1.4-0.8l-0.4-0.3
	l-2.2,0.4l-1.6,1.8l-0.2-1.5l0.6-0.2l0.5-1l1.8-0.8l-0.8,0.1l-0.5-0.6l-0.1,0.4l-0.6,0l-0.4-0.5l0.2-0.3l4,0l0.5-7.2l1.1-0.3
	l0.4,2.2l0.8,0.3l1.2-1.8l1.1,1.1l1.8-0.9l2.1,0.7l2.2-0.9l3.8,0.5l2-0.5l2.5,2.2l5.5,0.2l1.2-0.6l1.2-2.1l9.1-2.8l0.7,0.4l-0.8,1.2
	l0.3,0.7l-0.3,1.3l1.6,0.6l3,0.1l1.8-0.7l-0.2-0.7l1.5-1.2l0.8-0.3l1,0.3l1.7-1.2l-0.3-0.6l-2.2-0.2l0.1-1.8l-0.3-0.4l0.4-1.9
	L75.2,303.2L75.2,303.2z"/>
<path id="IN-HP" class="st0" d="M170.4,124.3l1-1.6l-0.5-1.1l0.3-1.6l-0.8-1.3l-1.6-1.3l0.3-1.4l1.2,0l1.6,1.1l2.7-2l0.2-0.9
	l2.9-0.7l0.8-1.7l2.3-2l1.5,0.2l1.6-0.7l0.7,0.1l0.9,1.1l2.1-0.4l0.5-1.7l0.5-0.1l0.5,0.5l0.5-0.2l-0.5,2.2l0.8,1l0.7,0l0.8,1.9
	l1.6,1l0.7-0.2l0.8,0.6l1.2-0.2l0.2,1.6l0.6-0.4l1.1,0.8l0.2,0.7l0.4-0.3l0.9,0.5l0.5,0.8l0.6-0.1l0.6-1.4l1.4,0.6l0.6-0.6l0.7,0
	l1.3-1.3l1.4-0.4l0.2-0.6l0.9,0.3l1.6,1.6l-0.6,1l1.7,0.9l0.7,1.3l0.7,0.2l-0.2,1.7l1.6,2.5l1.1-0.1l0-1l0.6,0.3l0.6-0.9l0.6,0.5
	l0.6-0.9l1.2,0.2l1.7-1l-0.2-0.6l1.7-0.6l-0.2,2.1l0.5,1.2l-1.8,1.1l0.1,1.1l-0.4,0.5l0.6,0.8l1.4-1.3l0.6,0.4l0,0l0.7,0.3l-0.1,1
	l1.6,0.9l-1.1,1.6l0,1.6l-0.5,0.9l2-0.1l1.1,0.7l-0.4,1.4l0.5,0.9l1,0.4l1.7,2.3l0.8,0.2l-1.6,4.8l0.7,0.7l-0.3,0.5l0.5,1.2l0.9,0.1
	l1,1.7l-2.5,2.3l0.2,0.8l0.6-0.1l0.9,0.9l-0.4,1.2l1,0.5l0,1.2l1.6,1.7l0,0l0.2,0.8l1.2,1.1l0.4,1.5l-2.5,0.2l-1.1-0.9l-0.5-1.3
	l-2.9,0.2l-0.3-0.6l-0.8-0.3l-1.2,0.7l-1.3,0.1l-0.5-0.9l-0.5-0.4l-0.4,0.3l-0.8-1l-1.2,0.1l-0.1,0.5l-0.5-0.1l-0.7,0.8l-1.7,0.1
	l-1.2,0.9l-1.2,0.1l-0.3,0.7l-1.2-0.6l-1.3,0.6l-0.9,1.7l-0.8,0.4l0.5,1.3l-0.6,0.9l0.4,0.4l-1.1-0.5l-0.6,0.4l0.2,0.9l1,0l-0.1,1.5
	l-0.9-0.5l0,1.2l-1.1,1.4l1.1,1.3l-0.2,0.6l0.9,0.5l0.1,1l-1,0.5l0.6,0.8l0.8,0l0.1,0.7l-0.2,0.5l-2.4,1.4l-2,0.5l-0.4,0.6l0,0
	l0.2,0.5l0,0l-0.6-0.3l-0.7-1.2l-0.5,0.8l-1.4,0.1l0.7-0.7l-0.1-0.6l-1,1.1l-1.1-1l-0.7,0.2l-1.2-0.7l-1,0.1l-0.3-1.1l-1.1-0.4
	l-0.4-0.6l0.9-0.7l-0.1-2.1l-1.5-1.3l-0.9-0.2l-0.4,0.3l-0.5-0.8l0.2-0.9l-0.4,0.4l-0.5-0.3l-1-2l-1,0.6l-0.7-0.6l-0.1-0.8l-0.8,0.6
	l0,0l-1.1-1.3l-2-0.9l-0.2-1.1l0.5-1.3l-0.7-0.4l0-1.3l0.9-0.7l-0.2-0.3l-0.9,0.2l0.4-0.8l-0.6-0.7l-0.7,0.6l0-0.7l-0.4,0.5
	l-0.1-0.5l-0.5,0.2l-0.4-0.9l-0.7,0.6l0.3-0.5l-1.4-2l-0.3-1.2l-0.1,0.6l-0.9,0.3l0.4,1.1l-0.8,0.3l0,0.5l-2.5,0.3l-0.1-0.8
	l-0.6-0.5l0.4-1.2l-3-5.4l-1.6-4l1,0.1l-1.5-3.2l-2.2-1l-1.9-1.6l-0.8-0.4l-1,0.3l-0.4-0.4l1.7-1.9l-0.8-0.5l0-1.2l2.3-0.9l2.1-2.5
	l1.8-0.9l-1.6-2.1L170.4,124.3z"/>
<path id="IN-HR" class="st0" d="M188.3,163.3l0.8-0.6l0.1,0.8l0.7,0.6l1-0.6l1,2l0.5,0.3l0.4-0.4l-0.2,0.9l0.5,0.8l0.4-0.3l0.9,0.2
	l1.5,1.3l0.1,2.1l-0.9,0.7l0.4,0.6l1.1,0.4l0.3,1.1l1-0.1l1.2,0.7l0.7-0.2l1.1,1l1-1.1l0.1,0.6l-0.7,0.7l1.4-0.1l0.5-0.8l0.7,1.2
	l0.6,0.3l0,0l0.3,0.3l-0.4,1.4l-0.9,0.7l-1.1,2.2l-1,0.5l-0.5,1.1l0.3,0.3l-2.9,1.3l-0.1,1.1l-1.7,2.2l-0.6,2.6l-0.7,0.5l0.5,1.5
	l-1.2,2.4l0.5,1.1l-0.5,0.4l1.1,2.1l-0.3,0.7l0.4,0.5l-0.6,0.3l0.1,0.6l0.7,0.3l-0.5,1.4l0.3,0.7l-0.4,0.4l0.3,1l-0.4,1.7l1.8,2.3
	l-0.5,1.1l0.6,1.2l-0.8,0.3l0.1,0.5l0,0l-1,0.6l-0.2-0.5l-1.1-0.4l-0.9,1.1l-1.8,0.4l0.2,2.6l-0.7,1.1l0.3,0.4l-1.1,0l-0.5,1l-0.4,0
	l0.1,0.8l0.8,1.1l1.8-0.4l0.7,0.3l0-0.6l0.9,0.6l0.5-0.1l0.7,0.6l0.2,1.2l0.9,0.8l1.5-0.5l-0.3-0.8l0.3-0.5l1.9-0.6l0,0l2.7,2.2
	l0.4,1.2l-0.6,0.5l0.6,0.7l-0.1,0.6l-0.5,0.2l1.5,0.5l-0.5,0.4l0.1,0.6l-0.6-0.2l0.1,0.6l1,0.1l-0.9,0.5l-0.1,1.4l-0.3-0.2l-0.2,0.5
	l0.2,0.9l1.1,1.1l-0.5,0.6l0.5,0.2l-0.4,0.6l-1,0l-0.2,1.1l-0.9-0.2l0,0.8l-1.5,0l-1.3,1.2l0,0l-0.3-0.2l-0.6,0.7l-0.8-0.8l-0.5,0.8
	l0.2-0.5l-0.6-0.2l0,0.5l-0.5,0.3l-1.8-1l-0.4,0.9l0.9,0.3l0.2,0.6l-1.7-0.1l-0.5,1.9l-0.7-0.4l-0.6,0.4l-0.4-0.9l0.7,0l-0.6-0.7
	l0.4-2.3l0.5,0l0.2-1.9l-0.4-0.1l0-1.6l0.9-3.3l-2.2-1.9l-1,0.3l-0.2,1.2l-2.8,1.4l0.2,1.7l-1.2,0.2l-1.2,0.9l0-1.5l-1.7-0.2
	l0.9-0.3l-1-0.6l0.2-0.4l0.7,0.1l-0.5-1.1l-1.9,0.4l-0.8-0.9l-1.1,0l1.5,1.1l-1.2,0.6l1.1,0.6l-0.3,0.9l-0.9,0.2l-0.3-0.7l-0.6-0.3
	l-1.5,0.3l0.7,0.6l-1.2,0.7l0.5,0.6l-0.3,1.3l0.6,0.4l-0.1,0.8l0.6,0.5l-1,0.8l-1.7-1.4l-0.8,0.5l-1.7-0.4l0.3-1l-1-0.2l-0.1-0.4
	l0.3-0.4l0.5,0.3l0.5-1.1l-0.6-0.4l0.7-0.2l-0.4-0.5l0.8-0.1l-0.1-0.4l0.6-0.4l-0.4-0.3l-0.6,0.9l0-0.7l-0.9-0.3l1.8-1.8l0.8,0.1
	l0,0.5l0.6-0.2l-1-1.1l0.2-0.5l-0.8-0.4l0.2-0.9l-1.3-0.8l-0.6-1.1l-0.7-0.6l-2.4-0.3l0.2-1.1l-3-2l-0.2-1.3l-1.2-0.3l-0.5-3.1
	l-0.6-0.8l0.3-1.1l-0.9-2l1-1.1l-0.1-0.8l-1.5-0.1l-0.1-1.1l-1-0.1l0.3-1.3l-0.7-0.3l0.8-1.1l-0.1-1.7l-0.8,0.2l-0.3,0.6l-0.6-0.2
	l0.1-1.3l-1.9,1.3l-0.9-0.8l-1.4,1l-0.6-0.1l-0.8-1.2l-1,0.4l-0.8-0.2l-0.5-1.9l-1.7-0.9l-1.7,1.1l-2.1-0.4l-0.2,0.9l-0.9,0.1l0-0.8
	l-0.8-1.3l-0.5-0.1l0-0.6l0.3-0.4l0.7,0.2l0.7-1.6l-1-0.8l0.8-4.3l-0.4-0.4l-1.2,0.6l-1.1-0.1l-0.1-1l1.8-1.8l-0.4-0.8l-0.6-0.1
	l0.3-0.8l0,0l2.6,0.9l-0.1-0.4l1-1.1l0.7,0.2l1.5-0.7l1,0.8l0.6-0.2l0.1,0.7l0.6-0.2l1.5,2.1l1.5-0.5l0.4-0.8l0.4,1l-0.5,0.5
	l0.5,0.5l-0.3,0.5l1.3,0.6l0-0.9l0.5-0.4l1,2l-0.7,0.6l0,0.9l-0.7,0.6l0.3,0.7l1,0.5l0,1.4l1.5-0.5l0.2-0.5l-0.5-0.5l0.7-1.4
	l0.7,0.3l-0.3-0.8l0.9-0.4l1.3-2.2l1.3,1.1l0.9-0.1l0.2,0.5l0.9-0.1l0.2-0.6l1.4,0.4l0.2-1.2l1.3-0.4l0.5,0.4l0.7-0.1l1,1.5l1.7,0.4
	l1.1-0.6l0.4,0.2l0.8-1.4l0.8,0.2l2.5-1.7l-1.1-0.4l-0.4-0.9l0.8-0.4l-0.3-1.7l0.5-0.2l-0.3-0.2l1.1-1.5l-1.3-0.7l0.4,0l-0.2-0.5
	l0.9,0.9l1.4,0.2l0.5-0.4l-0.5-0.5l1.3,0.5l0.2-0.7l-0.4-0.6l0.6-0.4l0.8,2.3l0.8,0.1l0.2,0.5l1.1-0.5l0.4,0.5l0.5-0.1l0.5-0.6
	l0.2-2.3l-0.7-0.2l0.2-0.4l-0.6-0.6l-1,0.7l0.3-0.9l1.2-0.1l1.3-1.3l0.8-0.2l0.5-0.6l-0.5-0.1l-0.2-0.7l1.2-1l1,0.6l0.5-0.5l1,1.1
	v0.6l0.9-0.7l-0.8-1.2l0-1l0.6-0.8l-0.7-0.5l0.6-1.4l-1.1-0.9l0.1-0.9l-0.5,0.5l-0.3-0.7l0,0l0.2-1.8l0,0l0.4-0.7l-0.4-0.9l-1.2-1
	L188.3,163.3z"/>
<path id="IN-JH" class="st0" d="M322.6,306.6l4.4,0.5l3-0.6l1.2-0.3l1.3-2l1.1,0.6l1.3,2.9l0.6-0.5l0.1-0.8l0.7,0.7l-0.1-0.8
	l0.3-0.2l0.6,0.4l0.3-0.4l0.4,0.5l0.5-0.5l-0.2-0.3l0.5,0l0.7,1.4l-0.6,0.5l0,0.7l0.7,0.4l-0.3,0.2l0.4,0.6l0.9,0.1l0.8,0.7
	l-0.1,0.6l0.7-0.2l0.8,1.1l0.6-1.1l-0.1-0.8l0.9-0.2l0.1-0.6l1.7,0.4l0.4-1.4l2.3-1.6l0.7,0.4l0,1.3l0.9-0.2l0.4,2l1.4-0.1l0.4-0.8
	l1.3-0.1l0.5-0.5l-0.2,1.2l0.5,0.2l1.6-1.1l-0.4-0.7l2.6-0.7l0-0.6l4.1-0.5l0.6,0.6l0.4-0.9l0.6,0l0.2-0.8l1.8,0.5l-0.3-2.3l0.9-0.6
	l0.8-2.4l0.8,0.5l2,0l1.4,1.5l2-1l-0.2,0.8l0.9-0.1l0.8,0.9l0.2,2.2l1.2,0.4l0.4-0.6l0.9,0.8l1.2-0.2l-0.4,0.6l0.2,1.1l-0.7,1
	l1.4,0.4l1.3,1.4l0.7,0.2l0.3-1.2l0.5-0.1l0.3-2l0.8-0.4l1.1-1.5l1.3,1l1.3-0.3l0.4-0.9l0.5,0l0.6,0.6l-0.1,0.7l0.7-0.1l0.4,0.4
	l0.4-0.4l0.7,0.6l-0.3-1l0.6-1.2l2.4,0.8l0.9-4.3l-0.4-0.5l0.7-0.7l0.7-0.1l0.1-0.6l-0.2-3l1.3-1.4l0.8-0.4l0.8,0.4l0.6-2.9l0.9,0.4
	l0.4-0.5l1.6,0.7l0-1l0.5-0.5l-0.3-0.7l1.2,0.3l0.2-1.1l0.7-0.4l0.5,0.8l1.5,0l0.5,1.2l1.5,0.2l0.1,0.6l0,0l-0.2,2.8l2,1.4l1.8,2.2
	l0.1,0.7l-1.7,1l0.2,0.6l-0.6,0l0.2,0.6l-0.4,0.6l-0.4,0l0-0.5l-0.4,0.5l0.4,0.6l1.2,0.4l-0.3,1l0.5,0.3l-0.6,0.7l0.3,0.3l-0.6,0
	l0.7,0.4l-0.5,0.7l-0.8,0.3l-1.6-0.7l0.7,0.8l-0.2,1.2l0.2-0.4l0.3,0.4l-0.8,1.7l0.5,0.2l-1.1,2.2l-0.9,0.3l-0.6,1l-0.9,0.1l0,0.7
	l1.1,0.6l-0.1,0.8l-2.4-0.1l0.8,0.6l-0.8,0.5l0.1,0.5l-1.6-0.7l0,1.4l0.4,0.3l-0.6,0.6l-1,0.1l0.5,0.6l-2-0.6l-0.6,0.3l-0.2-0.2
	l0.3-0.6l-1.9-0.2l0.5,1.6l0.6,0.2l0.1,1.2l-0.5,0.6l-0.4-0.7l-0.1,1.8l-0.5-0.1l-0.6-0.2l0.1-0.3l-1.3-0.3l0.7,1l-0.4,0.5l-0.5,0
	l-3.1-1.5l-0.6,0.4l-0.8-0.8l-0.4,0.4l-0.1,0.4l-1,0.7l-0.6-0.4l0.5,1.5l-0.6,1.6l-1.1,0.2l-0.1-0.4l-0.8,0l-2,0.5l-1.3,0.9l-1.8,0
	l0,0.4l-1.2,0.5l-0.5,0.9l-0.1,1l0.4,0.3l-1.4,0.8l0.3,0.3l-0.3,0.2l-0.4-0.5l-0.7,0.5l-0.4-0.3l0.3-0.7l-0.4,0.3l-1.5-0.4l0-2.1
	l-2-0.3l-0.7,0.7l0.7,1.3l-2.1,0.8l-1.6-0.3l-0.1,1.3l0.7,0.9l-0.6,0.1l0.2,0.9l-1,1.3l0.1,1.5l0.5,0l1.1,1.4l2.4-0.3l0.2,0.8
	l1.8,0.6l0.3,0.9l1.2,1.1l1.7-0.5l1.9,0.8l0.5-0.4l1.6,0.1l0.3,0.5l0.6-0.5l-0.4,0.9l-0.7,0.2l-0.3-0.3l-0.8,0.6l0.6,0.6l-0.6,0.8
	l-0.3,1.8l1.8,1.6l0.7-0.4l1.6,1l0.7,2.1l2.2,0.1l0.8,1.6l-0.2,0.5l-0.9,0l0.3,1.1l1.6,0.6l-0.3,1.5l1.1,0.7l0,0.9l-1.4,0.1
	l-0.1-0.3l0,0.6l-0.2,0.5l-0.5,0l-0.2,0.1l-0.9-0.1l0,0l-1.4-0.4l-0.1-0.6l-1.1-0.3l-0.2-0.5l-0.9,0l-0.6-0.9l-1.2,0.4l-0.1,0.5
	l-1.6-0.9l-1.5-2.1l-3.4-0.8l-1.4-1.7l-0.3,0.9l-1.1,0.4l-0.3,0.9l1.1,0.7l0.2,1.1l-0.6,0.8l0.5,0.2l-0.2,0.4l0.7,0.1L372,356
	l1.1,1.2l-0.5,1.6l-1.2,1.9l-0.6,0.3l-0.1,0.8l-2.9-0.5l0.5-1.9l0.9,0l-0.6-0.7l-2.4,1.3l-0.7-0.9l-1.1,0.3l-1-0.3l-2.9-1.5
	l-0.6,0.1l-0.1,0.7l-0.7-0.1l-0.5,0.4l-1.4,2.3l-0.4-0.9l-0.8-0.5l0,0.4l-0.3-0.5l-0.7,0.1l-0.5-0.7l-1-0.2l-0.8,0.7l-0.4-0.1
	l0.9-0.6l0.9-3.4l0.9-0.4l0-0.5l-0.5,0l0.1-0.6l-0.4-0.2l-0.2-2.8l-2.2,0.9l-0.1-0.3l-1.1,0.7l-0.3-0.5l-0.9,0.4l-0.5-0.4l-1.1,0.1
	l-0.2,0.6l-4.3-0.1l-1,0.3l0,0.5l-0.6,0.1l-0.4,0.7l-2.7,0.2l-0.9-0.8l-1,0l-0.8-0.6l-0.3-1.5l-2.6-1.1l0,0l0.1-1l1.5-1.4l1.4,0
	l1.4-0.7l0.1-1.4l0.6-0.6l0.6,0l0.9-2.1l0.8-0.1l0.4-1.6l-0.4-0.8l-1.8,0.3l-0.1-0.6l-1.1,0.3l-0.5-1l-0.8,1.3l-0.4-2.5l-1.9-1.2
	l0.7-4.1l-0.5-1l-0.7,0.5l-0.8-0.6l0.1-1.6l1.1-1.9l-0.3-1.9l-1.4,0.2l-0.1,1.3l-3.2-0.8L327,325l0.3-1.6l-0.7-1.4l-2.7-0.9l0.3-0.5
	l-0.7-0.3l-0.7-2.8l-1.2-0.3l-0.4-0.9l-2-0.4l0,0l1.6-3.6l-0.5-1.1l1.5-1.1l-0.4-0.9l-0.6-0.1l-0.4-1l0.2-1L322.6,306.6z"/>
<path id="IN-JK" class="st0" d="M150.2,17l1.1,1.3l2.3-0.1l1.6-0.1l1.4-1.1l1.5-0.6l1.5,0.8l1.6,2.4l1.9,2.8l2.5,2.8l1.1,2.1
	l3.2,2.1l3.1,1.5l2.7,2.5l3.1,1l2.5,2.6l1.5,1.3l2.6,0.3l2.2,2.4l0.1,1.7l-0.5,1.4l0.7,1.8l1.1,1.7l2.6,0.8h3.1l3.5,1l2.1,1.9
	l0.9,2.5l0.9,1.7l3.3,0.4l3.8-1.7l3.3-0.8h2.7l1.9-3l2.2-1.9l2.6-0.6l2.1-0.9l1.9-1.4l3.3-0.3l2.8,0.9l1.7,0.9l1.1-0.7v-2.5l1-1.2
	l1.7-0.5l2.4,1.9l1.2,1.4l1.5,0.4l2.9,0.7l2.3,0.7l1.9-0.9l1.3-0.5l1.2,2l1.1,1.9l1.6,0.9l2,1.4l0.6,1.5l-0.5,1.6l0.3,1.7l-0.1,1.2
	l-0.9,1.6l-0.1,1.1l-0.9,1.3l-0.2,1.4l0.1,2.5l-0.8,1.9l-0.8,1.8l-0.6,1.3l-0.4,2.1l-1.4,0.8l-1.6,0.7l-2,0.9v1.9l-0.8,1.2l-1.8-0.1
	l-2,0.1l-0.9,0.9l0.2,1l0.9,1.5l0.5,2l-0.8,3.6l-2,2.1l-1.2,0.5l-1.9-0.5l-2.1-0.7l-1.3,0.6l-1.9,0.4l-1.1,0.4l-0.5,1.1l0.4,1.7
	l0.7,1.5l0.8,1.4l1.3,2.1l-0.4,1.3l-1,0.9l-1.4,0.6l-0.2,1.3l0.2,1.5l-0.5,0.7l2.9,2.7l0.2,1.6l2.2,0.9l4.5,0.3l0.1,0.7l-1.2,2.8
	l0,1.2l1.9,2.1l0.5,2l1.2,1l0.6,2.1l-0.4,1.5l-1.9,0.5l-2.7,2.3l-1.1-0.9l-1.1,0.3l-1.5,1.1l-0.4,2.2l-1.1-0.3l-1.4,1l-1.2-0.6
	l-2.7-2.5l-0.3-2.2l0.3-0.7l-0.7-2.3l-1.8,1.1l-0.6,1l-1.6-0.1l-1.2,0.9l-0.7-0.1l-0.8,0.6l0,1l-0.6-0.4l-1.4,1.3l-0.6-0.8l0.4-0.5
	l-0.1-1.1l1.8-1.1l-0.5-1.2l0.2-2.1l-1.7,0.6l0.2,0.6l-1.7,1l-1.2-0.2l-0.6,0.9l-0.6-0.5l-0.6,0.9l-0.6-0.3l0,1l-1.1,0.1l-1.6-2.5
	l0.2-1.7l-0.7-0.2l-0.7-1.3l-1.7-0.9l0.6-1l-1.6-1.6l-0.9-0.3l-0.2,0.6l-1.4,0.4l-1.3,1.3l-0.7,0l-0.6,0.6l-1.4-0.6l-0.6,1.4
	l-0.6,0.1l-0.5-0.8l-0.9-0.5l-0.4,0.3l-0.2-0.7l-1.1-0.8l-0.6,0.4l-0.2-1.6l-1.2,0.2l-0.8-0.6l-0.7,0.2l-1.6-1l-0.8-1.9l-0.7,0
	l-0.8-1l0.5-2.2l-0.5,0.2l-0.5-0.5l-0.5,0.1l-0.5,1.7l-2.1,0.4l-0.9-1.1l-0.7-0.1l-1.6,0.7l-1.5-0.2l-2.3,2l-0.8,1.7l-2.9,0.7
	l-0.2,0.9l-2.7,2l-1.6-1.1l-1.2,0l-0.3,1.4l1.6,1.3l0.8,1.3l-0.3,1.6l0.5,1.1l-1,1.6l-1.4,2.1l-1.2,0.3l-0.7,1.4l-3.6,1.6l-0.6,1.7
	l-0.2-0.8l-0.4-0.2l0.1-0.5l-1.1,0.4l-1.9-0.3l-2.5-1.6l-0.1-0.5l-1,0.2l-1.1-1.5l-0.9-0.3l-1.1,1l-2.9-1.1l-2.7,0.3l-1.1-3l0.7-1.1
	l-0.5-1.4l0.9-2.9l-1.1,0.4l-0.6,1.5l-1.7,0.4l-1.1,0.7l-2.8-0.3l-1.3-0.9l-2-0.9l-1.5-1.4l-2.4-0.9l-2-1.4h-3l-0.7-1.4l-1-1
	l-1.3-1.1l0.6-2.4l-0.9-1.7l-0.3-2.9l1-1.2l-0.8-3l0.5-1.1l0.1-1.4l-1.4-1.4l0.1-1.3l0.9-1.1l-0.8-2.9l-1.4-1.4l0.1-2.8l-0.3-2.2
	l-0.9-2.4l0.4-2.4v-1.6l1.2-1.3l2.1-0.6l1.6-0.7l0.1-1.8l1.2-2.2l1.3-0.2l3.2-0.1l1.1-0.9l0.8-2.8l0.9-1.8V64l-1.7-1.7l-2.4-1
	l-1.9-0.6l-1.1-0.9l-0.7-1.4l0.4-1.5l1.3-0.9l0.6-1.1l-0.9-2.1l-2,0.1l-2.3-0.3l-1.9-0.6l-3.3-0.3l-1.8-1.7l-0.9-1.7l-0.7-2.5
	l-2.6-1.2l-2.9-0.7l-1.9,1.2l-2.1,0.1l-0.8-1.1l-0.1-2.1l0.5-1l-0.5-1.5l0.4-1.5l0.9-2.2l2.3-1.6l2.4-2l2.2-2.4l2.1-2.7l0.9-2.7
	l1.9-1.2l2.9,0.3L125,24l4.2,0.2l2-0.5l-1.8-2l-1.6-0.9l0.8-1.1l1.9-0.3l1.7,1.5l2.5,0.6l1.2-1.5l1.7-0.4l1.6-0.8l1.3-0.7l2.1-1
	l1.4-1.1l2.1-0.2l1.6,0.3L150.2,17z"/>
<path id="IN-KA" class="st0" d="M135.5,494.5l-0.6-0.4l0.7-0.2l-0.1-0.8l1.5-0.7l0.5-0.7l0.5,0.9l0.8,0l1.5-0.7l0.5-1.5l-0.9-0.2
	l0.6-0.8l0.4,0.8l0.4,0l-0.4-1l1.6-2.9l-0.7-0.3l-0.9,0.4l-0.4-0.4l1.3-1.2l1.1,0.5l-0.1-1.2l0.5-0.9l-0.2-0.9l-1.6-0.5l0-0.5
	l-1.4-0.2l-0.4,0.5l0.3-0.5l-0.5-0.7l0-1.1l0.4-0.2l0.4,0.5l0.1-0.6l-0.5-0.1l-0.1-1.1l-0.9-0.1l0.1-0.9l-0.6,0.6L138,477l0.7-0.2
	l-0.2-0.9l0.8,0.9l0.3-1.1l0.7-0.1l-0.1,0.4l0.5,0.2l0.3-1.1l1.4-0.5l0.1-1.2l0.4,0.7l1.1-0.1l0.5,1.7l1.2-0.5l0.1-0.6l1,0l-0.6-0.7
	l0.7-0.8l0-0.8l3.1-1.2l1.4,0l-0.2-1.8l1-0.5l0.1-0.6l-0.8-0.4l0.2-0.3l1.8,0l0,0.3l1.2-0.5l1,1.6h1l-0.1,0.7l0.7,0l1.3-0.7l0.1-1.7
	l1.1,0l1-0.5l0.7,0.3l0.7-0.5l0.5,0.9l1.6-0.4l0.1-0.9l0.7,0.1l0,0.7l0.7,0.4l0.6-0.2l0-1.6l-0.6,0l0.7-0.5l0-0.7l-1-1.6l0.7-0.8
	l0-1.1l-1.1-0.9l0.1-0.8l-0.6-0.2l-0.1-0.7l0.7-0.2l0.4-1.8l0.8,0.4l0.3,0.9l0.9-0.2l1.3,1.1l0.4-1.1l0.7,0.8l0.5-0.7l0.1,1.3
	l0.7,0.6l2.5-0.6l0.5,0.5l0.8-0.8l0.8,0.5l0.3,0.9l-0.1-1.1l1.4-0.5l0.6,0.9l1.4-0.4l0.2,0.8l0.6,0l0.5-1.2l-0.9-0.1l0.2-1.2l-0.8,0
	l-0.1-0.8l0.9-0.5l-0.6,0l0.5-0.6l-0.5-0.4l-0.2-1.1l1.7-0.2l0.3-0.8l1.2-0.3l-0.1-1.1l0.7,0l0-0.9l1,0l0,1.2l0.8-1.4l1,1.7l0.5,0.2
	l0.2-1l0.6-0.2l-0.2-0.9l0.9-0.1l0.5-0.8l-1-0.6l0.1-0.9l1.2,0.6l2.3-1l0-2.5l0.7-0.1l-0.2-0.7l0.4-0.5l-0.9-0.4l0.6-1.4l0.7-0.1
	l0.7,0.5l0.2-0.4l0.5,0.7l1,0l-0.3-0.9l1.1-0.4l0.4-1.3l0.7,0.1l-0.2-0.7l1-1.2l-0.1-0.8l1.5-0.9l0.5,0.5l0.6-0.4l0,1l0.8,0.3
	l-1,1.6l1.5,0.1l0.6,1l0.9-0.4l0-0.6l0.8,0.3l0,0l1.1,0.3l-0.8,1.6l0.7,1l0.1,1.1l-1.1,1l0.9,0.9l1.1,0.4l0.1,0.5l-0.2,0.5l-0.4-0.2
	l-0.1,1.1l-0.6-0.1l0.2,0.8l-0.5,0l-0.5,1.1l-0.5-0.2l-0.3,0.5l-0.1,0.4l1.2,0.4l-0.1,0.4l-2.2,1.2l-0.2,2.3l1,0.3l0.2,0.5l0.5-0.7
	l0.4,0.5l0.8-0.3l0,0.6l1.9,0.6l0,0.7l-0.7-0.2l0.1-0.5l-0.2,0.6l-0.6,0.1l0,0.5l-0.7-0.2l0,0.5l-1.2,0l0.5,0.5l-0.1,0.7l-0.6,0.4
	l-0.9-0.3l-0.4,1.7l0.4,0.3l-1.5,1.2l0.4,0.2l-0.8,1l2,1.2l0.7,2l-0.9,2l0.4,2.7l-0.7-0.1l-0.3,1.4l0.9,0.1l0,0.7l-1,0.3l0.3,0.5
	l0.7-0.2l-0.1,1.3l-1.5,0.4l0.5,1l-0.7,0.1l-0.3,0.6l-1.4-0.2l-0.1,0.4l-1.1,0.1l1,1.3l1.2,0.5l1.4,0.4l1.7-0.3l1.9,0.8l0,1
	l-0.5-0.2l-0.6,0.7l-0.7-0.1l-0.3,0.4l0,0.5l0.4,0l-0.5,1.3l0.1,0.9l0.5,0.3l-0.4,1.5l0.4,0.6l0,1.7l0,0l-5.2-0.8l-2.1,0.4l-1.5,0.9
	l-0.9,1.4l0.8,0.2l-0.4,1.8l1.6,1.6l-0.2,0.7l-0.7-0.6l-1,0.4l-0.1,2.8l-1.1-0.1l0,0.3l1.1,1.1l0.7,2.3l1-0.1l0.1,0.8l0.6,0.1
	l0.3,0.5l-0.9,0.8l0.7,0.6l0,0.9l-0.5,0.1l0.4,0.5l-1.5,2.5l-0.8-0.1l0.1-0.5l-0.9,0l-0.4,0.4l-2.1-0.4l-1.6-1.3l-0.5,0.4l0.2,1.1
	l-0.4,1l1.3,0.4l0.7-0.3l-0.3,3.3l-1.4,0.5l0.4,0.9l-0.8,2.7l0.8,1.5l0.6,0.1l0.9,1.1l2.1-0.2l-0.6,0.7l0,0.9l-0.6-0.3l-0.6,0.5
	l-0.1,0.9l1.4,1.1l-0.5,0.4l0.3,0.7l2.2,0l0.5,0.6l0.6-0.1l0.1-1.5l0.8-1l1.6,0.5l1-0.4l0,1.1l1.6,0.1l-0.1,0.8l0.6,0.8l0.6-0.4
	l-0.8-1.7l0.2-0.6l1.1,0.3l0.2,0.8l0.8,0l0.1,2.5l-2.2-0.3l-0.3,0.7l-0.6,0.1l-0.1,0.6l0.9-0.5l0.1,0.3l-1.4,1.6l1.1,0.3l-0.2,0.8
	l1.1,0l-0.5,0.7l0.4,0.5l-0.7,0.6l0-0.4l-0.8,0l0.1-1.8l-0.8-0.9l-3.3,0.7l-0.5-1l-1.9-0.2l-0.3-0.9l0.2-1.5l-1.6-0.3l-0.1,0.5
	l-0.9,0.1l-0.2,0.6l0.9,0.1l1,1.3l-0.9,0.9l2.1,2l0.1,0.6l-0.5,0.1l-1,1.6l0.5,1.5l0.4,0.2l0.3-0.8l0.7,0.7l0.7-0.5l1.4,0.1
	l-0.1-1.3l-0.8-0.6l0.8-0.2l-0.1-0.9l0.4-0.4l0,1.2l0.5-0.4l0.1,0.4l0.4-0.7l0.3,1.1l1.1-0.4l0.3,0.6l0.8-0.4l1.3,0.2l-0.3,0.7l1,0
	l-0.2,2.5l0.7-0.1l0.1-0.6l0.5,0.4l0.1-1.2l0.7,0.6l0.8-0.6l0.5,0.3l0.3-0.2l-0.5-0.4l0.8-0.4l0.4,0l-0.1,0.5l0.6-0.2l0.3,0.6
	l0.1-1.2l1.3-0.5l0-0.5l1-0.5l-0.4-1l0.2-0.5l1.4,0.1l0.5,0.7l1.1-1.1l0.2,1.2l-0.7,0.3l0,1.2l0.4,0l0.4-0.8l1.1,0.2l0.1-0.7
	l1.4,0.9l0.1,1.3l-0.7,0.9l0.5,0.5l-0.1,0.5l-0.8-0.1l-0.1,0.4l0.4,0.6l1.5-0.3l0.1,0.5l0.7,0.1l-0.2,1.2l0.9-0.6l3.3,0.2l-0.7,4.6
	l0.8,0.5l-0.6,0.3l0.5,0.3l0.7-0.3l0.2,0.4l0.7-0.2l1,1.1l0.7-0.9l0.4,0.8l-0.2,1.2l-0.6,0.3l0.6,0.6l-1.2,0.8l0.4,0.5l-0.5,0.3
	l0.1,0.6l-1.1,0.4l0.1,1.4l-0.7-0.1l0.3,1.4l-1.1,0.1l-0.7-0.7l-0.8,1.6l-1.2,0l-0.4,1.9l0,0l-2-0.4l-1.5-1.5l-0.6-0.1l-0.3,1
	l-0.4,0l-0.7-1.1l-0.4,0.7l-0.3-0.2l0.5-0.7l-0.3-0.5l-2.7,0.9l0.3,1l-1.4,2.5l-0.6-0.2l-0.5,0.5l-0.5-0.5l-1.3,0.3l0.1,0.7
	l-0.6,1.3l0.2,1l0.6,0.1l-0.6,0.6l1-0.2l-0.1,1.4l-0.3,1.1l-1.2,1.4l-1.4,0.4l-0.1,1.2l5.2,0.7l0.8,1.3l-1.6,1.9l-0.6,1.5l-3.5,0.1
	l-0.1,1.1l-0.5-0.3l0.1,1l-0.7,1.8l-1.2-0.6l-0.7,0.4l-0.8-0.8l-0.9-0.1l-0.3,0.4l-2.5,0.4l0.1,1l-0.8-0.2l-0.3-1.1l-0.7,0.3
	l0.2-0.4l-0.5-0.4l-0.6,0l-0.3,0.7l-1.2-0.4l-1.4,2.8l0.4,0.9l-0.3,0.6l-0.4-0.5l-1.4-0.3l-3.7,0l-0.4-1.2l-0.7-0.6l-1.1,0.9
	l-0.6-0.1l0,0l-0.5-0.8l0.4-0.3l-0.2-0.7l-1.5,0.5l-1.3-1.5l-1.1,0.1l-0.7-1.3l-1.5,0.3l0-2.4l-2.3,1l-2.4-0.4l-1-0.9l-0.5-1.8
	l-1.7,0.2l-0.3-0.8l-0.8,0.2l-0.5-1l-1.2-0.2l-1.9-2.7l-1.3,0l0-1.6l-1.1-0.8l0-0.9l1.1-0.2l-0.2-0.7l-1.5,0.8l-0.1-0.7l-1.1-0.6
	l-0.1-0.9l1-0.4l-1-0.5l-1.1,1l-0.4-1.3l-0.8,0.2l-0.3-0.3l0.2-0.9l-1.3-0.4l-0.1,0.6l-0.7,0.1l0-1.1l-0.9,0.1l0.1-0.3l-0.5-0.1
	l0.5-0.6l-0.3-0.6l-2.5,0.7l0,0l-0.9-2l-2.5-10.1l-0.5-5.8l-1.3-4.8l-0.7-1.6l-0.8-0.4l-0.6-1.2l-0.6-3.3l-0.6-0.8l-1.8-5.7l0.8-0.6
	l-0.6-0.5l-0.2,0.6l-0.9,0l-0.3-1.7l-0.5-0.5l0.3-0.3l-0.4-1.5l-0.6-0.7l-0.6,0.6l-2.2-1.7l0.6-0.1l0.1-0.9l-0.4,0l-0.3-1l0,0
	l0.8-0.5l0.7,0.2l-0.1-0.9l0.8,0.6l1.2-0.9l-0.2-0.5l0.8-1l-0.5-1.2l0.2-1l0.6-0.8l-0.3-0.8l-1-0.7l1.7-0.7l-0.3-1.5l-0.9-0.4l0-1.1
	l-0.5-1l0.6-0.8l-0.7-0.8l0.3-0.9l-0.3-0.9l-0.5-0.3l-0.4,0.4l-0.5-0.7l-0.3,0.6L135.5,494.5L135.5,494.5z"/>
<path id="IN-KL" class="st0" d="M150.3,553.8l2.5-0.7l0.3,0.6l-0.5,0.6l0.5,0.1l-0.1,0.3l0.9-0.1l0,1.1l0.7-0.1l0.1-0.6l1.3,0.4
	l-0.2,0.9l0.3,0.3l0.8-0.2l0.4,1.3l1.1-1l1,0.5l-1,0.4l0.1,0.9l1.1,0.6l0.1,0.7l1.5-0.8l0.2,0.7l-1.1,0.2l0,0.9l1.1,0.8l0,1.6l1.3,0
	l1.9,2.7l1.2,0.2l0.5,1l0.8-0.2l0.3,0.8l1.7-0.2l0.5,1.8l1,0.9l2.4,0.4l2.3-1l0,2.4l1.5-0.3l0.7,1.3l1.1-0.1l1.3,1.5l1.5-0.5
	l0.2,0.7l-0.4,0.3l0.5,0.8l0,0l0,0.7l-0.9,0l-0.6,0.8l-1,0.4l-0.5-0.6l-0.9,0.6l0.3,2.1l0.8-0.3l0.9,0.6l0.3-0.3l1.5,0.5l0.8,1.1
	l1.2,0.7l0.6-0.1l0,1.2l-1.9,1.3l0.1,1l0.7-0.5l2.7,0.3l1.5-0.9l0.6,0.5l-0.7,1.3l1,0.5l0,1.5l1.1,0.1l-1.7,0.2l-1.1,2.2l3.4,1.3
	l0.5,1.1l1,0.2l0.2,0.6l-0.8,1.9l0.3,0.9l-1.4,0.1l0.5,0.8l-0.4,3.4l0.6,1.1l-0.4,1.3l0.4,0.4l0.5-0.3l0,0.5l0.9,0.9l1.3,0.3
	l1.4-0.8l0.3-0.8l2.2-1.2l1.2,0.1l-0.2,0.7l0.7,1.1l-0.1,0.7l0.7,0.3l-0.4,1.8l-1.4,0.5l1.2,1.5l0.2,1.3l-0.5,0.2l-0.7,1.5l0.5,0.3
	l-0.3,0.7l0.5,0.5l-0.5,0.2l0,1.2l-0.4,0.1l-0.8,2.2l0.9,0l1.2,0.8l1-0.6l0.4,0.6l0.3-0.6l0.2,1.4l0.9,0.6l-0.4,0.9l-0.9,0.4
	l-0.5,2.1l-0.5,0l-0.3,0.7v1.6l-0.6,0.6l0.3,0.7l-1.1,1.1l-0.3,1l-1,0.5l1,1.3l0,0.6l0.5,0l0.8,1.2l-0.6,1.7l-0.8,0.8l-0.4-0.1
	l2.2,4l-0.4,0.7l-1.2,0.2l0.5,1.1l-1.5,1.2l0.5,1.3l-0.8-0.2l-0.5,0.5l0,0l-2.4-1.7l-6.9-9.1l-1.7-1.3l-0.5-2.3l-3.6-8l-2-11.1
	l0.3-0.1l0.8,1.6l1.3,1.4l0,2.4l0.6,0.4l-0.7,3.1l0.5,0.4v-0.4l2.4-0.1l-1.7-0.7l0.3-0.9l-0.2-0.8l-0.4,0.1l0.2-1l-0.6-0.1l-0.1-3.2
	l-0.7-1.1l-0.3,0.1l0.2,0.6l-0.3-0.1l-1.4-2.8l0.3-1l-1.2-1.4l0.8,3.3l-0.4,0.1l-2.5-8.1l-3.8-8.3l-1-4.6l-2.4-6.8l-1.1-1.9
	l-1.3-0.6l-1.5-4.1l-2.7-3.2l-1-0.4l-1.8-3l-0.7-0.4l-0.6,0.4l-0.4-1.8l-4.2-8.2L150.3,553.8L150.3,553.8z"/>
<path id="IN-MH" class="st0" d="M135.9,362.2l1.1,0.6l1.8-0.2l0.2-0.7l1.1-0.3l0.7-0.9l1.2-0.1l0.1,1.2l0.9,0.4l0.7,1l-0.5,2.2
	l0.2,1.7l0.8,0.2l0.1,0.8l4.6,1.5l2.2-0.4l3.1,1.4l1.1,2.2l2.1,1l1.6-0.1l0,0.6l1.2-0.3l0.7,0.4l1.4-0.2l1.6,0.5l1.2-0.5l1.3,0.3
	l4.3-0.4l1.6,0.1l1.7,0.9l0.9-0.5l1.2,2.4l-0.3,0.4l0.6,1.1l-0.1,0.4l-1.1,0.1l1.2,1.7l1.8-0.2l0.4,0.4l1.9,0l1.5-0.8l0.7-1.7
	l2.7,0.1l0.8-1.9l-0.7-1.1l3.2-2.8l0.2-0.5l-0.6-0.7l0.5-0.4l0.1-1.2l0.8,0.1l0.4-0.5l1,0.3l3.4-2.6l1.7,0.2l0.3-0.3l0.7,0.7
	l0.3-0.5l1.2-0.1l0.1-0.8l3.8-0.2l1.3,1.5l0.6,1.6l0,1.4l0.7,0.4l-0.8,0.3l-2.2-0.6l-0.8,0.5l0.4,1.3l0.6,0.3l0.4,1.7l1.9,0.3
	l0.4-0.1l-0.1-0.6l1,0l0.3,0.5l0.5-0.5l0.3,0.8l0.6-0.1l0.3-0.4l0.9-0.1l0.1-0.5l1.6,0.7l1.1-0.2l4.6-2.4l0.2-1.3l1.8-0.3l-0.1-0.5
	l0.8,0.5l0.7-0.4l0.5,0.3l0.4-0.9l0.9,0.4l0.1,2.1l1.6-0.6l1.2,0.3l0.4,0.6l2.7,0.5l0.5-0.6l0.5,0.6l0.2-0.5l1.9,0.1l0.3-0.3
	l0.7,0.3l0.2-0.6l-0.7-0.9l0.5-0.1l-0.3-0.7l1.6-0.6l0.3,0.4l1.6,0l1.2-1.3l1.4,0.2l0.2-1.6l2.4,1l0.9,0.1l0.4-0.4l1.5,0.4l1,2.8
	l2.2-0.3l1.7-1l2.5,1.5l1.2,0.1l0.4-0.7l1.1,0.5l1.4-0.4l1-1.1l1.5-0.6l1.4,0.3l2.2,2.1l0.8,1.8l-0.4,0.7l0.3,0.7l0.7,0.1l0.2-0.6
	l0.7,0.1l2.1,1.6l1.3-0.1l0,0l0.3,0.7l-0.8,1l-3.6,1.6l-0.5,1.6l0.3,1.3l-0.5,0.6l0.6,1.6l1.7,0l0.1,3.6l0.7,1.7l-1.4,0.6l-0.5,0.8
	l0.6,0.7l1.1-0.6l1.1,0.2l-0.7,4.4l0.6,1.3l-1.5,0.6l-0.6,0.8l-2.6,0.6l0.6,1.1l-0.6,0.6l0.2,0.4l2.1,0.1l0.8,0.6l0.1,0.9l0,1.7
	l-0.5,1.2l-0.8,0.1l-0.7-0.5l-0.7,0.4l0,0.6l1.5,0.1l0.3,0.6l-1.3,1.2l-0.7-0.1l-0.1,0.5l1.2,0l0.5,0.4l-0.2-1.1l1.5,0.1l-0.1,0.9
	l2.5,1.7l-0.2,1.7l1.3,0.1l0.9,0.8l1.2,0.1l0.4,0.7l0.7,0.2l0.3,1.1l-2.1,0.8l1.1,1.4l-1.9,1.6l-1.2,0.1l-0.3-0.9l-1.2,0.4l-0.8-2
	l-1.8,1.4l-0.8,1.6l-1.1,0.5l0.1,1.1l-1.2,1l-0.1,1.4l-1.1,1.8l0,1.2l1.6,2.2l-1.4,1.2l-0.7,0.1l0.5,0.9l0,0l-1.3,0.4l-0.3,0.5
	l-0.6-0.4l-0.9,0.4l-2-1.9l-1.6-0.4l-0.8-1l0.9-0.6l-0.1-3.4l-0.4-0.5l-1.1,0.3l0-1.5l1.7-1.4l-0.5-1.2l0.8-1.5l0.2-2.2l-0.7-1.3
	l-2.2-1.5l-0.9-1.2l-0.9-0.2l-2,0.6l-0.8,1.5l-0.9-0.3l-0.2-0.6l-1.4,1.1l-2-1.6l-1.1,0.1l-0.2-0.5l-1.2-0.5l-0.1,1.8l-0.6,0.7
	l0.3,0.5l-0.9,0.1l-1.5-1.4l-1.7-0.3l-0.5-0.5l-0.8,0.2l0.5-0.7l-0.2-1.4l-1.1-0.4L230,411l-0.3-2.2l-1.2-0.4l-1.4,0.3l-2.3-1.1
	l-1.5-0.1l-0.6,0.6l-0.4-0.5l-1.6-0.4l-0.3-0.9l-1-0.1l-0.3-0.7l-0.5,1.4l0.9,0.2l0.6,1.2l-0.4,1.4l-1.2,0.5l-0.3,0.6l0.8,1.2l0,0.7
	l-0.6,0.3l0.6,2.1l-2.5,0.9l0.3,1.7l-0.5,2l-1.8-0.4l-0.6,0.3l-0.1-0.6l-1.9-1.5l-1.8,0.8l0,0.4l0.9,0.4l-0.8,0.3l-0.4,1.2l0.2,0.3
	l-0.5,0.9l0.3,1l-0.9-0.2l-0.1,1.1l-0.7-0.2l-0.1,0.7l0.2,1l1,0l-0.1,0.7l0.8-0.1l-0.3,0.9l0.8,0.1l1.2,1.8l-2.1,0.3l-1,2.6L208,431
	l-0.5,0.7l0.1,2.5l-1.6,0.6l-0.2-0.5l-1,0.1l0.1,1.5l-0.5-0.2l-0.6,0.4l0.8,0.4l-1.2,0.4l0.6,0.2l-0.7,1.4l0.9,0.7l-0.3,0.6l0,0
	l-0.8-0.3l0,0.6l-0.9,0.4l-0.6-1l-1.5-0.1l1-1.6l-0.8-0.3l0-1l-0.6,0.4l-0.5-0.5l-1.5,0.9l0.1,0.8l-1,1.2l0.2,0.7l-0.7-0.1l-0.4,1.3
	l-1.1,0.4l0.3,0.9l-1,0l-0.5-0.7l-0.2,0.4l-0.7-0.5l-0.7,0.1l-0.6,1.4l0.9,0.4l-0.4,0.5l0.2,0.7l-0.7,0.1l0,2.5l-2.3,1l-1.2-0.6
	l-0.1,0.9l1,0.6l-0.5,0.8l-0.9,0.1l0.2,0.9l-0.6,0.2l-0.2,1l-0.5-0.2l-1-1.7l-0.8,1.4l0-1.2l-1,0l0,0.9l-0.7,0l0.1,1.1l-1.2,0.3
	l-0.3,0.8l-1.7,0.2l0.2,1.1l0.5,0.4l-0.5,0.6l0.6,0l-0.9,0.5l0.1,0.8l0.8,0l-0.2,1.2l0.9,0.1l-0.5,1.2l-0.6,0l-0.2-0.8l-1.4,0.4
	l-0.6-0.9l-1.4,0.5l0.1,1.1l-0.3-0.9l-0.8-0.5l-0.8,0.8l-0.5-0.5l-2.5,0.6l-0.7-0.6l-0.1-1.3l-0.5,0.7l-0.7-0.8l-0.4,1.1l-1.3-1.1
	l-0.9,0.2l-0.3-0.9l-0.8-0.4l-0.4,1.8l-0.7,0.2l0.1,0.7l0.6,0.2l-0.1,0.8l1.1,0.9l0,1.1l-0.7,0.8l1,1.6l0,0.7l-0.7,0.5l0.6,0l0,1.6
	l-0.6,0.2l-0.7-0.4l0-0.7l-0.7-0.1l-0.1,0.9l-1.6,0.4l-0.5-0.9l-0.7,0.5l-0.7-0.3l-1,0.5l-1.1,0l-0.1,1.7l-1.3,0.7l-0.7,0l0.1-0.7
	h-1l-1-1.6l-1.2,0.5l0-0.3l-1.8,0l-0.2,0.3l0.8,0.4l-0.1,0.6l-1,0.5l0.2,1.8l-1.4,0l-3.1,1.2l0,0.8l-0.7,0.8l0.6,0.7l-1,0l-0.1,0.6
	l-1.2,0.5l-0.5-1.7l-1.1,0.1l-0.4-0.7l-0.1,1.2l-1.4,0.5l-0.3,1.1l-0.5-0.2l0.1-0.4l-0.7,0.1l-0.3,1.1l-0.8-0.9l0.2,0.9L138,477
	l0.3,0.4l0.6-0.6l-0.1,0.9l0.9,0.1l0.1,1.1l0.5,0.1l-0.1,0.6l-0.4-0.5l-0.4,0.2l0,1.1l0.5,0.7l-0.3,0.5l0.4-0.5l1.4,0.2l0,0.5
	l1.6,0.5l0.2,0.9l-0.5,0.9l0.1,1.2l-1.1-0.5l-1.3,1.2l0.4,0.4l0.9-0.4l0.7,0.3l-1.6,2.9l0.4,1l-0.4,0l-0.4-0.8l-0.6,0.8l0.9,0.2
	l-0.5,1.5l-1.5,0.7l-0.8,0l-0.5-0.9l-0.5,0.7l-1.5,0.7l0.1,0.8l-0.7,0.2l0.6,0.4l0,0l-2,0.9l-0.6-0.1l-0.6-0.7l-0.5-2l-1.3-0.2
	l-0.3-1l-0.6,1.2l-3.1,0.3l0,0l-0.6-0.4l0.5-0.2l-1.7-3.3l-1.6-0.5l-0.5-2l-0.6-0.4l0.2-0.4l-0.6-2.6l-0.9-3.4l-0.4,0l0.7-0.9
	l-0.8,0.2l0-0.9l-1-1.5l0-0.9l0.5-0.2l-0.5-0.7l0.5-0.8l-0.4-0.1l-0.2-3.4l-0.7-1.8l0.3-1.9l-0.5,0l0.3-0.5l-0.6-0.3l0.9-1.1
	l-0.6-0.7l-0.8-3.2l-0.7-0.7l0.7-0.1l0.1,0.4l0.3-0.5l-0.7-1.6l-0.8-0.4l0.8-0.7l-0.4-0.1l0-1.3l-0.9-1l0.6-0.6l-0.8-1.1l-0.3-1.2
	l0.4-0.5l-0.9-1.9l-0.2-1.8l-0.2,0.1l-0.7-1.1l0.2-0.8l-1-1.5l0.3-0.4l-0.6-1.2l0.3-1.3l-1.1-0.5l0.1-1.3l0.6,0l0.3,0.8l1.7,0.4
	l-0.3,0.7l0.6,0.7l-0.2-1.7l-0.5-0.8l-1.2-0.1l-0.8-1.3l-0.7-0.4l0.2-0.7l-0.6-1.8l0.7-1.4l-1.5-3.2l0.3-2.3l0.9,0.3l0.5-0.7
	l0.6,0.8l0.2-0.4l0.1-1.2l-1.2,0.3l-0.4-1.1l1-0.1l-0.4-0.8l0.3-0.6l0.5,0.2l1.1-0.8l-0.6-0.1l-0.2-1.2l-0.6,0l-0.1,0.6l-0.9,0.8
	l-0.9-0.2l-0.3,1.6l-0.7,0.7l0.3-1.1l-0.6-0.2l0.5-1.6l0.2,0.2l0.2-0.4l-0.4-0.1l0.2-1.1l-0.9-1.5l0-2.4l0.4-1.1l-0.8-0.9l-0.3-1.8
	l0.7-0.6l0.1-0.7l-0.4,0.5l-0.9-0.7l-0.1-1.2l0.5,0l-1-4.1l-0.7-1l0-0.4l0.6-0.1l-0.3-1.4l1-0.8l-0.2-2.1l0.6-1.4l0,0l1.3,0.2l0-0.5
	l0.7,0.1l0-0.9l0.8-0.8l1.9,0.3l0,0l0.3,0.9l-0.3,0.9l0.3,0.4l0.6-0.5l-0.1,0.5l0.9,0.9l0.2-0.7l1.6,0.3l0.9,0.7l0.6-1.5l0,0
	l1.5-0.6l0.4-1.2l0.8,0.2l0.3-0.3l0.1,0.4l1.1-0.3l-0.1-3.1l-0.6-0.8l0.8-0.5l1.4-2.7l-0.4-0.1l0-0.9l-0.8-0.2l-0.8-1l0.7-0.5l0.3-1
	l0.6-0.1l0.3,1.4l0.8-0.4l1.4,0.8l0.6,1.2l0.7,0.4l0.6-0.3l0.9,0.2l1.8-1l0.1-1.1l-0.5-0.6l0.8,0l0.4-0.7l0.7,0.1l0.6-0.4l-0.1-2.1
	l-1-2.1l0.2-0.9l-1.8-0.3l-0.2-0.6l-0.7,0.3l-0.7-1l0.2-1.2l-1.8,0.1l-1.4-1.3l0.5-0.2l0.5,0.9l0.9-0.4l1.1,0.3l0.1-0.6l1.6-0.1
	l0.2-2l1.2,0.1l1.1-0.7l0.1-2.2l0.3,0.2l1.6-0.6l0.4-1.3l0.8,0.7l0.4-0.3l1.9,0.1l0.1-0.4l0.4,0.4l1.6-0.7l0-1l-0.5-0.5l-0.7,0.6
	l-0.6-0.3l-0.6,0.4l-0.4-0.6l-2.3,0l-4.2,1.4l-0.7-2.2l-0.7-0.6l2-0.4l0.2-1.2l-1.3-1.3l0.3-0.6l-0.7-0.7L135.9,362.2L135.9,362.2z"
	/>
<path id="IN-ML" class="st0" d="M449.9,284.3l2.9-1.3l-2.5-2.9l0.8-0.2l0.4-0.7l-0.2-1.1l1.3-0.5l0.3-0.4l-0.3-0.3l2.3-1.8l1.3,0.4
	l2.8-0.7l0.8-0.8l0.6-0.1l0.6,0.6l1-0.6l1.1,1.3l-0.4,1.4l1.4-1.4l0.9,0.5l-0.4,0.6l0.4,0.3l1.2-1.1l1.2-0.1l-0.1,0.9l0.7,0.2l0.6-1
	l0.5,0.3l0.9-0.3l0.7,0.8l-0.1-0.7l0.5-0.1l0.5,1.3l1.2,0l-0.6,1.5l1-0.6l0.6-0.1l-0.6,0.5l0.3,0.2l2.7-0.9l-0.3,1.8l0.2,1l0.6,0.1
	l1-0.5l1.2-2l1.7-0.4l0.5,0.3l1.6-0.7l0.1-0.4l-0.4,0.5l-0.7-0.1l1.1-1.2l-0.6,0.1l1.5-2.5l1.1,0.2l0.1,1.3l-0.5,0.6l1.2,0.8l1-1.1
	l0.2-2.3l1.8-1.3l1.1,0.5l-0.1,1l1,1.2l1.4-0.9l1.2,0.2l1.6-0.3l0.9-0.7l1.3,0.4l1.1-0.4l-2.8,3l0.1,0.7l1.2,0.1l-0.9,0.8l-0.5,1.3
	l0.2,3.1l1.4-1l2.1-0.2l1-0.6l1,0.5l0,0.9l0.7,0.2l0.7,1.3l1.1,0.2l0.3,1.1l0.6,0.1l1-0.8l-0.2,1.2l-1.5,1.5l0.6-0.1l0.2,1.2
	l0.9-0.4l0.1,0.5l0.3-0.1l0.9,0.9l0.4-0.1l0.5,1l0.5,0.1l0.2,1l-0.6,0.8l0.8,0.7l-2.7,0.9l-0.9,1.3l-1.9-0.5l0.4,0.9l-1.2-0.2
	l-0.4,1.6l-0.7,0.1l0,0l-1.6-0.4l0-0.6l-2.3-0.4l-3.3-2l-5.7,0.5l-0.6-0.3l-0.2,0.6l-0.7-0.2l-1.3,0.8l-0.8-0.5l0.2-0.7l-2.9,0.9
	l-1.1-0.8l-1.5,0l-1.4-0.7l-3.8,0.1l-4.3,0.9l-1.6-0.6l-0.9,0.6l-0.9-0.4l-3.5-0.1l-1.3,0.7l-2.2-1.1l-4.5-0.7l-2.9-1.7l-2.7,0.2
	l0.3-0.3l-0.5-1.7l0.7-2l0,0l0.5-0.3L449.9,284.3z"/>
<path id="IN-MN" class="st0" d="M521.9,289.5l0.1,0.7l0.7,0.1l-0.1,0.7l1-0.1l1.1,1.1l1.7-3.5h0.5l1.8-2.3l-0.1-0.7l-0.8,0l0.1-0.9
	l2.4-0.6l1.5,0.3l0.9-0.3l0.1-0.5l1.4,0.8l0.1,0.6l0.9,0.2l0.4-0.7l0.7,0.1l0.4,1.1l1.4-0.3l0.5,0.4l2.1-1.1l0.2-1.1l0.9-0.6
	l0.6,0.1l1.4-1.8l0.5,0.1l-0.4,1l0.4,0l-0.8,1.3l0,1.6l1.5,1l1,0.1l0,0l-0.2,1l-0.9,0.6l-0.9,3.8l3.2,1.7l-0.1,2.4l-0.8,1l0.3,0.8
	l-1.6,2.2l-0.5,2.6l-1.2,0.1l-0.4,1.8l-1.3,1.2l-0.7,1.8l-0.5,0.1l0,1.5l-0.8,0.5l0.4,0.4l-1.1,0.9l0,1l-1.3,2.7l-0.3,2.7l-1,2.3
	l-0.5,0.1l-0.2,1.8l-0.8,0.2l-0.5-1.1l-2.8-1.2l-0.9-0.1l-1.8,0.6l-1.2-1.7l-2.7-0.1l-0.3,1l-0.8-0.4l-1,0.9l-0.9-0.6l-1.1-2.3
	l-1.2-0.4l-0.4,0.2l0.1,0.8l0,0l-1,0l-0.7,0.6l0.2-0.8l-0.4-0.5l-0.5,0l-0.1,0.7l-0.9-0.1l-0.4-0.7l-0.9,0.9l-0.4-1.3l-0.5,0.3
	l-1.5-0.5l0.9-2.1l-0.3-1.5l0.7-1.4l-0.4-0.1l0.1-1l-0.5-0.3l0,0l0.8-0.2l-0.1-1.9l0.7-1.4l-0.2-0.3l0.9-0.2l-0.6-0.3l0.6-1.7
	l-0.6-0.8l0.6-0.7l0.1-1.5l0.3-0.2l0.6,0.7l0.9-0.5l0-1l0.6-0.5l0.5-0.9l-0.3-0.4l0.4-0.3l-0.3-1.5l0.4-0.7l0.7,0l0.6-1l1.1-3.3
	L521.9,289.5z"/>
<path id="IN-MP" class="st0" d="M217,255.7l1,0.3l0.4-1l1.4-0.2l0.8,1.1l0.7-0.2l0.5,0.8l2.3,0.9l1.9-0.3l1.1-0.7l0.2,0.5l0.4-0.3
	l0.5,0.6l0.9,0l1.1,1.4l0.8-0.2l0.9,0.4l-0.2,0.8l1.1-0.5l0.2,1.6l-0.5,0.8l0.2-0.2l0.1,0.7l0.5,0l0.8,1.1l-0.2,1l1.6,0.2l-0.2,0.6
	l-0.6,0l-0.2,1.2l1.1,0.4l-0.4,0.2l0.2,0.4l-0.7,0.1l-0.2,0.9l-0.3-0.3l-0.6,0.5l0.4,0.8l-0.7,0l-0.1,0.8l-0.7,0l0.5,0.9l-1.2,0.4
	l1.2,1.3l-1.2,1l-0.3,1.9l-1.1,0.7l0.1,1l-0.7,0.2l0.3,1.4l-1-0.7l-0.2,0.3l0.5,0.1l0,0.3l-1.5,1.1l1.3,1.6l-0.1,1.1l-2.6,0.7
	l-0.6,0.6l-0.8-0.5l-0.5,0.5l-1.9-0.4l-0.6,0.7l-0.5-0.3l-0.4,0.7l0.2,1.2l-0.9,0.6l-0.6-0.1l-0.3,1.2l-0.7,0.6l0.7,0.8l-0.5,0.6
	l0.7,0.3l0.2,1.1l0.9,0.6l-0.2,0.5l1.2,0.6l-0.6,0.3l0.5,0.5l-1,0l-1.3,0.9l0,2l-3.2,2.6l0,0.5l0.9,1l0.2,1.4l1,1.8l-0.2,2.4
	l-0.8,0.8l1,1l-0.1,0.6l1.9,1.3l-0.7,1.2l1.1,1.2l1.1-0.5l1.4-2.1l1.5,0.8l1.8,2.4l0.6,0.2l0.7-0.4l0.3,0.3l0.3-0.4l0.6,1.7l0.4-0.7
	l1.3-0.3l0.6-1.7l1.2-1.1l0.4-1.9l-1.5-0.6l0.1-0.7l0.3,0.4l0.7-0.3l-1.7-3.1l-2.1,1l-0.5-0.3l-0.2-1.2l0.6-1l-0.2-2l0.3-0.4l-0.3-1
	l-1.9-0.9l-0.3-0.9l-0.6-0.5l0.4-2.1l-0.9-0.8l-0.6-3.5l-1.4-0.8l-0.9,0.5l-0.5-0.4l0.3-0.3l0.5,0.2l0.5-0.7l0.2,0.4l0.5-0.1
	l0.3-0.4l-0.3-0.8l1,0.2l-0.3-1l0.5,0.1l0.3-0.5l0.5,0.2l0.5-0.8l0.7-0.1l0.3,0.4l-0.6,0.5l-0.3-0.4l0,0.7l1,0.2l0.1,0.6l1-0.1
	l-0.4-1.2l1.4-0.4l-1.2-0.1l-0.6-0.6l0.1-0.8l0.5,0.5l1.5,0.2l0.3,0.2l-0.6,0.2l0.4,0.3l0.5-0.8l-0.6-0.9l1-0.3l0-0.7l0.7-0.1
	l0.1,0.4l0.3-0.4l0.2,0.6l-0.5,0.2l0.4,0.9l-0.6,0.7l0.5,0.4l0.6-0.2l0.4,1.4l-1,0.5l-0.7-0.5l0.8,0l0.4-0.5l-1.5,0.3l-0.7,0.8
	l0.1,0.4l-1,0.4l-0.2,0.4l0.6,0l-0.1,0.6l0.7,0.9l0.7-2.5l1,0.3l0.5-0.4l0.3,1.4l-0.6,0.5l-0.6-0.3l-0.3,0.6l-0.3-0.2l-0.1,2
	l1.5-1.2l0.9,0.5l0-0.8l-0.5-0.2l0.7-0.7l0.1,0.6l0.9,0.5l-0.6,0.9l-0.1,1l0.4,0.1l0.8-1.2l0.7,0.6l-0.3,0.4l0.4,0.7l1-0.2l-0.2-0.5
	l0.4-0.2l0.4,0.8l0.6-0.1l0.1-0.5l-0.6-0.2l0.4-0.3l0.5,0.2l0,0.7l0.9-0.2l0.2-0.4l-0.7-1l-0.1-1.1l1.2,1l0.3-0.3l-0.4-0.3l0.2-0.9
	l-0.6,0.2l-0.4-0.6l-0.6,0.4l0-0.9l0.7-0.7l1,0.2l-0.3,0.9l0.4,0.6l0.3-0.6l1,0.8l0.8-0.5l0.7,0.3l-0.6,0l-0.6,1l0.3,0.3l-0.7,0.1
	l-0.5,0.8l0.3,1.2l0.3-0.6l0.3,0.7l0.7-0.6l-0.2,0.8l0.6,0.3l1.5-2.1l0.5,0.7l0.3-0.2l-0.1,0.5l3-0.3l2.2,1l-0.2-0.8l0.5-0.4l-0.5-2
	l1.1-0.4l0.2,0.5l0.6-0.8l1.1,0.1l0.5-1.6l1.2-0.3l0.8,0.4l1.3-1l0.1-0.7l1,0.2l0.2-0.5l1.1,0.9l-0.1,2.2l1.5,1.1l0.4-0.1l0.5,1.5
	l-1.4,0.6l-1.7,2.5l1,0.6l0.8-0.5l0.5,0.4l-0.3-1.1l1.5-0.5l0.6,0.8l0.5,0l0.1-1l-0.5-0.3l0.7,0l0.7,0.7l0.4-0.5l0.9,0.4l-0.2-1.8
	l0.8,0.7l-0.6,0.4l1.1,0.7l0.5-0.2l-0.1,0.6l1.1-0.4l1,0.2l0-0.5l-1-0.3l0-0.5l-0.5-0.3l2-0.2l0.6,0.8l0.2-1.8l0.8-0.1l0.5,0.8
	l-0.8,0.8l0.1,1.2l-0.9,0.7l0.4,0.9l-1.2,0.6l0.2,0.6l0.7,0.2l1-0.3l0,0l0.3,0.2l-0.1-0.4l0,0l0.8-0.3l0.4,1l1.2-0.1l-0.1-0.5l1.3,0
	l1.1,1.3l0.6-1.5l0.7,0.5l-0.3,0.1l0.6-0.1l-0.2-1.3l1.2-1.6l-0.3-0.8l0.5-1.4l0.7,0l0.2,1.1l0-1l0.3-0.2l1.2,1.1l0.8-0.2l0.2,0.5
	l-0.7,0.1l1.7,0.7l0.5-0.7l-0.7-0.7l0.5-0.3l0.6,0.2l-0.3-1l1.1-0.2l0.3,0.6l0.7,0.2l-0.5,0.5l0.2,0.8l0.3-0.5l0.3,0.4l-0.8,0.5
	l0.2,0.4l1.1-0.4l0.5,0.8l1-0.1l1.1,0.8l0.8-0.2l1.1,0.6l0.2-0.4l0.3,1.7l-0.3,0.8l1.3,1.4l0.9-0.4l2.1,1.3h0.9l0.7-0.7l-0.3,0.4
	l0.6,0.5l-0.4,0l-0.3,0.9l0.8,0.2l-0.3-0.5l0.5,0l0-0.3l0.3,0.3l0.1-0.5l-0.3,2.3l0.5,0.1l0.2-0.4l0.7,0.4l0,1.2l0.7-0.2l1.6,0.6
	l-0.2-1.9l0.6-0.5l0.3,0.6l1.4,0l0.2,0.6l2.6-1.1l0.8,0.5l0,0.7l1.3,0l-0.1,1l0.7,0l0.1,1l-1.1,0.2L307,306l0.1,0.9l0.4,0.3
	l-0.6,2.5l1.1,0.3l0.1,1.8l-0.3,1.2l-0.5,0.3l-0.1,1.8l-1-0.4l-0.3,0.5l1,1.2l1.2,0.1l-0.5,1.2l1.1,0.4l0.2,0.9l0,0l-1.2,0.9
	l-1.8,0.3l-0.1,1.1l-1.3,0.7l-1.2,0l0.3,0.6l-0.6,0.2l-1.1-0.6l-2.6,0.2l-1.5-0.4l-0.6,0.3l-0.5-0.5l0.1-0.5L296,322l-2.3,0
	l-0.9-0.9l-1,0.2l-0.7-0.4l-1.3,1.1l-1.4,0.3l-1.3-0.6l0.1-0.4l-1.2-1.4l-1,0.4l-0.2,1.2l0.6,0.5l0.2,1.3l0.7,0.4l0.3,0.7l-0.9,1.3
	l-0.6,0l-0.2,1.3l-0.7,0.2l0.1,0.7l0.6,0.1l0,0.9l0.4,0.4l0.5-0.9l0.8,0.2l0.9-1l1.4,0.5l0.5,0.7l1.8-0.4l1.2,2.6l0.8-0.2l0,0.8
	l0.6,0.2l1.1-0.4l0.2,0.9l0.5-0.1l1,0.8l0.1,0.9l-0.9,1.2l0.2,1.9l-0.7,0.8l-1-0.3l-0.9,0.8l-1.7,0l-0.4,0.8l0.4,1.8l-1.6,0.9
	l-0.1,0.5l-1.7,0.4l-0.2,0.8l0.5,1.5l-0.8,0.9l0.3,1.4l-0.4,0.3l-0.4-0.6l-0.3,0.6l-1,0.4l-0.2,1.4l-0.5,0.1l-0.2,0.5l-1.9,0l-0.8,1
	l-0.8,0l0.2,0.6l-0.5-0.3l-0.6,0.8l-0.4-1.4l-1.1-0.4l-0.4,0.9l-0.6-0.4l-1.1,1l-0.8-0.8l-1.4,1.1l0.1,3.1l-0.6,1l-1.3,0.4l-0.1,2.1
	l-0.9,0.4l0.7,0.4l-0.1,0.8L272,360l-0.3-1.2l-0.8-0.1l-1.3,3.4l-0.5,0.1l0.4,0.5l-0.1,2.8l-0.4,1.2l-1.4-0.2l-0.5,1l-0.2,2.7
	l0.4,2.4l-1.5,3l0,0l-1.3,0.1l-2.2-1.6l-0.7-0.1l-0.2,0.6l-0.7-0.1l-0.3-0.7l0.4-0.7l-0.8-1.8l-2.2-2.1l-1.4-0.3l-1.5,0.6l-1,1.1
	l-1.4,0.4l-1.1-0.5l-0.4,0.7l-1.2-0.1l-2.5-1.5l-1.7,1l-2.2,0.3l-1-2.8l-1.5-0.4l-0.4,0.4l-0.9-0.1l-2.4-1l-0.2,1.6l-1.4-0.2
	l-1.2,1.3l-1.6,0l-0.3-0.4l-1.6,0.6l0.3,0.7l-0.5,0.1l0.7,0.9l-0.2,0.6l-0.7-0.3l-0.3,0.3l-1.9-0.1l-0.2,0.5l-0.5-0.6l-0.5,0.6
	l-2.7-0.5l-0.4-0.6l-1.2-0.3l-1.6,0.6l-0.1-2.1l-0.9-0.4l-0.4,0.9l-0.5-0.3l-0.7,0.4l-0.8-0.5l0.1,0.5l-1.8,0.3l-0.2,1.3l-4.6,2.4
	l-1.1,0.2l-1.6-0.7l-0.1,0.5l-0.9,0.1l-0.3,0.4l-0.6,0.1l-0.3-0.8l-0.5,0.5l-0.3-0.5l-1,0l0.1,0.6l-0.4,0.1l-1.9-0.3l-0.4-1.7
	l-0.6-0.3l-0.4-1.3l0.8-0.5l2.2,0.6l0.8-0.3l-0.7-0.4l0-1.4l-0.6-1.6l-1.3-1.5l-3.8,0.2l-0.1,0.8l-1.2,0.1l-0.3,0.5l-0.7-0.7
	l-0.3,0.3l-1.7-0.2l-3.4,2.6l-1-0.3l-0.4,0.5l-0.8-0.1l-0.1,1.2l-0.5,0.4l0.6,0.7l-0.2,0.5l-3.2,2.8l0.7,1.1l-0.8,1.9l-2.7-0.1
	l-0.7,1.7l-1.5,0.8l-1.9,0l-0.4-0.4l-1.8,0.2l-1.2-1.7l1.1-0.1l0.1-0.4l-0.6-1.1l0.3-0.4l-1.2-2.4l-0.9,0.5l-1.7-0.9l-1.6-0.1
	l-4.3,0.4l-1.3-0.3l-1.2,0.5l-1.6-0.5l-1.4,0.2l-0.7-0.4l-1.2,0.3l0-0.6l-1.6,0.1l-2.1-1l-1.1-2.2l-3.1-1.4l-2.2,0.4l-4.6-1.5
	l-0.1-0.8l-0.8-0.2l-0.2-1.7l0.5-2.2l-0.7-1l-0.9-0.4l-0.1-1.2l-1.2,0.1l-0.7,0.9l-1,0.3l-0.2,0.7l-1.8,0.2l-1.1-0.6l0,0l0.2-0.7
	l-1.1-0.6l1.7-1.5L136,359l-0.5,0.2l-0.1-2.5l-0.9-0.2l0.3-0.5l-0.6-0.9l0.3-1.6l0.8-0.2l0.4,0.8l1.1,0.2l0.3-1l0.4,0.2l0.6-0.9
	l0.7,0.1l-0.8-0.8l-1-0.1l-0.3-0.9l-0.1,0.7l-0.5,0.3l-0.3-0.5l-0.4,0.8l-0.4-1l-0.5,0l0.1-0.9l-0.8,0.4l-0.2-0.4l0.6-0.9l1.7,0.7
	l2.2-2.7l2.4,0l0.4-1.9l1.5-2.8l-0.5-1.4l-1,0.5l-0.8-0.7l-0.4-0.7l0.6-0.3l-1-1.8l0,0l1.4-1.1l2.4,0.5l0.7-0.9l1.2-0.3l1.2-1.2
	l0.9,0.1l0.6-0.4l0-0.4l-1,0.2l0.5-0.4l-0.4-0.6l-1.1,0.3l-1.5-0.9l-0.4,0.4l-0.7-1l1-1.1l0.1-1l0.8-0.8l0.8-0.1l0.9-0.9l0.7,0.1
	l1-1l0.4,0.3l0.8-0.4l1.2-1.5l0.7-0.2l-0.6-1.1l0.7-1.1l-0.7-3l0.3-1.3l1.4-2l-2.2-4l0.5-0.4l-0.2-0.6l-0.5-0.4l-2.3,0l0.6-0.7
	l0.1-1.2l1.4-2.1l-0.8,0.1l0-0.6l-0.8,0.2l-1.3-0.6l0.9-1l-0.2-0.9l0.8-0.3l-0.1-0.6l0.7-0.8l-0.8-0.4l0.5-2.4l1.9,3.1l1-0.1
	l0.4-0.9l0.8-0.2l-0.1-1l0.5,0l-0.3-0.9l-1.8,0.2l-1.2-0.6l-0.2,0.4l0.1-1.3l-0.6-1.6l0.5-1l0.4,0.8l0.3-0.3l0.6,0.5l0.1,0.8
	l2.5,0.7l0.3-0.5l1.2-0.2l-0.1-1.7l1-0.6l-0.1-1.2l3.7,0.1l0.1,0.4l-0.7,0.4l0.4,1l-0.5,1.4l-0.8-1.7l-0.2,0.3l0.5,0.8l-0.6,0.7
	l1,0.4l0.3-0.4l2-0.1l-0.1,0.6l-2.2,1.1l-0.5-0.9l-1-0.1l0.5-0.8l-0.5,0.1l-0.3-0.4l-0.1,0.6l1,1l-0.9,0.6l-0.4,0.9l0.6,1l1-0.2
	l3.7,0.9l2.6-0.6l0.6,0.7l2.9-1.7l1.6,0.8l-0.2,1.3l0.4,0.4l-0.4,0.9l0.2,0.4l0.5-0.4l1.1,0.9l-0.2,0.4l0.4,0.4l-0.7,0.5l0.4,0.4
	l-0.1,0.8l-1.2,0.8l-1.1-1.2l-0.8,1l0.1,0.4l-0.6,0.1l0.2,1.2l0.5,0.8l0.9,0.2l0.3,1.2l-1.1,0.6l-0.6,1.8l0.7,0l0.3,0.6l0.9,0l0,0.8
	l-1.1,0.3l-0.4,1.4l-1.2,0.6l-0.6-1.4l-0.7,0.7l-1,0.2l-0.3-0.7l-1.1-0.6l-1,1.5l-0.2,1.3l2.1,1.3l0.3,0.4l-0.4,0.3l0.5,0.6l1.4,0
	l0.7,0.9l0.1-1.3l0.6,0l0.2-0.9l-0.6-0.4l0.1-0.6l0.9,0.3l0.5,0.8l0.3-0.4l1.3-0.5l0.4,0.2l1.9-1.1l-0.3-2l1.7-1.1l1.8-0.4l-0.3-2.2
	l0.7-1l-0.2-0.9l0.8-1l0.4,0.4l-0.2,0.6l0.4,1.5l1.3,0l0.9-0.8l1.7,1l0.2-0.4l0.6,0.2l0.3-0.3l1.2,1.5l1-0.4l-0.3-0.4l0.6-0.6
	l-0.2-0.4l0.5,0.2l0-0.5l1.5-0.5l0.2,0.8l-0.6,1.2l0.5,0.5l1.1,0l0.9,1.1l1.1-0.4l0.9,0.2l0.3-1.3l0.6-0.4l-1.4-1.4l-0.7-1.5
	l0.2-2.8l-0.7-1.4l1-0.3l0.3,0.5l0.7-0.4l0,1.2l1,0.6l0.7-0.4l0.6-1.1l0.4,0l0.3-0.9l-0.1-1.6l-0.7-1.5l-1.1-0.5l-0.4-0.7l-0.8,0.4
	l-1.2-0.1l-0.9-1.5l0.6-0.4l1.9-0.2l0.4-0.5l-0.7-0.3l0.1-0.6l-0.6-0.1l-0.7-2l2.8-1.5l1.7,0.5l0.7-0.2l1.1-1l1.9-0.1l0.8,0.8
	l1.9-0.6l-0.2-1.6l0.5-0.1l-0.2-0.7l-1.1-1l0.4-1.1l-0.7-0.1l0.5-1.9l-1.1-0.5l-0.4,0.3l-1.3,1.1l-0.3,1.4l-2.6-0.6l-1,0.8l-1.3,0.1
	l-0.3,0.5l-1-1l-1-0.2l-1.5,0.4l-0.1-0.5l-1.7-0.2l-1.6-1l-0.3-0.9l-0.5-0.2l-0.9-1.9l-0.2-3.1l-0.7-0.5l0.1-0.5l1-0.3l0-1.4
	l1.3-1.7l0.7,0.1l0.4-0.8l1.7,0.1l0.6-0.4l-0.1-0.4l1-0.2l0.7-1.3l-0.2-0.4l1.1-1.4l2-0.9l1-1.1l1.1-0.2l0.6-1l1.6,0l1.7-1.3
	l0.9-1.4l2-0.2l-0.1-0.9l1.9-0.2l2.9-2.1l0.9,0.1l0.6-0.9l1.4-0.2l0.1-1l1.2-0.5l0.3-0.9l1.1-0.1l0.9-0.8l1.9,0.4l0.1-1.2l0.5-0.4
	l-0.3-0.9l1.5,0.1l-0.3-0.8L217,255.7z"/>
<path id="IN-MZ" class="st0" d="M498.4,312.6l2.5,0l0.3,2.2l0.9,0.2l0.1-0.5l0.9-0.3l0.4-1.5l1.2-0.2l0.3-1.7l1.3-0.5l1.5-3.6
	l1.3,3.1l0.7-0.5l0.8,0.1l0.1-0.4l0.5,0.4l1.3-0.2l0,0l0.5,0.3l-0.1,1l0.4,0.1l-0.7,1.4l0.3,1.5l-0.9,2.1l1.5,0.5l0.5-0.3l0.4,1.3
	l0.9-0.9l0.4,0.7l0.9,0.1l0.1-0.7l0.5,0l0.4,0.5l-0.2,0.8l0.7-0.6l1,0l0,0l-0.1,1.4l1.3,1.2l0.1,3.7l0.8,1.7l-0.9,5.4l0.3,1l-1,0.7
	l0.6,2.8l-0.4,1.6l0.4,0.3l-1.9,2.9l-0.9,0l-1.2-1.2l-1.2,0.3l-0.1,1l0.8,1.8l-0.6,0.1l-0.5,2.1l-0.3,0.1l0.3,1.4l-0.4,0.8l1.1,2.4
	l-0.7,1.4l0.4,0.3l0.2,1.2l1,0.8l0.4,3.6l-1.2,0.3l0.5,1l-0.3,0.5l-1.5-0.7l-0.6,0.3l0.4,2l-1,0l-0.1,2.5l-0.4,0l-0.6-1l-0.5,0.3
	l-0.4,1.5l-0.9-2.6l-0.5,0l-2.5-1.9l-0.4,0.1l-0.3,2.8l-1.5,0.9l-0.1-1.7l-0.7-1.5l0.3-0.2l0.4,0.4l0.1-1.1l-1.6-8.4l0-2l-0.4-1.7
	l-0.5-0.3l-0.5-1.5l-0.2-1.6l-0.3,0.1l-0.2-0.7l-0.9-0.3l0.4-2.7l-0.6-1l-0.1-2.8l0.9-0.2l-0.7-1.7l0.1-0.9l-1.1-2.4l-0.5-3.3
	l-0.4-0.1l0.3-1.4l-0.5-0.8l0,0l-0.2-1.9l0.5,0l-0.2-0.7l0.3-0.5l0.6,0.1l0.2-1l-0.4-1.1l0.4-0.6l-0.3-1l0.5-2.4L498.4,312.6z"/>
<path id="IN-NL" class="st0" d="M556.2,251.1l0.8,3.4l-1,0.6l0.5,0.3l0.1,1.2l0.6,0.2l-0.6,1.2l0.4,1.1l0,0l-1.7,1.5l0,0.9l-1.7,2.6
	l0.8,0.7l0,0.6l0.6,0.3l-0.3,3.3l0.4,0.5l-0.5,1l0.1,1.3l1.3,0.7l-1.6,2.5l-1.4,0.7l-0.3,0.6l-0.1,0.8l0.7,2.4l-2.3,2.1l-0.4,1.3
	l-0.6,0.4l0.3,0.6l-1.1,0.1l-0.7,1.4l-2.6,0.8l0,0l-1-0.1l-1.5-1l0-1.6l0.8-1.3l-0.4,0l0.4-1l-0.5-0.1l-1.4,1.8l-0.6-0.1l-0.9,0.6
	l-0.2,1.1l-2.1,1.1l-0.5-0.4l-1.4,0.3l-0.4-1.1l-0.7-0.1l-0.4,0.7l-0.9-0.2l-0.1-0.6l-1.4-0.8l-0.1,0.5l-0.9,0.3l-1.5-0.3l-2.4,0.6
	l-0.1,0.9l0.8,0l0.1,0.7l-1.8,2.3h-0.5l-1.7,3.5l-1.1-1.1l-1,0.1l0.1-0.7l-0.7-0.1l-0.1-0.7l0,0l-0.4-0.8l0.5-0.8l-0.3-1.2l-1.3-0.6
	l-1.3-1.8l1.9-1.9l1.4-0.6l1.5-2.3l2.6-1.9l-0.4-1.3l1.3-0.6l0.4-0.7l0.5,1.2l-0.4,1.4l0.3,0.7l0.9-1.1l0.8,0.4l0.7-0.9l1.3-0.7
	l-0.5-1.9l0.7-1.4l0.3-2.2l2.1-3.4l1.3-0.4l0.2-2.6l1.8-2.2l0.3-0.1l0.1,1.9l0.5,0.4l0.7-1l1-0.5l0.2-1.8l1.1-0.5l0.1-0.8l1.5-0.9
	l0.6,0.4l0.6-1.1l0.5,0.5l1.2-0.3l2.3-1.6l1.7-2.8l0.8-0.4l1.1,0.8l0.7-0.2l1.8-0.9L556.2,251.1z"/>
<path id="IN-OR" class="st0" d="M390,387.4l2.4,0l0.2,1.2l-1.3,0.1l0,0l-1.8,1.3l-0.3-0.5l0,0l-0.7,0.1l0.5,0.6l-0.9-0.1l1-2.4
	L390,387.4L390,387.4z M332.7,350.1l2.6,1.1l0.3,1.5l0.8,0.6l1,0l0.9,0.8l2.7-0.2l0.4-0.7l0.6-0.1l0-0.5l1-0.3l4.3,0.1l0.2-0.6
	l1.1-0.1l0.5,0.4l0.9-0.4l0.3,0.5l1.1-0.7l0.1,0.3l2.2-0.9l0.2,2.8l0.4,0.2l-0.1,0.6l0.5,0l0,0.5l-0.9,0.4l-0.9,3.4l-0.9,0.6
	l0.4,0.1l0.8-0.7l1,0.2l0.5,0.7l0.7-0.1l0.3,0.5l0-0.4l0.8,0.5l0.4,0.9l1.4-2.3l0.5-0.4l0.7,0.1l0.1-0.7l0.6-0.1l2.9,1.5l1,0.3
	l1.1-0.3l0.7,0.9l2.4-1.3l0.6,0.7l-0.9,0l-0.5,1.9l2.9,0.5l0.1-0.8l0.6-0.3l1.2-1.9l0.5-1.6L372,356l1.5-1.3l-0.7-0.1l0.2-0.4
	l-0.5-0.2l0.6-0.8l-0.2-1.1l-1.1-0.7l0.3-0.9l1.1-0.4l0.3-0.9l1.4,1.7l3.4,0.8l1.5,2.1l1.6,0.9l0.1-0.5l1.2-0.4l0.6,0.9l0.9,0
	l0.2,0.5l1.1,0.3l0.1,0.6l1.4,0.4l0,0l-0.1,1.5l1.5-0.2l0.8,1.3l2.5,0.3l1.2,0.9l0.3,1.1l-0.7,1.7l0.6,0.9l1.3,0.1l0-1l1.3-0.5
	l0.2-0.9l1.3,0.4l0.6,3l1.8,0.6l0.4,0.5l1.5,0l0,0.7l0.6,0.5l-0.2,1.3l0.5,0.8l0,0l-2,1.3l-3.6-0.1l-1.7,0.9l-2.7,2.1l-1.8,2
	l-1.4,2.6l0,1.2l2.9,6.7l-0.3,0.8l-1.5-0.3l-1.1,0.5l-1.1,2.7l0.9,0.1l-0.5-0.6l0.6-0.1l0,0l0.3,0.5l1.8-1.3l0,0l1.3,0.3l0.9-0.3
	l-5.2,3.7l-1.1,2.8l1,0.3l0,1l-2,1.7l-2.5,1.1l-2.8,3.7l-0.5,1.3l-0.9-0.2l-1-1.6l-0.9,0.2l-0.2,0.6l1.2,0.1l1.4,1.5l-14,4.5
	l-5.6,2.8l-4.9,3.4l-1.5,1.7l-3,2.2l-1.8,1.8l-1.3,2.1l-0.8-0.5l0,0l-0.5-0.5l0.2-0.7l-0.7-0.1l-0.1,0.7l-1.4,0l0.6,1l0.7-0.1l0,0.6
	l-0.8-0.1l-0.5,0.9l-0.4-1.1l-1.5,0.9l-0.4,0.8l-1.1-0.7l0.5,1l-0.5,0.6l0.3,0.5l-0.6,0.6L340,427l0.4,0.4l-0.7-0.1l0.4,0.3
	l-0.2,0.3l-0.5-0.3l-0.1,1.6l-3.6,0.3l-0.6,0.6l-0.8,0.1l-1.1-1.2l-1.7,0.1l-1.4-0.5l-1.7-4l-0.9,0.6l0.8,1.5l-0.7-0.2l-0.8-1.4
	l0.3-0.6l-0.5-0.1l-1.5-2.9l-0.6,0.7l0.2,0.7l-0.5,0.8l-0.6-0.5l-0.3,1.4l-0.7-0.1l0-0.3l0.4,0l-0.2-0.8l-0.2,0.2l-0.4-0.5l-0.3,0.2
	l0.4,1l-0.1,0.4l-0.5,0l0.1,1.1l-0.9-1.1l-1.2-0.3l-0.8,0.4l0.5,1.5l0.3-0.8l0.7,0.7l-0.7-0.1l1.3,1.4l-0.3,0.6l-0.7,0l-0.1,0.7
	l-1.5,0.2l-0.3,0.7l-0.9-0.2l-0.3,1l-0.1-0.6l-1.4-0.6l-1.6,2.5l-0.8,0.3l-0.1,1.1l0.9,0l-0.5,0.4l0.1,0.4l1.1,0.2l-1.5,2l0.4,0.5
	l0.4-0.2l-0.1,1.1l-0.7-0.2l-1.7,0.7l-0.8-0.3l-0.1-1l-0.8,0.1l-0.9-0.6l-0.5,0.4l0.3,0.5l-0.5,1.3l-2.2,0.9l-0.6,1.2l-0.9-0.9
	l-0.1-0.8l0.7-0.8l-0.2-0.5l-1.3-0.4l0.4-1l-0.5,0.1l-0.1-1.5l-0.5,0l-0.5-0.7l-2.3,2.7l0.5,0.9l-1,1.1l1.2,0.2l-0.4,0.7l-0.7,0.2
	l-0.1,1.1l-0.5,0.4l1.2,1.2l-0.2,0.3l-0.5-0.4l-0.1,2.1l-0.5,0.1l-0.2-0.5l-0.6,0.3l0,1.3l-0.5,0.1l-1.3-0.6l-0.3-0.7l-2.7-0.3
	l-1.5,1.4l-3,1.2l-0.9,0.9l0,0l-1.1,0.7l-0.3-0.5l-0.5,0.2l-1,1.3l-0.8-0.3l-1.7,0.5l-0.4-0.5l-1.5,0.4l0,0l0.2-1.6l0.9,0.2l0.8-2
	l-0.1-1.2l0.7-1.3l0.3-1.4l-0.4-0.6l0.5-1.6l1.3-0.9l1.3-0.2l0-0.6l1.7-0.1l0.3-1.4l1.9-2.1l0.8-0.3l0.2-0.7l0.8,0.1l0.2-0.6
	l-1.3-0.7l-0.1-0.6l1.2,0.5l0.4-1.3l1.3-0.6l0.9,0.1l0.1-0.9l1,0l0.6-0.7l0.2-2.2l1.3-0.3l-0.3-2.2l-0.6-1l0.4-0.6l-0.2-0.6
	l-0.8-0.2l0.4-0.7l-0.5-2.2l0.6-1.1l-0.8-0.9l0.5-0.1l0.3-1.1l-1.3-0.1l-0.5-1.8l-1.4,0.2l0.5-0.8l-0.2-3.5l0.4-1.7l-1.6-0.3
	l-0.4-1.2l-2.2-1.1l-0.2-0.9l0.6-1.8l1.5-1.4l1.7,1.9l0.7-0.8l2.4,1.5l1-0.4l2.2,3.5l1-1.1l1.1-0.4l3,0.8l-0.4,0.9l0.3,1.1l1.2-1.1
	l1.1-0.1l0.3-0.8l-0.3-0.5l0.1-2l-1.5-0.2l-0.7,0.3l-4.1-1.6l-0.2-1.8l0.7-1.2l-0.2-1.3l0.5-0.4l-0.7-1.1l0.7-1.9l-0.4-1l-0.4,0.4
	l-0.2-1.2l-1.1-0.9l0.9-1.5l-0.7-2.9l0.2-2.7l1.1,0.5l0.3,0.8l0.9,0.1l0.5-1.7l1.3-0.8l1.4-2l-0.3-0.7l0.7-0.7l-0.2-1l2.3-0.2
	l0.7,0.4l0.5-0.4l1.3,0.2l1.5-0.6l1.7,1.2l1.6,0.4l1.4-0.7l0.6-2.7l1.1-0.5l-0.4-0.6l0.3-1.3l2.1,0.7l0.6-0.2l-0.2-1.1l-0.9-1
	l-0.3-1.1l0.9-2.5l1.2-0.8l0.2,0.9l0.6-0.4l-1.3-1.1l1.3-1.4l-0.3-0.9l0.5-0.7l0.9,0.4l-0.1-0.8l1.1-0.3l-0.3-0.6l0.6-0.8l-0.9-0.5
	l-0.4-0.7l0.1-2l1.2-0.2l-0.8-0.8l1.7-2.6l0.9-0.4l1.2,0.1l2.2-2.2l2.9-0.5l0.7-2.1l-1.3-0.8l0.1-0.4L332.7,350.1L332.7,350.1z"/>
<path id="IN-PB" class="st0" d="M170.4,124.3l-0.4,1.6l1.6,2.1l-1.8,0.9l-2.1,2.5l-2.3,0.9l0,1.2l0.8,0.5l-1.7,1.9l0.4,0.4l1-0.3
	l0.8,0.4l1.9,1.6l2.2,1l1.5,3.2l-1-0.1l1.6,4l3,5.4l-0.4,1.2l0.6,0.5l0.1,0.8l2.5-0.3l0-0.5l0.8-0.3l-0.4-1.1l0.9-0.3l0.1-0.6
	l0.3,1.2l1.4,2l-0.3,0.5l0.7-0.6l0.4,0.9l0.5-0.2l0.1,0.5l0.4-0.5l0,0.7l0.7-0.6l0.6,0.7l-0.4,0.8l0.9-0.2l0.2,0.3l-0.9,0.7l0,1.3
	l0.7,0.4l-0.5,1.3l0.2,1.1l2,0.9l1.1,1.3l0,0l0,0.7l1.2,1l0.4,0.9l-0.4,0.7l0,0l-0.7-0.1l0.1-0.4l-0.5,0.2l-0.2-0.5l-1.4,0.9
	l0.7,1.5l1.4,0.6l0.5-0.4l0,0l0.3,0.7l0.5-0.5l-0.1,0.9l1.1,0.9l-0.6,1.4l0.7,0.5l-0.6,0.8l0,1l0.8,1.2l-0.9,0.7v-0.6l-1-1.1
	l-0.5,0.5l-1-0.6l-1.2,1l0.2,0.7l0.5,0.1l-0.5,0.6l-0.8,0.2l-1.3,1.3l-1.2,0.1l-0.3,0.9l1-0.7l0.6,0.6l-0.2,0.4l0.7,0.2l-0.2,2.3
	l-0.5,0.6l-0.5,0.1L184,182l-1.1,0.5l-0.2-0.5l-0.8-0.1l-0.8-2.3l-0.6,0.4l0.4,0.6l-0.2,0.7l-1.3-0.5l0.5,0.5l-0.5,0.4l-1.4-0.2
	l-0.9-0.9l0.2,0.5l-0.4,0l1.3,0.7l-1.1,1.5l0.3,0.2l-0.5,0.2l0.3,1.7l-0.8,0.4l0.4,0.9l1.1,0.4l-2.5,1.7l-0.8-0.2l-0.8,1.4l-0.4-0.2
	l-1.1,0.6l-1.7-0.4l-1-1.5l-0.7,0.1l-0.5-0.4l-1.3,0.4l-0.2,1.2l-1.4-0.4l-0.2,0.6l-0.9,0.1l-0.2-0.5l-0.9,0.1l-1.3-1.1l-1.3,2.2
	l-0.9,0.4l0.3,0.8l-0.7-0.3l-0.7,1.4l0.5,0.5l-0.2,0.5l-1.5,0.5l0-1.4l-1-0.5l-0.3-0.7l0.7-0.6l0-0.9l0.7-0.6l-1-2l-0.5,0.4l0,0.9
	l-1.3-0.6l0.3-0.5l-0.5-0.5l0.5-0.5l-0.4-1l-0.4,0.8l-1.5,0.5l-1.5-2.1l-0.6,0.2l-0.1-0.7l-0.6,0.2l-1-0.8l-1.5,0.7l-0.7-0.2l-1,1.1
	l0.1,0.4l-2.6-0.9l0,0l-12.5-0.6l0.1-1.8l1.4-1.7l0-1.7l0,0l-0.2-1.5l-1.7-2.5l0.6-1.1l0.5-0.1l0.1-1l0.5,0.1l0.4-1l1-0.8l0.9,0.2
	l-0.2-0.6l0.5-0.5l0-0.9l0.4,0.2l0.2-0.6l0.7,0l1.6-2l1-0.2l-0.4-0.9l0.7-0.3l-0.2-0.4l0.6-1.1l0.9,0l0.1-0.9l1-0.5l1.1-1.4l1.3-0.6
	l0.4-1.7l1.3,0.5l1-0.3l0.4-0.8l-0.3-0.8l-0.9,0.2l-0.2-0.4l-0.6,0.1l-0.1,0.9l-0.7,0.2l-0.2-0.8l-0.8-0.4l0.1-3.1l0.8-0.6l1.8-3.8
	l-0.3-0.6l-1.2-0.4l0.8-0.8L145,148l-1.7-3.6l0-0.5l0.7-0.2l0.1-1.8l0.9-1.3l0.4,0.1l0.7-0.9l0.9-0.2l0.1-0.8l0.5,0.5l0.2-0.3
	l1.2-0.1l0.2-1l0.9-0.6l0.1-0.6l1.1-0.4l1.6,0.9l2.2-1.3l1,0.3l0.6-1.1l0.9,0.7l2.5-3.5l0.1-0.8l-0.9-1.6l0,0l1.9,0.3l1.1-0.4
	l-0.1,0.5l0.4,0.2l0.2,0.8l0.6-1.7l3.6-1.6l0.7-1.4l1.2-0.3L170.4,124.3z"/>
<path id="IN-PY" class="st0" d="M249.8,593.1l-0.8,0L249,592l-1.6-0.6l-0.5-1.1l0.8,0.2l-0.3-0.9l1,0.4l0.4-0.4l1.1,0.2l0,0
	L249.8,593.1z M248.8,573l-0.4-0.6l-0.6,0.3l0-0.7l-0.9,0.5l-0.9-0.6l0.5-0.8l0.6,0.6l0.2-0.3l-0.4-0.8l-0.6-0.2l0.4-0.7l-1.1-0.3
	l0.7-0.7l0.5,0.9l0.6-0.3l0.4,0.3l-0.7,0.2l0.4,1.2l1.2-1.1l0.8,0.5l0,0L248.8,573L248.8,573z M297.9,473l-1.7-0.7l0.9-0.6l0.1,0.7
	l1.2-0.1l0.3-0.4l0.1,0.6l0,0l0,0l0,0l0,0l0,0l-1,0.1L297.9,473z"/>
<path id="IN-RJ" class="st0" d="M132.3,179.7l0,1.7l-1.4,1.7l-0.1,1.8l12.5,0.6l0,0l-0.3,0.8l0.6,0.1l0.4,0.8l-1.8,1.8l0.1,1
	l1.1,0.1l1.2-0.6l0.4,0.4l-0.8,4.3l1,0.8l-0.7,1.6l-0.7-0.2l-0.3,0.4l0,0.6l0.5,0.1l0.8,1.3l0,0.8l0.9-0.1l0.2-0.9l2.1,0.4l1.7-1.1
	l1.7,0.9l0.5,1.9l0.8,0.2l1-0.4l0.8,1.2l0.6,0.1l1.4-1l0.9,0.8l1.9-1.3l-0.1,1.3l0.6,0.2l0.3-0.6l0.8-0.2l0.1,1.7l-0.8,1.1l0.7,0.3
	l-0.3,1.3l1,0.1l0.1,1.1l1.5,0.1l0.1,0.8l-1,1.1l0.9,2l-0.3,1.1l0.6,0.8l0.5,3.1l1.2,0.3l0.2,1.3l3,2l-0.2,1.1l2.4,0.3l0.7,0.6
	l0.6,1.1l1.3,0.8l-0.2,0.9l0.8,0.4l-0.2,0.5l1,1.1l-0.6,0.2l0-0.5l-0.8-0.1l-1.8,1.8l0.9,0.3l0,0.7l0.6-0.9l0.4,0.3l-0.6,0.4
	l0.1,0.4l-0.8,0.1l0.4,0.5l-0.7,0.2l0.6,0.4l-0.5,1.1l-0.5-0.3l-0.3,0.4l0.1,0.4l1,0.2l-0.3,1l1.7,0.4l0.8-0.5l1.7,1.4l1-0.8
	l-0.6-0.5l0.1-0.8l-0.6-0.4l0.3-1.3l-0.5-0.6l1.2-0.7l-0.7-0.6l1.5-0.3l0.6,0.3l0.3,0.7l0.9-0.2l0.3-0.9l-1.1-0.6l1.2-0.6l-1.5-1.1
	l1.1,0l0.8,0.9l1.9-0.4l0.5,1.1l-0.7-0.1l-0.2,0.4l1,0.6l-0.9,0.3l1.7,0.2l0,1.5l1.2-0.9l1.2-0.2l-0.2-1.7l2.8-1.4l0.2-1.2l1-0.3
	l2.2,1.9l-0.9,3.3l0,1.6l0.4,0.1l-0.2,1.9l-0.5,0l-0.4,2.3l0.6,0.7l-0.7,0l0.4,0.9l0.6-0.4l0.7,0.4l0.5-1.9l1.7,0.1l-0.2-0.6
	l-0.9-0.3l0.4-0.9l1.8,1l0.5-0.3l0-0.5l0.6,0.2l-0.2,0.5l0.5-0.8l0.8,0.8l0.6-0.7l0.3,0.2l0,0l0.6,0.4l-0.1,1.6l0.8,0.5l0.1,1
	l-0.6,0.9l0.8,0.4l-0.4,0.5l0.1,0.9l0.9,0.3l0.3,0.9l0.7,0.4l-0.3,0.8l0.3,0.6l1.3,0.4l1.5,1.2l0.8-0.4l-0.4,1l1,1.4l-0.1,0.5
	l0.7,0.4l-0.4,0.6l-1,0.2l-0.3,1l-1.8,0.6l0.5,0.6l0.9-0.2l-0.2,0.9l1.4,0.5l0.9-0.8l0.6,1.1l0.4,0l0.1-0.7l0.6,0.2l-0.4,0.8
	l-1.7,0.3l-4.5,2.4l0.3,1.1l-0.2,1.1l0.7,0l-0.3,0.5l0.9-0.5l-0.2-0.5l0.3-1.3l0.5,0.6l1.7-0.2l2.2-1.1l0.1-0.8l0.7-0.5l2.7,1.1
	l0.2-0.8l0.8,0.6l1.3-0.2l0.3,1.1l0.5-0.3l-0.1-0.9l1.2,0.2l0.2-1.1l1.9,0.3l0.2-0.3l0.9,0.7l-0.7,0.9l-0.7-0.1l0.4,1.2l0,0l-1,0.2
	l0.3,0.8l-1.5-0.1l0.3,0.9l-0.5,0.4l-0.1,1.2l-1.9-0.4l-0.9,0.8l-1.1,0.1l-0.3,0.9l-1.2,0.5l-0.1,1l-1.4,0.2l-0.6,0.9l-0.9-0.1
	l-2.9,2.1l-1.9,0.2l0.1,0.9l-2,0.2l-0.9,1.4l-1.7,1.3l-1.6,0l-0.6,1l-1.1,0.2l-1,1.1l-2,0.9l-1.1,1.4l0.2,0.4l-0.7,1.3l-1,0.2
	l0.1,0.4l-0.6,0.4l-1.7-0.1l-0.4,0.8l-0.7-0.1l-1.3,1.7l0,1.4l-1,0.3l-0.1,0.5l0.7,0.5l0.2,3.1l0.9,1.9l0.5,0.2l0.3,0.9l1.6,1
	l1.7,0.2l0.1,0.5l1.5-0.4l1,0.2l1,1l0.3-0.5l1.3-0.1l1-0.8l2.6,0.6l0.3-1.4l1.3-1.1l0.4-0.3l1.1,0.5l-0.5,1.9l0.7,0.1l-0.4,1.1
	l1.1,1l0.2,0.7l-0.5,0.1l0.2,1.6l-1.9,0.6l-0.8-0.8l-1.9,0.1l-1.1,1l-0.7,0.2l-1.7-0.5L190,296l0.7,2l0.6,0.1l-0.1,0.6l0.7,0.3
	l-0.4,0.5l-1.9,0.2l-0.6,0.4l0.9,1.5l1.2,0.1l0.8-0.4l0.4,0.7l1.1,0.5l0.7,1.5l0.1,1.6l-0.3,0.9l-0.4,0l-0.6,1.1l-0.7,0.4l-1-0.6
	l0-1.2l-0.7,0.4l-0.3-0.5l-1,0.3l0.7,1.4l-0.2,2.8l0.7,1.5l1.4,1.4l-0.6,0.4l-0.3,1.3l-0.9-0.2l-1.1,0.4l-0.9-1.1l-1.1,0l-0.5-0.5
	l0.6-1.2l-0.2-0.8l-1.5,0.5l0,0.5l-0.5-0.2l0.2,0.4l-0.6,0.6l0.3,0.4l-1,0.4l-1.2-1.5l-0.3,0.3l-0.6-0.2l-0.2,0.4l-1.7-1l-0.9,0.8
	l-1.3,0l-0.4-1.5l0.2-0.6l-0.4-0.4l-0.8,1l0.2,0.9l-0.7,1l0.3,2.2l-1.8,0.4l-1.7,1.1l0.3,2l-1.9,1.1l-0.4-0.2l-1.3,0.5l-0.3,0.4
	l-0.5-0.8l-0.9-0.3l-0.1,0.6l0.6,0.4l-0.2,0.9l-0.6,0l-0.1,1.3l-0.7-0.9l-1.4,0l-0.5-0.6l0.4-0.3l-0.3-0.4l-2.1-1.3l0.2-1.3l1-1.5
	l1.1,0.6l0.3,0.7l1-0.2l0.7-0.7l0.6,1.4l1.2-0.6l0.4-1.4l1.1-0.3l0-0.8l-0.9,0l-0.3-0.6l-0.7,0l0.6-1.8l1.1-0.6l-0.3-1.2l-0.9-0.2
	l-0.5-0.8l-0.2-1.2l0.6-0.1l-0.1-0.4l0.8-1l1.1,1.2l1.2-0.8l0.1-0.8l-0.4-0.4l0.7-0.5l-0.4-0.4l0.2-0.4l-1.1-0.9l-0.5,0.4l-0.2-0.4
	l0.4-0.9l-0.4-0.4l0.2-1.3l-1.6-0.8l-2.9,1.7l-0.6-0.7L162,303l-3.7-0.9l-1,0.2l-0.6-1l0.4-0.9l0.9-0.6l-1-1l0.1-0.6l0.3,0.4
	l0.5-0.1l-0.5,0.8l1,0.1l0.5,0.9l2.2-1.1l0.1-0.6l-2,0.1l-0.3,0.4l-1-0.4l0.6-0.7l-0.5-0.8l0.2-0.3l0.8,1.7l0.5-1.4l-0.4-1l0.7-0.4
	l-0.1-0.4l-3.7-0.1l0.1,1.2l-1,0.6l0.1,1.7l-1.2,0.2l-0.3,0.5l-2.5-0.7l-0.1-0.8l-0.6-0.5l-0.3,0.3l-0.4-0.8l-0.5,1l0.6,1.6
	l-0.1,1.3l0.2-0.4l1.2,0.6l1.8-0.2l0.3,0.9l-0.5,0l0.1,1l-0.8,0.2l-0.4,0.9l-1,0.1l-1.9-3.1l-0.5,2.4l0.8,0.4l-0.7,0.8l0.1,0.6
	l-0.8,0.3l0.2,0.9l-0.9,1l1.3,0.6l0.8-0.2l0,0.6l0.8-0.1l-1.4,2.1l-0.1,1.2l-0.6,0.7l2.3,0l0.5,0.4l0.2,0.6l-0.5,0.4l2.2,4l-1.4,2
	l-0.3,1.3l0.7,3l-0.7,1.1l0.6,1.1l-0.7,0.2l-1.2,1.5l-0.8,0.4l-0.4-0.3l-1,1l-0.7-0.1l-0.9,0.9l-0.8,0.1l-0.8,0.8l-0.1,1l-1,1.1
	l0.7,1l0.4-0.4l1.5,0.9l1.1-0.3l0.4,0.6l-0.5,0.4l1-0.2l0,0.4l-0.6,0.4l-0.9-0.1l-1.2,1.2l-1.2,0.3l-0.7,0.9l-2.4-0.5l-1.4,1.1l0,0
	l-0.8-0.7l0.1-0.5l-0.8-1.5l-0.8-0.1l-0.5,0.9l-1.1-0.6l0.1-2l-0.6-0.6l-1.1,0l-0.2-0.8l-0.8-0.1l-0.4-0.9l-0.5,0.1l-0.2,0.7
	l-0.9,0.1l-1.2-2.4l-1,0.3l-0.4-0.5l-0.8,1l-0.4-0.9l-1,0.3l-0.4-0.3l0.5-1.1l-0.4-1l0.5-1.6l-1.7-0.7l-1.3,0.8l-0.1-1.9l-0.6-0.1
	l-1.2-1.5l-0.9,0.3l-0.3-0.5l0-1.6l1.2-1.5l-0.4-1.3l0.2-1.3l-0.9-0.8l0.1-0.9l-0.8,0.3l-0.1,0.9l-0.8,1l-0.9,0.4L117,317l0.5-1
	l-2.2-0.9l-0.6-1l1.2-2.7l0.7,0.1l0.2-0.9l0.4,0.2l0.4-0.7l-0.4-0.2l-0.8,0.5l-1.7-1l0.5-0.7l-0.3-1.5L114,308l-0.8-0.4l-0.2,0.3
	l-0.7,1.9l0.6,0.4l-1.3,0.8l-1.1-0.9l-2.7,0.1l-0.8-1.3l0.1-0.8l-2.2-0.3l-0.9-0.7l-0.9,1.2l0.1,0.9l-0.9,0.1l-0.6-1.2l0.1-1l0,0
	l-1,0.1l-0.7-1.2l0,0l-1.3,0.3l-0.9-0.9l0.6-0.4l0.9,0.3l0.6-0.7l-0.8,0.2l-1.7-0.5l-0.4,0.4l-0.9,0l-1.6-0.8l0-1l-0.7-0.2l-2.2,1.7
	l-0.5-0.9l-0.9-0.2l-0.4,1.6l-0.9-0.4l-0.3-1.1l-2.7,0.8l-0.9-0.8l-2.6-0.1l-2.1,1.1l-0.6-0.7l-1.1,1l-3.8-1.6l0,0l-3.2-5.6l-1-4.6
	l-2.6-2.7l-0.4-1.2l-1.4-1.5l0.3-2.8l-0.4-4l-1-0.2l-1.6,0.7l-2.7,0.3l-2.4-0.8l-3.7-5.4l-0.3-2.9l1.8-3.8l0.2-5.4l-0.3-1.4l-2-1.1
	l-3.7,0.4l-1.3-0.2l-1.9-1.4l-4.3-2.1l-0.5-1.3l0.6-4.7l1.3-3.3l5.7-5.3l1.5-2.2l1.6-1.2l1.8-4.7l1-1.5l4.2-3.9l2.3-0.6l1.6,0.3
	l2.2,2.4l0.1,1.7l1.6,2.7l2.5,0.4l7.8-3.2l2.7-0.5l5-0.1l4.8-2l0.7-3.8l1.2-1.8l3.8-3.4l2.3-6.9l1.7-2.2l6.5-3.9l4.6-2.1l1.2-2.7
	l1.8-2.3l3.6-7l2.4-8.7l4.4-1.9l3.5-1L132.3,179.7z"/>
<path id="IN-SK" class="st0" d="M425.4,227.4l0.4,0.6l1.7,0l1.6,1.4l0.1,1.8l0.5,0.2l0.5,1.4l-0.6,1l-0.2,3.3l-1.6,2.3l0.8,3.6
	l2.3,1.8l-0.5,1.1l-2,0.6l-0.3,1.4l-0.7,0.8l0,0L427,249l-0.8-0.9l-0.6,0.4l-0.7-0.6l-1.2,0l-0.8,0.2l0.2,0.6l-2,1.5l-2.2-0.5
	l-0.4-0.5l-1.4,0.2l-0.7-0.4l-1.2,0.4l-1-0.5l-0.2-1.3l-1.2-0.4l0,0l1-2.6l-0.5-0.8l0.1-0.8l0.7-0.5l-0.7-1.6l3.1-6.6l-0.5-0.7
	l0.6-0.4l-0.1-0.4l-1.4-0.6l-0.1-1.6l0.3-0.3l1,0.4l0.8-0.5l0.3,0.4l2-0.9l0.9,0.3l1.9-1.5l1.1,0.2l0.3-1l1.2-0.4l-0.1-0.6
	L425.4,227.4z"/>
<path id="IN-TG" class="st0" d="M203.9,439.7l0.3-0.6l-0.9-0.7l0.7-1.4l-0.6-0.2l1.2-0.4l-0.8-0.4l0.6-0.4l0.5,0.2l-0.1-1.5l1-0.1
	l0.2,0.5l1.6-0.6l-0.1-2.5l0.5-0.7l0.6,0.5l1-2.6l2.1-0.3l-1.2-1.8l-0.8-0.1l0.3-0.9l-0.8,0.1l0.1-0.7l-1,0l-0.2-1l0.1-0.7l0.7,0.2
	l0.1-1.1l0.9,0.2l-0.3-1l0.5-0.9l-0.2-0.3l0.4-1.2l0.8-0.3l-0.9-0.4l0-0.4l1.8-0.8l1.9,1.5l0.1,0.6l0.6-0.3l1.8,0.4l0.5-2l-0.3-1.7
	l2.5-0.9l-0.6-2.1l0.6-0.3l0-0.7l-0.8-1.2l0.3-0.6l1.2-0.5l0.4-1.4l-0.6-1.2l-0.9-0.2l0.5-1.4l0.3,0.7l1,0.1l0.3,0.9l1.6,0.4
	l0.4,0.5l0.6-0.6l1.5,0.1l2.3,1.1l1.4-0.3l1.2,0.4l0.3,2.2l1.1-0.2l1.1,0.4l0.2,1.4l-0.5,0.7l0.8-0.2l0.5,0.5l1.7,0.3l1.5,1.4
	l0.9-0.1l-0.3-0.5l0.6-0.7l0.1-1.8l1.2,0.5l0.2,0.5l1.1-0.1l2,1.6l1.4-1.1l0.2,0.6l0.9,0.3l0.8-1.5l2-0.6l0.9,0.2l0.9,1.2l2.2,1.5
	l0.7,1.3l-0.2,2.2l-0.8,1.5l0.5,1.2l-1.7,1.4l0,1.5l1.1-0.3l0.4,0.5l0.1,3.4l-0.9,0.6l0.8,1l1.6,0.4l2,1.9l0.9-0.4l0.6,0.4l0.3-0.5
	l1.3-0.4l0,0l1.5,2.8l2.8-0.9l3,2.3l0.4,1l1,0.8l-0.2,0.3l0.7,0.2l-0.2,0.5l0.6,1.7l0.9,1l-1.1,0.7l0,1l1.3,0.1l0.6-1.4l0.8,0.6
	l-0.4,0.2l0.3,1.4l2.2-0.7l-0.6,1.8l1.8,6.1l0.8,0.1l1.7-1.4l1.9,0.8l2.6,0.1l0,0l1.5-0.4l0.4,0.5l1.7-0.5l0.8,0.3l1-1.3l0.5-0.2
	l0.3,0.5l1.1-0.7l0,0l0.7,0.9l-0.2,0.4l-4.1,2.2l-0.1,0.8l-1.4,2l0.4,0.4l-0.4,0.6l-0.2,1.9l-1.6,1.8l-0.9,0.1l-0.9-0.7l-1.1,1.5
	l-1.7,0l-0.4,1.9l-2.3,0.4l-1.1,0.7l-1.7-0.4l0.2,1.1l-0.9,0l-0.2,2l-0.5,0.5l-2.1-0.8l-1.7,0.2l0.3-0.7l-1.9-1l-1.3,0.6l-0.3,1.2
	l-0.7,0.7l-0.5-0.2l-0.5-1.1l-0.6,0.4l0.4,0.9l-0.6,0.9l2.6,1.1l0.1-0.6l1.9,0.4l0.1,1.1l-0.4,0.1l-0.2,0.9l1,0.8l-0.8,0.5l-2.1-0.6
	l-0.1-0.5l-1.1-0.7l-0.5,0.8l-0.3-0.9l-0.8-0.3l-0.4-1.8l-0.8-1.1l-1.2-0.1l-0.4-0.7l-1,1.2l-1.8,0.4l-0.7,1.2l-0.4,0.9l0.8,0.2
	l0.7,0.8l-0.4,1.4l-1.8,2.1l-1.1,0.1l-0.8-1.3l-1,0.2l-0.7-0.8l-2.5,1.4l-3,0.7l-1.4,1l-3.2,0.4l-0.8,1.1l-0.1,5.6l-0.8,0.5
	l-2.9-0.6l-2.1,0.9l-0.4,0.4l0.1,1.6l-0.8-0.1l-0.2-0.9l-0.5-0.1l0,1.4l-1.2,1.3l-1.2-0.1l-1.9-1.5l-1.2,0.9l-3.1-0.5l-1.8,1.1
	l-1.2,0l-0.4,2.1l-1.2,0.6l-0.3,1.1l-0.8,0l-0.3,0.4l-0.9-0.4l-0.5-1.2l-0.7,0.9l-2.3-0.8l-1.8,0.6l-1.7-0.4l-1.1,0.2l-1.1-0.7
	l-1.9-0.2l0,0l0-1.7l-0.4-0.6l0.4-1.5l-0.5-0.3l-0.1-0.9l0.5-1.3l-0.4,0l0-0.5l0.3-0.4l0.6,0.1l0.6-0.7l0.5,0.2l0-1l-1.9-0.8
	l-1.7,0.3l-1.4-0.4l-1.2-0.5l-1-1.3l1.1-0.1l0.1-0.4l1.4,0.2l0.3-0.6l0.7-0.1l-0.5-1l1.5-0.4l0.1-1.3l-0.7,0.2l-0.3-0.5l1-0.3l0-0.7
	l-0.9-0.1l0.3-1.4l0.7,0.1l-0.4-2.7l0.9-2l-0.7-2l-2-1.2l0.8-1l-0.4-0.2l1.5-1.2l-0.4-0.3l0.4-1.7l0.9,0.3l0.6-0.4l0.1-0.7l-0.5-0.5
	l1.2,0l0-0.5l0.7,0.2l0-0.5l0.6-0.1l0.2-0.6l-0.1,0.5l0.7,0.2l0-0.7l-1.9-0.6l0-0.6l-0.8,0.3l-0.4-0.5l-0.5,0.7l-0.2-0.5l-1-0.3
	l0.2-2.3l2.2-1.2l0.1-0.4l-1.2-0.4l0.1-0.4l0.3-0.5l0.5,0.2l0.5-1.1l0.5,0l-0.2-0.8l0.6,0.1l0.1-1.1l0.4,0.2l0.2-0.5l-0.1-0.5
	l-1.1-0.4l-0.9-0.9l1.1-1l-0.1-1.1l-0.7-1l0.8-1.6L203.9,439.7z"/>
<path id="IN-TN" class="st0" d="M239,623.1l0.5,0.3l-0.4,0.6l0.2,0.4l2.3,2.1l-2.8-1.8l-1.7-0.1l-0.2-0.5l0.3-0.3l0.9,0L239,623.1
	L239,623.1z M217.2,553.8l0.1,0.8l-0.7,0.7l1.5-0.2l0.5,0.8l1.6,0.8l1.8-0.1l0-0.9l0.6,0l0.1-0.8l0.3,0l0.1,0l0.2,0.5l0.5-0.1l0-1.2
	l0.7-0.5l0.9-3l0.4,0l-0.7-1.2l0.7-0.8l0.9,0.3l0.2-1.1l0.9,0.2l2.6-0.8l0.1,1.4l0.9,0l-0.6-0.3l0.4-0.7l1.3-0.2l1.8,1.3l1.7,0.1
	l0.7-1.6l0.6-0.4l0-0.6l1-0.1l0.8,0.9l0.9-0.7l-0.1-0.7l1.5-0.5l0-0.4l0.5-0.2l-0.2-0.3l-0.5,0.4l0.3-1.4l-1-0.4l1.1-0.4l2.1,0.3
	l0.3,0.9l0.6,0.4l1.8-0.7l0.1,1.1l0.5-0.1l-0.1,0.5l0.7-0.3l0.4,0.5l0.8-0.6l-1.3-1l0.7-0.6l0.5,0.4l0.4-0.5l1,0l1.5-0.7l0.6-0.8
	l-0.4-0.6l0.6-0.3l0-0.7l0.7-0.2l0.2-0.6l0.6,0.1l-0.1-0.4l-0.9-0.2l0.1-0.4l1.5-0.2l1.7,1.2l1.6,0l0.9,1.8l0.7,0.4l0-1.1l0,0l0.7,3
	l-0.9,2.7l-0.9,7.3l-2,6.4l-5.4,8.2l-0.9,2.5l0,0l-0.8-0.5l-1.2,1.1l-0.4-1.2l0.7-0.2l-0.4-0.3l-0.6,0.3l-0.5-0.9l-0.7,0.7l0,0l0,0
	l0,0l1.1,0.3l-0.4,0.7l0.6,0.2l0.4,0.8l-0.2,0.3l-0.6-0.6l-0.5,0.8l0.9,0.6l0.9-0.5l0,0.7l0.6-0.3l0.4,0.6l0,0l-0.9,5l1.6,4.2
	l0.3,7.7l0,0l-1.1-0.2l-0.4,0.4l-1-0.4l0.3,0.9l-0.8-0.2l0.5,1.1l1.6,0.6l0.1,1.1l0.8,0l0,0l0.6,10.4l-0.9,0.4l-1.9,0l-7.1-0.8
	l-1.8,1.1l-1.3,2.3l0,1.1l0.8,1.1l-2.2,2.1l-0.7,1.6l-2.6,2.9l-1.2,2l-0.7,2.6l0.8,1.5l2.5,2.1l2.5,0.4l-1.9,0.4l-2.8-0.3l-1.6,0.3
	l-2.9,1l-0.2,0.4l-1.2,0l-0.3,0.4l0.3,0.3l-1.6,0.5l-3.3,0.4l-4,3.1l-0.8,1.6l-0.2,2.2l0.6-0.1l0.9,0.6l-1.2,0.1l-1.3,1.9l-0.2,1.4
	l0.8-0.2l-0.2,1.8l-1.3,1.5l-0.3,0.8l0.3,0.2l-5.3,2.5l-1.1,1.4l-3.4,0.8l-0.5,1.2l-4.7-0.9l-4.4-3.5l0,0l0.5-0.5l0.8,0.2l-0.5-1.3
	l1.5-1.2l-0.5-1.1l1.2-0.2l0.4-0.7l-2.2-4l0.4,0.1l0.8-0.8l0.6-1.7l-0.8-1.2l-0.5,0l0-0.6l-1-1.3l1-0.5l0.3-1l1.1-1.1l-0.3-0.7
	l0.6-0.6v-1.6l0.3-0.7l0.5,0l0.5-2.1l0.9-0.4l0.4-0.9l-0.9-0.6l-0.2-1.4l-0.3,0.6l-0.4-0.6l-1,0.6l-1.2-0.8l-0.9,0l0.8-2.2l0.4-0.1
	l0-1.2l0.5-0.2l-0.5-0.5l0.3-0.7l-0.5-0.3l0.7-1.5l0.5-0.2l-0.2-1.3l-1.2-1.5l1.4-0.5l0.4-1.8l-0.7-0.3l0.1-0.7l-0.7-1.1l0.2-0.7
	l-1.2-0.1l-2.2,1.2l-0.3,0.8l-1.4,0.8L191,605l-0.9-0.9l0-0.5l-0.5,0.3l-0.4-0.4l0.4-1.3l-0.6-1.1l0.4-3.4l-0.5-0.8l1.4-0.1
	l-0.3-0.9l0.8-1.9l-0.2-0.6l-1-0.2l-0.5-1.1l-3.4-1.3l1.1-2.2l1.7-0.2l-1.1-0.1l0-1.5l-1-0.5l0.7-1.3l-0.6-0.5l-1.5,0.9l-2.7-0.3
	l-0.7,0.5l-0.1-1l1.9-1.3l0-1.2l-0.6,0.1l-1.2-0.7l-0.8-1.1l-1.5-0.5l-0.3,0.3l-0.9-0.6l-0.8,0.3l-0.3-2.1l0.9-0.6l0.5,0.6l1-0.4
	l0.6-0.8l0.9,0l0-0.7l0,0l0.6,0.1l1.1-0.9l0.7,0.6l0.4,1.2l3.7,0l1.4,0.3l0.4,0.5l0.3-0.6l-0.4-0.9l1.4-2.8l1.2,0.4l0.3-0.7l0.6,0
	l0.5,0.4l-0.2,0.4l0.7-0.3l0.3,1.1l0.8,0.2l-0.1-1l2.5-0.4l0.3-0.4l0.9,0.1l0.8,0.8l0.7-0.4l1.2,0.6l0.7-1.8l-0.1-1l0.5,0.3l0.1-1.1
	l3.5-0.1l0.6-1.5l1.6-1.9l-0.8-1.3l-5.2-0.7l0.1-1.2l1.4-0.4l1.2-1.4l0.3-1.1l0.1-1.4l-1,0.2l0.6-0.6l-0.6-0.1l-0.2-1l0.6-1.3
	l-0.1-0.7l1.3-0.3l0.5,0.5l0.5-0.5l0.6,0.2l1.4-2.5l-0.3-1l2.7-0.9l0.3,0.5l-0.5,0.7l0.3,0.2l0.4-0.7l0.7,1.1l0.4,0l0.3-1l0.6,0.1
	l1.5,1.5L217.2,553.8L217.2,553.8z"/>
<path id="IN-TR" class="st0" d="M496.1,306.7l0.9,0.4l0,0l0,1l0.8,1.8l-1.2,2.8l1.7-0.1l0,0l0.8,2.3l-0.5,2.4l0.3,1l-0.4,0.6
	l0.4,1.1l-0.2,1l-0.6-0.1l-0.3,0.5l0.2,0.7l-0.5,0l0.2,1.9l0,0l-0.4,0.1l-0.5,1.4l-0.1-0.8l-0.6-0.3l-0.1-0.7l-0.3,0.1l-1.8,2.1
	l-0.9-0.3l-0.8-1.6l-0.4,0l-0.4,1l0.7,4.3l-0.7,0.3l0,0.7l-0.8-0.1l-1.1,0.9l-1.4,2.6l1.2,3.9l-0.4,0.6l-0.7,0.1l-1.1,1.7l-0.5-0.3
	l-0.9,0.2l-0.9,0.8l-0.7-0.4l-1.4-3.9l0.3-0.6l-0.7-0.1l0.2-0.5l-0.5-0.9l-0.7,0l-0.7,1.6l0.7,2.6l-0.9-0.1l-0.9-2l0-2.1l-0.5-0.8
	l0.3-0.3l-0.5-0.4l0.6-0.9l-0.6,0.2l-0.9-2.9l-0.9-0.6l0.2-0.7l-0.4,0l-0.7-1.2l-0.1-1.5l0.8,0.5l0.2-0.9l-1-0.1l0-1l0.7-0.3
	l0.6,0.3l0.7-2.2l-0.5-0.9l0.3-0.7l-0.3-0.3l0.8,0.1l-0.1-0.8l0.2-0.4l0.3,0.2l0.1-0.6l1.4,0.5l0.4-1.6l-0.4-1.3l3.3,0.7l1.8-0.6
	l0.5-1.8l-0.2-0.6l0.4-0.4l0.3,1.3l0.9,0.6l0.6,0l-0.4-2.3l1.4,0.8l0.6-0.4l-0.1,0.7l0.9,1.3l0.4-0.1l0.6-2.7l-0.4-1.5l0.7-0.4
	l0.8,0.8l-0.4-1.5l2.9,0.1l0.4-0.9l0.7-0.1l-0.4-1.5l0.1-0.5L496.1,306.7z"/>
<path id="IN-UP" class="st0" d="M204.1,174.9l1.4-0.1l1.5,1.7l4.4,2.1l-1.9,3.1l-0.5,0.5l-0.5-0.2l-0.6,1.2l0.3,0.5l-0.8,0.9
	l0.3,0.5l-0.5,0.7l0.3,0.5l-0.6,1l1.3,2l-0.1,1.6l0.7,0.4l0,0.4l0.7,0.3l0.9-0.7l1.6-0.1l0.5,2.1l-0.5,0l-0.1,0.6l0.7,0.1l0.1,1
	l1-0.2l0.1-0.9l0.8-0.2l1.1-1.7l1.1-0.8l0.8,0.1l2-2.1l1.6,0.5l1.5,0.7l0.8,2.7l1.6,1.4l3.6,2l2.7,0.5l-1.1,1.5l-0.8,0.6l-0.4-0.3
	l-0.4,1.2l-0.6-0.5l-0.9,0.7l1.7,1.4l1.1-0.1l0.9,1.3l0,1.2l0.9,0l0.4-0.4l1.1,1.1l0.2-1.2l2.1,1l0.1,1.4l0.6,0.4l-0.1,0.6l0.9-0.1
	l1.9,1.7l1.1,0l0.2-0.4l0.3,0.8l0.5,0.1l0.2,1.7l1.9-0.2l0.6-0.7l0.3,1.1l1.3-0.5l1.1,0.5l0.9-0.7l1.2-0.3l0.7,0.7l-0.5,1.3l0.6-0.2
	l0.2-0.7l0.6,0l0.4,0.6l-0.7,0.2l1.2,0.1l-0.2,0.4l0.7,1.2l0.9,0.4l0.9-0.5l0.5-1l-0.3-0.4l0.9-0.7l0,0l0.9,0l2,1.7l0.7-0.1l0.1,0.6
	l1.2,0.7l0.8,1.4l1.8,0.2l1.3,1.7l0.3-0.5l-0.5-2.1l1.3-0.5l0.9,1.1l1.1-0.1l0.5,1.2l1.6,0.5l0.4,0.9l1.5,0.8l0.2-0.5l0.7,0.3
	l0.1,0.7l1.3,0.8l0.8-0.4l0.3,0.9l0.9,0.6l2.6,0.5l0.4,1.6l1.8,2.1l0,0.6l-0.4,0l0.5,0.4l-0.2,0.3l1.1-0.2l0.1-0.8l1.4,0.3l0.8,1
	l-0.1,0.8l2.9,1.8l1.6,0.3l3.7,2.9l0.8-0.1l0.8-1.6l2,0.1l1.1,1.3l1.7,0.5l4.8,3.7l5.2-1l0.1,1.3l0.9,1.8l-0.4,1.9l3.9,0l0.5,0.7
	l1.6,0.4l3.1-0.1l2.3,2.7l1.1-0.3l1-1.6l-0.5-0.5l0.3-0.5l-0.3-0.5l4.5,0.2l4.8,2.7l0,0l-0.6,0.6l0.5,0.3l1.2-0.3l0.2,0.5l-0.6,1
	l1.1,0.5l0.5,0.8l-0.8,2.4l1.6-0.1l-0.6,0.6l1,0.5l0.1,1.8l-0.4,0.4l0.5,0.2l0.1,0.9l0.8,0.3l0.2-0.5l0.8,0.3l-0.2,0.7l0.7,0.5
	l0.8-0.8l0.6,0.2l0.2,1.2l-0.6,1.1l0.2,0.4l0.3,0.2l1-0.5l0.6,1.5l1.5,0.3l0.2,1l-2.8,0.6l-3.8-1l0,1l-0.7,1.2l-1.5,0.3l-0.2,0.5
	l-1.2-0.2l0,1.5l1.6,0.3l0.6-0.3l1.2,1.4l2,0.2l0.2,1.3l-0.4,1.6l-0.9-0.4l-0.7,0.9l-1.4-0.4l0.1,2.1l0.6,1l0.8,0.1l1.5,1.6l0,0.8
	l0.7-0.2l1.9,1.2l1.1-0.3l1.1,0.6l0.3,0.9l2.1,0.3l0,1l0.6-0.1l1.3,1l-0.4,0.7l0.6,0.7l-1.5-0.2l-0.1,1.2l-0.4-0.2l0.1-0.7l-0.2,0.9
	l-0.7,0.1l-0.8-0.8l-0.9,0.3l-0.4-1.1l-1,0.1l-0.3,1.6l-0.7-0.1l0,0.3l-1.7-0.2l-0.2-0.7l-0.9-0.6l-1.1,0.2l-0.5,0.5l0.1,1.3
	L331,284l-1.3,1.9l-0.8,0.2l0.6,0.6l-0.9,0.1l0.1,0.5l-0.7,0.5l-0.6-0.5l-0.6,0.5l-0.2-0.2l-0.4,0.4l0.3,0.2l-0.8,0.1l-0.6,0.8
	l-1.2,0.5l-0.5-0.2l-1.6,1.4l-1,0.1l-0.4,0.9l-0.8,0.2l-0.3,0.4l0.4,1.3l-0.8,2.3l0.5,0.1l0.2,3.1l0.7,0.8l-0.1,1.1l1.3,1.1l0.5-0.1
	l0,0.7l0.7,0.5l-0.3,0.6l0.9,0.6l-0.9,2.2l0,0l-2.1,0.6l-0.2,1l0.4,1l0.6,0.1l0.4,0.9l-1.5,1.1l0.5,1.1l-1.6,3.6l0,0l-0.7,0.6
	l-0.3,1.1l-1.2,0.7l-0.5,1.5l-2.1,0.9l-3,0l-2.6-1.9l0,0l-0.2-0.9l-1.1-0.4l0.5-1.2l-1.2-0.1l-1-1.2l0.3-0.5l1,0.4l0.1-1.8l0.5-0.3
	l0.3-1.2l-0.1-1.8l-1.1-0.3l0.6-2.5l-0.4-0.3L307,306l0.7,0.3l1.1-0.2l-0.1-1l-0.7,0l0.1-1l-1.3,0l0-0.7l-0.8-0.5l-2.6,1.1l-0.2-0.6
	l-1.4,0l-0.3-0.6l-0.6,0.5l0.2,1.9l-1.6-0.6l-0.7,0.2l0-1.2l-0.7-0.4l-0.2,0.4l-0.5-0.1l0.3-2.3l-0.1,0.5l-0.3-0.3l0,0.3l-0.5,0
	l0.3,0.5l-0.8-0.2l0.3-0.9l0.4,0l-0.6-0.5l0.3-0.4l-0.7,0.7H295l-2.1-1.3l-0.9,0.4l-1.3-1.4l0.3-0.8l-0.3-1.7l-0.2,0.4l-1.1-0.6
	l-0.8,0.2l-1.1-0.8l-1,0.1l-0.5-0.8l-1.1,0.4l-0.2-0.4l0.8-0.5l-0.3-0.4l-0.3,0.5l-0.2-0.8l0.5-0.5l-0.7-0.2l-0.3-0.6l-1.1,0.2
	l0.3,1l-0.6-0.2l-0.5,0.3l0.7,0.7l-0.5,0.7l-1.7-0.7l0.7-0.1l-0.2-0.5l-0.8,0.2l-1.2-1.1l-0.3,0.2l0,1l-0.2-1.1l-0.7,0l-0.5,1.4
	l0.3,0.8l-1.2,1.6l0.2,1.3l-0.6,0.1l0.3-0.1l-0.7-0.5l-0.6,1.5l-1.1-1.3l-1.3,0l0.1,0.5l-1.2,0.1l-0.4-1l-0.8,0.3l0,0l0.1,0.4
	l-0.4-0.2l0,0l-1,0.3l-0.7-0.2l-0.2-0.6l1.2-0.6l-0.4-0.9l0.9-0.7l-0.1-1.2l0.8-0.8l-0.5-0.8l-0.8,0.1l-0.2,1.8l-0.6-0.8l-2,0.2
	l0.5,0.3l0,0.5l1,0.3l0,0.5l-1-0.2l-1.1,0.4l0.1-0.6l-0.5,0.2l-1.1-0.7l0.6-0.4l-0.8-0.7l0.2,1.8l-0.9-0.4l-0.4,0.5L263,294l-0.7,0
	l0.5,0.3l-0.1,1l-0.5,0l-0.6-0.8l-1.5,0.5l0.3,1.1l-0.5-0.4l-0.8,0.5l-1-0.6l1.7-2.5l1.4-0.6l-0.5-1.5l-0.4,0.1l-1.5-1.1l0.1-2.2
	l-1.1-0.9l-0.2,0.5l-1-0.2l-0.1,0.7l-1.3,1l-0.8-0.4l-1.2,0.3l-0.5,1.6l-1.1-0.1l-0.6,0.8l-0.2-0.5l-1.1,0.4l0.5,2l-0.5,0.4l0.2,0.8
	l-2.2-1l-3,0.3l0.1-0.5l-0.3,0.2l-0.5-0.7l-1.5,2.1l-0.6-0.3l0.2-0.8l-0.7,0.6l-0.3-0.7l-0.3,0.6l-0.3-1.2l0.5-0.8l0.7-0.1l-0.3-0.3
	l0.6-1l0.6,0l-0.7-0.3l-0.8,0.5l-1-0.8l-0.3,0.6l-0.4-0.6l0.3-0.9l-1-0.2l-0.7,0.7l0,0.9l0.6-0.4l0.4,0.6l0.6-0.2l-0.2,0.9l0.4,0.3
	l-0.3,0.3l-1.2-1l0.1,1.1l0.7,1l-0.2,0.4l-0.9,0.2l0-0.7l-0.5-0.2l-0.4,0.3l0.6,0.2l-0.1,0.5l-0.6,0.1l-0.4-0.8l-0.4,0.2l0.2,0.5
	l-1,0.2l-0.4-0.7l0.3-0.4l-0.7-0.6l-0.8,1.2l-0.4-0.1l0.1-1l0.6-0.9l-0.9-0.5l-0.1-0.6l-0.7,0.7l0.5,0.2l0,0.8l-0.9-0.5l-1.5,1.2
	l0.1-2l0.3,0.2l0.3-0.6l0.6,0.3l0.6-0.5l-0.3-1.4l-0.5,0.4l-1-0.3l-0.7,2.5l-0.7-0.9l0.1-0.6l-0.6,0l0.2-0.4l1-0.4l-0.1-0.4l0.7-0.8
	l1.5-0.3l-0.4,0.5l-0.8,0l0.7,0.5l1-0.5l-0.4-1.4l-0.6,0.2l-0.5-0.4l0.6-0.7l-0.4-0.9l0.5-0.2l-0.2-0.6l-0.3,0.4L231,284l-0.7,0.1
	l0,0.7l-1,0.3l0.6,0.9l-0.5,0.8l-0.4-0.3l0.6-0.2l-0.3-0.2l-1.5-0.2l-0.5-0.5l-0.1,0.8l0.6,0.6l1.2,0.1l-1.4,0.4l0.4,1.2l-1,0.1
	l-0.1-0.6l-1-0.2l0-0.7l0.3,0.4l0.6-0.5l-0.3-0.4l-0.7,0.1l-0.5,0.8l-0.5-0.2l-0.3,0.5l-0.5-0.1l0.3,1l-1-0.2l0.3,0.8l-0.3,0.4
	l-0.5,0.1l-0.2-0.4l-0.5,0.7l-0.5-0.2l-0.3,0.3l0.5,0.4l0.9-0.5l1.4,0.8l0.6,3.5l0.9,0.8l-0.4,2.1l0.6,0.5l0.3,0.9l1.9,0.9l0.3,1
	l-0.3,0.4l0.2,2l-0.6,1l0.2,1.2l0.5,0.3l2.1-1l1.7,3.1l-0.7,0.3l-0.3-0.4l-0.1,0.7l1.5,0.6l-0.4,1.9l-1.2,1.1l-0.6,1.7l-1.3,0.3
	l-0.4,0.7l-0.6-1.7l-0.3,0.4l-0.3-0.3l-0.7,0.4l-0.6-0.2l-1.8-2.4l-1.5-0.8l-1.4,2.1l-1.1,0.5l-1.1-1.2l0.7-1.2l-1.9-1.3l0.1-0.6
	l-1-1l0.8-0.8l0.2-2.4l-1-1.8l-0.2-1.4l-0.9-1l0-0.5l3.2-2.6l0-2l1.3-0.9l1,0l-0.5-0.5l0.6-0.3l-1.2-0.6l0.2-0.5l-0.9-0.6l-0.2-1.1
	l-0.7-0.3l0.5-0.6l-0.7-0.8l0.7-0.6l0.3-1.2l0.6,0.1l0.9-0.6l-0.2-1.2l0.4-0.7l0.5,0.3l0.6-0.7l1.9,0.4l0.5-0.5l0.8,0.5l0.6-0.6
	l2.6-0.7l0.1-1.1l-1.3-1.6l1.5-1.1l0-0.3l-0.5-0.1l0.2-0.3l1,0.7l-0.3-1.4l0.7-0.2l-0.1-1l1.1-0.7l0.3-1.9l1.2-1l-1.2-1.3l1.2-0.4
	l-0.5-0.9l0.7,0l0.1-0.8l0.7,0l-0.4-0.8l0.6-0.5l0.3,0.3l0.2-0.9l0.7-0.1l-0.2-0.4l0.4-0.2l-1.1-0.4l0.2-1.2l0.6,0l0.2-0.6l-1.6-0.2
	l0.2-1l-0.8-1.1l-0.5,0l-0.1-0.7l-0.2,0.2l0.5-0.8l-0.2-1.6l-1.1,0.5l0.2-0.8l-0.9-0.4l-0.8,0.2l-1.1-1.4l-0.9,0l-0.5-0.6l-0.4,0.3
	l-0.2-0.5l-1.1,0.7l-1.9,0.3l-2.3-0.9l-0.5-0.8l-0.7,0.2l-0.8-1.1l-1.4,0.2l-0.4,1l-1-0.3l0,0l-0.4-1.2l0.7,0.1l0.7-0.9l-0.9-0.7
	l-0.2,0.3l-1.9-0.3l-0.2,1.1l-1.2-0.2l0.1,0.9l-0.5,0.3L213,254l-1.3,0.2l-0.8-0.6l-0.2,0.8l-2.7-1.1l-0.7,0.5l-0.1,0.8l-2.2,1.1
	l-1.7,0.2l-0.5-0.6l-0.3,1.3l0.2,0.5l-0.9,0.5l0.3-0.5l-0.7,0l0.2-1.1l-0.3-1.1l4.5-2.4l1.7-0.3l0.4-0.8l-0.6-0.2l-0.1,0.7l-0.4,0
	l-0.6-1.1l-0.9,0.8l-1.4-0.5l0.2-0.9l-0.9,0.2l-0.5-0.6l1.8-0.6l0.3-1l1-0.2l0.4-0.6l-0.7-0.4l0.1-0.5l-1-1.4l0.4-1l-0.8,0.4
	l-1.5-1.2l-1.3-0.4l-0.3-0.6l0.3-0.8l-0.7-0.4l-0.3-0.9l-0.9-0.3l-0.1-0.9l0.4-0.5l-0.8-0.4l0.6-0.9l-0.1-1l-0.8-0.5l0.1-1.6
	l-0.6-0.4l0,0l1.3-1.2l1.5,0l0-0.8l0.9,0.2l0.2-1.1l1,0l0.4-0.6l-0.5-0.2l0.5-0.6l-1.1-1.1l-0.2-0.9l0.2-0.5l0.3,0.2l0.1-1.4
	l0.9-0.5l-1-0.1l-0.1-0.6l0.6,0.2l-0.1-0.6l0.5-0.4l-1.5-0.5l0.5-0.2l0.1-0.6l-0.6-0.7l0.6-0.5l-0.4-1.2l-2.7-2.2l0,0l-0.9-1.3
	l0.8-1l-0.5-0.8l0.2-1.6l-0.8,0.1l-1.2-1.7l-0.6-0.2l0.4-0.9l-0.6-0.7l0,0l-0.1-0.5l0.8-0.3l-0.6-1.2l0.5-1.1l-1.8-2.3l0.4-1.7
	l-0.3-1l0.4-0.4l-0.3-0.7l0.5-1.4l-0.7-0.3l-0.1-0.6l0.6-0.3l-0.4-0.5l0.3-0.7l-1.1-2.1l0.5-0.4l-0.5-1.1l1.2-2.4l-0.5-1.5l0.7-0.5
	l0.6-2.6l1.7-2.2l0.1-1.1l2.9-1.3l-0.3-0.3l0.5-1.1l1-0.5l1.1-2.2l0.9-0.7l0.4-1.4l-0.3-0.3l0,0L204.1,174.9z"/>
<path id="IN-UT" class="st0" d="M236.7,152.9l1.1,1.3l-0.3,1l0.8,0.5l0.2,1.4l0.8,0.9l1.1,0.3l0.6,1.9l1.8,0l0.6,1.5l1.1,0.7l1.3-1
	l1,0.1l0.7-0.5l1.3,0.7l1,0l1.2,2l2.6,1.1l1.2,1.5l1.1-0.8l0.7,1.1l0.6,0l0.3,0.6l-0.4,0.9l-0.8,0.6l0.6,0.6l0.1,1.5l1.8,0.3
	l1.3,0.9l0.6-0.1l2.5,1.8l1.2-0.8l3.1,2.1l1.5,1.8l4.2,1.5l0,0.4l-0.6-0.2l-1.6,0.5l-0.9,1.2l0.3,0.9l-2.3,1.8l-0.3,1l-1.4,1.1
	l-1.4,0l-1,2.5l-1.1,1.2l-1.2-0.2l-1.4,1.3l0.3,1.7l0.7,0.8l-0.2,1l-0.6,0.8l-0.7,0.2l0.1,0.8l-1.3,1l0.3,0.6l-1.2,0.2l0,0.8
	l0.7,0.4l0.1,1l0.7,0.8l-0.4,2.5l-1-0.4l0.5,1.8l-0.8,0.5l-1-0.4l-0.8,0.8l-0.2,2.2l-0.4,0.6l-0.4-0.1L254,209l0.2,2l0,0l-0.9,0.7
	l0.3,0.4l-0.5,1l-0.9,0.5l-0.9-0.4l-0.7-1.2l0.2-0.4l-1.2-0.1l0.7-0.2l-0.4-0.6l-0.6,0l-0.2,0.7l-0.6,0.2l0.5-1.3l-0.7-0.7l-1.2,0.3
	l-0.9,0.7l-1.1-0.5l-1.3,0.5l-0.3-1.1l-0.6,0.7l-1.9,0.2l-0.2-1.7l-0.5-0.1l-0.3-0.8l-0.2,0.4l-1.1,0l-1.9-1.7l-0.9,0.1l0.1-0.6
	l-0.6-0.4l-0.1-1.4l-2.1-1l-0.2,1.2l-1.1-1.1l-0.4,0.4l-0.9,0l0-1.2l-0.9-1.3l-1.1,0.1l-1.7-1.4l0.9-0.7l0.6,0.5l0.4-1.2l0.4,0.3
	l0.8-0.6l1.1-1.5l-2.7-0.5l-3.6-2l-1.6-1.4l-0.8-2.7l-1.5-0.7l-1.6-0.5l-2,2.1l-0.8-0.1l-1.1,0.8l-1.1,1.7l-0.8,0.2l-0.1,0.9l-1,0.2
	l-0.1-1l-0.7-0.1l0.1-0.6l0.5,0l-0.5-2.1l-1.6,0.1l-0.9,0.7l-0.7-0.3l0-0.4l-0.7-0.4l0.1-1.6l-1.3-2l0.6-1l-0.3-0.5l0.5-0.7
	l-0.3-0.5l0.8-0.9l-0.3-0.5l0.6-1.2l0.5,0.2l0.5-0.5l1.9-3.1l-4.4-2.1l-1.5-1.7l-1.4,0.1l0,0l0.4-0.6l2-0.5l2.4-1.4l0.2-0.5
	l-0.1-0.7l-0.8,0l-0.6-0.8l1-0.5l-0.1-1l-0.9-0.5l0.2-0.6l-1.1-1.3l1.1-1.4l0-1.2l0.9,0.5l0.1-1.5l-1,0l-0.2-0.9l0.6-0.4l1.1,0.5
	l-0.4-0.4l0.6-0.9l-0.5-1.3l0.8-0.4l0.9-1.7l1.3-0.6l1.2,0.6l0.3-0.7l1.2-0.1l1.2-0.9l1.7-0.1l0.7-0.8l0.5,0.1l0.1-0.5l1.2-0.1
	l0.8,1l0.4-0.3l0.5,0.4l0.5,0.9l1.3-0.1l1.2-0.7l0.8,0.3l0.3,0.6l2.9-0.2l0.5,1.3l1.1,0.9l2.5-0.2l-0.4-1.5l-1.2-1.1l-0.2-0.8l0,0
	l0.4-1.7l1.3-0.8l1.1-2.5l1.6,0.7L236.7,152.9z"/>
<path id="IN-WB" class="st0" d="M422.5,369.8l0.6,0.5l0.1,0.7l-1-0.3L422.5,369.8z M429.2,369.6l1.4,1.1l-1.2,0L429.2,369.6z
	 M427,369.2l0.6,0.5l-0.3,0.6l-0.6-0.5L427,369.2L427,369.2z M423.3,369l1,0.8l-0.7,0.8l-0.8-0.8l0.3-1.1L423.3,369z M428,368.7
	l0.5,1.3l-0.9,0.3l0.3-0.5l-0.5-0.6L428,368.7z M431.8,368.9l0.4,0.4l-0.6,0.1l-0.1-1.1L431.8,368.9L431.8,368.9z M424.4,368.1
	l0,1.3l-0.8-0.5L424.4,368.1L424.4,368.1z M432.2,367.5l0.1,0.9l0.4,0.4l0.3,0.9l-0.6,0.1l0-0.6l-0.5-0.5l-0.4-1.1L432.2,367.5
	L432.2,367.5z M428.6,367.7l-0.2,0.9l-0.8-0.5L428.6,367.7L428.6,367.7z M418.8,367.5l0.7,0.4l0.2,0.9l-0.9,0.8L418.8,367.5z
	 M421.6,367.5l0.3,0.8l-0.5,1l-0.3-1.1L421.6,367.5z M416.6,367.2l0.2,0.4l-0.2,0.4l0.3,0.3l0.1,0.5l-0.2,0.9l-0.6-1.8L416.6,367.2
	L416.6,367.2z M433.7,367.2l0.7,1.7l-0.9,0.6l-1.1-1.3l0.2-0.5L433.7,367.2L433.7,367.2z M423.5,367.3l0.5-0.1l0.3,0.7l-0.9,0.9
	l-0.5-1.2L423.5,367.3z M430.2,366.7l1.1,1.1l-0.4,1.3l-1-1.3L430.2,366.7L430.2,366.7z M420.8,367l0.3,0.6l-0.3,0.9l0.4,0.7
	l-0.7,0.7l-0.4-1.8l0.5-0.8l-0.5-0.3l0.3-0.5L420.8,367z M416.9,366.6l1,0.2l0.7,1.5l-0.3,1.5l0.4,0.5l-0.6,0.5l-0.7-0.2
	L416.9,366.6L416.9,366.6z M431.2,366.4l0.8,0.9l-0.9-0.2L431.2,366.4z M420,366.4l-0.1,0.7l0.4,0.4l-0.5,0.4l-0.2-1.3L420,366.4
	L420,366.4z M432.8,366.4l0.7,0.6l-0.5,0.3L432.8,366.4L432.8,366.4z M429.2,366.4l0.6,0l-0.5,1.1l0.4,1.5l-0.3,0.2l-0.7-0.3
	l0.1-1.5l-0.8,0.1l0.4-0.9L429.2,366.4z M424.2,366l0.8,1l-0.3,0.7l-0.6-1.3L424.2,366z M432.1,365.9l0.7,1.2l-0.2,0.2l-1.1-1.1
	L432.1,365.9z M424.7,365.7l0.2,0.9l-0.4-0.3l-0.2-0.5L424.7,365.7z M421.9,365.8l0,1.1l-0.7,0.4l0.1-1.1L421.9,365.8L421.9,365.8z
	 M426.9,365.4l0.9,1l-0.1,0.6l0.3,0.1l-0.1,0.7l-0.7,0.1l0.4,0.6l-1.2-0.4l0.2-1.4L426.9,365.4L426.9,365.4z M423.4,365.3l0.6,0.5
	l0,1.1l-1.1,0.4l-0.3-1.1L423.4,365.3L423.4,365.3z M421,365.3l0.4,0.2l-0.4,1.3l-0.5-0.9L421,365.3L421,365.3z M432.5,365.3l0.3,0
	l0.1,1l-0.7-0.5L432.5,365.3L432.5,365.3z M429.1,365.4l0,0.8l-0.8,0.4l0.6-1.6L429.1,365.4z M431.3,364.5l0.7,0.6l-0.2,0.7l-1,0.4
	l-0.3-0.9L431.3,364.5z M424.4,364.4l0.3,0.4l-0.1,0.7l-0.5-0.4L424.4,364.4L424.4,364.4z M419.2,364.6l0.4,1.1l0.5,0.1l-0.1,0.4
	l-0.7,0.2l-0.2,0.8l-0.7-0.2l-0.4-1.5L419.2,364.6L419.2,364.6z M429.6,364.1l0.4,0.3l0.7,2.5l-1.4-1.1L429.6,364.1z M415.3,363.9
	l0.7,1.3l0,1.5l-0.5,1.3l0.2,0.6l-0.9,0.5l-1.3-0.5l-0.1-0.6l0.7-2.2L415.3,363.9L415.3,363.9z M428.3,364.4l0.7-0.8l0.4,0.4l-1,1.4
	l-0.2-0.8L428.3,364.4L428.3,364.4z M432.1,363.5l1,0.6l-0.3,0.9l-1.2-0.4L432.1,363.5L432.1,363.5z M425,363.4l0.6,0.6l-0.3,1.8
	l-0.8-1.7L425,363.4z M423.8,363.4l0.3,0.4l-0.4,1.1l-0.3-0.5L423.8,363.4L423.8,363.4z M421.5,363.3l0.7,0.4l0.2,0.7l-0.8,0.9
	l-0.9,0l0.4-1.7L421.5,363.3z M426.8,363.4l0.7,0.1l0.6,0.8l-0.5,1.7l-1.2-1.2L426.8,363.4z M425.3,362.9l0.5,0.2l-0.4,0.5
	L425.3,362.9z M429.3,363l1.6-0.2l1,0.6l-0.3,0.5l-1,0.8L429.3,363L429.3,363z M427,362.7l1.5,0.3l0.2,0.8l-0.4,0.4l-0.4-0.8l-1-0.2
	L427,362.7L427,362.7z M427.4,361.7l0.1,0.5l0.6,0.1l0.2,0.3l-1-0.1l-0.4-0.7L427.4,361.7L427.4,361.7z M425.7,360.8l1.1,0.4
	l-0.8,1.2l-1-0.3L425.7,360.8z M415.4,360.7l-1.1,2l-0.8,0.5l0.5-1.8L415.4,360.7L415.4,360.7z M428.8,360.8l1.8,0.2l-0.1,1.6
	l-0.8,0.2l-1.9-0.9l0.3-0.9L428.8,360.8L428.8,360.8z M433.3,360.2l0.7,1.3l-0.3,1.1l-0.6,0.2l-1.1-2l0.1-0.7L433.3,360.2
	L433.3,360.2z M429.9,359.5l0.3,1l-1.8-0.3L429.9,359.5z M429.4,359l0.3,0.3l-1.3,0.4l-0.2,0.5l-0.5-0.1l0.5-1.1l0.7-0.3L429.4,359z
	 M429.7,357.1l1.2,2.2l-0.9,0.1l-0.8-0.8l0.8-0.3l-0.7-1.1L429.7,357.1L429.7,357.1z M431.6,357.3l0.6,0.7l-0.4,1.2l-0.8,0.6l0,0.9
	l0.4,0.5l-0.2-1.2l0.6,0l0.2,1.5l1,1.4l-0.2,0.4l-1.5-0.7l-0.5-1.2l-0.2-1.5l0.6-0.7l-0.7-1.5l0.5,0.2L431.6,357.3L431.6,357.3z
	 M432.6,357l1,1.5l-0.3,1.4l-1.4-0.2l0.6-1.4l-0.5-1.2L432.6,357z M426.4,357l1.9,0.6l-2.1,1.9l1.1,1.1l-0.2,0.5l-1.3-0.5l-0.5-1.6
	L426.4,357L426.4,357z M429.6,358l-1.5,0.8l-0.8,1.2l-0.3,0l-0.4-0.4l2.2-2l0.4-0.1L429.6,358z M431.5,356.4l0.3,0.6l-0.6,0.4
	L431,357l0-0.5L431.5,356.4L431.5,356.4z M428.8,355.2l0.3,0.9l-0.5,0.3l0.5,0.8l-0.6,0.1l-0.8-0.6l0.1-0.5L428.8,355.2L428.8,355.2
	z M429.3,353.8l1,0.1l0.4,0.8l0.5,0.1l0.2,1.3l-0.8,0.3l0.2,1l-2-1l0.4-0.2l-0.3-1.9L429.3,353.8L429.3,353.8z M432.2,353l0,1.2
	l0.8,0.6l-0.6,0.2l1.5,1.9l0,1.1l0.6-0.2l-0.7,0.6l-0.8-1.7l-0.9-0.1l-0.4-1l0.3-3.1L432.2,353L432.2,353z M430.4,349.7l0,1.5
	l0.6,1.4l-0.7,0.5l-0.5-2.7L430.4,349.7L430.4,349.7z M431.2,349.2l0.5,0.2l0.8,2.5l-0.8,0.4l-0.4,2.2l-0.7-0.6l0-0.9l0.5-0.4
	l-0.6-1.5l0-1.8L431.2,349.2L431.2,349.2z M412.9,247.2l1.2,0.4l0.2,1.3l1,0.5l1.2-0.4l0.7,0.4l1.4-0.2l0.4,0.5l2.2,0.5l2-1.5
	l-0.2-0.6l0.8-0.2l1.2,0l0.7,0.6l0.6-0.4l0.8,0.9l0.5-0.2l0,0l2.4,0.9l0.1,3.5l0.9-1l0.7,0.6l-0.3,0.6l0.5,0.4l1.2-0.4l0.4,0.8
	l0.9,0.2l0.2,1.3l0.6,0.6l2.5-0.2l2.4-1.1l0.3,0.6l1.2,0.2l0.2,0.6l2-0.2l1.3,0.9l0.5-0.1l0.2,0.4l-0.8,0.8l0.4,0.2l0.5,0l0.3-0.5
	l1.1,0.4l0.6-0.3l0.4,0.8l0.7-0.3l1,0.2l0,0l0.4,1.2l-0.4,0.6l0.4,0.9l-0.3,0.1l-0.2,2l0.4,0.6l-0.9,1.4l0.4-0.1l0.2,0.4l-1.5,0.7
	l0,0.5l-0.6,0.2l0.2,0.7l-0.8-0.4l0.4,0.8l-0.2,0.3l-0.4-0.3l0.5,0.7l-0.6,0.5l0.7,0.1l-0.7,0.5l0.8,0.3l-0.3,0.2l0,0l-0.4-0.1
	l-0.5-0.7l-0.1-0.4l-0.7-0.2l0.5,1.2l-0.8-0.1l-0.1,0.5l-0.4-0.1l0.8,0.8l-0.7,0.4l0.3,0.3l0.4-0.4l0.4,1l-1.4,0.9l0,1.2l-0.7-0.1
	l0-0.8l-2.1-0.1l-0.2-0.8l-0.6,0.9l-0.9-0.1l-1.4-0.9l0-0.4l-0.5,0l0.2-0.6l-0.8-0.7l-1.4-0.4l-0.4-0.9l0.1-1.2l-0.8-1l0.7-0.9
	l-1.1,0l0.3-0.4l-0.4-0.6l0.1-0.7l-1,0l-1.5-1.4l-0.3,0.8l-0.4-0.2l-0.4,0.5l0.2,0.9l0.9,0.1l0.1,0.3l0.5,0l0.3,0.5l-0.3,0.5
	l0.8,0.4l0.6-0.2l0.1,0.9l-2,0.3l-0.7-1l-0.9-0.1l-0.4,0.3l0.3,0.9l-0.8,0.1l-0.6-0.6l0-0.9l-0.5-0.3l-0.7,0.3l-0.2-1.2l-0.9,0.4
	l-0.5-1l0.4-0.2l-1.6-1l-0.1-0.8l-0.5,0l0,0.5l-0.8-0.2l0.1-0.7l-0.7,0.2l-0.8-1.3l-1-0.1l-0.4-1.9l-0.8,0.9l-0.8,2.6l0.4,0.7
	l0.2-0.9l2.3,0.6l0.8,2.2l-0.8,0.2l-0.6-0.5l-0.4,0.8l-0.6,0.1l0.2,0.3l-1.3,0.8l0,1.4l-2.1,0.7l-1.4,1l-0.4,1.5l0.5,0.2l-0.2,0.8
	l0.3,0.2l-0.9,0.3l-1.1,2.2l0.4,0.5l0.2,2.1l0.7,0.5l0.7-0.6l0.4,0.3l1.2-0.5l0,0.6l2.1,1.5l0.6,1l1,0.2l-0.2,1.4l1.1,0.3l-0.1,0.5
	l1.6,1.2l0.6-0.2l0.8,0.8l1,0.2l0.2-0.6l1.2,0.1l-0.1-0.6l0.9,0l0.6,1.1l-0.4,1.4l0.6,0.4l0,0.7l0.9,0.9l0.4-0.3l0.4,0.7l1.7,0.2
	l-1.1,0.7l0,0.9l-0.5,0l0.3,0.7l-0.5,0.4l-1.6-1l-0.8,0.9l-0.6-0.4l-0.4,0.3l-0.9-0.7l-1.8,0.1l-1,0.6l-1.3-0.7l-1.1,0.3l0.3,1.2
	l-0.4,0.3l0.2,1l-0.3,0.6l0.3,0.3l-1.1,1.5l0.1,0.5l-1.2,0.1l-0.3,0.6l0.4,0.4l-0.5,0.6l-1-0.7l-0.3,0.4l0-0.9l-0.7-0.9l-1.8,0.5
	l0.7,1.6l-0.6,0.2l-0.2,1l-0.3-0.4l-0.3,0.9l-0.7,0.2l-0.1,1.1l-1.1,1.2l2.7,3.5l1,1l1.5,0.5l1.2,1.2l2.3,0.1l1.6,0.7l0.5,1l0.3-0.7
	l0.4,0l0.9,0.4l1.5-0.1l0.6,0.8l-0.1,1.7l-0.6,0.7l0.2,1l-0.3,0.1l0.1,0.4l0.5,0l0,2.2l0.6-0.3l0.2,0.5l-0.7,0.1l-0.1,1.4l-0.6,0
	l-0.9,1l-1.7,0.2l0.5,0.9l-0.8,0.7l0.4,0.4l-0.3,2.7l0.6,0.1l-0.2,0.8l1.3-0.2l0.3,1.2l1.7,1.6l1.1-0.3l-0.2,1.2l-0.5,0l-0.2,0.5
	l0.1,1.2l-0.6,0.3l0.3,0.8l-1,0.3l0.5,0.9l1.5,0.8l0.3,0l0.1-0.7l0.7,0.6l1.2-0.1l0.1,0.5l1.5-0.1l-0.3,0.7l-0.4-0.2l-0.8,1.4
	l-1,0.6l0.1,2l-0.5,0l0.4,0.3l-0.1,0.7l0.7,0.1l0.4,0.7l-0.1,0.9l0.7,0l0.4,0.7l-0.2,1l-0.8,0.7l0.8,1.5l-0.5,1.5l0.5,0.2l-0.4,0.9
	l-1.4,0.5l-0.5,0.8l0.3,0.6l-0.2,2l0.6,0.7l-1.1-0.2l-0.4,1.6l-1.2,1.1l-0.1,0.7l-1.1-0.1l-1.2,2.2l0.3,1.4l-0.8,1.5l0.2,1.3
	l-0.6,0.5l-0.1-0.4l-0.6,0.1l-0.2,1.1l-0.7-0.6l0.6-1.1l-2.1,0.5l-0.4,0.5l-0.1,1.8l-0.5,0l-0.2-1.3l-0.8,0.2l-1.1,0.9l0.3,1.1
	l-1.1-0.2l-1.1-2.5l0.3-1l-0.5-0.7l1.1-1.4l0.3-1.1l-0.4-2l-0.7-0.7l-1.9-0.3l0.7-2l-1.1,1.8l-1.3-0.5l-0.5-0.8l-0.2-2.6l-0.5-0.6
	l-0.8-0.1l1.2,1.6l0,2.3l1.4,1.3l2.5,0.4l1.1,1.8l-2.5,1.8l-0.2,0.1l-1.5,3.3l-1,1.2l-0.8,0.1l-2,2.1l-0.7-0.1l-1.3,0.9l-4.1,1l0,0
	l-0.5-0.8l0.2-1.3l-0.6-0.5l0-0.7l-1.5,0l-0.4-0.5l-1.8-0.6l-0.6-3l-1.3-0.4l-0.2,0.9l-1.3,0.5l0,1l-1.3-0.1l-0.6-0.9l0.7-1.7
	l-0.3-1.1l-1.2-0.9l-2.5-0.3l-0.8-1.3l-1.5,0.2l0.1-1.5l0,0l0.9,0.1l0.2-0.1l0.5,0l0.2-0.5l0-0.6l0.1,0.3l1.4-0.1l0-0.9l-1.1-0.7
	l0.3-1.5l-1.6-0.6l-0.3-1.1l0.9,0l0.2-0.5l-0.8-1.6l-2.2-0.1l-0.7-2.1l-1.6-1l-0.7,0.4l-1.8-1.6l0.3-1.8l0.6-0.8l-0.6-0.6l0.8-0.6
	l0.3,0.3l0.7-0.2l0.4-0.9l-0.6,0.5l-0.3-0.5l-1.6-0.1l-0.5,0.4l-1.9-0.8l-1.7,0.5l-1.2-1.1l-0.3-0.9l-1.8-0.6l-0.2-0.8l-2.4,0.3
	l-1.1-1.4l-0.5,0l-0.1-1.5l1-1.3l-0.2-0.9l0.6-0.1l-0.7-0.9l0.1-1.3l1.6,0.3l2.1-0.8l-0.7-1.3l0.7-0.7l2,0.3l0,2.1l1.5,0.4l0.4-0.3
	l-0.3,0.7l0.4,0.3l0.7-0.5l0.4,0.5l0.3-0.2l-0.3-0.3l1.4-0.8l-0.4-0.3l0.1-1l0.5-0.9l1.2-0.5l0-0.4l1.8,0l1.3-0.9l2-0.5l0.8,0
	l0.1,0.4l1.1-0.2l0.6-1.6l-0.5-1.5l0.6,0.4l1-0.7l0.1-0.4l0.4-0.4l0.8,0.8l0.6-0.4l3.1,1.5l0.5,0l0.4-0.5l-0.7-1l1.3,0.3l-0.1,0.3
	l0.6,0.2l0.5,0.1l0.1-1.8l0.4,0.7l0.5-0.6l-0.1-1.2l-0.6-0.2l-0.5-1.6l1.9,0.2l-0.3,0.6l0.2,0.2l0.6-0.3l2,0.6l-0.5-0.6l1-0.1
	l0.6-0.6l-0.4-0.3l0-1.4l1.6,0.7l-0.1-0.5l0.8-0.5l-0.8-0.6l2.4,0.1l0.1-0.8l-1.1-0.6l0-0.7l0.9-0.1l0.6-1l0.9-0.3l1.1-2.2l-0.5-0.2
	l0.8-1.7l-0.3-0.4l-0.2,0.4l0.2-1.2l-0.7-0.8l1.6,0.7l0.8-0.3l0.5-0.7l-0.7-0.4l0.6,0l-0.3-0.3l0.6-0.7l-0.5-0.3l0.3-1l-1.2-0.4
	l-0.4-0.6l0.4-0.5l0,0.5l0.4,0l0.4-0.6l-0.2-0.6l0.6,0l-0.2-0.6l1.7-1l-0.1-0.7l-1.8-2.2l-2-1.4l0.2-2.8l0,0l1,0.5l-0.3-0.8l0.7-1
	l-1.4-1.2l0.1-0.9l-0.5-0.1l-0.1-0.6l0.4-0.9l0.5,0.2l0.5-0.7l0.6,0l0.3-1.1l0.4,0.3l0.5-0.7l1.2,0.3l0,0.5l0.4,0.2l0.1-0.4l0.4,0.5
	l0.9,0.1l0-0.5l-0.7-0.7l-0.3-1.1l0.7-1l-0.4-0.1l0.3-1.2l-1.7-0.8l-0.6-1l-0.7,0l0.2-1l-0.5-0.3l0.5-0.5l-1.8-0.4l-0.4-0.9l0.5-0.5
	l0.2-2.4l1.4-1l0.4,0.5l0.1-0.3l0.6,0.1l-0.1-1.6l1,0.2l0.5-0.8l0.6,0l1.5-1.7l1.4-0.6l1.6-1.6l-0.5-0.6l-0.6,0.1l-0.1-0.4l0.7-0.6
	l-0.8-0.6l-0.1-0.6l-0.6,0.1l-0.3-0.4l1.1-0.9l0-0.4l-1.3,0.3l-0.5,0.6l-0.8-0.5l0,0l0,0l0,0l0-0.1l0,0l1.2-2.2l0.5-3l-0.3-2.1
	l-0.7-0.7l0.2-0.5l-0.5-0.7l0.3-0.8l-0.8-0.4l-0.3-0.7l-0.8,0l-0.3-1.1l-0.6-0.4l0.6-1.5L412.9,247.2L412.9,247.2z"/>
</svg>
