<?xml version="1.0" encoding="utf-8"?>
<!-- Generator: Adobe Illustrator 23.0.2, SVG Export Plug-In . SVG Version: 6.00 Build 0)  -->
<svg version="1.1" id="Layer_1" xmlns="http://www.w3.org/2000/svg" xmlns:xlink="http://www.w3.org/1999/xlink" x="0px" y="0px"
	 viewBox="0 0 175 250" style="enable-background:new 0 0 175 250;" xml:space="preserve">
<style type="text/css">
	.st0{fill:#21778E;}
	.st1{fill:#333333;}
	.st2{fill:#0F8FBC;}
	.st3{fill:#3796B7;}
	.st4{fill:#1287AF;}
	.st5{fill:#489EBC;}
	.st6{fill:#68AABC;}
	.st7{fill:#7FB9C6;}
	.st8{fill:#99C9D1;}
	.st9{fill:#F2F2F2;}
</style>
<g>
	<rect x="28.9" y="8" class="st0" width="10.2" height="10.2"/>
</g>
<g>
	<path class="st1" d="M48.1,15.4l1.3-5.2H51l1.3,5.2h-0.8l-0.3-1.1h-2l-0.3,1.1H48.1z M50,10.9l-0.6,2.6H51l-0.6-2.6H50z"/>
	<path class="st1" d="M55.2,11.6h0.8v3.8h-0.8v-0.2c-0.4,0.2-0.7,0.3-1,0.3c-0.5,0-0.9-0.1-1-0.4c-0.2-0.3-0.3-0.8-0.3-1.5v-2h0.8v2
		c0,0.5,0,0.8,0.1,0.9c0.1,0.2,0.3,0.2,0.5,0.2c0.3,0,0.5-0.1,0.8-0.2l0.1,0V11.6z"/>
	<path class="st1" d="M59.1,12.3h-1V14c0,0.3,0,0.5,0.1,0.6c0,0.1,0.2,0.2,0.3,0.2l0.6,0l0,0.7c-0.3,0.1-0.6,0.1-0.8,0.1
		c-0.4,0-0.7-0.1-0.9-0.3c-0.2-0.2-0.2-0.6-0.2-1.1v-1.8h-0.5v-0.7h0.5v-1.1h0.8v1.1h1V12.3z"/>
	<path class="st1" d="M60,12c0.3-0.3,0.7-0.5,1.3-0.5c0.6,0,1,0.2,1.3,0.5c0.3,0.3,0.4,0.8,0.4,1.5c0,0.7-0.1,1.2-0.4,1.5
		c-0.3,0.3-0.7,0.5-1.3,0.5c-0.6,0-1.1-0.2-1.3-0.5c-0.3-0.3-0.4-0.8-0.4-1.5C59.6,12.9,59.7,12.4,60,12z M60.6,14.5
		c0.1,0.2,0.3,0.3,0.7,0.3c0.3,0,0.6-0.1,0.7-0.3c0.1-0.2,0.2-0.5,0.2-1c0-0.5-0.1-0.8-0.2-1c-0.1-0.2-0.3-0.3-0.7-0.3
		c-0.3,0-0.5,0.1-0.7,0.3c-0.1,0.2-0.2,0.5-0.2,1C60.4,14,60.5,14.3,60.6,14.5z"/>
	<path class="st1" d="M64.6,15.4h-0.8v-3.8h0.8v0.2c0.4-0.2,0.7-0.3,1-0.3c0.4,0,0.8,0.1,1,0.4c0.5-0.2,0.9-0.4,1.4-0.4
		c0.5,0,0.8,0.1,1,0.4c0.2,0.3,0.3,0.8,0.3,1.4v2h-0.8v-2c0-0.4,0-0.7-0.1-0.9c-0.1-0.2-0.3-0.3-0.5-0.3c-0.2,0-0.5,0.1-0.7,0.2
		l-0.1,0.1c0,0.1,0.1,0.4,0.1,1v2h-0.8v-1.9c0-0.5,0-0.8-0.1-0.9c-0.1-0.2-0.3-0.3-0.5-0.3c-0.3,0-0.5,0.1-0.7,0.2l-0.1,0V15.4z"/>
	<path class="st1" d="M70.4,12c0.3-0.3,0.7-0.5,1.3-0.5c0.6,0,1,0.2,1.3,0.5c0.3,0.3,0.4,0.8,0.4,1.5c0,0.7-0.1,1.2-0.4,1.5
		c-0.3,0.3-0.7,0.5-1.3,0.5c-0.6,0-1.1-0.2-1.3-0.5c-0.3-0.3-0.4-0.8-0.4-1.5C70,12.9,70.1,12.4,70.4,12z M71,14.5
		c0.1,0.2,0.3,0.3,0.7,0.3c0.3,0,0.6-0.1,0.7-0.3c0.1-0.2,0.2-0.5,0.2-1c0-0.5-0.1-0.8-0.2-1c-0.1-0.2-0.3-0.3-0.7-0.3
		c-0.3,0-0.5,0.1-0.7,0.3c-0.1,0.2-0.2,0.5-0.2,1C70.8,14,70.9,14.3,71,14.5z"/>
	<path class="st1" d="M75.9,11.6c0.5,0,0.9,0.1,1.1,0.4c0.2,0.3,0.3,0.8,0.3,1.5s-0.1,1.3-0.4,1.5c-0.3,0.3-0.8,0.4-1.4,0.4
		c-0.2,0-0.6,0-1.1-0.1l-0.3,0v-5.4H75v1.7C75.3,11.6,75.7,11.6,75.9,11.6z M75.6,14.8c0.4,0,0.7-0.1,0.8-0.3c0.1-0.2,0.2-0.5,0.2-1
		s-0.1-0.8-0.2-1c-0.1-0.2-0.3-0.3-0.6-0.3c-0.2,0-0.5,0-0.7,0.1l-0.1,0v2.3C75.3,14.8,75.5,14.8,75.6,14.8z"/>
	<path class="st1" d="M78.2,11v-0.9h0.8V11H78.2z M78.2,15.4v-3.8h0.8v3.8H78.2z"/>
	<path class="st1" d="M80.1,15.4v-5.4h0.8v5.4H80.1z"/>
	<path class="st1" d="M84.7,14.7l0.2,0l0,0.6c-0.6,0.1-1.1,0.2-1.5,0.2c-0.6,0-1-0.2-1.2-0.5c-0.2-0.3-0.4-0.8-0.4-1.5
		c0-1.3,0.5-2,1.6-2c1.1,0,1.6,0.6,1.6,1.7L85,13.9h-2.4c0,0.3,0.1,0.5,0.2,0.7c0.1,0.1,0.4,0.2,0.7,0.2
		C83.9,14.8,84.3,14.8,84.7,14.7z M84.2,13.2c0-0.4-0.1-0.6-0.2-0.8c-0.1-0.1-0.3-0.2-0.6-0.2s-0.5,0.1-0.6,0.2
		c-0.1,0.2-0.2,0.4-0.2,0.8H84.2z"/>
	<path class="st1" d="M87.6,15.4v-5.2h0.8v5.2H87.6z"/>
	<path class="st1" d="M90.4,15.4h-0.8v-3.8h0.8v0.2c0.4-0.2,0.7-0.3,1-0.3c0.5,0,0.9,0.1,1,0.4c0.2,0.3,0.3,0.8,0.3,1.4v2h-0.8v-2
		c0-0.4,0-0.7-0.1-0.9c-0.1-0.2-0.3-0.3-0.5-0.3c-0.3,0-0.5,0.1-0.7,0.2l-0.1,0V15.4z"/>
	<path class="st1" d="M96.8,10.1v5.4H96v-0.2c-0.4,0.2-0.7,0.3-1,0.3c-0.5,0-0.9-0.1-1.1-0.4c-0.2-0.3-0.3-0.8-0.3-1.5
		s0.1-1.2,0.4-1.5c0.3-0.3,0.7-0.5,1.2-0.5c0.2,0,0.5,0,0.9,0.1v-1.6H96.8z M95.8,14.6l0.1-0.1v-2.2c-0.3-0.1-0.6-0.1-0.8-0.1
		c-0.5,0-0.8,0.4-0.8,1.3c0,0.5,0.1,0.8,0.2,1s0.3,0.3,0.6,0.3C95.3,14.8,95.6,14.7,95.8,14.6z"/>
	<path class="st1" d="M100.1,11.6h0.8v3.8h-0.8v-0.2c-0.4,0.2-0.7,0.3-1,0.3c-0.5,0-0.9-0.1-1-0.4s-0.3-0.8-0.3-1.5v-2h0.8v2
		c0,0.5,0,0.8,0.1,0.9c0.1,0.2,0.3,0.2,0.5,0.2c0.3,0,0.5-0.1,0.8-0.2l0.1,0V11.6z"/>
	<path class="st1" d="M104.5,12.4c-0.6-0.1-1-0.1-1.3-0.1c-0.3,0-0.5,0-0.6,0.1c-0.1,0.1-0.2,0.2-0.2,0.3c0,0.1,0.1,0.2,0.2,0.3
		c0.1,0.1,0.4,0.1,0.8,0.2c0.4,0.1,0.7,0.2,0.9,0.3c0.2,0.2,0.3,0.4,0.3,0.8c0,0.4-0.1,0.7-0.4,0.9c-0.3,0.2-0.6,0.3-1.1,0.3
		c-0.3,0-0.7,0-1.2-0.1l-0.2,0l0-0.7c0.6,0.1,1,0.1,1.3,0.1c0.3,0,0.5,0,0.6-0.1c0.1-0.1,0.2-0.2,0.2-0.3c0-0.2-0.1-0.3-0.2-0.3
		c-0.1-0.1-0.4-0.1-0.8-0.2c-0.4-0.1-0.7-0.2-0.9-0.3c-0.2-0.1-0.3-0.4-0.3-0.8s0.1-0.7,0.4-0.9c0.3-0.2,0.6-0.3,1-0.3
		c0.3,0,0.7,0,1.2,0.1l0.2,0L104.5,12.4z"/>
	<path class="st1" d="M107.5,12.3h-1V14c0,0.3,0,0.5,0.1,0.6c0,0.1,0.2,0.2,0.3,0.2l0.6,0l0,0.7c-0.3,0.1-0.6,0.1-0.8,0.1
		c-0.4,0-0.7-0.1-0.9-0.3c-0.2-0.2-0.2-0.6-0.2-1.1v-1.8h-0.5v-0.7h0.5v-1.1h0.8v1.1h1V12.3z"/>
	<path class="st1" d="M108.2,15.4v-3.8h0.8v0.5c0.4-0.3,0.9-0.5,1.3-0.5v0.8c-0.4,0.1-0.8,0.2-1.1,0.3l-0.2,0.1v2.6H108.2z"/>
	<path class="st1" d="M110.6,11.6h0.8l0.8,3.1h0.2l0.8-3.1h0.8l-1.4,5.4h-0.8l0.5-1.6h-0.7L110.6,11.6z"/>
</g>
<g>
	<rect x="28.9" y="35.9" class="st2" width="10.2" height="10.2"/>
</g>
<g>
	<path class="st1" d="M50.1,43.3h-1.8v-5.2h1.8c0.8,0,1.3,0.2,1.6,0.6c0.3,0.4,0.4,1,0.4,1.9c0,0.4,0,0.8-0.1,1.1
		c-0.1,0.3-0.2,0.6-0.3,0.8C51.5,43,51,43.3,50.1,43.3z M51.3,40.6c0-0.6-0.1-1.1-0.2-1.4c-0.2-0.3-0.5-0.4-1-0.4h-1v3.7h1
		c0.5,0,0.8-0.2,1-0.6c0.1-0.2,0.1-0.4,0.2-0.6C51.3,41.2,51.3,40.9,51.3,40.6z"/>
	<path class="st1" d="M53.1,43.3v-3.8h0.8V40c0.4-0.3,0.9-0.5,1.3-0.5v0.8c-0.4,0.1-0.8,0.2-1.1,0.3l-0.2,0.1v2.6H53.1z"/>
	<path class="st1" d="M58.1,39.5h0.8v3.8h-0.8v-0.2c-0.4,0.2-0.7,0.3-1,0.3c-0.5,0-0.9-0.1-1-0.4c-0.2-0.3-0.3-0.8-0.3-1.5v-2h0.8v2
		c0,0.5,0,0.8,0.1,0.9c0.1,0.2,0.3,0.2,0.5,0.2c0.3,0,0.5-0.1,0.8-0.2l0.1,0V39.5z"/>
	<path class="st1" d="M63.3,43.8c0,0.8-0.6,1.2-1.8,1.2c-0.6,0-1-0.1-1.3-0.2c-0.3-0.2-0.4-0.4-0.4-0.9c0-0.2,0-0.3,0.1-0.5
		c0.1-0.1,0.2-0.3,0.4-0.4c-0.2-0.1-0.3-0.3-0.3-0.6c0-0.1,0.1-0.3,0.2-0.5l0.1-0.1c-0.4-0.2-0.5-0.6-0.5-1.1c0-0.5,0.1-0.8,0.4-1
		c0.3-0.2,0.6-0.3,1.1-0.3c0.2,0,0.4,0,0.7,0.1l0.1,0l1.2,0v0.7l-0.6,0c0.1,0.2,0.2,0.4,0.2,0.6c0,0.5-0.1,0.8-0.4,1
		c-0.3,0.2-0.6,0.3-1.2,0.3c-0.1,0-0.2,0-0.3,0c-0.1,0.2-0.1,0.3-0.1,0.4c0,0.1,0,0.2,0.1,0.2s0.3,0.1,0.7,0.1c0.6,0,1,0.1,1.2,0.2
		C63.1,43.1,63.3,43.4,63.3,43.8z M60.6,43.9c0,0.2,0.1,0.3,0.2,0.4c0.1,0.1,0.4,0.1,0.7,0.1c0.6,0,0.9-0.2,0.9-0.5
		c0-0.2-0.1-0.3-0.2-0.4c-0.1-0.1-0.3-0.1-0.6-0.1l-0.7,0c-0.1,0.1-0.2,0.2-0.2,0.3C60.6,43.7,60.6,43.8,60.6,43.9z M60.8,41.3
		c0.1,0.1,0.3,0.2,0.5,0.2c0.2,0,0.4-0.1,0.5-0.2C62,41.1,62,41,62,40.7s-0.1-0.4-0.2-0.5c-0.1-0.1-0.3-0.2-0.5-0.2
		c-0.5,0-0.7,0.2-0.7,0.7C60.6,41,60.7,41.1,60.8,41.3z"/>
	<path class="st1" d="M66.5,40.3c-0.6-0.1-1-0.1-1.3-0.1s-0.5,0-0.6,0.1c-0.1,0.1-0.2,0.2-0.2,0.3c0,0.1,0.1,0.2,0.2,0.3
		c0.1,0.1,0.4,0.1,0.8,0.2s0.7,0.2,0.9,0.3c0.2,0.2,0.3,0.4,0.3,0.8s-0.1,0.7-0.4,0.9c-0.3,0.2-0.6,0.3-1.1,0.3
		c-0.3,0-0.7,0-1.2-0.1l-0.2,0l0-0.7c0.6,0.1,1,0.1,1.3,0.1c0.3,0,0.5,0,0.6-0.1c0.1-0.1,0.2-0.2,0.2-0.3c0-0.2-0.1-0.3-0.2-0.3
		c-0.1-0.1-0.4-0.1-0.8-0.2c-0.4-0.1-0.7-0.2-0.9-0.3c-0.2-0.1-0.3-0.4-0.3-0.8s0.1-0.7,0.4-0.9c0.3-0.2,0.6-0.3,1-0.3
		c0.3,0,0.7,0,1.2,0.1l0.2,0L66.5,40.3z"/>
	<path class="st1" d="M70,38.2c0.3-0.2,0.6-0.3,1.1-0.3s0.8,0.1,1.1,0.3c0.2,0.2,0.4,0.5,0.4,0.8c0,0.4-0.1,0.6-0.2,0.9
		c-0.2,0.2-0.4,0.4-0.9,0.7l0.9,0.9c0-0.1,0.1-0.3,0.1-0.5c0-0.2,0.1-0.4,0.1-0.6l0.8,0c-0.1,0.6-0.2,1.1-0.4,1.6l0.9,0.8l-0.5,0.5
		l-0.9-0.7c-0.2,0.2-0.4,0.4-0.7,0.5c-0.3,0.1-0.6,0.2-0.9,0.2c-0.7,0-1.2-0.1-1.5-0.4c-0.3-0.3-0.4-0.7-0.4-1.2
		c0-0.4,0.1-0.7,0.3-1c0.2-0.2,0.5-0.4,0.9-0.6c-0.2-0.2-0.3-0.4-0.4-0.6c-0.1-0.2-0.1-0.4-0.1-0.6C69.6,38.7,69.7,38.4,70,38.2z
		 M70.8,42.6c0.2,0,0.5,0,0.7-0.1c0.2-0.1,0.4-0.2,0.4-0.3l-1.4-1.4c-0.3,0.1-0.4,0.2-0.5,0.4c-0.1,0.2-0.2,0.4-0.2,0.6
		C69.8,42.3,70.1,42.6,70.8,42.6z M70.4,39.2c0,0.2,0.1,0.5,0.3,0.7l0.2,0.2c0.3-0.2,0.5-0.3,0.6-0.4c0.1-0.1,0.2-0.3,0.2-0.5
		c0-0.4-0.2-0.6-0.6-0.6C70.6,38.6,70.4,38.8,70.4,39.2z"/>
	<path class="st1" d="M78.1,41.7H77v1.6h-0.8v-5.2h1.9c1.2,0,1.8,0.6,1.8,1.7c0,0.6-0.1,1.1-0.4,1.4C79.1,41.5,78.7,41.7,78.1,41.7z
		 M77,40.9h1.1c0.6,0,0.9-0.4,0.9-1.1c0-0.4-0.1-0.6-0.2-0.8c-0.1-0.2-0.4-0.2-0.7-0.2H77V40.9z"/>
	<path class="st1" d="M81.4,43.3h-0.8v-5.4h0.8v1.8c0.4-0.2,0.7-0.3,1-0.3c0.5,0,0.9,0.1,1,0.4c0.2,0.3,0.3,0.8,0.3,1.4v2h-0.8v-2
		c0-0.4,0-0.7-0.1-0.9c-0.1-0.2-0.3-0.3-0.5-0.3c-0.2,0-0.5,0-0.7,0.1l-0.1,0V43.3z"/>
	<path class="st1" d="M87.5,40.7v1.7c0,0.1,0,0.2,0.1,0.2c0.1,0.1,0.1,0.1,0.2,0.1l0,0.6c-0.4,0-0.8-0.1-1-0.3
		c-0.4,0.2-0.8,0.3-1.2,0.3c-0.8,0-1.1-0.4-1.1-1.2c0-0.4,0.1-0.7,0.3-0.8c0.2-0.2,0.5-0.3,0.9-0.3l1-0.1v-0.3c0-0.2,0-0.3-0.1-0.4
		c-0.1-0.1-0.2-0.1-0.4-0.1c-0.3,0-0.7,0-1.2,0.1l-0.2,0l0-0.6c0.6-0.1,1.1-0.2,1.5-0.2c0.5,0,0.8,0.1,1,0.3
		C87.4,39.9,87.5,40.2,87.5,40.7z M85.8,41.6c-0.3,0-0.5,0.2-0.5,0.6c0,0.3,0.2,0.5,0.5,0.5c0.3,0,0.5,0,0.8-0.1l0.1,0v-1L85.8,41.6
		z"/>
	<path class="st1" d="M88.6,43.3v-3.8h0.8V40c0.4-0.3,0.9-0.5,1.3-0.5v0.8c-0.4,0.1-0.8,0.2-1.1,0.3l-0.2,0.1v2.6H88.6z"/>
	<path class="st1" d="M92.1,43.3h-0.8v-3.8h0.8v0.2c0.4-0.2,0.7-0.3,1-0.3c0.4,0,0.8,0.1,1,0.4c0.5-0.2,0.9-0.4,1.4-0.4
		c0.5,0,0.8,0.1,1,0.4c0.2,0.3,0.3,0.8,0.3,1.4v2h-0.8v-2c0-0.4,0-0.7-0.1-0.9c-0.1-0.2-0.3-0.3-0.5-0.3c-0.2,0-0.5,0.1-0.7,0.2
		l-0.1,0.1c0,0.1,0.1,0.4,0.1,1v2h-0.8v-1.9c0-0.5,0-0.8-0.1-0.9c-0.1-0.2-0.3-0.3-0.5-0.3c-0.3,0-0.5,0.1-0.7,0.2l-0.1,0V43.3z"/>
	<path class="st1" d="M100.5,40.7v1.7c0,0.1,0,0.2,0.1,0.2c0.1,0.1,0.1,0.1,0.2,0.1l0,0.6c-0.4,0-0.8-0.1-1-0.3
		c-0.4,0.2-0.8,0.3-1.2,0.3c-0.8,0-1.1-0.4-1.1-1.2c0-0.4,0.1-0.7,0.3-0.8c0.2-0.2,0.5-0.3,0.9-0.3l1-0.1v-0.3c0-0.2,0-0.3-0.1-0.4
		c-0.1-0.1-0.2-0.1-0.4-0.1c-0.3,0-0.7,0-1.2,0.1l-0.2,0l0-0.6c0.6-0.1,1.1-0.2,1.5-0.2s0.8,0.1,1,0.3
		C100.4,39.9,100.5,40.2,100.5,40.7z M98.8,41.6c-0.3,0-0.5,0.2-0.5,0.6c0,0.3,0.2,0.5,0.5,0.5c0.3,0,0.5,0,0.8-0.1l0.1,0v-1
		L98.8,41.6z"/>
	<path class="st1" d="M102.9,39.4c0.3,0,0.6,0,0.9,0.1l0.2,0l0,0.7c-0.4,0-0.7-0.1-0.9-0.1c-0.4,0-0.6,0.1-0.8,0.3
		c-0.1,0.2-0.2,0.5-0.2,1c0,0.5,0.1,0.8,0.2,1s0.4,0.3,0.8,0.3l0.9-0.1l0,0.7c-0.5,0.1-0.9,0.1-1.2,0.1c-0.6,0-1-0.2-1.2-0.5
		c-0.2-0.3-0.4-0.8-0.4-1.5c0-0.7,0.1-1.2,0.4-1.5C101.9,39.6,102.3,39.4,102.9,39.4z"/>
	<path class="st1" d="M107.5,42.6l0.2,0l0,0.6c-0.6,0.1-1.1,0.2-1.5,0.2c-0.6,0-1-0.2-1.2-0.5c-0.2-0.3-0.4-0.8-0.4-1.5
		c0-1.3,0.5-2,1.6-2c1.1,0,1.6,0.6,1.6,1.7l-0.1,0.6h-2.4c0,0.3,0.1,0.5,0.2,0.7c0.1,0.1,0.4,0.2,0.7,0.2
		C106.8,42.7,107.1,42.6,107.5,42.6z M107.1,41.1c0-0.4-0.1-0.6-0.2-0.8c-0.1-0.1-0.3-0.2-0.6-0.2s-0.5,0.1-0.6,0.2
		c-0.1,0.2-0.2,0.4-0.2,0.8H107.1z"/>
	<path class="st1" d="M111,39.5h0.8v3.8H111v-0.2c-0.4,0.2-0.7,0.3-1,0.3c-0.5,0-0.9-0.1-1-0.4c-0.2-0.3-0.3-0.8-0.3-1.5v-2h0.8v2
		c0,0.5,0,0.8,0.1,0.9c0.1,0.2,0.3,0.2,0.5,0.2c0.3,0,0.5-0.1,0.8-0.2l0.1,0V39.5z"/>
	<path class="st1" d="M114.8,40.2h-1v1.7c0,0.3,0,0.5,0.1,0.6c0,0.1,0.2,0.2,0.3,0.2l0.6,0l0,0.7c-0.3,0.1-0.6,0.1-0.8,0.1
		c-0.4,0-0.7-0.1-0.9-0.3c-0.2-0.2-0.2-0.6-0.2-1.1v-1.8h-0.5v-0.7h0.5v-1.1h0.8v1.1h1V40.2z"/>
	<path class="st1" d="M115.5,38.9V38h0.8v0.9H115.5z M115.5,43.3v-3.8h0.8v3.8H115.5z"/>
	<path class="st1" d="M118.7,39.4c0.3,0,0.6,0,0.9,0.1l0.2,0l0,0.7c-0.4,0-0.7-0.1-0.9-0.1c-0.4,0-0.6,0.1-0.8,0.3
		c-0.1,0.2-0.2,0.5-0.2,1c0,0.5,0.1,0.8,0.2,1s0.4,0.3,0.8,0.3l0.9-0.1l0,0.7c-0.5,0.1-0.9,0.1-1.2,0.1c-0.6,0-1-0.2-1.2-0.5
		c-0.2-0.3-0.4-0.8-0.4-1.5c0-0.7,0.1-1.2,0.4-1.5C117.8,39.6,118.2,39.4,118.7,39.4z"/>
	<path class="st1" d="M123.5,40.7v1.7c0,0.1,0,0.2,0.1,0.2c0.1,0.1,0.1,0.1,0.2,0.1l0,0.6c-0.4,0-0.8-0.1-1-0.3
		c-0.4,0.2-0.8,0.3-1.2,0.3c-0.8,0-1.1-0.4-1.1-1.2c0-0.4,0.1-0.7,0.3-0.8c0.2-0.2,0.5-0.3,0.9-0.3l1-0.1v-0.3c0-0.2,0-0.3-0.1-0.4
		c-0.1-0.1-0.2-0.1-0.4-0.1c-0.3,0-0.7,0-1.2,0.1l-0.2,0l0-0.6c0.6-0.1,1.1-0.2,1.5-0.2c0.5,0,0.8,0.1,1,0.3
		C123.4,39.9,123.5,40.2,123.5,40.7z M121.8,41.6c-0.3,0-0.5,0.2-0.5,0.6c0,0.3,0.2,0.5,0.5,0.5c0.3,0,0.5,0,0.8-0.1l0.1,0v-1
		L121.8,41.6z"/>
	<path class="st1" d="M124.6,43.3v-5.4h0.8v5.4H124.6z"/>
	<path class="st1" d="M129.1,40.3c-0.6-0.1-1-0.1-1.3-0.1c-0.3,0-0.5,0-0.6,0.1c-0.1,0.1-0.2,0.2-0.2,0.3c0,0.1,0.1,0.2,0.2,0.3
		c0.1,0.1,0.4,0.1,0.8,0.2s0.7,0.2,0.9,0.3c0.2,0.2,0.3,0.4,0.3,0.8s-0.1,0.7-0.4,0.9c-0.3,0.2-0.6,0.3-1.1,0.3
		c-0.3,0-0.7,0-1.2-0.1l-0.2,0l0-0.7c0.6,0.1,1,0.1,1.3,0.1c0.3,0,0.5,0,0.6-0.1c0.1-0.1,0.2-0.2,0.2-0.3c0-0.2-0.1-0.3-0.2-0.3
		c-0.1-0.1-0.4-0.1-0.8-0.2c-0.4-0.1-0.7-0.2-0.9-0.3c-0.2-0.1-0.3-0.4-0.3-0.8s0.1-0.7,0.4-0.9c0.3-0.2,0.6-0.3,1-0.3
		c0.3,0,0.7,0,1.2,0.1l0.2,0L129.1,40.3z"/>
</g>
<g>
	<rect x="28.9" y="63.7" class="st3" width="10.2" height="10.2"/>
</g>
<g>
	<path class="st1" d="M50.4,71.2c-0.8,0-1.3-0.2-1.5-0.6c-0.3-0.4-0.4-1.1-0.4-2.1s0.1-1.6,0.4-2.1c0.3-0.4,0.8-0.6,1.5-0.6
		c0.5,0,0.9,0.1,1.5,0.2l0,0.7c-0.5-0.1-0.9-0.1-1.4-0.1s-0.8,0.1-0.9,0.4c-0.2,0.3-0.2,0.8-0.2,1.5c0,0.7,0.1,1.3,0.2,1.5
		c0.2,0.3,0.5,0.4,0.9,0.4c0.5,0,0.9,0,1.4-0.1l0,0.7C51.4,71.2,50.9,71.2,50.4,71.2z"/>
	<path class="st1" d="M53.5,71.2h-0.8v-5.4h0.8v1.8c0.4-0.2,0.7-0.3,1-0.3c0.5,0,0.9,0.1,1,0.4c0.2,0.3,0.3,0.8,0.3,1.4v2H55v-2
		c0-0.4,0-0.7-0.1-0.9c-0.1-0.2-0.3-0.3-0.5-0.3c-0.2,0-0.5,0-0.7,0.1l-0.1,0V71.2z"/>
	<path class="st1" d="M59.5,70.5l0.2,0l0,0.6c-0.6,0.1-1.1,0.2-1.5,0.2c-0.6,0-1-0.2-1.2-0.5c-0.2-0.3-0.4-0.8-0.4-1.5
		c0-1.3,0.5-2,1.6-2c1.1,0,1.6,0.6,1.6,1.7l-0.1,0.6h-2.4c0,0.3,0.1,0.5,0.2,0.7c0.1,0.1,0.4,0.2,0.7,0.2
		C58.8,70.5,59.1,70.5,59.5,70.5z M59.1,69c0-0.4-0.1-0.6-0.2-0.8S58.6,68,58.3,68s-0.5,0.1-0.6,0.2c-0.1,0.2-0.2,0.4-0.2,0.8H59.1z
		"/>
	<path class="st1" d="M61.5,71.2h-0.8v-3.8h0.8v0.2c0.4-0.2,0.7-0.3,1-0.3c0.4,0,0.8,0.1,1,0.4c0.5-0.2,0.9-0.4,1.4-0.4
		c0.5,0,0.8,0.1,1,0.4c0.2,0.3,0.3,0.8,0.3,1.4v2h-0.8v-2c0-0.4,0-0.7-0.1-0.9C65,68.1,64.9,68,64.6,68c-0.2,0-0.5,0.1-0.7,0.2
		l-0.1,0.1c0,0.1,0.1,0.4,0.1,1v2H63v-1.9c0-0.5,0-0.8-0.1-0.9c-0.1-0.2-0.3-0.3-0.5-0.3c-0.3,0-0.5,0.1-0.7,0.2l-0.1,0V71.2z"/>
	<path class="st1" d="M67,66.7v-0.9h0.8v0.9H67z M67,71.2v-3.8h0.8v3.8H67z"/>
	<path class="st1" d="M70.3,67.3c0.3,0,0.6,0,0.9,0.1l0.2,0l0,0.7C71,68,70.7,68,70.5,68c-0.4,0-0.6,0.1-0.8,0.3
		c-0.1,0.2-0.2,0.5-0.2,1c0,0.5,0.1,0.8,0.2,1c0.1,0.2,0.4,0.3,0.8,0.3l0.9-0.1l0,0.7c-0.5,0.1-0.9,0.1-1.2,0.1
		c-0.6,0-1-0.2-1.2-0.5c-0.2-0.3-0.4-0.8-0.4-1.5c0-0.7,0.1-1.2,0.4-1.5C69.3,67.4,69.7,67.3,70.3,67.3z"/>
	<path class="st1" d="M75,68.5v1.7c0,0.1,0,0.2,0.1,0.2c0.1,0.1,0.1,0.1,0.2,0.1l0,0.6c-0.4,0-0.8-0.1-1-0.3
		c-0.4,0.2-0.8,0.3-1.2,0.3c-0.8,0-1.1-0.4-1.1-1.2c0-0.4,0.1-0.7,0.3-0.8c0.2-0.2,0.5-0.3,0.9-0.3l1-0.1v-0.3c0-0.2,0-0.3-0.1-0.4
		C74,68,73.8,68,73.7,68c-0.3,0-0.7,0-1.2,0.1l-0.2,0l0-0.6c0.6-0.1,1.1-0.2,1.5-0.2c0.5,0,0.8,0.1,1,0.3C74.9,67.8,75,68.1,75,68.5
		z M73.3,69.5c-0.3,0-0.5,0.2-0.5,0.6c0,0.3,0.2,0.5,0.5,0.5c0.3,0,0.5,0,0.8-0.1l0.1,0v-1L73.3,69.5z"/>
	<path class="st1" d="M76.1,71.2v-5.4h0.8v5.4H76.1z"/>
	<path class="st1" d="M80.6,68.1c-0.6-0.1-1-0.1-1.3-0.1c-0.3,0-0.5,0-0.6,0.1c-0.1,0.1-0.2,0.2-0.2,0.3c0,0.1,0.1,0.2,0.2,0.3
		c0.1,0.1,0.4,0.1,0.8,0.2c0.4,0.1,0.7,0.2,0.9,0.3c0.2,0.2,0.3,0.4,0.3,0.8c0,0.4-0.1,0.7-0.4,0.9c-0.3,0.2-0.6,0.3-1.1,0.3
		c-0.3,0-0.7,0-1.2-0.1l-0.2,0l0-0.7c0.6,0.1,1,0.1,1.3,0.1c0.3,0,0.5,0,0.6-0.1c0.1-0.1,0.2-0.2,0.2-0.3c0-0.2-0.1-0.3-0.2-0.3
		c-0.1-0.1-0.4-0.1-0.8-0.2c-0.4-0.1-0.7-0.2-0.9-0.3c-0.2-0.1-0.3-0.4-0.3-0.8s0.1-0.7,0.4-0.9c0.3-0.2,0.6-0.3,1-0.3
		c0.3,0,0.7,0,1.2,0.1l0.2,0L80.6,68.1z"/>
	<path class="st1" d="M84.2,67.2c-0.2,0.7-0.2,1.3-0.2,1.7c0,0.4,0.1,0.9,0.2,1.5c0.1,0.5,0.2,1,0.4,1.3l0.2,0.5h-0.8
		c-0.1-0.1-0.2-0.3-0.3-0.6c-0.1-0.3-0.2-0.5-0.3-0.8c-0.1-0.2-0.1-0.5-0.2-0.9c-0.1-0.3-0.1-0.7-0.1-1.1c0-0.4,0.1-0.9,0.2-1.5
		c0.1-0.6,0.3-1,0.4-1.3l0.2-0.5h0.8C84.5,65.9,84.3,66.5,84.2,67.2z"/>
	<path class="st1" d="M88.9,70.6c-0.3,0.4-0.9,0.6-1.6,0.6c-0.8,0-1.3-0.2-1.6-0.6c-0.3-0.4-0.5-1.1-0.5-2c0-0.9,0.2-1.6,0.5-2
		c0.3-0.4,0.9-0.7,1.6-0.7s1.3,0.2,1.6,0.7c0.3,0.4,0.5,1.1,0.5,2C89.4,69.5,89.2,70.2,88.9,70.6z M86.3,70.1c0.2,0.3,0.5,0.4,1,0.4
		s0.8-0.1,1-0.4c0.2-0.3,0.3-0.8,0.3-1.5c0-0.7-0.1-1.2-0.3-1.5c-0.2-0.3-0.5-0.5-1-0.5s-0.8,0.2-1,0.5c-0.2,0.3-0.3,0.8-0.3,1.5
		S86.1,69.8,86.3,70.1z"/>
	<path class="st1" d="M92.3,68.1h-1v1.7c0,0.3,0,0.5,0.1,0.6c0,0.1,0.2,0.2,0.3,0.2l0.6,0l0,0.7c-0.3,0.1-0.6,0.1-0.8,0.1
		c-0.4,0-0.7-0.1-0.9-0.3c-0.2-0.2-0.2-0.6-0.2-1.1v-1.8h-0.5v-0.7h0.5v-1.1h0.8v1.1h1V68.1z"/>
	<path class="st1" d="M93.8,71.2H93v-5.4h0.8v1.8c0.4-0.2,0.7-0.3,1-0.3c0.5,0,0.9,0.1,1,0.4c0.2,0.3,0.3,0.8,0.3,1.4v2h-0.8v-2
		c0-0.4,0-0.7-0.1-0.9c-0.1-0.2-0.3-0.3-0.5-0.3c-0.2,0-0.5,0-0.7,0.1l-0.1,0V71.2z"/>
	<path class="st1" d="M99.8,70.5l0.2,0l0,0.6c-0.6,0.1-1.1,0.2-1.5,0.2c-0.6,0-1-0.2-1.2-0.5c-0.2-0.3-0.4-0.8-0.4-1.5
		c0-1.3,0.5-2,1.6-2c1.1,0,1.6,0.6,1.6,1.7l-0.1,0.6h-2.4c0,0.3,0.1,0.5,0.2,0.7c0.1,0.1,0.4,0.2,0.7,0.2
		C99.1,70.5,99.4,70.5,99.8,70.5z M99.4,69c0-0.4-0.1-0.6-0.2-0.8C99.1,68,98.9,68,98.6,68S98.1,68,98,68.2
		c-0.1,0.2-0.2,0.4-0.2,0.8H99.4z"/>
	<path class="st1" d="M101,71.2v-3.8h0.8v0.5c0.4-0.3,0.9-0.5,1.3-0.5v0.8c-0.4,0.1-0.8,0.2-1.1,0.3l-0.2,0.1v2.6H101z"/>
	<path class="st1" d="M106.4,68.1v3.1h-0.8v-3.1h-0.4v-0.7h0.4v-0.2c0-0.5,0.1-0.9,0.2-1.1c0.2-0.2,0.4-0.3,0.8-0.3l0.8,0.1l0,0.7
		c-0.2,0-0.5,0-0.6,0c-0.2,0-0.3,0-0.3,0.1c-0.1,0.1-0.1,0.3-0.1,0.5v0.2h1v0.7H106.4z"/>
	<path class="st1" d="M110.7,70.5l0.2,0l0,0.6c-0.6,0.1-1.1,0.2-1.5,0.2c-0.6,0-1-0.2-1.2-0.5s-0.4-0.8-0.4-1.5c0-1.3,0.5-2,1.6-2
		c1.1,0,1.6,0.6,1.6,1.7l-0.1,0.6h-2.4c0,0.3,0.1,0.5,0.2,0.7c0.1,0.1,0.4,0.2,0.7,0.2C109.9,70.5,110.3,70.5,110.7,70.5z M110.2,69
		c0-0.4-0.1-0.6-0.2-0.8c-0.1-0.1-0.3-0.2-0.6-0.2c-0.3,0-0.5,0.1-0.6,0.2c-0.1,0.2-0.2,0.4-0.2,0.8H110.2z"/>
	<path class="st1" d="M111.8,71.2v-3.8h0.8v0.5c0.4-0.3,0.9-0.5,1.3-0.5v0.8c-0.4,0.1-0.8,0.2-1.1,0.3l-0.2,0.1v2.6H111.8z"/>
	<path class="st1" d="M116.6,68.1h-1v1.7c0,0.3,0,0.5,0.1,0.6c0,0.1,0.2,0.2,0.3,0.2l0.6,0l0,0.7c-0.3,0.1-0.6,0.1-0.8,0.1
		c-0.4,0-0.7-0.1-0.9-0.3c-0.2-0.2-0.2-0.6-0.2-1.1v-1.8h-0.5v-0.7h0.5v-1.1h0.8v1.1h1V68.1z"/>
	<path class="st1" d="M117.3,66.7v-0.9h0.8v0.9H117.3z M117.3,71.2v-3.8h0.8v3.8H117.3z"/>
	<path class="st1" d="M119.1,71.2v-5.4h0.8v5.4H119.1z"/>
	<path class="st1" d="M121,66.7v-0.9h0.8v0.9H121z M121,71.2v-3.8h0.8v3.8H121z"/>
	<path class="st1" d="M122.6,68.1v-0.7h2.8v0.7l-1.8,2.3h1.8v0.7h-2.8v-0.7l1.8-2.3H122.6z"/>
	<path class="st1" d="M129,70.5l0.2,0l0,0.6c-0.6,0.1-1.1,0.2-1.5,0.2c-0.6,0-1-0.2-1.2-0.5s-0.4-0.8-0.4-1.5c0-1.3,0.5-2,1.6-2
		c1.1,0,1.6,0.6,1.6,1.7l-0.1,0.6h-2.4c0,0.3,0.1,0.5,0.2,0.7c0.1,0.1,0.4,0.2,0.7,0.2C128.2,70.5,128.6,70.5,129,70.5z M128.5,69
		c0-0.4-0.1-0.6-0.2-0.8c-0.1-0.1-0.3-0.2-0.6-0.2s-0.5,0.1-0.6,0.2c-0.1,0.2-0.2,0.4-0.2,0.8H128.5z"/>
	<path class="st1" d="M130.1,71.2v-3.8h0.8v0.5c0.4-0.3,0.9-0.5,1.3-0.5v0.8c-0.4,0.1-0.8,0.2-1.1,0.3l-0.2,0.1v2.6H130.1z"/>
	<path class="st1" d="M135.5,68.1c-0.6-0.1-1-0.1-1.3-0.1s-0.5,0-0.6,0.1c-0.1,0.1-0.2,0.2-0.2,0.3c0,0.1,0.1,0.2,0.2,0.3
		c0.1,0.1,0.4,0.1,0.8,0.2c0.4,0.1,0.7,0.2,0.9,0.3c0.2,0.2,0.3,0.4,0.3,0.8c0,0.4-0.1,0.7-0.4,0.9c-0.3,0.2-0.6,0.3-1.1,0.3
		c-0.3,0-0.7,0-1.2-0.1l-0.2,0l0-0.7c0.6,0.1,1,0.1,1.3,0.1c0.3,0,0.5,0,0.6-0.1c0.1-0.1,0.2-0.2,0.2-0.3c0-0.2-0.1-0.3-0.2-0.3
		c-0.1-0.1-0.4-0.1-0.8-0.2c-0.4-0.1-0.7-0.2-0.9-0.3c-0.2-0.1-0.3-0.4-0.3-0.8s0.1-0.7,0.4-0.9c0.3-0.2,0.6-0.3,1-0.3
		c0.3,0,0.7,0,1.2,0.1l0.2,0L135.5,68.1z"/>
	<path class="st1" d="M137.6,67.8c0.1,0.4,0.1,0.7,0.1,1c0,0.3,0,0.7-0.1,1c-0.1,0.3-0.1,0.6-0.2,0.9c-0.2,0.5-0.3,0.9-0.5,1.2
		l-0.1,0.2h-0.8c0.1-0.1,0.1-0.3,0.2-0.5c0.1-0.2,0.2-0.6,0.3-1.2c0.1-0.6,0.2-1.1,0.2-1.5c0-0.4-0.1-0.9-0.2-1.5
		c-0.1-0.6-0.2-1-0.4-1.4l-0.2-0.5h0.8c0.1,0.1,0.2,0.3,0.3,0.6c0.1,0.3,0.2,0.6,0.3,0.8C137.5,67.2,137.6,67.5,137.6,67.8z"/>
</g>
<g>
	<rect x="28.9" y="91.6" class="st4" width="10.2" height="10.2"/>
</g>
<g>
	<path class="st1" d="M48.2,99v-5.2h3.2v0.7h-2.4v1.8h2V97h-2v2H48.2z"/>
	<path class="st1" d="M52.2,95.6c0.3-0.3,0.7-0.5,1.3-0.5c0.6,0,1,0.2,1.3,0.5c0.3,0.3,0.4,0.8,0.4,1.5c0,0.7-0.1,1.2-0.4,1.5
		c-0.3,0.3-0.7,0.5-1.3,0.5s-1.1-0.2-1.3-0.5c-0.3-0.3-0.4-0.8-0.4-1.5C51.8,96.5,51.9,96,52.2,95.6z M52.8,98.1
		c0.1,0.2,0.3,0.3,0.7,0.3c0.3,0,0.6-0.1,0.7-0.3c0.1-0.2,0.2-0.5,0.2-1c0-0.5-0.1-0.8-0.2-1c-0.1-0.2-0.3-0.3-0.7-0.3
		c-0.3,0-0.5,0.1-0.7,0.3c-0.1,0.2-0.2,0.5-0.2,1C52.6,97.6,52.7,97.9,52.8,98.1z"/>
	<path class="st1" d="M56.2,95.6c0.3-0.3,0.7-0.5,1.3-0.5c0.6,0,1,0.2,1.3,0.5c0.3,0.3,0.4,0.8,0.4,1.5c0,0.7-0.1,1.2-0.4,1.5
		c-0.3,0.3-0.7,0.5-1.3,0.5s-1.1-0.2-1.3-0.5c-0.3-0.3-0.4-0.8-0.4-1.5C55.8,96.5,56,96,56.2,95.6z M56.8,98.1
		c0.1,0.2,0.3,0.3,0.7,0.3c0.3,0,0.6-0.1,0.7-0.3c0.1-0.2,0.2-0.5,0.2-1c0-0.5-0.1-0.8-0.2-1c-0.1-0.2-0.3-0.3-0.7-0.3
		c-0.3,0-0.5,0.1-0.7,0.3c-0.1,0.2-0.2,0.5-0.2,1C56.7,97.6,56.7,97.9,56.8,98.1z"/>
	<path class="st1" d="M63.1,93.7V99h-0.8v-0.2c-0.4,0.2-0.7,0.3-1,0.3c-0.5,0-0.9-0.1-1.1-0.4c-0.2-0.3-0.3-0.8-0.3-1.5
		c0-0.7,0.1-1.2,0.4-1.5c0.3-0.3,0.7-0.5,1.2-0.5c0.2,0,0.5,0,0.9,0.1v-1.6H63.1z M62.2,98.2l0.1-0.1v-2.2c-0.3-0.1-0.6-0.1-0.8-0.1
		c-0.5,0-0.8,0.4-0.8,1.3c0,0.5,0.1,0.8,0.2,1c0.1,0.2,0.3,0.3,0.6,0.3C61.7,98.4,61.9,98.3,62.2,98.2z"/>
	<path class="st1" d="M67.8,97.4h-1.1V99h-0.8v-5.2h1.9c1.2,0,1.8,0.6,1.8,1.7c0,0.6-0.1,1.1-0.4,1.4C68.8,97.2,68.4,97.4,67.8,97.4
		z M66.7,96.7h1.1c0.6,0,0.9-0.4,0.9-1.1c0-0.4-0.1-0.6-0.2-0.8c-0.1-0.2-0.4-0.2-0.7-0.2h-1.1V96.7z"/>
	<path class="st1" d="M70.3,99v-3.8h0.8v0.5c0.4-0.3,0.9-0.5,1.3-0.5V96c-0.4,0.1-0.8,0.2-1.1,0.3l-0.2,0.1V99H70.3z"/>
	<path class="st1" d="M73.2,95.6c0.3-0.3,0.7-0.5,1.3-0.5c0.6,0,1,0.2,1.3,0.5s0.4,0.8,0.4,1.5c0,0.7-0.1,1.2-0.4,1.5
		c-0.3,0.3-0.7,0.5-1.3,0.5s-1.1-0.2-1.3-0.5c-0.3-0.3-0.4-0.8-0.4-1.5C72.8,96.5,72.9,96,73.2,95.6z M73.8,98.1
		c0.1,0.2,0.3,0.3,0.7,0.3c0.3,0,0.6-0.1,0.7-0.3c0.1-0.2,0.2-0.5,0.2-1c0-0.5-0.1-0.8-0.2-1c-0.1-0.2-0.3-0.3-0.7-0.3
		c-0.3,0-0.5,0.1-0.7,0.3c-0.1,0.2-0.2,0.5-0.2,1C73.6,97.6,73.7,97.9,73.8,98.1z"/>
	<path class="st1" d="M78.4,95.1c0.3,0,0.6,0,0.9,0.1l0.2,0l0,0.7c-0.4,0-0.7-0.1-0.9-0.1c-0.4,0-0.6,0.1-0.8,0.3
		c-0.1,0.2-0.2,0.5-0.2,1c0,0.5,0.1,0.8,0.2,1s0.4,0.3,0.8,0.3l0.9-0.1l0,0.7c-0.5,0.1-0.9,0.1-1.2,0.1c-0.6,0-1-0.2-1.2-0.5
		c-0.2-0.3-0.4-0.8-0.4-1.5c0-0.7,0.1-1.2,0.4-1.5C77.5,95.3,77.9,95.1,78.4,95.1z"/>
	<path class="st1" d="M83,98.3l0.2,0l0,0.6c-0.6,0.1-1.1,0.2-1.5,0.2c-0.6,0-1-0.2-1.2-0.5c-0.2-0.3-0.4-0.8-0.4-1.5
		c0-1.3,0.5-2,1.6-2c1.1,0,1.6,0.6,1.6,1.7l-0.1,0.6H81c0,0.3,0.1,0.5,0.2,0.7c0.1,0.1,0.4,0.2,0.7,0.2C82.3,98.4,82.6,98.4,83,98.3
		z M82.6,96.8c0-0.4-0.1-0.6-0.2-0.8c-0.1-0.1-0.3-0.2-0.6-0.2s-0.5,0.1-0.6,0.2C81,96.2,81,96.5,81,96.8H82.6z"/>
	<path class="st1" d="M86.8,96c-0.6-0.1-1-0.1-1.3-0.1c-0.3,0-0.5,0-0.6,0.1c-0.1,0.1-0.2,0.2-0.2,0.3c0,0.1,0.1,0.2,0.2,0.3
		c0.1,0.1,0.4,0.1,0.8,0.2c0.4,0.1,0.7,0.2,0.9,0.3s0.3,0.4,0.3,0.8c0,0.4-0.1,0.7-0.4,0.9c-0.3,0.2-0.6,0.3-1.1,0.3
		c-0.3,0-0.7,0-1.2-0.1l-0.2,0l0-0.7c0.6,0.1,1,0.1,1.3,0.1c0.3,0,0.5,0,0.6-0.1c0.1-0.1,0.2-0.2,0.2-0.3c0-0.2-0.1-0.3-0.2-0.3
		c-0.1-0.1-0.4-0.1-0.8-0.2c-0.4-0.1-0.7-0.2-0.9-0.3C84.1,97,84,96.7,84,96.3c0-0.4,0.1-0.7,0.4-0.9c0.3-0.2,0.6-0.3,1-0.3
		c0.3,0,0.7,0,1.2,0.1l0.2,0L86.8,96z"/>
	<path class="st1" d="M90.4,96c-0.6-0.1-1-0.1-1.3-0.1c-0.3,0-0.5,0-0.6,0.1c-0.1,0.1-0.2,0.2-0.2,0.3c0,0.1,0.1,0.2,0.2,0.3
		c0.1,0.1,0.4,0.1,0.8,0.2c0.4,0.1,0.7,0.2,0.9,0.3s0.3,0.4,0.3,0.8c0,0.4-0.1,0.7-0.4,0.9c-0.3,0.2-0.6,0.3-1.1,0.3
		c-0.3,0-0.7,0-1.2-0.1l-0.2,0l0-0.7c0.6,0.1,1,0.1,1.3,0.1c0.3,0,0.5,0,0.6-0.1c0.1-0.1,0.2-0.2,0.2-0.3c0-0.2-0.1-0.3-0.2-0.3
		c-0.1-0.1-0.4-0.1-0.8-0.2c-0.4-0.1-0.7-0.2-0.9-0.3c-0.2-0.1-0.3-0.4-0.3-0.8c0-0.4,0.1-0.7,0.4-0.9c0.3-0.2,0.6-0.3,1-0.3
		c0.3,0,0.7,0,1.2,0.1l0.2,0L90.4,96z"/>
	<path class="st1" d="M91.3,94.6v-0.9h0.8v0.9H91.3z M91.3,99v-3.8h0.8V99H91.3z"/>
	<path class="st1" d="M93.9,99h-0.8v-3.8h0.8v0.2c0.4-0.2,0.7-0.3,1-0.3c0.5,0,0.9,0.1,1,0.4c0.2,0.3,0.3,0.8,0.3,1.4v2h-0.8v-2
		c0-0.4,0-0.7-0.1-0.9c-0.1-0.2-0.3-0.3-0.5-0.3c-0.3,0-0.5,0.1-0.7,0.2l-0.1,0V99z"/>
	<path class="st1" d="M100.6,99.5c0,0.8-0.6,1.2-1.8,1.2c-0.6,0-1-0.1-1.3-0.2c-0.3-0.2-0.4-0.4-0.4-0.9c0-0.2,0-0.3,0.1-0.5
		c0.1-0.1,0.2-0.3,0.4-0.4c-0.2-0.1-0.3-0.3-0.3-0.6c0-0.1,0.1-0.3,0.2-0.5l0.1-0.1c-0.4-0.2-0.5-0.6-0.5-1.1c0-0.5,0.1-0.8,0.4-1
		s0.6-0.3,1.1-0.3c0.2,0,0.4,0,0.7,0.1l0.1,0l1.2,0v0.7l-0.6,0c0.1,0.2,0.2,0.4,0.2,0.6c0,0.5-0.1,0.8-0.4,1
		c-0.3,0.2-0.6,0.3-1.2,0.3c-0.1,0-0.2,0-0.3,0c-0.1,0.2-0.1,0.3-0.1,0.4s0,0.2,0.1,0.2c0.1,0,0.3,0.1,0.7,0.1c0.6,0,1,0.1,1.2,0.2
		C100.5,98.8,100.6,99.1,100.6,99.5z M97.9,99.6c0,0.2,0.1,0.3,0.2,0.4c0.1,0.1,0.4,0.1,0.7,0.1c0.6,0,0.9-0.2,0.9-0.5
		c0-0.2-0.1-0.3-0.2-0.4c-0.1-0.1-0.3-0.1-0.6-0.1l-0.7,0c-0.1,0.1-0.2,0.2-0.2,0.3C97.9,99.4,97.9,99.5,97.9,99.6z M98.1,97
		c0.1,0.1,0.3,0.2,0.5,0.2c0.2,0,0.4-0.1,0.5-0.2c0.1-0.1,0.2-0.3,0.2-0.5s-0.1-0.4-0.2-0.5c-0.1-0.1-0.3-0.2-0.5-0.2
		c-0.5,0-0.7,0.2-0.7,0.7C97.9,96.7,98,96.9,98.1,97z"/>
</g>
<g>
	<rect x="28.9" y="119.5" class="st5" width="10.2" height="10.2"/>
</g>
<g>
	<path class="st1" d="M48.1,126.9v-5.2h3.3v0.7h-2.4v1.5h2v0.7h-2v1.5h2.4v0.7H48.1z"/>
	<path class="st1" d="M52.2,126.9v-5.4h0.8v5.4H52.2z"/>
	<path class="st1" d="M56.8,126.2l0.2,0l0,0.6c-0.6,0.1-1.1,0.2-1.5,0.2c-0.6,0-1-0.2-1.2-0.5s-0.4-0.8-0.4-1.5c0-1.3,0.5-2,1.6-2
		c1.1,0,1.6,0.6,1.6,1.7l-0.1,0.6h-2.4c0,0.3,0.1,0.5,0.2,0.7c0.1,0.1,0.4,0.2,0.7,0.2C56.1,126.2,56.4,126.2,56.8,126.2z
		 M56.4,124.7c0-0.4-0.1-0.6-0.2-0.8s-0.3-0.2-0.6-0.2c-0.3,0-0.5,0.1-0.6,0.2c-0.1,0.2-0.2,0.4-0.2,0.8H56.4z"/>
	<path class="st1" d="M59.4,123c0.3,0,0.6,0,0.9,0.1l0.2,0l0,0.7c-0.4,0-0.7-0.1-0.9-0.1c-0.4,0-0.6,0.1-0.8,0.3
		c-0.1,0.2-0.2,0.5-0.2,1c0,0.5,0.1,0.8,0.2,1c0.1,0.2,0.4,0.3,0.8,0.3l0.9-0.1l0,0.7c-0.5,0.1-0.9,0.1-1.2,0.1
		c-0.6,0-1-0.2-1.2-0.5c-0.2-0.3-0.4-0.8-0.4-1.5c0-0.7,0.1-1.2,0.4-1.5C58.4,123.2,58.8,123,59.4,123z"/>
	<path class="st1" d="M63.4,123.8h-1v1.7c0,0.3,0,0.5,0.1,0.6c0,0.1,0.2,0.2,0.3,0.2l0.6,0l0,0.7c-0.3,0.1-0.6,0.1-0.8,0.1
		c-0.4,0-0.7-0.1-0.9-0.3c-0.2-0.2-0.2-0.6-0.2-1.1v-1.8H61v-0.7h0.5V122h0.8v1.1h1V123.8z"/>
	<path class="st1" d="M64,126.9v-3.8h0.8v0.5c0.4-0.3,0.9-0.5,1.3-0.5v0.8c-0.4,0.1-0.8,0.2-1.1,0.3l-0.2,0.1v2.6H64z"/>
	<path class="st1" d="M66.8,122.4v-0.9h0.8v0.9H66.8z M66.8,126.9v-3.8h0.8v3.8H66.8z"/>
	<path class="st1" d="M70,123c0.3,0,0.6,0,0.9,0.1l0.2,0l0,0.7c-0.4,0-0.7-0.1-0.9-0.1c-0.4,0-0.6,0.1-0.8,0.3
		c-0.1,0.2-0.2,0.5-0.2,1c0,0.5,0.1,0.8,0.2,1c0.1,0.2,0.4,0.3,0.8,0.3l0.9-0.1l0,0.7c-0.5,0.1-0.9,0.1-1.2,0.1
		c-0.6,0-1-0.2-1.2-0.5c-0.2-0.3-0.4-0.8-0.4-1.5c0-0.7,0.1-1.2,0.4-1.5C69.1,123.2,69.5,123,70,123z"/>
	<path class="st1" d="M74.8,124.3v1.7c0,0.1,0,0.2,0.1,0.2c0.1,0.1,0.1,0.1,0.2,0.1l0,0.6c-0.4,0-0.8-0.1-1-0.3
		c-0.4,0.2-0.8,0.3-1.2,0.3c-0.8,0-1.1-0.4-1.1-1.2c0-0.4,0.1-0.7,0.3-0.8c0.2-0.2,0.5-0.3,0.9-0.3l1-0.1v-0.3c0-0.2,0-0.3-0.1-0.4
		c-0.1-0.1-0.2-0.1-0.4-0.1c-0.3,0-0.7,0-1.2,0.1l-0.2,0l0-0.6c0.6-0.1,1.1-0.2,1.5-0.2c0.5,0,0.8,0.1,1,0.3
		C74.7,123.5,74.8,123.8,74.8,124.3z M73.1,125.2c-0.3,0-0.5,0.2-0.5,0.6c0,0.3,0.2,0.5,0.5,0.5c0.3,0,0.5,0,0.8-0.1l0.1,0v-1
		L73.1,125.2z"/>
	<path class="st1" d="M75.8,126.9v-5.4h0.8v5.4H75.8z"/>
	<path class="st1" d="M79.5,126.9v-5.2h3.3v0.7h-2.4v1.5h2v0.7h-2v1.5h2.4v0.7H79.5z"/>
	<path class="st1" d="M84.8,127c-0.5,0-0.9-0.1-1.1-0.4c-0.2-0.3-0.4-0.8-0.4-1.5c0-0.7,0.1-1.2,0.4-1.5c0.3-0.3,0.8-0.4,1.4-0.4
		c0.2,0,0.6,0,1.1,0.1l0.3,0v5.4h-0.8v-1.8C85.4,126.9,85.1,127,84.8,127z M85.2,123.7c-0.4,0-0.7,0.1-0.8,0.3
		c-0.1,0.2-0.2,0.5-0.2,1s0.1,0.8,0.2,1c0.1,0.2,0.3,0.3,0.6,0.3c0.2,0,0.5,0,0.7-0.1l0.1,0v-2.3C85.5,123.7,85.3,123.7,85.2,123.7z
		"/>
	<path class="st1" d="M89.9,123.1h0.8v3.8h-0.8v-0.2c-0.4,0.2-0.7,0.3-1,0.3c-0.5,0-0.9-0.1-1-0.4c-0.2-0.3-0.3-0.8-0.3-1.5v-2h0.8
		v2c0,0.5,0,0.8,0.1,0.9c0.1,0.2,0.3,0.2,0.5,0.2c0.3,0,0.5-0.1,0.8-0.2l0.1,0V123.1z"/>
	<path class="st1" d="M91.7,122.4v-0.9h0.8v0.9H91.7z M91.7,126.9v-3.8h0.8v3.8H91.7z"/>
	<path class="st1" d="M93.5,128.5v-5.4h0.8v0.2c0.3-0.2,0.7-0.3,1-0.3c0.5,0,0.9,0.2,1.1,0.5c0.2,0.3,0.3,0.8,0.3,1.5
		c0,0.7-0.1,1.2-0.4,1.5c-0.3,0.3-0.7,0.4-1.3,0.4c-0.2,0-0.4,0-0.7-0.1v1.6H93.5z M95.2,123.7c-0.2,0-0.5,0.1-0.7,0.2l-0.1,0.1v2.2
		c0.2,0,0.4,0.1,0.7,0.1c0.3,0,0.6-0.1,0.7-0.3c0.1-0.2,0.2-0.5,0.2-1C95.9,124.1,95.7,123.7,95.2,123.7z"/>
	<path class="st1" d="M98.4,126.9h-0.8v-3.8h0.8v0.2c0.4-0.2,0.7-0.3,1-0.3c0.4,0,0.8,0.1,1,0.4c0.5-0.2,0.9-0.4,1.4-0.4
		c0.5,0,0.8,0.1,1,0.4c0.2,0.3,0.3,0.8,0.3,1.4v2h-0.8v-2c0-0.4,0-0.7-0.1-0.9c-0.1-0.2-0.3-0.3-0.5-0.3c-0.2,0-0.5,0.1-0.7,0.2
		l-0.1,0.1c0,0.1,0.1,0.4,0.1,1v2h-0.8v-1.9c0-0.5,0-0.8-0.1-0.9c-0.1-0.2-0.3-0.3-0.5-0.3c-0.3,0-0.5,0.1-0.7,0.2l-0.1,0V126.9z"/>
	<path class="st1" d="M106.7,126.2l0.2,0l0,0.6c-0.6,0.1-1.1,0.2-1.5,0.2c-0.6,0-1-0.2-1.2-0.5s-0.4-0.8-0.4-1.5c0-1.3,0.5-2,1.6-2
		c1.1,0,1.6,0.6,1.6,1.7l-0.1,0.6h-2.4c0,0.3,0.1,0.5,0.2,0.7c0.1,0.1,0.4,0.2,0.7,0.2C105.9,126.2,106.3,126.2,106.7,126.2z
		 M106.2,124.7c0-0.4-0.1-0.6-0.2-0.8c-0.1-0.1-0.3-0.2-0.6-0.2s-0.5,0.1-0.6,0.2c-0.1,0.2-0.2,0.4-0.2,0.8H106.2z"/>
	<path class="st1" d="M108.6,126.9h-0.8v-3.8h0.8v0.2c0.4-0.2,0.7-0.3,1-0.3c0.5,0,0.9,0.1,1,0.4c0.2,0.3,0.3,0.8,0.3,1.4v2h-0.8v-2
		c0-0.4,0-0.7-0.1-0.9c-0.1-0.2-0.3-0.3-0.5-0.3c-0.3,0-0.5,0.1-0.7,0.2l-0.1,0V126.9z"/>
	<path class="st1" d="M114,123.8h-1v1.7c0,0.3,0,0.5,0.1,0.6c0,0.1,0.2,0.2,0.3,0.2l0.6,0l0,0.7c-0.3,0.1-0.6,0.1-0.8,0.1
		c-0.4,0-0.7-0.1-0.9-0.3c-0.2-0.2-0.2-0.6-0.2-1.1v-1.8h-0.5v-0.7h0.5V122h0.8v1.1h1V123.8z"/>
	<path class="st1" d="M117.3,123.9c-0.6-0.1-1-0.1-1.3-0.1c-0.3,0-0.5,0-0.6,0.1c-0.1,0.1-0.2,0.2-0.2,0.3c0,0.1,0.1,0.2,0.2,0.3
		c0.1,0.1,0.4,0.1,0.8,0.2c0.4,0.1,0.7,0.2,0.9,0.3c0.2,0.2,0.3,0.4,0.3,0.8c0,0.4-0.1,0.7-0.4,0.9c-0.3,0.2-0.6,0.3-1.1,0.3
		c-0.3,0-0.7,0-1.2-0.1l-0.2,0l0-0.7c0.6,0.1,1,0.1,1.3,0.1c0.3,0,0.5,0,0.6-0.1c0.1-0.1,0.2-0.2,0.2-0.3c0-0.2-0.1-0.3-0.2-0.3
		c-0.1-0.1-0.4-0.1-0.8-0.2c-0.4-0.1-0.7-0.2-0.9-0.3c-0.2-0.1-0.3-0.4-0.3-0.8s0.1-0.7,0.4-0.9c0.3-0.2,0.6-0.3,1-0.3
		c0.3,0,0.7,0,1.2,0.1l0.2,0L117.3,123.9z"/>
</g>
<g>
	<rect x="28.9" y="147.3" class="st6" width="10.2" height="10.2"/>
</g>
<g>
	<path class="st1" d="M50.4,154.8c-0.8,0-1.3-0.2-1.5-0.6c-0.3-0.4-0.4-1.1-0.4-2.1s0.1-1.6,0.4-2.1c0.3-0.4,0.8-0.6,1.5-0.6
		c0.5,0,0.9,0.1,1.5,0.2l0,0.7c-0.5-0.1-0.9-0.1-1.4-0.1s-0.8,0.1-0.9,0.4s-0.2,0.8-0.2,1.5c0,0.7,0.1,1.3,0.2,1.5
		c0.2,0.3,0.5,0.4,0.9,0.4c0.5,0,0.9,0,1.4-0.1l0,0.7C51.3,154.8,50.8,154.8,50.4,154.8z"/>
	<path class="st1" d="M55.3,154.1l0.2,0l0,0.6c-0.6,0.1-1.1,0.2-1.5,0.2c-0.6,0-1-0.2-1.2-0.5c-0.2-0.3-0.4-0.8-0.4-1.5
		c0-1.3,0.5-2,1.6-2c1.1,0,1.6,0.6,1.6,1.7l-0.1,0.6h-2.4c0,0.3,0.1,0.5,0.2,0.7c0.1,0.1,0.4,0.2,0.7,0.2
		C54.5,154.1,54.9,154.1,55.3,154.1z M54.8,152.6c0-0.4-0.1-0.6-0.2-0.8c-0.1-0.1-0.3-0.2-0.6-0.2c-0.3,0-0.5,0.1-0.6,0.2
		c-0.1,0.2-0.2,0.4-0.2,0.8H54.8z"/>
	<path class="st1" d="M57.3,154.7h-0.8V151h0.8v0.2c0.4-0.2,0.7-0.3,1-0.3c0.4,0,0.8,0.1,1,0.4c0.5-0.2,0.9-0.4,1.4-0.4
		c0.5,0,0.8,0.1,1,0.4c0.2,0.3,0.3,0.8,0.3,1.4v2H61v-2c0-0.4,0-0.7-0.1-0.9c-0.1-0.2-0.3-0.3-0.5-0.3c-0.2,0-0.5,0.1-0.7,0.2
		l-0.1,0.1c0,0.1,0.1,0.4,0.1,1v2h-0.8v-1.9c0-0.5,0-0.8-0.1-0.9c-0.1-0.2-0.3-0.3-0.5-0.3c-0.3,0-0.5,0.1-0.7,0.2l-0.1,0V154.7z"/>
	<path class="st1" d="M65.5,154.1l0.2,0l0,0.6c-0.6,0.1-1.1,0.2-1.5,0.2c-0.6,0-1-0.2-1.2-0.5s-0.4-0.8-0.4-1.5c0-1.3,0.5-2,1.6-2
		c1.1,0,1.6,0.6,1.6,1.7l-0.1,0.6h-2.4c0,0.3,0.1,0.5,0.2,0.7c0.1,0.1,0.4,0.2,0.7,0.2C64.7,154.1,65.1,154.1,65.5,154.1z M65,152.6
		c0-0.4-0.1-0.6-0.2-0.8c-0.1-0.1-0.3-0.2-0.6-0.2s-0.5,0.1-0.6,0.2c-0.1,0.2-0.2,0.4-0.2,0.8H65z"/>
	<path class="st1" d="M67.5,154.7h-0.8V151h0.8v0.2c0.4-0.2,0.7-0.3,1-0.3c0.5,0,0.9,0.1,1,0.4c0.2,0.3,0.3,0.8,0.3,1.4v2H69v-2
		c0-0.4,0-0.7-0.1-0.9c-0.1-0.2-0.3-0.3-0.5-0.3c-0.3,0-0.5,0.1-0.7,0.2l-0.1,0V154.7z"/>
	<path class="st1" d="M72.8,151.7h-1v1.7c0,0.3,0,0.5,0.1,0.6c0,0.1,0.2,0.2,0.3,0.2l0.6,0l0,0.7c-0.3,0.1-0.6,0.1-0.8,0.1
		c-0.4,0-0.7-0.1-0.9-0.3c-0.2-0.2-0.2-0.6-0.2-1.1v-1.8h-0.5V151H71v-1.1h0.8v1.1h1V151.7z"/>
</g>
<g>
	<rect x="28.9" y="175.2" class="st7" width="10.2" height="10.2"/>
</g>
<g>
	<path class="st1" d="M47.8,178.2v-0.8h3.8v0.8h-1.5v4.4h-0.8v-4.4H47.8z"/>
	<path class="st1" d="M54.3,181.9l0.2,0l0,0.6c-0.6,0.1-1.1,0.2-1.5,0.2c-0.6,0-1-0.2-1.2-0.5c-0.2-0.3-0.4-0.8-0.4-1.5
		c0-1.3,0.5-2,1.6-2c1.1,0,1.6,0.6,1.6,1.7l-0.1,0.6h-2.4c0,0.3,0.1,0.5,0.2,0.7c0.1,0.1,0.4,0.2,0.7,0.2
		C53.5,182,53.9,182,54.3,181.9z M53.8,180.4c0-0.4-0.1-0.6-0.2-0.8c-0.1-0.1-0.3-0.2-0.6-0.2c-0.3,0-0.5,0.1-0.6,0.2
		c-0.1,0.2-0.2,0.4-0.2,0.8H53.8z"/>
	<path class="st1" d="M55.1,178.8h0.9l0.7,1.3l0.8-1.3h0.9l-1.1,1.9l1.1,1.9h-0.9l-0.8-1.3l-0.7,1.3h-0.9l1.1-1.9L55.1,178.8z"/>
	<path class="st1" d="M61,179.5h-1v1.7c0,0.3,0,0.5,0.1,0.6c0,0.1,0.2,0.2,0.3,0.2l0.6,0l0,0.7c-0.3,0.1-0.6,0.1-0.8,0.1
		c-0.4,0-0.7-0.1-0.9-0.3c-0.2-0.2-0.2-0.6-0.2-1.1v-1.8h-0.5v-0.7h0.5v-1.1h0.8v1.1h1V179.5z"/>
	<path class="st1" d="M61.6,178.2v-0.9h0.8v0.9H61.6z M61.6,182.6v-3.8h0.8v3.8H61.6z"/>
	<path class="st1" d="M63.5,182.6v-5.4h0.8v5.4H63.5z"/>
	<path class="st1" d="M68.1,181.9l0.2,0l0,0.6c-0.6,0.1-1.1,0.2-1.5,0.2c-0.6,0-1-0.2-1.2-0.5c-0.2-0.3-0.4-0.8-0.4-1.5
		c0-1.3,0.5-2,1.6-2c1.1,0,1.6,0.6,1.6,1.7l-0.1,0.6H66c0,0.3,0.1,0.5,0.2,0.7c0.1,0.1,0.4,0.2,0.7,0.2S67.7,182,68.1,181.9z
		 M67.6,180.4c0-0.4-0.1-0.6-0.2-0.8c-0.1-0.1-0.3-0.2-0.6-0.2c-0.3,0-0.5,0.1-0.6,0.2c-0.1,0.2-0.2,0.4-0.2,0.8H67.6z"/>
	<path class="st1" d="M71.9,179.6c-0.6-0.1-1-0.1-1.3-0.1s-0.5,0-0.6,0.1c-0.1,0.1-0.2,0.2-0.2,0.3c0,0.1,0.1,0.2,0.2,0.3
		c0.1,0.1,0.4,0.1,0.8,0.2c0.4,0.1,0.7,0.2,0.9,0.3c0.2,0.2,0.3,0.4,0.3,0.8s-0.1,0.7-0.4,0.9c-0.3,0.2-0.6,0.3-1.1,0.3
		c-0.3,0-0.7,0-1.2-0.1l-0.2,0l0-0.7c0.6,0.1,1,0.1,1.3,0.1c0.3,0,0.5,0,0.6-0.1c0.1-0.1,0.2-0.2,0.2-0.3s-0.1-0.3-0.2-0.3
		c-0.1-0.1-0.4-0.1-0.8-0.2c-0.4-0.1-0.7-0.2-0.9-0.3c-0.2-0.1-0.3-0.4-0.3-0.8c0-0.4,0.1-0.7,0.4-0.9c0.3-0.2,0.6-0.3,1-0.3
		c0.3,0,0.7,0,1.2,0.1l0.2,0L71.9,179.6z"/>
	<path class="st1" d="M75.4,178.6c-0.2,0.7-0.2,1.3-0.2,1.7c0,0.4,0.1,0.9,0.2,1.5c0.1,0.5,0.2,1,0.4,1.3l0.2,0.5h-0.8
		c-0.1-0.1-0.2-0.3-0.3-0.6c-0.1-0.3-0.2-0.5-0.3-0.8s-0.1-0.5-0.2-0.9c-0.1-0.3-0.1-0.7-0.1-1.1c0-0.4,0.1-0.9,0.2-1.5
		c0.1-0.6,0.3-1,0.4-1.3l0.2-0.5h0.8C75.8,177.4,75.6,177.9,75.4,178.6z"/>
	<path class="st1" d="M76.8,182.6v-5.2h0.8v5.2H76.8z"/>
	<path class="st1" d="M79.5,182.6h-0.8v-3.8h0.8v0.2c0.4-0.2,0.7-0.3,1-0.3c0.5,0,0.9,0.1,1,0.4c0.2,0.3,0.3,0.8,0.3,1.4v2h-0.8v-2
		c0-0.4,0-0.7-0.1-0.9c-0.1-0.2-0.3-0.3-0.5-0.3c-0.3,0-0.5,0.1-0.7,0.2l-0.1,0V182.6z"/>
	<path class="st1" d="M84.3,178.7c0.3,0,0.6,0,0.9,0.1l0.2,0l0,0.7c-0.4,0-0.7-0.1-0.9-0.1c-0.4,0-0.6,0.1-0.8,0.3
		c-0.1,0.2-0.2,0.5-0.2,1c0,0.5,0.1,0.8,0.2,1c0.1,0.2,0.4,0.3,0.8,0.3l0.9-0.1l0,0.7c-0.5,0.1-0.9,0.1-1.2,0.1
		c-0.6,0-1-0.2-1.2-0.5c-0.2-0.3-0.4-0.8-0.4-1.5c0-0.7,0.1-1.2,0.4-1.5C83.3,178.9,83.7,178.7,84.3,178.7z"/>
	<path class="st1" d="M86.2,182.6v-5.4h0.8v5.4H86.2z"/>
	<path class="st1" d="M90.4,178.8h0.8v3.8h-0.8v-0.2c-0.4,0.2-0.7,0.3-1,0.3c-0.5,0-0.9-0.1-1-0.4c-0.2-0.3-0.3-0.8-0.3-1.5v-2h0.8
		v2c0,0.5,0,0.8,0.1,0.9c0.1,0.2,0.3,0.2,0.5,0.2c0.3,0,0.5-0.1,0.8-0.2l0.1,0V178.8z"/>
	<path class="st1" d="M95.3,177.2v5.4h-0.8v-0.2c-0.4,0.2-0.7,0.3-1,0.3c-0.5,0-0.9-0.1-1.1-0.4c-0.2-0.3-0.3-0.8-0.3-1.5
		c0-0.7,0.1-1.2,0.4-1.5c0.3-0.3,0.7-0.5,1.2-0.5c0.2,0,0.5,0,0.9,0.1v-1.6H95.3z M94.4,181.8l0.1-0.1v-2.2
		c-0.3-0.1-0.6-0.1-0.8-0.1c-0.5,0-0.8,0.4-0.8,1.3c0,0.5,0.1,0.8,0.2,1c0.1,0.2,0.3,0.3,0.6,0.3C93.9,182,94.1,181.9,94.4,181.8z"
		/>
	<path class="st1" d="M96.3,178.2v-0.9h0.8v0.9H96.3z M96.3,182.6v-3.8h0.8v3.8H96.3z"/>
	<path class="st1" d="M99,182.6h-0.8v-3.8H99v0.2c0.4-0.2,0.7-0.3,1-0.3c0.5,0,0.9,0.1,1,0.4c0.2,0.3,0.3,0.8,0.3,1.4v2h-0.8v-2
		c0-0.4,0-0.7-0.1-0.9c-0.1-0.2-0.3-0.3-0.5-0.3c-0.3,0-0.5,0.1-0.7,0.2l-0.1,0V182.6z"/>
	<path class="st1" d="M105.6,183.1c0,0.8-0.6,1.2-1.8,1.2c-0.6,0-1-0.1-1.3-0.2c-0.3-0.2-0.4-0.4-0.4-0.9c0-0.2,0-0.3,0.1-0.5
		c0.1-0.1,0.2-0.3,0.4-0.4c-0.2-0.1-0.3-0.3-0.3-0.6c0-0.1,0.1-0.3,0.2-0.5l0.1-0.1c-0.4-0.2-0.5-0.6-0.5-1.1c0-0.5,0.1-0.8,0.4-1
		s0.6-0.3,1.1-0.3c0.2,0,0.4,0,0.7,0.1l0.1,0l1.2,0v0.7l-0.6,0c0.1,0.2,0.2,0.4,0.2,0.6c0,0.5-0.1,0.8-0.4,1
		c-0.3,0.2-0.6,0.3-1.2,0.3c-0.1,0-0.2,0-0.3,0c-0.1,0.2-0.1,0.3-0.1,0.4c0,0.1,0,0.2,0.1,0.2c0.1,0,0.3,0.1,0.7,0.1
		c0.6,0,1,0.1,1.2,0.2C105.5,182.4,105.6,182.7,105.6,183.1z M102.9,183.2c0,0.2,0.1,0.3,0.2,0.4c0.1,0.1,0.4,0.1,0.7,0.1
		c0.6,0,0.9-0.2,0.9-0.5c0-0.2-0.1-0.3-0.2-0.4c-0.1-0.1-0.3-0.1-0.6-0.1l-0.7,0c-0.1,0.1-0.2,0.2-0.2,0.3
		C102.9,183,102.9,183.1,102.9,183.2z M103.2,180.6c0.1,0.1,0.3,0.2,0.5,0.2s0.4-0.1,0.5-0.2c0.1-0.1,0.2-0.3,0.2-0.5
		c0-0.2-0.1-0.4-0.2-0.5c-0.1-0.1-0.3-0.2-0.5-0.2c-0.5,0-0.7,0.2-0.7,0.7C103,180.3,103,180.5,103.2,180.6z"/>
	<path class="st1" d="M109.8,182.6H108v-5.2h1.8c0.8,0,1.3,0.2,1.6,0.6c0.3,0.4,0.4,1,0.4,1.9c0,0.4,0,0.8-0.1,1.1
		c-0.1,0.3-0.2,0.6-0.3,0.8C111.2,182.4,110.7,182.6,109.8,182.6z M111,179.9c0-0.6-0.1-1.1-0.2-1.4c-0.2-0.3-0.5-0.4-1-0.4h-1v3.7
		h1c0.5,0,0.8-0.2,1-0.6c0.1-0.2,0.1-0.4,0.2-0.6S111,180.2,111,179.9z"/>
	<path class="st1" d="M112.5,178.8h0.8l0.8,3.1h0.2l0.8-3.1h0.8l-1.4,5.4h-0.8l0.5-1.6h-0.7L112.5,178.8z"/>
	<path class="st1" d="M119.2,181.9l0.2,0l0,0.6c-0.6,0.1-1.1,0.2-1.5,0.2c-0.6,0-1-0.2-1.2-0.5c-0.2-0.3-0.4-0.8-0.4-1.5
		c0-1.3,0.5-2,1.6-2c1.1,0,1.6,0.6,1.6,1.7l-0.1,0.6h-2.4c0,0.3,0.1,0.5,0.2,0.7c0.1,0.1,0.4,0.2,0.7,0.2S118.8,182,119.2,181.9z
		 M118.7,180.4c0-0.4-0.1-0.6-0.2-0.8c-0.1-0.1-0.3-0.2-0.6-0.2c-0.3,0-0.5,0.1-0.6,0.2c-0.1,0.2-0.2,0.4-0.2,0.8H118.7z"/>
	<path class="st1" d="M123.4,177.2v5.4h-0.8v-0.2c-0.4,0.2-0.7,0.3-1,0.3c-0.5,0-0.9-0.1-1.1-0.4c-0.2-0.3-0.3-0.8-0.3-1.5
		c0-0.7,0.1-1.2,0.4-1.5c0.3-0.3,0.7-0.5,1.2-0.5c0.2,0,0.5,0,0.9,0.1v-1.6H123.4z M122.5,181.8l0.1-0.1v-2.2
		c-0.3-0.1-0.6-0.1-0.8-0.1c-0.5,0-0.8,0.4-0.8,1.3c0,0.5,0.1,0.8,0.2,1c0.1,0.2,0.3,0.3,0.6,0.3C122,182,122.2,181.9,122.5,181.8z"
		/>
	<path class="st1" d="M126.9,177.6c0.3-0.2,0.6-0.3,1.1-0.3c0.5,0,0.8,0.1,1.1,0.3c0.2,0.2,0.4,0.5,0.4,0.8c0,0.4-0.1,0.6-0.2,0.9
		c-0.2,0.2-0.4,0.4-0.9,0.7l0.9,0.9c0-0.1,0.1-0.3,0.1-0.5c0-0.2,0.1-0.4,0.1-0.6l0.8,0c-0.1,0.6-0.2,1.1-0.4,1.6l0.9,0.8l-0.5,0.5
		l-0.9-0.7c-0.2,0.2-0.4,0.4-0.7,0.5c-0.3,0.1-0.6,0.2-0.9,0.2c-0.7,0-1.2-0.1-1.5-0.4c-0.3-0.3-0.4-0.7-0.4-1.2
		c0-0.4,0.1-0.7,0.3-1c0.2-0.2,0.5-0.4,0.9-0.6c-0.2-0.2-0.3-0.4-0.4-0.6c-0.1-0.2-0.1-0.4-0.1-0.6
		C126.5,178,126.6,177.8,126.9,177.6z M127.7,182c0.2,0,0.5,0,0.7-0.1c0.2-0.1,0.4-0.2,0.4-0.3l-1.4-1.4c-0.3,0.1-0.4,0.2-0.5,0.4
		c-0.1,0.2-0.2,0.4-0.2,0.6C126.7,181.7,127.1,182,127.7,182z M127.3,178.5c0,0.2,0.1,0.5,0.3,0.7l0.2,0.2c0.3-0.2,0.5-0.3,0.6-0.4
		c0.1-0.1,0.2-0.3,0.2-0.5c0-0.4-0.2-0.6-0.6-0.6C127.6,178,127.3,178.2,127.3,178.5z"/>
	<path class="st1" d="M135,181H134v1.6h-0.8v-5.2h1.9c1.2,0,1.8,0.6,1.8,1.7c0,0.6-0.1,1.1-0.4,1.4C136.1,180.8,135.6,181,135,181z
		 M134,180.3h1.1c0.6,0,0.9-0.4,0.9-1.1c0-0.4-0.1-0.6-0.2-0.8c-0.1-0.2-0.4-0.2-0.7-0.2H134V180.3z"/>
	<path class="st1" d="M137.5,182.6v-3.8h0.8v0.5c0.4-0.3,0.9-0.5,1.3-0.5v0.8c-0.4,0.1-0.8,0.2-1.1,0.3l-0.2,0.1v2.6H137.5z"/>
	<path class="st1" d="M140.2,178.2v-0.9h0.8v0.9H140.2z M140.2,182.6v-3.8h0.8v3.8H140.2z"/>
	<path class="st1" d="M142.9,182.6h-0.8v-3.8h0.8v0.2c0.4-0.2,0.7-0.3,1-0.3c0.5,0,0.9,0.1,1,0.4c0.2,0.3,0.3,0.8,0.3,1.4v2h-0.8v-2
		c0-0.4,0-0.7-0.1-0.9c-0.1-0.2-0.3-0.3-0.5-0.3c-0.3,0-0.5,0.1-0.7,0.2l-0.1,0V182.6z"/>
	<path class="st1" d="M148.3,179.5h-1v1.7c0,0.3,0,0.5,0.1,0.6s0.2,0.2,0.3,0.2l0.6,0l0,0.7c-0.3,0.1-0.6,0.1-0.8,0.1
		c-0.4,0-0.7-0.1-0.9-0.3c-0.2-0.2-0.2-0.6-0.2-1.1v-1.8h-0.5v-0.7h0.5v-1.1h0.8v1.1h1V179.5z"/>
	<path class="st1" d="M151.6,181.9l0.2,0l0,0.6c-0.6,0.1-1.1,0.2-1.5,0.2c-0.6,0-1-0.2-1.2-0.5c-0.2-0.3-0.4-0.8-0.4-1.5
		c0-1.3,0.5-2,1.6-2c1.1,0,1.6,0.6,1.6,1.7l-0.1,0.6h-2.4c0,0.3,0.1,0.5,0.2,0.7c0.1,0.1,0.4,0.2,0.7,0.2
		C150.9,182,151.3,182,151.6,181.9z M151.2,180.4c0-0.4-0.1-0.6-0.2-0.8c-0.1-0.1-0.3-0.2-0.6-0.2c-0.3,0-0.5,0.1-0.6,0.2
		c-0.1,0.2-0.2,0.4-0.2,0.8H151.2z"/>
	<path class="st1" d="M155.9,177.2v5.4h-0.8v-0.2c-0.4,0.2-0.7,0.3-1,0.3c-0.5,0-0.9-0.1-1.1-0.4c-0.2-0.3-0.3-0.8-0.3-1.5
		c0-0.7,0.1-1.2,0.4-1.5c0.3-0.3,0.7-0.5,1.2-0.5c0.2,0,0.5,0,0.9,0.1v-1.6H155.9z M154.9,181.8l0.1-0.1v-2.2
		c-0.3-0.1-0.6-0.1-0.8-0.1c-0.5,0-0.8,0.4-0.8,1.3c0,0.5,0.1,0.8,0.2,1c0.1,0.2,0.3,0.3,0.6,0.3C154.4,182,154.7,181.9,154.9,181.8
		z"/>
	<path class="st1" d="M158.2,179.3c0.1,0.4,0.1,0.7,0.1,1s0,0.7-0.1,1s-0.1,0.6-0.2,0.9c-0.2,0.5-0.3,0.9-0.5,1.2l-0.1,0.2h-0.8
		c0.1-0.1,0.1-0.3,0.2-0.5c0.1-0.2,0.2-0.6,0.3-1.2c0.1-0.6,0.2-1.1,0.2-1.5c0-0.4-0.1-0.9-0.2-1.5c-0.1-0.6-0.2-1-0.4-1.4l-0.2-0.5
		h0.8c0.1,0.1,0.2,0.3,0.3,0.6c0.1,0.3,0.2,0.6,0.3,0.8C158,178.6,158.1,178.9,158.2,179.3z"/>
</g>
<g>
	<rect x="28.9" y="203.1" class="st8" width="10.2" height="10.2"/>
</g>
<g>
	<path class="st1" d="M49.9,210.5v-5.2h3.3v0.7h-2.4v1.5h2v0.7h-2v1.5h2.4v0.7H49.9z"/>
	<path class="st1" d="M54.1,210.5v-5.4h0.8v5.4H54.1z"/>
	<path class="st1" d="M58.7,209.8l0.2,0l0,0.6c-0.6,0.1-1.1,0.2-1.5,0.2c-0.6,0-1-0.2-1.2-0.5c-0.2-0.3-0.4-0.8-0.4-1.5
		c0-1.3,0.5-2,1.6-2c1.1,0,1.6,0.6,1.6,1.7l-0.1,0.6h-2.4c0,0.3,0.1,0.5,0.2,0.7c0.1,0.1,0.4,0.2,0.7,0.2
		C57.9,209.8,58.3,209.8,58.7,209.8z M58.2,208.3c0-0.4-0.1-0.6-0.2-0.8c-0.1-0.1-0.3-0.2-0.6-0.2s-0.5,0.1-0.6,0.2
		c-0.1,0.2-0.2,0.4-0.2,0.8H58.2z"/>
	<path class="st1" d="M61.2,206.6c0.3,0,0.6,0,0.9,0.1l0.2,0l0,0.7c-0.4,0-0.7-0.1-0.9-0.1c-0.4,0-0.6,0.1-0.8,0.3
		c-0.1,0.2-0.2,0.5-0.2,1c0,0.5,0.1,0.8,0.2,1c0.1,0.2,0.4,0.3,0.8,0.3l0.9-0.1l0,0.7c-0.5,0.1-0.9,0.1-1.2,0.1
		c-0.6,0-1-0.2-1.2-0.5c-0.2-0.3-0.4-0.8-0.4-1.5c0-0.7,0.1-1.2,0.4-1.5C60.3,206.8,60.7,206.6,61.2,206.6z"/>
	<path class="st1" d="M65.2,207.4h-1v1.7c0,0.3,0,0.5,0.1,0.6c0,0.1,0.2,0.2,0.3,0.2l0.6,0l0,0.7c-0.3,0.1-0.6,0.1-0.8,0.1
		c-0.4,0-0.7-0.1-0.9-0.3c-0.2-0.2-0.2-0.6-0.2-1.1v-1.8h-0.5v-0.7h0.5v-1.1h0.8v1.1h1V207.4z"/>
	<path class="st1" d="M65.9,210.5v-3.8h0.8v0.5c0.4-0.3,0.9-0.5,1.3-0.5v0.8c-0.4,0.1-0.8,0.2-1.1,0.3l-0.2,0.1v2.6H65.9z"/>
	<path class="st1" d="M68.8,207.1c0.3-0.3,0.7-0.5,1.3-0.5c0.6,0,1,0.2,1.3,0.5c0.3,0.3,0.4,0.8,0.4,1.5c0,0.7-0.1,1.2-0.4,1.5
		c-0.3,0.3-0.7,0.5-1.3,0.5s-1.1-0.2-1.3-0.5c-0.3-0.3-0.4-0.8-0.4-1.5C68.4,207.9,68.5,207.4,68.8,207.1z M69.4,209.6
		c0.1,0.2,0.3,0.3,0.7,0.3c0.3,0,0.6-0.1,0.7-0.3c0.1-0.2,0.2-0.5,0.2-1c0-0.5-0.1-0.8-0.2-1c-0.1-0.2-0.3-0.3-0.7-0.3
		c-0.3,0-0.5,0.1-0.7,0.3c-0.1,0.2-0.2,0.5-0.2,1C69.2,209,69.3,209.4,69.4,209.6z"/>
	<path class="st1" d="M73.4,210.5h-0.8v-3.8h0.8v0.2c0.4-0.2,0.7-0.3,1-0.3c0.5,0,0.9,0.1,1,0.4c0.2,0.3,0.3,0.8,0.3,1.4v2H75v-2
		c0-0.4,0-0.7-0.1-0.9c-0.1-0.2-0.3-0.3-0.5-0.3c-0.3,0-0.5,0.1-0.7,0.2l-0.1,0V210.5z"/>
	<path class="st1" d="M76.7,206v-0.9h0.8v0.9H76.7z M76.7,210.5v-3.8h0.8v3.8H76.7z"/>
	<path class="st1" d="M80,206.6c0.3,0,0.6,0,0.9,0.1l0.2,0l0,0.7c-0.4,0-0.7-0.1-0.9-0.1c-0.4,0-0.6,0.1-0.8,0.3
		c-0.1,0.2-0.2,0.5-0.2,1c0,0.5,0.1,0.8,0.2,1c0.1,0.2,0.4,0.3,0.8,0.3l0.9-0.1l0,0.7c-0.5,0.1-0.9,0.1-1.2,0.1
		c-0.6,0-1-0.2-1.2-0.5c-0.2-0.3-0.4-0.8-0.4-1.5c0-0.7,0.1-1.2,0.4-1.5C79,206.8,79.4,206.6,80,206.6z"/>
	<path class="st1" d="M84.5,207.5c-0.6-0.1-1-0.1-1.3-0.1s-0.5,0-0.6,0.1c-0.1,0.1-0.2,0.2-0.2,0.3c0,0.1,0.1,0.2,0.2,0.3
		s0.4,0.1,0.8,0.2c0.4,0.1,0.7,0.2,0.9,0.3c0.2,0.2,0.3,0.4,0.3,0.8c0,0.4-0.1,0.7-0.4,0.9c-0.3,0.2-0.6,0.3-1.1,0.3
		c-0.3,0-0.7,0-1.2-0.1l-0.2,0l0-0.7c0.6,0.1,1,0.1,1.3,0.1c0.3,0,0.5,0,0.6-0.1c0.1-0.1,0.2-0.2,0.2-0.3c0-0.2-0.1-0.3-0.2-0.3
		c-0.1-0.1-0.4-0.1-0.8-0.2c-0.4-0.1-0.7-0.2-0.9-0.3c-0.2-0.1-0.3-0.4-0.3-0.8c0-0.4,0.1-0.7,0.4-0.9c0.3-0.2,0.6-0.3,1-0.3
		c0.3,0,0.7,0,1.2,0.1l0.2,0L84.5,207.5z"/>
</g>
<g>
	<rect x="28.9" y="226.7" class="st9" width="10.2" height="10.2"/>
</g>
<g>
	<path class="st1" d="M54.4,233.6c-0.3,0.4-0.9,0.6-1.6,0.6c-0.8,0-1.3-0.2-1.6-0.6c-0.3-0.4-0.5-1.1-0.5-2c0-0.9,0.2-1.6,0.5-2
		c0.3-0.4,0.9-0.7,1.6-0.7c0.8,0,1.3,0.2,1.6,0.7c0.3,0.4,0.5,1.1,0.5,2C54.8,232.5,54.7,233.2,54.4,233.6z M51.8,233.1
		c0.2,0.3,0.5,0.4,1,0.4c0.5,0,0.8-0.1,1-0.4c0.2-0.3,0.3-0.8,0.3-1.5c0-0.7-0.1-1.2-0.3-1.5c-0.2-0.3-0.5-0.5-1-0.5
		c-0.5,0-0.8,0.2-1,0.5s-0.3,0.8-0.3,1.5C51.5,232.3,51.6,232.8,51.8,233.1z"/>
	<path class="st1" d="M57.8,231.1h-1v1.7c0,0.3,0,0.5,0.1,0.6c0,0.1,0.2,0.2,0.3,0.2l0.6,0l0,0.7c-0.3,0.1-0.6,0.1-0.8,0.1
		c-0.4,0-0.7-0.1-0.9-0.3c-0.2-0.2-0.2-0.6-0.2-1.1v-1.8h-0.5v-0.7h0.5v-1.1h0.8v1.1h1V231.1z"/>
	<path class="st1" d="M59.3,234.2h-0.8v-5.4h0.8v1.8c0.4-0.2,0.7-0.3,1-0.3c0.5,0,0.9,0.1,1,0.4c0.2,0.3,0.3,0.8,0.3,1.4v2h-0.8v-2
		c0-0.4,0-0.7-0.1-0.9c-0.1-0.2-0.3-0.3-0.5-0.3c-0.2,0-0.5,0-0.7,0.1l-0.1,0V234.2z"/>
	<path class="st1" d="M65.3,233.5l0.2,0l0,0.6c-0.6,0.1-1.1,0.2-1.5,0.2c-0.6,0-1-0.2-1.2-0.5c-0.2-0.3-0.4-0.8-0.4-1.5
		c0-1.3,0.5-2,1.6-2c1.1,0,1.6,0.6,1.6,1.7l-0.1,0.6h-2.4c0,0.3,0.1,0.5,0.2,0.7c0.1,0.1,0.4,0.2,0.7,0.2
		C64.5,233.5,64.9,233.5,65.3,233.5z M64.8,232c0-0.4-0.1-0.6-0.2-0.8c-0.1-0.1-0.3-0.2-0.6-0.2c-0.3,0-0.5,0.1-0.6,0.2
		c-0.1,0.2-0.2,0.4-0.2,0.8H64.8z"/>
	<path class="st1" d="M66.4,234.2v-3.8h0.8v0.5c0.4-0.3,0.9-0.5,1.3-0.5v0.8c-0.4,0.1-0.8,0.2-1.1,0.3l-0.2,0.1v2.6H66.4z"/>
	<path class="st1" d="M71.8,231.1c-0.6-0.1-1-0.1-1.3-0.1s-0.5,0-0.6,0.1c-0.1,0.1-0.2,0.2-0.2,0.3c0,0.1,0.1,0.2,0.2,0.3
		s0.4,0.1,0.8,0.2c0.4,0.1,0.7,0.2,0.9,0.3c0.2,0.2,0.3,0.4,0.3,0.8s-0.1,0.7-0.4,0.9c-0.3,0.2-0.6,0.3-1.1,0.3
		c-0.3,0-0.7,0-1.2-0.1l-0.2,0l0-0.7c0.6,0.1,1,0.1,1.3,0.1c0.3,0,0.5,0,0.6-0.1c0.1-0.1,0.2-0.2,0.2-0.3s-0.1-0.3-0.2-0.3
		c-0.1-0.1-0.4-0.1-0.8-0.2c-0.4-0.1-0.7-0.2-0.9-0.3c-0.2-0.1-0.3-0.4-0.3-0.8c0-0.4,0.1-0.7,0.4-0.9c0.3-0.2,0.6-0.3,1-0.3
		c0.3,0,0.7,0,1.2,0.1l0.2,0L71.8,231.1z"/>
</g>
</svg>
