<?xml version="1.0" encoding="utf-8"?>
<!-- Generator: Adobe Illustrator 23.0.2, SVG Export Plug-In . SVG Version: 6.00 Build 0)  -->
<svg version="1.1" id="Layer_1" xmlns="http://www.w3.org/2000/svg" xmlns:xlink="http://www.w3.org/1999/xlink" x="0px" y="0px"
	 viewBox="0 0 142 120" style="enable-background:new 0 0 142 120;" xml:space="preserve">
<style type="text/css">
	.st0{fill-rule:evenodd;clip-rule:evenodd;fill:#287AA0;}
</style>
<g transform="translate(0,-952.36218)">
	<path class="st0" d="M129,1016c-1.6,0-3.3,0.4-5,1.2l-29.4,14.2c-1.4-3.2-4.8-5.5-8.5-5.4l-16.9,0.5c-4.1,0-7.3-1-11.2-2.1
		c-4-1.1-8.7-2.4-15.2-2.4c-5.4,0-12.6,1.6-18.5,3.6v-3.7c0-0.4-0.1-0.8-0.2-1.2s-0.3-0.7-0.6-1c-0.3-0.3-0.7-0.5-1-0.6
		c-0.4-0.2-0.8-0.2-1.2-0.2H4c-0.4,0-0.8,0.1-1.2,0.2c-0.4,0.2-0.7,0.3-1,0.6c-0.3,0.3-0.5,0.7-0.7,1c-0.2,0.4-0.2,0.8-0.2,1.2v12.8
		v33.9c0,0.4,0.1,0.8,0.2,1.2c0.2,0.4,0.4,0.7,0.7,1c0.3,0.3,0.7,0.5,1,0.7c0.4,0.2,0.8,0.2,1.2,0.2h17c0.4,0,0.8-0.1,1.2-0.2
		c0.4-0.2,0.7-0.4,1-0.7c0.3-0.3,0.5-0.7,0.6-1c0.2-0.4,0.2-0.8,0.2-1.2v-4c20.7-3.7,33,2.6,51.6,2.6c3.9,0,7.9-1.8,13-4.5
		c5.1-2.6,10.8-6.1,16.7-9.9c11.7-7.6,23.7-16.2,29.9-20.4c2.1-1.4,3.4-3.7,3.7-6c0.3-2.3-0.4-4.5-1.6-6.3
		C135.7,1017.6,132.6,1015.9,129,1016L129,1016z M129.4,1022.1c1.4,0,2.3,0.8,2.8,1.6c0.4,0.7,0.6,1.4,0.5,2c-0.1,0.6-0.3,1-1,1.5
		c-6.4,4.3-18.3,12.9-29.8,20.3c-5.8,3.7-11.4,7.2-16.1,9.6c-4.8,2.5-8.9,3.8-10.1,3.8c-16.8,0-30.1-6.2-51.6-2.7v-2.7
		c0-0.4,0-0.8-0.2-1.2c-0.2-0.4-0.4-0.7-0.7-1c-0.3-0.3-0.6-0.5-1-0.7c-0.4-0.2-0.8-0.2-1.2-0.2c-0.4,0-0.8,0.1-1.2,0.2
		c-0.4,0.2-0.7,0.4-1,0.7c-0.3,0.3-0.5,0.6-0.7,1c-0.2,0.4-0.3,0.8-0.2,1.2v10h-1.6v-40.4h1.6v10c0,0.4,0.1,0.8,0.2,1.2
		c0.2,0.4,0.4,0.8,0.7,1.1c0.3,0.3,0.6,0.5,1,0.7c0.4,0.2,0.8,0.2,1.2,0.2c0.4,0,0.8-0.1,1.2-0.2c0.4-0.2,0.7-0.4,1-0.7
		c0.3-0.3,0.5-0.7,0.7-1.1c0.2-0.4,0.2-0.8,0.2-1.2v-2.7c5.5-2,14-4,18.5-4c5.7,0,9.6,1,13.4,2.2c3.9,1.1,7.8,2.4,13,2.4
		c0,0,0.1,0,0.1,0l16.9-0.5c1.6,0,2.7,1.2,2.7,2.4c0,1.2-1.1,2.3-3,2.4l-32.2,1.4c-0.4,0-0.8,0.1-1.2,0.2c-0.4,0.2-0.7,0.4-1,0.7
		s-0.5,0.7-0.6,1.1c-0.1,0.4-0.2,0.8-0.2,1.2c0,0.4,0.1,0.8,0.3,1.2c0.2,0.4,0.4,0.7,0.7,1c0.3,0.3,0.7,0.5,1.1,0.6
		c0.4,0.1,0.8,0.2,1.2,0.2l32.2-1.4c3.4-0.1,6.5-2,8-4.9l32.4-15.6C127.8,1022.3,128.7,1022.1,129.4,1022.1L129.4,1022.1z"/>
	<path class="st0" d="M60.8,953.4c-8.7,0-15.8,7.1-15.8,15.8v33.5c0,8.7,7.1,15.9,15.8,15.9s15.9-7.2,15.9-15.9v-33.5
		C76.6,960.5,69.5,953.4,60.8,953.4z M60.8,959.6c5.3,0,9.6,4.3,9.6,9.5v13.6H51.2v-13.6C51.2,963.9,55.5,959.6,60.8,959.6z
		 M51.2,989.1h19.1v13.6c0,5.3-4.3,9.6-9.6,9.6s-9.5-4.3-9.5-9.6V989.1z"/>
	<path class="st0" d="M56,964.1c-0.1,0-0.2,0-0.3,0c-0.2,0-0.4,0.1-0.6,0.2c-0.2,0.1-0.4,0.2-0.6,0.3c-0.4,0.2-0.7,0.5-0.9,0.8
		c-0.1,0.2-0.2,0.4-0.3,0.5c0,0.1-0.1,0.2-0.1,0.3c0,0.1-0.1,0.2-0.1,0.3c0,0.1,0,0.2-0.1,0.3c0,0.1,0,0.2,0,0.4v9.3
		c0,0.1,0,0.2,0,0.3c0,0.3,0.1,0.6,0.2,0.9c0.1,0.3,0.3,0.6,0.5,0.8c0.2,0.2,0.4,0.4,0.7,0.6c0.1,0.1,0.2,0.1,0.3,0.2
		c0.2,0.1,0.4,0.2,0.6,0.2c0.2,0.1,0.4,0.1,0.6,0.1c0.3,0,0.6,0,0.9-0.1c0.3-0.1,0.6-0.2,0.9-0.4c0.1-0.1,0.2-0.1,0.3-0.2
		c0.1-0.1,0.2-0.1,0.2-0.2c0.2-0.2,0.4-0.5,0.6-0.7c0.1-0.1,0.1-0.2,0.1-0.3c0-0.1,0.1-0.2,0.1-0.3c0-0.1,0.1-0.2,0.1-0.3
		c0.1-0.2,0.1-0.4,0.1-0.7v-9.3c0-0.5-0.1-1-0.4-1.5c-0.3-0.5-0.6-0.8-1.1-1.1c-0.2-0.1-0.4-0.2-0.6-0.3c-0.2-0.1-0.4-0.1-0.6-0.2
		c-0.1,0-0.2,0-0.3,0C56.3,964.1,56.2,964.1,56,964.1L56,964.1z"/>
	<path class="st0" d="M98.3,973.5c-5.2,0-10.3,1.9-14.2,5.8c-7.8,7.8-7.8,20.6,0,28.5c7.8,7.8,20.6,7.8,28.5,0
		c7.8-7.8,7.8-20.6,0-28.5C108.6,975.5,103.5,973.5,98.3,973.5z M98.3,979.8c2.5,0,5.1,0.7,7.3,2.1l-19.1,19
		c-3.4-5.3-2.7-12.4,2-17.1C91.3,981.1,94.8,979.8,98.3,979.8z M110.1,986.3c3.4,5.3,2.7,12.4-2,17.1c-4.7,4.7-11.7,5.3-17.1,2
		L110.1,986.3z"/>
</g>
</svg>
