<?xml version="1.0" encoding="utf-8"?>
<!-- Generator: Adobe Illustrator 23.0.2, SVG Export Plug-In . SVG Version: 6.00 Build 0)  -->
<svg version="1.1" id="Layer_1" xmlns="http://www.w3.org/2000/svg" xmlns:xlink="http://www.w3.org/1999/xlink" x="0px" y="0px"
	 viewBox="0 0 142 120" style="enable-background:new 0 0 142 120;" xml:space="preserve">
<style type="text/css">
	.st0{fill:#287AA0;}
</style>
<g>
	<path class="st0" d="M20.4,67.6v3.5v45h46.8v-45v-3.5V3H20.4V67.6z M65.2,114.1H24.3V73.2h40.9V114.1z M24.3,6.9h40.9v60.4H24.3
		V6.9z"/>
	<polygon class="st0" points="34,75.1 28.2,75.1 28.2,79 30.1,79 30.1,92.7 28.2,92.7 28.2,94.6 34,94.6 	"/>
	<polygon class="st0" points="28.2,47.8 30.1,47.8 30.1,61.5 28.2,61.5 28.2,65.4 34,65.4 34,43.9 28.2,43.9 	"/>
	<path class="st0" d="M71.1,49.8V118h54.6V49.8H71.1z M121.7,51.7v13.6H74.9V51.7H121.7z M74.9,114.1V69.3h46.8v44.8H74.9z"/>
	<path class="st0" d="M98.4,73.7c-9.2,0-16.8,7.5-16.8,16.8s7.5,16.8,16.8,16.8c6.5,0,12.2-3.7,14.9-9.2c0,0,0.1,0,0.1,0l0-0.1
		c1.1-2.2,1.8-4.8,1.8-7.4C115.2,81.3,107.7,73.7,98.4,73.7z M110.8,95c-2.5,0-4.5-2-4.5-4.5c0-2.5,2-4.5,4.5-4.5c0,0,0.1,0,0.1,0
		c0.5,1.4,0.8,2.9,0.8,4.5c0,1.6-0.3,3.1-0.8,4.5C110.9,95,110.9,95,110.8,95z M104.3,95.1c-1.4,1.8-3.5,2.8-5.8,2.8
		c-4.1,0-7.4-3.3-7.4-7.4c0-4.1,3.3-7.4,7.4-7.4c2.3,0,4.4,1.1,5.8,2.8c-0.9,1.3-1.4,2.9-1.4,4.6C102.8,92.2,103.4,93.8,104.3,95.1z
		 M98.4,103.8c-7.3,0-13.3-6-13.3-13.3c0-7.3,6-13.3,13.3-13.3c4.4,0,8.3,2.2,10.7,5.5c-0.8,0.2-1.6,0.5-2.4,0.9c-2-2.5-5.1-4-8.4-4
		c-6,0-10.9,4.9-10.9,10.9s4.9,10.9,10.9,10.9c3.3,0,6.3-1.5,8.4-4c0.7,0.4,1.5,0.7,2.4,0.9C106.7,101.6,102.9,103.8,98.4,103.8z"/>
	<rect x="84.7" y="53.7" class="st0" width="3.9" height="3.9"/>
	<rect x="78.8" y="53.7" class="st0" width="3.9" height="3.9"/>
	<rect x="84.7" y="59.5" class="st0" width="3.9" height="3.9"/>
	<rect x="78.8" y="59.5" class="st0" width="3.9" height="3.9"/>
	<rect x="113.9" y="53.7" class="st0" width="3.9" height="3.9"/>
	<rect x="110" y="53.7" class="st0" width="3.9" height="3.9"/>
	<rect x="113.9" y="59.5" class="st0" width="3.9" height="3.9"/>
	<rect x="110" y="59.5" class="st0" width="3.9" height="3.9"/>
	<path class="st0" d="M108.1,55.6H90.5v7.8h17.5V55.6z M104.2,59.5h-9.7v-1.9h9.7V59.5z"/>
</g>
</svg>
