<?xml version="1.0"?>
<svg xmlns="http://www.w3.org/2000/svg" xmlns:xlink="http://www.w3.org/1999/xlink" width="512px" height="512px" viewBox="0 0 60 60" version="1.1" class=""><g><title class="active-path" style="">011 - Mining</title><desc class="active-path">Created with Sketch.</desc><defs class="active-path"/><g id="Page-1" stroke="none" stroke-width="1" fill="none" fill-rule="evenodd"><g id="011---Mining" transform="translate(-1.000000, -1.000000)" fill="#000000" fill-rule="nonzero"><path d="M59,29 L54.47,29 C53.4285093,28.9957856 52.4273928,29.4025565 51.684,30.132 L50.763,31.024 C49.6339276,27.018295 47.6763638,23.2942906 45.017,20.093 L42.894,17.97 L44.307,16.557 C45.4767228,15.3841308 45.4767228,13.4858692 44.307,12.313 L40.067,8.072 C39.504876,7.50516321 38.7393019,7.1868342 37.941,7.188 L37.932,7.188 C37.1387517,7.18817705 36.3788371,7.50706012 35.823,8.073 L34.409,9.487 L32.235,7.314 C31.782,6.922 21.035,-2.233 10.676,2.201 C10.3116362,2.35686815 10.0736964,2.71320037 10.0693655,3.1094794 C10.0650346,3.50575844 10.2951298,3.86720579 10.656,4.031 C15.7840073,6.57374299 20.492815,9.88606186 24.619,13.853 C24.812837,14.0429819 24.9211244,14.3035937 24.919,14.575 L24.919,20.386 L1.887,43.418 C1.31873698,43.9783062 0.998314715,44.7427095 0.997187543,45.5407474 C0.996060371,46.3387854 1.31432203,47.1040908 1.881,47.666 L4.708,50.5 C5.88275404,51.6604164 7.77224596,51.6604164 8.947,50.5 L11.7,47.746 C11.709,47.738 11.72,47.736 11.729,47.727 C11.738,47.718 11.74,47.707 11.748,47.698 L15.2,44.246 C15.209,44.238 15.22,44.236 15.229,44.227 C15.238,44.218 15.24,44.207 15.248,44.198 L19.7,39.746 C19.709,39.738 19.72,39.736 19.729,39.727 C19.738,39.718 19.74,39.707 19.748,39.698 L31.994,27.45 L37.8,27.45 C38.0715507,27.4486345 38.3321889,27.5567831 38.523,27.75 C41.0481856,30.3850355 43.3117874,33.2588286 45.282,36.331 L45.21,36.401 C44.4369703,37.155504 44.0007598,38.1897914 44,39.27 L44,41.39 C43.9995275,41.8664214 43.8297593,42.3271704 43.521,42.69 L41.54,45 L41,45 C38.790861,45 37,46.790861 37,49 L37,51 L34.245,51 C33.182252,50.9972136 32.16253,51.4195772 31.413,52.173 L29.17,54.416 C28.418519,55.1633131 27.99722,56.1801921 28,57.24 L28,59 C28,60.1045695 28.8954305,61 30,61 L59,61 C60.1045695,61 61,60.1045695 61,59 L61,31 C61,29.8954305 60.1045695,29 59,29 Z M37.242,9.482 C37.4259596,9.2933488 37.6785045,9.18727998 37.942,9.188 C38.210981,9.18776954 38.4687134,9.295909 38.657,9.488 L42.897,13.728 C43.0850834,13.9156085 43.1907876,14.1703455 43.1907876,14.436 C43.1907876,14.7016545 43.0850834,14.9563915 42.897,15.144 L41.48,16.556 L35.824,10.9 L37.242,9.482 Z M19.015,37.6 L17.707,36.292 C17.3146211,35.9130278 16.6909152,35.9184476 16.3051814,36.3041814 C15.9194476,36.6899152 15.9140278,37.3136211 16.293,37.706 L17.6,39.015 L14.515,42.1 L11.707,39.292 C11.3146211,38.9130278 10.6909152,38.9184476 10.3051814,39.3041814 C9.91944763,39.6899152 9.91402779,40.3136211 10.293,40.706 L13.1,43.515 L11.015,45.6 L9.707,44.293 C9.45592553,44.0330434 9.08412211,43.9287874 8.73449268,44.0203028 C8.38486324,44.1118183 8.11181828,44.3848632 8.02030284,44.7344927 C7.9287874,45.0841221 8.03304342,45.4559255 8.293,45.707 L9.6,47.015 L7.533,49.083 C7.14250015,49.4733819 6.50949985,49.4733819 6.119,49.083 L3.292,46.248 C3.10275514,46.061518 2.99686933,45.8064945 2.99837568,45.5408125 C2.99988203,45.2751306 3.10865277,45.0213241 3.3,44.837 L25.92,22.213 L30.165,26.451 L19.015,37.6 Z M37.8,25.45 L31.99,25.45 L29.513,22.978 L26.913,20.385 L26.913,14.575 C26.9124864,13.7624124 26.5848567,12.9842468 26.004,12.416 C22.3048172,8.86340696 18.1581961,5.80832039 13.669,3.328 C22.218,1.417 30.828,8.742 30.869,8.777 L33.7,11.6 L40.77,18.67 L40.779,18.676 L43.551,21.447 C43.632,21.541 50.958,30.153 49.041,38.696 C46.5633583,34.2052637 43.5113533,30.0563656 39.962,26.354 C39.3925802,25.7736622 38.6130348,25.4477099 37.8,25.45 Z M59,59 L29.9999964,59 L30,57.24 C29.9989906,56.7109552 30.2092137,56.2033961 30.584,55.83 L32.827,53.587 C33.2022339,53.2097059 33.712883,52.9983159 34.245,53 L40.345,53 C41.1400063,53.0020837 41.9021254,53.3175672 42.466,53.878 L43.795,55.207 C44.1873789,55.5859722 44.8110848,55.5805524 45.1968186,55.1948186 C45.5825524,54.8090848 45.5879722,54.1853789 45.209,53.793 L43.88,52.464 C42.9440181,51.5229372 41.670269,50.9957195 40.343,51 L39,51 L39,49 C39,47.8954305 39.8954305,47 41,47 L46,47 C46.5522847,47 47,46.5522847 47,46 C47,45.4477153 46.5522847,45 46,45 L44.174,45 L45.041,43.989 C45.6588864,43.2638779 45.9988003,42.3426721 46,41.39 L46,39.27 C46.002475,38.8498939 46.1371787,38.4412343 46.385,38.102 C47.668,40.256 48.325,41.682 48.339,41.713 C48.5011274,42.0705169 48.8574397,42.3001056 49.25,42.3 L49.261,42.3 C49.6555276,42.2966342 50.0111976,42.0616099 50.169,41.7 C51.2752052,39.0722349 51.6390847,36.1912915 51.221,33.371 L53.081,31.571 C53.4504439,31.2047312 53.949768,30.9994655 54.47,31 L59,30.999999 L59,59 Z" id="Shape" data-original="#000000" class="active-path" fill="#287AA0"/><path d="M53,50 C53.5522847,50 54,49.5522847 54,49 L54,47 C54,46.4477153 53.5522847,46 53,46 C52.4477153,46 52,46.4477153 52,47 L52,49 C52,49.5522847 52.4477153,50 53,50 Z" id="Shape" data-original="#000000" class="active-path" fill="#287AA0"/><path d="M53,52 C52.4477153,52 52,52.4477153 52,53 L52,55 C52,55.5522847 52.4477153,56 53,56 C53.5522847,56 54,55.5522847 54,55 L54,53 C54,52.4477153 53.5522847,52 53,52 Z" id="Shape" data-original="#000000" class="active-path" fill="#287AA0"/><path d="M51,50 L49,50 C48.4477153,50 48,50.4477153 48,51 C48,51.5522847 48.4477153,52 49,52 L51,52 C51.5522847,52 52,51.5522847 52,51 C52,50.4477153 51.5522847,50 51,50 Z" id="Shape" data-original="#000000" class="active-path" fill="#287AA0"/><path d="M55,50 C54.4477153,50 54,50.4477153 54,51 C54,51.5522847 54.4477153,52 55,52 L57,52 C57.5522847,52 58,51.5522847 58,51 C58,50.4477153 57.5522847,50 57,50 L55,50 Z" id="Shape" data-original="#000000" class="active-path" fill="#287AA0"/><path d="M56,39 C56.5522847,39 57,38.5522847 57,38 L57,37 C57,36.4477153 56.5522847,36 56,36 C55.4477153,36 55,36.4477153 55,37 L55,38 C55,38.5522847 55.4477153,39 56,39 Z" id="Shape" data-original="#000000" class="active-path" fill="#287AA0"/><path d="M57,43 L57,42 C57,41.4477153 56.5522847,41 56,41 C55.4477153,41 55,41.4477153 55,42 L55,43 C55,43.5522847 55.4477153,44 56,44 C56.5522847,44 57,43.5522847 57,43 Z" id="Shape" data-original="#000000" class="active-path" fill="#287AA0"/><path d="M53,39 C52.4477153,39 52,39.4477153 52,40 C52,40.5522847 52.4477153,41 53,41 L54,41 C54.5522847,41 55,40.5522847 55,40 C55,39.4477153 54.5522847,39 54,39 L53,39 Z" id="Shape" data-original="#000000" class="active-path" fill="#287AA0"/><path d="M34.38,55.08 C34.0076029,54.9234033 33.5775607,55.0062554 33.29,55.29 C32.9032597,55.6843361 32.9032597,56.3156639 33.29,56.71 C33.4806836,56.8941958 33.7348879,56.9980257 34,57 C34.1306773,56.99842 34.2597777,56.971241 34.38,56.92 C34.5011393,56.8692709 34.6127393,56.7982527 34.71,56.71 C35.0967403,56.3156639 35.0967403,55.6843361 34.71,55.29 C34.6127393,55.2017473 34.5011393,55.1307291 34.38,55.08 Z" id="Shape" data-original="#000000" class="active-path" fill="#287AA0"/><path d="M40,55 L38,55 C37.4477153,55 37,55.4477153 37,56 C37,56.5522847 37.4477153,57 38,57 L40,57 C40.5522847,57 41,56.5522847 41,56 C41,55.4477153 40.5522847,55 40,55 Z" id="Shape" data-original="#000000" class="active-path" fill="#287AA0"/></g></g></g> </svg>
