<?xml version="1.0" encoding="utf-8"?>
<!-- Generator: Adobe Illustrator 23.0.2, SVG Export Plug-In . SVG Version: 6.00 Build 0)  -->
<svg version="1.1" id="Layer_1" xmlns="http://www.w3.org/2000/svg" xmlns:xlink="http://www.w3.org/1999/xlink" x="0px" y="0px"
	 viewBox="0 0 142 120" style="enable-background:new 0 0 142 120;" xml:space="preserve">
<style type="text/css">
	.st0{fill:#287AA0;}
</style>
<g>
	<g>
		<path class="st0" d="M16.4,46.4c3.3,4.5,2.4,6.4,0,10c-0.5,0.7-0.3-1.9-0.3,40.9c0,0,0,0,0,0.2c0,0.2,0,0,0,0.2v11.7
			c0,0.2,0,0.3,0,0.5c0.7,1.4,2.2,6.6,6.4,6.6l0,0c2.1,0,4.3-1.4,7.1-4.5c2.1,3.1,4.1,4.5,6.4,4.5l0,0c2.1,0,4-1.4,5.5-4.1
			c2.4,2.8,4.5,4.1,6.7,4.1c2.8,0,5.2-2.2,6.9-6.7c0-0.2,0.2-0.3,0.2-0.7c0-55.2,0.2-51.9-0.2-52.6c-2.4-4.8-3.1-6.6-0.2-10
			c0.2-0.3,0.3-0.7,0.3-1c0.9-12.4-3.5-20.5-12.8-24.3v-4.3c1.4-0.5,2.6-1.9,2.6-3.5V9.6c0-1.9-1.7-3.6-3.6-3.6H30.2
			c-2.1,0-3.6,1.7-3.6,3.6v3.6c0,1.6,1,2.9,2.6,3.5v4.5C18.7,25.8,14.4,34,16.3,45.5C16.3,45.9,16.3,46,16.4,46.4z M52,95.6H19.5
			V61.2H52V95.6z M48.4,113.2c-0.9,0-2.6-0.7-5.7-5c-0.3-0.5-0.9-0.7-1.4-0.7h-0.2c-0.7,0-1.2,0.5-1.4,1c-1.2,2.9-2.6,4.7-3.8,4.7
			c-0.5,0-2.2-0.5-4.8-4.8c-0.3-0.5-0.7-0.7-1.4-0.9c-0.5,0-1,0.2-1.4,0.7c-2.4,3.3-4.5,4.8-5.9,4.8s-2.4-2.6-2.9-4.3v-10H52v9.8
			C50.8,111.6,49.6,113.2,48.4,113.2z M39.2,20.7h-6.7v-3.8h6.7V20.7z M29.9,9.6c0-0.2,0.2-0.3,0.3-0.3h11.2c0.2,0,0.2,0.2,0.2,0.3
			v3.6c0,0.2-0.2,0.3-0.3,0.3h-0.5h-10h-0.5c-0.2,0-0.3-0.2-0.3-0.3V9.6z M31.1,23.9h9.5c8.3,3.1,12.1,9.8,11.4,20.7
			c-3.8,5-2.2,8.5,0,12.9v0.3H19.5v-0.2c2.6-4,4-7.2,0-13.1C17.8,34.6,21.6,27.9,31.1,23.9z"/>
		<path class="st0" d="M35.8,87.1c3.3,0,5.9-2.6,5.9-5.9c0-2.6-3.5-8.6-4.5-10.5c-0.3-0.5-0.9-0.9-1.4-0.9l0,0
			c-0.5,0-1.2,0.3-1.4,0.9c-1,1.7-4.5,7.9-4.5,10.5C29.9,84.3,32.5,87.1,35.8,87.1z M35.8,74.9c1.4,2.6,2.6,5.3,2.6,6.2
			c0,1.4-1.2,2.6-2.6,2.6s-2.6-1.2-2.6-2.6C33.2,80.2,34.4,77.6,35.8,74.9z"/>
	</g>
	<g>
		<path class="st0" d="M69.8,116.4h49.4c3.8,0,7.1-3.1,7.1-7.1V62.9c0-20.2-12.8-37.8-31.8-44.2v-11c0-0.9-0.7-1.7-1.7-1.7H76.8
			c-0.9,0-1.7,0.7-1.7,1.7v11.4c-7.8,6.2-12.4,15.7-12.4,25.7v64.7C62.8,113.3,66,116.4,69.8,116.4z M78.6,9.3h12.6v8.8H78.6V9.3z
			 M66.1,44.8c0-9,4.1-17.6,11.2-23.1h15c18.3,5.5,30.5,22.1,30.5,41.2v46.4c0,2.1-1.7,3.6-3.6,3.6H69.8c-2.1,0-3.6-1.7-3.6-3.6
			V44.8z"/>
		<path class="st0" d="M75.4,105.4h38c0.9,0,1.7-0.7,1.7-1.7V80.4c0-0.9-0.7-1.7-1.7-1.7h-38c-0.9,0-1.7,0.7-1.7,1.7v23.5
			C73.9,104.7,74.6,105.4,75.4,105.4z M77.2,81.9h34.5v20H77.2V81.9z"/>
		<path class="st0" d="M110.3,58.8c2.4,0,4.1-1.6,4.3-4.1c0.7-8.3-13.8-24.8-21.9-24.8c-1,0-2.1,0.3-2.9,1
			C83.2,36.5,101,58.8,110.3,58.8z M92.2,33.4c0.2-0.2,0.5-0.2,0.7-0.2c6,0,19,14.8,18.5,21.2c0,0.9-0.3,1-1,1
			c-2.2,0-7.1-2.9-11.9-8.5C92.5,40.2,91,34.3,92.2,33.4z"/>
	</g>
</g>
</svg>
