<?xml version="1.0" encoding="utf-8"?>
<!-- Generator: Adobe Illustrator 23.0.2, SVG Export Plug-In . SVG Version: 6.00 Build 0)  -->
<svg version="1.1" id="Layer_1" xmlns="http://www.w3.org/2000/svg" xmlns:xlink="http://www.w3.org/1999/xlink" x="0px" y="0px"
	 viewBox="0 0 142 120" style="enable-background:new 0 0 142 120;" xml:space="preserve">
<style type="text/css">
	.st0{fill:#287AA0;}
</style>
<g>
	<path class="st0" d="M90.9,117.4H19.4c-1,0-1.8-0.8-1.8-1.8v-12.5c0-1,0.8-1.8,1.8-1.8h26.8V54.9H19.4c-1,0-1.8-0.8-1.8-1.8V40.5
		c0-1,0.8-1.8,1.8-1.8h71.5c1,0,1.8,0.8,1.8,1.8v12.5c0,1-0.8,1.8-1.8,1.8H64.1v46.5h26.8c1,0,1.8,0.8,1.8,1.8v12.5
		C92.7,116.6,91.9,117.4,90.9,117.4z M21.1,113.9h67.9v-8.9H62.3c-1,0-1.8-0.8-1.8-1.8V53.1c0-1,0.8-1.8,1.8-1.8h26.8v-8.9H21.1v8.9
		H48c1,0,1.8,0.8,1.8,1.8v50.1c0,1-0.8,1.8-1.8,1.8H21.1V113.9z"/>
	<path class="st0" d="M90.9,42.3c-1,0-1.8-0.8-1.8-1.8c0-0.5,0.2-0.9,0.5-1.3l32.7-32.7H55.9L20.6,41.8c-0.8,0.6-1.9,0.6-2.5-0.2
		c-0.6-0.7-0.6-1.7,0-2.3L53.9,3.5C54.2,3.2,54.6,3,55.1,3h71.5c1,0,1.8,0.8,1.8,1.8c0,0.5-0.2,0.9-0.5,1.3L92.2,41.8
		C91.8,42.2,91.4,42.3,90.9,42.3z"/>
	<path class="st0" d="M19.4,104.9c-1,0-1.8-0.8-1.8-1.8c0-0.5,0.2-0.9,0.5-1.3l28.6-28.6c0.8-0.6,1.9-0.6,2.5,0.2
		c0.6,0.7,0.6,1.7,0,2.3l-28.6,28.6C20.3,104.7,19.8,104.9,19.4,104.9z"/>
	<path class="st0" d="M90.9,54.9c-1,0-1.8-0.8-1.8-1.8c0-0.5,0.2-0.9,0.5-1.3l35.2-35.2V4.8c0-1,0.8-1.8,1.8-1.8s1.8,0.8,1.8,1.8
		v12.5c0,0.5-0.2,0.9-0.5,1.3L92.2,54.3C91.8,54.7,91.4,54.9,90.9,54.9z"/>
	<path class="st0" d="M98,69.2c-1,0-1.8-0.8-1.8-1.8V45.9c0-1,0.8-1.8,1.8-1.8s1.8,0.8,1.8,1.8v21.5C99.8,68.4,99,69.2,98,69.2z"/>
	<path class="st0" d="M94.5,72.7c-1,0-1.8-0.8-1.8-1.8c0-0.5,0.2-0.9,0.5-1.3l3.6-3.6c0.8-0.6,1.9-0.6,2.5,0.2
		c0.6,0.7,0.6,1.7,0,2.3l-3.6,3.6C95.4,72.5,94.9,72.7,94.5,72.7z"/>
	<path class="st0" d="M87.3,79.9c-1,0-1.8-0.8-1.8-1.8c0-0.5,0.2-0.9,0.5-1.3l1.8-1.8c0.8-0.6,1.9-0.6,2.5,0.2
		c0.6,0.7,0.6,1.7,0,2.3l-1.8,1.8C88.2,79.7,87.8,79.9,87.3,79.9z"/>
	<path class="st0" d="M62.3,104.9c-1,0-1.8-0.8-1.8-1.8c0-0.5,0.2-0.9,0.5-1.3l19.7-19.7c0.8-0.6,1.9-0.6,2.5,0.2
		c0.6,0.7,0.6,1.7,0,2.3l-19.7,19.7C63.2,104.7,62.7,104.9,62.3,104.9z"/>
	<path class="st0" d="M90.9,117.4c-1,0-1.8-0.8-1.8-1.8c0-0.5,0.2-0.9,0.5-1.3l35.2-35.2V67.4c0-1,0.8-1.8,1.8-1.8s1.8,0.8,1.8,1.8
		v12.5c0,0.5-0.2,0.9-0.5,1.3l-35.8,35.8C91.8,117.3,91.4,117.4,90.9,117.4z"/>
	<path class="st0" d="M90.9,104.9c-1,0-1.8-0.8-1.8-1.8c0-0.5,0.2-0.9,0.5-1.3l32.7-32.7H98c-1,0-1.8-0.8-1.8-1.8s0.8-1.8,1.8-1.8
		h28.6c1,0,1.8,0.8,1.8,1.8c0,0.5-0.2,0.9-0.5,1.3l-35.8,35.8C91.8,104.7,91.4,104.9,90.9,104.9z"/>
</g>
</svg>
