<?xml version="1.0" encoding="utf-8"?>
<!-- Generator: Adobe Illustrator 23.0.2, SVG Export Plug-In . SVG Version: 6.00 Build 0)  -->
<svg version="1.1" id="Layer_1" xmlns="http://www.w3.org/2000/svg" xmlns:xlink="http://www.w3.org/1999/xlink" x="0px" y="0px"
	 viewBox="0 0 142 120" style="enable-background:new 0 0 142 120;" xml:space="preserve">
<style type="text/css">
	.st0{fill:#287AA0;}
</style>
<g>
	<path class="st0" d="M20,57.8v21.7c0,5.6,4.5,10.1,10.1,10.1h24.2c5.6,0,10.1-4.5,10.1-10.1V57.8c0-5.6-4.5-10.1-10.1-10.1H30.1
		C24.5,47.7,20,52.2,20,57.8z M42.2,52.6h4.9V61l-4.9,3.6V52.6z M59.5,57.7v21.9c0,2.8-2.3,5.1-5.1,5.1H30c-2.8,0-5.1-2.3-5.1-5.1
		V57.7c0-2.8,2.3-5.1,5.1-5.1h7.3v17.2c0,1,0.6,1.9,1.4,2.3c0.4,0.2,0.7,0.3,1.1,0.3c0.6,0,1.1-0.2,1.6-0.5l9.7-7.6
		c0.6-0.5,1-1.2,1-2v-9.6h2.3C57.2,52.6,59.5,54.9,59.5,57.7z"/>
	<path class="st0" d="M81.9,89.6h26.6c5.6,0,10.1-4.5,10.1-10.1V57.8c0-5.6-4.5-10.1-10.1-10.1H81.9c-5.6,0-10.1,4.5-10.1,10.1v21.7
		C71.8,85.1,76.3,89.6,81.9,89.6z M94,52.6h4.9v8.5L94,65.2V52.6z M76.7,57.7c0-2.8,2.3-5.1,5.1-5.1h7.3v17.2c0,0.9,0.5,1.8,1.3,2.2
		c0.3,0.2,0.7,0.3,1.1,0.3c0.5,0,0.9-0.2,1.3-0.5l10.1-7.6c0.6-0.5,1-1.2,1-2v-9.7h4.8c2.8,0,5.1,2.3,5.1,5.1v21.9
		c0,2.8-2.3,5.1-5.1,5.1H81.8c-2.8,0-5.1-2.3-5.1-5.1V57.7z"/>
	<path class="st0" d="M91.5,32.6V10.9c0-5.6-4.5-10.1-10.1-10.1H54.8c-5.6,0-10.1,4.5-10.1,10.1v21.7c0,5.6,4.5,10.1,10.1,10.1h26.6
		C87,42.7,91.5,38.2,91.5,32.6z M66.9,5.7h4.9v7.6l-4.9,4.1V5.7z M49.6,32.7V10.8c0-2.8,2.3-5.1,5.1-5.1h7.3v16.4
		c0,0.9,0.5,1.8,1.3,2.2c0.3,0.2,0.7,0.3,1.1,0.3c0.5,0,0.9-0.2,1.3-0.5l10.1-7.6c0.6-0.5,1-1.2,1-2V5.7h4.8c2.8,0,5.1,2.3,5.1,5.1
		v21.9c0,2.8-2.3,5.1-5.1,5.1H54.7C51.9,37.8,49.6,35.5,49.6,32.7z"/>
	<path class="st0" d="M16.1,114.3c-1.4,0-2.6,1.1-2.6,2.5c0,1.4,1.1,2.5,2.6,2.5h105.3c1.4,0,2.6-1.1,2.6-2.5c0-1.4-1.1-2.5-2.6-2.5
		h-15.1V99.5h15.1c1.4,0,2.6-1.1,2.6-2.5c0-1.4-1.1-2.5-2.6-2.5H16.1c-1.4,0-2.6,1.1-2.6,2.5c0,1.4,1.1,2.5,2.6,2.5h13.8v14.8H16.1z
		 M34.8,99.5h66.6v14.8H34.8V99.5z"/>
</g>
</svg>
