<?xml version="1.0" encoding="utf-8"?>
<!-- Generator: Adobe Illustrator 23.0.2, SVG Export Plug-In . SVG Version: 6.00 Build 0)  -->
<svg version="1.1" id="Layer_1" xmlns="http://www.w3.org/2000/svg" xmlns:xlink="http://www.w3.org/1999/xlink" x="0px" y="0px"
	 viewBox="0 0 142 120" style="enable-background:new 0 0 142 120;" xml:space="preserve">
<style type="text/css">
	.st0{fill:#287AA0;}
</style>
<g>
	<path class="st0" d="M11.3,119.4h17.7c1.4,0,2.7-1.3,2.7-2.7v-4.1c0-1.4-1.3-2.7-2.7-2.7s-2.7,1.3-2.7,2.7v1.4H14v-1.4
		c0-1.4-1.3-2.7-2.7-2.7s-2.7,1.3-2.7,2.7v4.1C8.7,118.2,9.9,119.4,11.3,119.4z"/>
	<path class="st0" d="M125.8,100.7V80.3l1.9-3c0.8-1.3,0.5-2.8-0.8-3.6l-72.7-49l2.2-15.5c0.2-0.9-0.3-1.9-1.1-2.5l-7.4-5.2
		c-0.8-0.6-1.9-0.6-2.7-0.2c-37.1,17.4-35,46.3-34.9,47.6c0.2,0.8,0.6,1.6,1.4,2l6,3.1l-0.5,57.2h5.3l0.5-57.5l18.2-15.7L60,49.6
		c-0.8,1.6-1.1,3.3-1.1,5.2c0,0.5,0,0.9,0.2,1.4L44,113.9h-7.4c-1.4,0-2.7,1.3-2.7,2.7c0,1.4,1.3,2.7,2.7,2.7h9.4h3.8h42.9h3.9h9.4
		c1.4,0,2.7-1.3,2.7-2.7c0-1.4-1.3-2.7-2.7-2.7h-7.5l-14-49.3l34.6,21.2c0.5,0.3,0.9,0.3,1.4,0.3v14.4h-5.2c-1.4,0-2.7,1.3-2.7,2.7
		V115c0,1.4,1.3,2.7,2.7,2.7H131c1.4,0,2.7-1.3,2.7-2.7v-11.8c0-1.4-1.3-2.7-2.7-2.7h-5.2V100.7z M78.4,54.9c0,3.9-3.3,7.2-7.2,7.2
		S64,58.8,64,54.9s3.3-7.2,7.2-7.2S78.4,50.8,78.4,54.9z M78.6,90.5l-7.2,6.6l-7.7-7.1l7.2-17.6L78.6,90.5z M20.6,36.7
		c-0.5,0.5-0.8,0.9-0.8,1.6l-1.4,10.2L15.7,47c0-5.5,2.2-26.2,30.5-40.4l3.5,2.5L20.6,36.7z M24.1,45.9l0.9-6l25.1-24l-1.3,8.6
		L24.1,45.9z M45.6,34.5l6.1-5.2l19.3,13c-3,0-5.7,1.3-7.9,3L45.6,34.5z M62.5,63.7c1.4,1.4,3.1,2.4,5,3c0,0.2-0.2,0.2-0.2,0.3
		l-15.7,38.5L62.5,63.7z M61.4,95.3l6,5.5l-12.9,11.9L61.4,95.3z M60.7,114.1l10.7-9.9l10.7,9.9H60.7z M75.3,100.7l5.5-5l7.2,16.8
		L75.3,100.7z M90.5,105L74.2,67c1.9-0.5,3.5-1.3,4.9-2.4L90.5,105z M119.7,80L83.4,57.9c0.3-0.9,0.3-1.9,0.3-3c0-1.6-0.3-3-0.8-4.4
		l38.9,26.2L119.7,80z M128.5,112.5h-10.4v-6.6h10.4V112.5z"/>
</g>
</svg>
