<?xml version="1.0" encoding="utf-8"?>
<!-- Generator: Adobe Illustrator 23.0.2, SVG Export Plug-In . SVG Version: 6.00 Build 0)  -->
<svg version="1.1" id="Layer_1" xmlns="http://www.w3.org/2000/svg" xmlns:xlink="http://www.w3.org/1999/xlink" x="0px" y="0px"
	 viewBox="0 0 142 120" style="enable-background:new 0 0 142 120;" xml:space="preserve">
<style type="text/css">
	.st0{fill:#287AA0;}
</style>
<g>
	<path class="st0" d="M77.1,54.5c-0.4-0.7-0.6-1.6-0.6-2.4V12.9H83c1.6,1,2.9-0.3,2.9-2S84.6,8,83,6H32.1c-1.6,2-2.9,3.3-2.9,4.9
		s2.9,2,2.9,2H42V52c0,0.8-0.2,1.7-0.6,2.4l-25,45.6c-1.9,3.5-1.8,7.6,0.3,11c1.8,3,5.2,4.9,8.8,4.9h67.4c3.6,0,7-1.9,8.8-4.9
		c2.1-3.4,2.2-7.5,0.3-11L77.1,54.5z M93.8,110.4c-0.7,1.3-2,2.1-3.4,2.2H28.1c-1.4,0-2.7-0.9-3.4-2.2c-0.9-1.7-1-3.7-0.1-5.4
		l23.2-46.6c0.8-1.6,1.2-3.5,1.2-5.3V12.9h20.6V53c0,1.9,0.4,3.7,1.3,5.3L94,105C94.8,106.7,94.7,108.7,93.8,110.4z"/>
	<path class="st0" d="M59.2,73c-2.4,0-4.3,1.9-4.3,4.3c0,2.4,1.9,4.3,4.3,4.3s4.3-1.9,4.3-4.3l0,0C63.4,75,61.5,73,59.2,73z"/>
	<path class="st0" d="M74.4,88.1c0-2.1-1.7-3.8-3.8-3.8c-2.1,0-3.8,1.7-3.8,3.8c0,2.1,1.7,3.8,3.8,3.8c0,0,0,0,0,0
		C72.7,91.9,74.4,90.2,74.4,88.1z"/>
	<circle class="st0" cx="40" cy="84.3" r="3.1"/>
	<circle class="st0" cx="38.2" cy="97.9" r="4.5"/>
	<circle class="st0" cx="53.2" cy="93.4" r="3.4"/>
	<circle class="st0" cx="58.9" cy="103.9" r="3.1"/>
	<circle class="st0" cx="77.2" cy="99.5" r="4.3"/>
	<path class="st0" d="M122.4,16.3H99.3c-1.7,0.1-3.1,1.8-3,3.7c0.1,1.7,1.4,3.1,3,3.2h1.2V82c-0.1,6,4.1,11.1,9.6,11.6
		c5.7,0.4,10.6-4.3,11-10.5c0-0.3,0-0.5,0-0.8V23.2h1.2c1.7-0.1,3.1-1.8,3-3.7C125.2,17.8,123.9,16.4,122.4,16.3L122.4,16.3z
		 M114.2,47.3h-6.9V23.2h6.9V47.3z"/>
</g>
</svg>
