<?xml version="1.0" encoding="utf-8"?>
<!-- Generator: Adobe Illustrator 23.0.2, SVG Export Plug-In . SVG Version: 6.00 Build 0)  -->
<svg version="1.1" id="Layer_1" xmlns="http://www.w3.org/2000/svg" xmlns:xlink="http://www.w3.org/1999/xlink" x="0px" y="0px"
	 viewBox="0 0 142 120" style="enable-background:new 0 0 142 120;" xml:space="preserve">
<style type="text/css">
	.st0{fill:#287AA0;}
</style>
<g>
	<path class="st0" d="M26.8,101.5c-1.3,0-2.4,1.1-2.4,2.4v9.6h-7c-1.3,0-2.4,1.1-2.4,2.4s1.1,2.4,2.4,2.4H129c1.3,0,2.4-1.1,2.4-2.4
		s-1.1-2.4-2.4-2.4h-16.3v-11c0-1.3-1.1-2.4-2.4-2.4h-5.5l-6.7-61.5c0-0.2-0.1-0.5-0.2-0.7c0.8-0.8,1.5-1.8,1.9-3H129
		c1.3,0,2.4-1.1,2.4-2.4c0-1.3-1.1-2.4-2.4-2.4H99.8c-1-2.9-3.2-4.6-5.8-5.1c-1.7-0.3-3.4,0-4.8,0.7l-23-23c-0.9-0.9-2.5-0.9-3.4,0
		c-0.9,0.9-0.9,2.5,0,3.4l23,23c-0.3,0.6-0.6,1.3-0.7,2c-0.3,1.6-0.1,3.3,0.7,4.8l-23,23c-0.9,0.9-0.9,2.5,0,3.4
		c0.9,0.9,2.5,0.9,3.4,0l20.5-20.5l-6.4,58.3h-5.5c-1.3,0-2.4,1.1-2.4,2.4v11H61.2v-9.6c0-1.3-1.1-2.4-2.4-2.4H54l-6-55.3
		c0-0.2-0.1-0.4-0.2-0.6c1-0.8,1.8-1.9,2.2-3.1h27c1.3,0,2.4-1.1,2.4-2.4s-1.1-2.4-2.4-2.4H50c-0.8-2.3-2.8-4.1-5.3-4.5
		c-1.5-0.3-3-0.1-4.3,0.6L19.1,12.4c-0.9-0.9-2.5-0.9-3.4,0c-0.9,0.9-0.9,2.5,0,3.4l21.3,21.2c-0.2,0.5-0.4,1.1-0.6,1.7
		c-0.3,1.5-0.1,3,0.6,4.3L15.7,64.3c-0.9,0.9-0.9,2.5,0,3.4c0.9,0.9,2.5,0.9,3.4,0l18.1-18.1l-5.7,51.8H26.8z M93.1,29.8
		c1.5,0.3,2.5,1.7,2.2,3.2c-0.3,1.5-1.7,2.5-3.2,2.2c-1.5-0.3-2.5-1.7-2.2-3.2C90.1,30.5,91.5,29.5,93.1,29.8z M91.8,40.1
		c0.3,0,0.5,0.1,0.8,0.1c0.3,0,0.5,0,0.8-0.1l6.6,60.1H85.2L91.8,40.1z M77.3,105h5.2h20.1h5.2v8.5H77.3L77.3,105L77.3,105z
		 M56.3,113.6H29.2v-7.2h4.5h18.2h4.5L56.3,113.6z M43.8,37.9c1.2,0.2,2,1.4,1.8,2.6c-0.2,1.2-1.4,2-2.6,1.8c-1.2-0.2-2-1.4-1.8-2.6
		C41.4,38.5,42.5,37.7,43.8,37.9z M42.3,47.1c0.3,0,0.6,0.1,0.9,0.1l5.9,54.3H36.4L42.3,47.1z"/>
</g>
</svg>
