<?xml version="1.0" encoding="utf-8"?>
<!-- Generator: Adobe Illustrator 23.0.2, SVG Export Plug-In . SVG Version: 6.00 Build 0)  -->
<svg version="1.1" id="Layer_1" xmlns="http://www.w3.org/2000/svg" xmlns:xlink="http://www.w3.org/1999/xlink" x="0px" y="0px"
	 viewBox="0 0 142 120" style="enable-background:new 0 0 142 120;" xml:space="preserve">
<style type="text/css">
	.st0{fill:#287AA0;}
</style>
<g>
	<path class="st0" d="M93.2,77.5c4,0,8.4-3.1,9.7-6.9l2-5.9c0.2-0.6,0.1-1.3-0.3-1.8c-0.4-0.5-1-0.8-1.6-0.8H39
		c-0.6,0-1.2,0.3-1.6,0.8C37,63.3,36.8,64,37,64.6l1.9,5.9c1.3,3.8,5.6,7,9.6,7H93.2z M41.7,70.6l-1.1-3.5h60.8l-1.2,3.5
		c-0.8,2.3-3.5,4.3-6,4.3H47.6C45.2,74.9,42.5,73,41.7,70.6z"/>
	<path class="st0" d="M132.9,55.4c-1.5-1.5-7.5-6.3-7.5-6.3h5.4c3.9,0,7-2.9,7-6.4c0-3.8-3.9-6.4-9.6-6.4h-5.1
		c-0.8-4.1-1.8-8.5-2.6-10.8C117.6,17.8,111.7,13,105,13H37.2c-6.8,0-13.1,5-15.7,12.4c-0.8,2.3-1.7,6.7-2.5,10.8h-5.2
		c-5.7,0-9.6,2.6-9.6,6.4c0,3.5,3.1,6.4,7,6.4h6.9c-0.1,0-0.2,0.2-0.3,0.3c-0.8,0.6-1,1.9-0.4,2.7c0.4,0.5,1,0.7,1.5,0.7
		c0.4,0,0.8-0.1,1.2-0.4c0.8-0.6,1.4-1.1,1.9-1.4c4.1,0.4,26.4,2.7,48.6,2.7c22,0,45.1-2.2,49.6-2.7c2.3,1.7,7,5.2,8.4,6.7
		c1.5,1.5,2.6,3.2,3.2,4.8c-2.8,0-8.5,0-10.3,0c-5.7,0.1-10,2.2-12.6,6c-1.9,2.7-1.9,6.6-1.9,7c0,1.1,0.9,1.9,1.9,1.9h23.9v5.8
		c0,5.4-4.3,9.7-9.7,9.7H16.3c-5.4,0-9.7-4.3-9.7-9.7v-5.7h25.6c0,0,2,0.1,2-1c0-0.4-0.1-4.4-2-7.2c-2.7-3.9-7.1-6-12.9-6.1
		c-1.8,0-7.5,0-10.5,0c0.8-1.9,2-3.7,3.3-5c0.8-0.8,0.8-2,0-2.8c-0.8-0.8-2-0.8-2.8,0C6.7,57.9,4,62.4,4,66.3v18
		c0,5.9,3.7,10.9,10.3,12.8v10c-1.3,2.7,3.5,3.9,3.5,3.9h9.5c2.8,0,5-2.3,5-5v-7.9h77.3v7.9c0,2.8,2.3,5,5,5h9.5
		c0,0,4.8-1.2,3.5-3.9v-10c6.6-1.9,10.3-7,10.3-12.8v-18C138,62.8,136.1,58.7,132.9,55.4z M128.4,41.4c3-0.5,5.3,0.5,5.3,1.7
		c0,1.2-1.3,2.3-2.8,3.4h-7.6c-0.2-2.6-0.5-4-0.8-5.2H128.4z M8.3,43.1c0-1.3,2.3-2.3,5.3-1.7h5.9c-0.3,1.2-0.6,2.6-0.8,5.2h-7.6
		C9.6,45.4,8.3,44.3,8.3,43.1z M70.5,50c-20.7,0-41.6-1.9-48.1-2.6c0.8-4.6,2.8-15.7,4.1-19.8C28.4,22,33,18.2,38,18.2h66.1
		c4.8,0,9.2,3.7,11.4,9.5c1.5,4,3.4,15,4.1,19.6C113,48,91.3,50,70.5,50z M20.3,67.5c4.6,0.1,7.8,1.5,9.8,4.4c0.6,0.8,0.9,2.1,1.1,3
		h-22v-7.4C11.8,67.5,18.4,67.5,20.3,67.5z M26.1,108.4H18c-0.6,0-1.1-0.5-1.1-1.1v-9.3c0,0,0.4,0,0.6,0h9.7v9.3
		C27.2,107.9,26.7,108.4,26.1,108.4z M125.1,107.1c-0.1,0.5-0.4,1.1-1,1.3h-9.8c-0.5-0.2-1-0.8,0.4-1.3v-9h9.5
		c0.3-0.1,0.7-0.1,0.8-0.1V107.1z M110.8,74.9c0.2-0.8,0.5-2.2,1.1-3c2-2.9,5.2-4.3,9.8-4.4c1.9,0,8.6,0,11.1,0v7.4H110.8z"/>
	<path class="st0" d="M51.8,80c-1.1,1.8-2,2.7-2,3.8s0.9,2,2,1.4h38.4c1.1,0.6,2-0.3,2-1.4s-0.9-2-2-3.8H51.8z"/>
</g>
</svg>
