<?xml version="1.0" encoding="utf-8"?>
<!-- Generator: Adobe Illustrator 23.0.2, SVG Export Plug-In . SVG Version: 6.00 Build 0)  -->
<svg version="1.1" id="Layer_1" xmlns="http://www.w3.org/2000/svg" xmlns:xlink="http://www.w3.org/1999/xlink" x="0px" y="0px"
	 viewBox="0 0 142 120" style="enable-background:new 0 0 142 120;" xml:space="preserve">
<style type="text/css">
	.st0{fill:#287AA0;}
</style>
<g>
	<path class="st0" d="M131.1,54.6c-0.5-7.4-1.5-19.5-1.6-20.1l-0.1-1.4l-1.3-0.6c-0.6-0.3-6-2.5-9.7-2.5c-0.7,0-1.2,0.1-1.7,0.2
		c-4.1,1-6,6-6.2,6.5l-2.9,14.6l-0.1,0.3l0.1,0.4c0,0,0,0.3-0.2,0.5c-0.2,0.2-0.9,0.8-3.4,0.8c-0.3,0-0.6,0-0.9,0
		C96.2,53,74.2,51.3,69.7,51c-7-6.6-18.1-9-26.2-9.8c-9.6-1-18.8,8.3-19.2,8.7c-0.1,0.1-0.1,0.2-0.2,0.3c-4,0.6-10.8,2.3-13.6,3.1
		l0.7-15.3c0.1-1.3-0.9-2.4-2.2-2.5c-1.3-0.1-2.4,0.9-2.5,2.2L5.7,54c-1.8,0-4.6,2.1-4.7,3.5C1,59,3.6,61.5,5.4,61.8L4.6,78.3
		c-0.1,1.3,0.9,2.4,2.2,2.5c0,0,0.1,0,0.1,0c1.3,0,2.3-1,2.4-2.3l0.5-10.2c0.7,1,1.6,2,3,2.8c0.1,0.1,0.8,0.5,2,1l-0.4,8.7
		c-1.2,0.7-2.1,1.9-2.1,3.4c-0.1,2.3,1.7,4.3,4.1,4.4l0.3,0c2.3,0,4.2-1.7,4.3-4c0.1-1.5-0.7-2.8-1.8-3.6l0.3-7
		c5.2,1.9,13.2,4.1,22.5,4.1l0.7,0c1.1,0,2.4-0.1,4-0.2l3.2,4.4c-0.3,0.6-0.5,1.3-0.5,2.1c-0.1,3.2,2.3,5.9,5.4,6.1
		c0.1,0,0.3,0,0.4,0c3,0,5.5-2.4,5.6-5.5c0.1-3.2-2.3-5.9-5.4-6.1c-0.7-0.1-1.3,0-2,0.2l-1.3-1.8c22.7-2.4,69.2-10.2,73.1-10.9
		c0.1,0,0.3,0,0.5,0c1,0,2,0.1,3,0.1c3.9,0,10.3,0,10.6-5.4C139.5,57.3,136.5,55.6,131.1,54.6z M114.9,38.2c0.4-1.1,1.6-3.1,2.9-3.4
		c0.1,0,0.3-0.1,0.6-0.1c1.8,0,4.7,0.9,6.6,1.6c0.3,3.4,1,11.8,1.4,17.7c-0.7-0.1-1.5-0.1-2.2-0.2c-1.9-0.1-3.7-0.2-5.4-0.2
		c-2.1,0-4.9,0-7.1,0.8c0.4-0.9,0.6-1.8,0.6-2.6L114.9,38.2z M43,45.8c5.8,0.6,16.1,2.4,22.6,7.8c-0.9,0.5-2.5,0.9-5.1,0.7
		c-7.3-0.5-26.8-1.5-29.3-1.6c-0.7-0.2-1.4-0.5-1.8-0.7v-0.3C32.3,49,37.9,45.3,43,45.8z M42.6,73.3l-0.6,0
		c-15.3,0-26.8-6.4-26.9-6.4c-1.3-0.7-2-2.3-2.2-2.8l-0.4-6.6c4.3-1.1,10.1-2.5,12.8-2.8c1.1,1.4,3.3,2.2,4.8,2.6l0.5,0.1
		c0.2,0,21.7,1.1,29.5,1.6c0.6,0,1.1,0.1,1.6,0.1c4.9,0,7.3-1.8,8.4-3.4c5.8,0.4,26.2,2,32.7,2.4c0.4,0,0.8,0,1.1,0
		c1.8,0,3.3-0.3,4.5-0.8c-0.2,0.5-0.3,1.1-0.3,1.7c-0.1,2.3,1,3.9,3.1,4.9C90.7,67.3,52.9,73.2,42.6,73.3z M128.7,61.7
		c-1.5,0-3.3-0.1-5.1-0.2c-6-0.4-10.9-1.5-10.8-2.3c0-0.6,2.4-0.9,5.9-0.9c1.5,0,3.3,0.1,5.1,0.2c6,0.4,10.9,1.5,10.8,2.3
		C134.6,61.4,132.2,61.7,128.7,61.7z"/>
	<path class="st0" d="M50.6,61.1c-1.3,0-2.6-0.1-3.9-0.1c-12.3,0-13.2,1.3-13.2,3.5c0,1.9-0.1,3.8,16.9,4.3c1.4,0,2.7,0.1,3.9,0.1
		c12.2,0,13.2-1.3,13.2-3.5C67.5,63.5,67.6,61.6,50.6,61.1z"/>
</g>
</svg>
