<?xml version="1.0"?>
<svg xmlns="http://www.w3.org/2000/svg" height="512px" viewBox="0 -16 480 480" width="512px" class=""><g><path d="m224 376c-13.253906 0-24 10.746094-24 24s10.746094 24 24 24 24-10.746094 24-24-10.746094-24-24-24zm0 32c-4.417969 0-8-3.582031-8-8s3.582031-8 8-8 8 3.582031 8 8-3.582031 8-8 8zm0 0" data-original="#000000" class="active-path" data-old_color="#000000" fill="#287AA0"/><path d="m160 376c-13.253906 0-24 10.746094-24 24s10.746094 24 24 24 24-10.746094 24-24-10.746094-24-24-24zm0 32c-4.417969 0-8-3.582031-8-8s3.582031-8 8-8 8 3.582031 8 8-3.582031 8-8 8zm0 0" data-original="#000000" class="active-path" data-old_color="#000000" fill="#287AA0"/><path d="m288 376c-13.253906 0-24 10.746094-24 24s10.746094 24 24 24 24-10.746094 24-24-10.746094-24-24-24zm0 32c-4.417969 0-8-3.582031-8-8s3.582031-8 8-8 8 3.582031 8 8-3.582031 8-8 8zm0 0" data-original="#000000" class="active-path" data-old_color="#000000" fill="#287AA0"/><path d="m352 376c-13.253906 0-24 10.746094-24 24s10.746094 24 24 24 24-10.746094 24-24-10.746094-24-24-24zm0 32c-4.417969 0-8-3.582031-8-8s3.582031-8 8-8 8 3.582031 8 8-3.582031 8-8 8zm0 0" data-original="#000000" class="active-path" data-old_color="#000000" fill="#287AA0"/><path d="m416 376c-13.253906 0-24 10.746094-24 24s10.746094 24 24 24 24-10.746094 24-24-10.746094-24-24-24zm0 32c-4.417969 0-8-3.582031-8-8s3.582031-8 8-8 8 3.582031 8 8-3.582031 8-8 8zm0 0" data-original="#000000" class="active-path" data-old_color="#000000" fill="#287AA0"/><path d="m432 352h-32v-56c0-4.417969-3.582031-8-8-8h-80c-4.417969 0-8 3.582031-8 8v56h-16v-56c0-4.417969-3.582031-8-8-8h-80c-4.417969 0-8 3.582031-8 8v56h-96.265625l-7.671875-230.175781 58.128906-58.054688c6.929688-.445312 13.519532-3.175781 18.730469-7.769531h163.078125v112c0 4.417969 3.582031 8 8 8h8v8c-1.578125.003906-3.125.46875-4.441406 1.34375l-24 16c-2.222656 1.484375-3.558594 3.980469-3.558594 6.65625v32c0 2.121094.84375 4.15625 2.34375 5.65625l16 16 11.3125-11.3125-13.65625-13.65625v-24.40625l18.398438-12.28125h10.265624l19.335938 19.3125v17.375l-13.65625 13.65625 11.3125 11.3125 16-16c1.5-1.5 2.34375-3.535156 2.34375-5.65625v-24c0-2.121094-.84375-4.15625-2.34375-5.65625l-24-24c-1.5-1.5-3.535156-2.34375-5.65625-2.34375v-8h8c4.417969 0 8-3.582031 8-8v-115.097656c5.128906-5.753906 7.976562-13.191406 8-20.902344 0-17.671875-14.328125-32-32-32-7.714844.0195312-15.160156 2.867188-20.921875 8h-166.175781c-5.753906-5.128906-13.191406-7.9765625-20.902344-8-16.785156.0429688-30.671875 13.074219-31.777344 29.824219l-58.320312 58.398437c-16.613282 1.070313-29.617188 14.734375-29.863282 31.386719v.144531l-7.773437 232.246094h-8.265625c-4.417969 0-8 3.582031-8 8v80c0 4.417969 3.582031 8 8 8h424c26.507812 0 48-21.492188 48-48s-21.492188-48-48-48zm-72-48v16h-16v-16zm-40 0h8v24c0 4.417969 3.582031 8 8 8h32c4.417969 0 8-3.582031 8-8v-24h8v48h-64zm-72 0v16h-16v-16zm-40 0h8v24c0 4.417969 3.582031 8 8 8h32c4.417969 0 8-3.582031 8-8v-24h8v48h-64zm152-144h-16v-97.015625c.472656.121094.953125.175781 1.433594.273437.476562.09375.917968.191407 1.382812.261719 1.625.277344 3.269532.429688 4.917969.457031l.265625.023438h.265625c1.640625-.023438 3.28125-.175781 4.902344-.449219.480469-.078125.953125-.175781 1.425781-.269531.46875-.097656.941406-.152344 1.40625-.273438zm8-128c.03125 4.5625-1.929688 8.910156-5.367188 11.902344-4.488281 3.886718-10.734374 5.027344-16.304687 2.976562-1.859375-.6875-3.574219-1.71875-5.046875-3.046875-.511719-.449219-1.035156-.976562-1.265625-1.199219-2.613281-2.921874-4.046875-6.710937-4.015625-10.632812.011719-3.976562 1.503906-7.808594 4.183594-10.742188 2.992187-3.378906 7.304687-5.296874 11.816406-5.257812 8.835938 0 16 7.164062 16 16zm-46.984375-8c-.121094.480469-.175781.96875-.28125 1.449219-.101563.480469-.183594.878906-.253906 1.328125-.300781 1.722656-.460938 3.472656-.480469 5.222656.019531 1.765625.179688 3.523438.480469 5.265625.070312.429687.152343.855469.238281 1.277344.089844.425781.160156.976562.28125 1.457031h-146.015625c.121094-.472656.175781-.96875.28125-1.449219.101563-.480469.183594-.878906.253906-1.335937.300781-1.722656.460938-3.464844.480469-5.214844-.015625-1.746094-.175781-3.488281-.480469-5.207031-.070312-.457031-.167969-.914063-.261719-1.367188-.097656-.457031-.152343-.953125-.273437-1.425781zm-177.015625-8c4.5625-.03125 8.910156 1.929688 11.902344 5.367188 4.136718 4.683593 5.183594 11.335937 2.683594 17.0625-2.496094 5.726562-8.085938 9.488281-14.328126 9.640624-.386718-.078124-.777343-.125-1.167968-.140624-8.109375-.433594-14.585938-6.910157-15.019532-15.019532.007813-.304687-.015624-.609375-.070312-.910156 0-8.835938 7.164062-16 16-16zm-27.609375 32.296875c.152344.253906.386719.445313.539063.703125 2.542968 4.082031 5.988281 7.527344 10.070312 10.070312.257812.152344.449219.386719.703125.539063l-44.152344 44.09375c-.152343-.253906-.382812-.445313-.535156-.703125-1.230469-2.019531-2.683594-3.898438-4.328125-5.601562l-.101562-.101563c-1.703126-1.644531-3.582032-3.097656-5.601563-4.328125-.257813-.152344-.449219-.382812-.703125-.535156zm-60.328125 55.703125c.289062.046875.582031.078125.875.097656 8.304688.484375 14.855469 7.253906 15.0625 15.574219h.054688c0 .105469-.054688.191406-.054688.296875 0 6.476562-3.90625 12.316406-9.890625 14.789062-5.988281 2.472657-12.875 1.089844-17.445313-3.5-4.570312-4.589843-5.925781-11.480468-3.425781-17.457031 2.496094-5.976562 8.347657-9.859375 14.824219-9.832031zm-16.957031 43.199219c1.25.777343 2.5625 1.453125 3.917969 2.023437 1.222656.507813 2.476562.941406 3.753906 1.296875.160156 0 .3125.097657.46875.144531 2.84375.851563 5.789062 1.300782 8.753906 1.335938 2.96875-.042969 5.914062-.503906 8.753906-1.367188.15625-.046874.308594-.105468.46875-.144531 1.277344-.355469 2.53125-.789062 3.753906-1.296875 1.355469-.570312 2.667969-1.246094 3.917969-2.023437l6.832031 204.832031h-47.453124zm-23.105469 220.800781h80v64h-80zm416 64h-320v-64h320c17.671875 0 32 14.328125 32 32s-14.328125 32-32 32zm0 0" data-original="#000000" class="active-path" data-old_color="#000000" fill="#287AA0"/><path d="m50.320312 125.679688c3.15625 3.09375 8.203126 3.09375 11.359376 0 .703124-.777344 1.273437-1.671876 1.679687-2.640626.851563-1.9375.851563-4.140624 0-6.078124-.386719-.980469-.957031-1.875-1.679687-2.640626-.382813-.34375-.78125-.664062-1.199219-.960937-.445313-.300781-.929688-.542969-1.441407-.71875-.453124-.230469-.9375-.390625-1.4375-.480469-2.636718-.539062-5.367187.273438-7.28125 2.160156-.722656.765626-1.292968 1.660157-1.679687 2.640626-.855469 1.9375-.855469 4.140624 0 6.078124.40625.96875.976563 1.863282 1.679687 2.640626zm0 0" data-original="#000000" class="active-path" data-old_color="#000000" fill="#287AA0"/><path d="m138.320312 37.679688c.777344.707031 1.671876 1.273437 2.640626 1.679687 1.9375.855469 4.140624.855469 6.078124 0 .96875-.40625 1.863282-.976563 2.640626-1.679687.703124-.777344 1.273437-1.671876 1.679687-2.640626.410156-.960937.628906-1.992187.640625-3.039062-.011719-.511719-.066406-1.019531-.167969-1.519531-.066406-.53125-.226562-1.046875-.472656-1.519531-.179687-.511719-.421875-.996094-.71875-1.449219l-.960937-1.191407c-3.207032-2.960937-8.152344-2.960937-11.359376 0-.34375.378907-.664062.777344-.960937 1.191407-.300781.449219-.542969.9375-.71875 1.449219-.246094.476562-.40625.988281-.480469 1.519531-.09375.5-.148437 1.007812-.160156 1.519531.011719 1.046875.230469 2.078125.640625 3.039062.40625.96875.976563 1.863282 1.679687 2.640626zm0 0" data-original="#000000" class="active-path" data-old_color="#000000" fill="#287AA0"/><path d="m346.320312 37.679688c.777344.707031 1.671876 1.273437 2.640626 1.679687 2.957031 1.21875 6.355468.558594 8.640624-1.679687 1.554688-1.476563 2.421876-3.535157 2.398438-5.679688-.011719-.511719-.066406-1.019531-.167969-1.519531-.066406-.53125-.226562-1.046875-.472656-1.519531-.179687-.511719-.421875-.996094-.71875-1.449219-.328125-.414063-.671875-.8125-1.039063-1.191407-3.179687-2.960937-8.105468-2.960937-11.28125 0-.34375.378907-.664062.777344-.960937 1.191407-.300781.449219-.542969.9375-.71875 1.449219-.246094.476562-.40625.988281-.480469 1.519531-.09375.5-.148437 1.007812-.160156 1.519531-.027344 1.050781.191406 2.089844.640625 3.039062.40625.96875.976563 1.863282 1.679687 2.640626zm0 0" data-original="#000000" class="active-path" data-old_color="#000000" fill="#287AA0"/></g> </svg>
