<?xml version="1.0" encoding="utf-8"?>
<!-- Generator: Adobe Illustrator 23.0.2, SVG Export Plug-In . SVG Version: 6.00 Build 0)  -->
<svg version="1.1" id="Layer_1" xmlns="http://www.w3.org/2000/svg" xmlns:xlink="http://www.w3.org/1999/xlink" x="0px" y="0px"
	 viewBox="0 0 142 120" style="enable-background:new 0 0 142 120;" xml:space="preserve">
<style type="text/css">
	.st0{fill:#287AA0;}
</style>
<g>
	<path class="st0" d="M87.9,70.7c-12.8,0-24.5,21.8-24.5,21.8l-19.9,0c-9,0-17-6.4-18.1-15.3c-1.3-10.6,7-19.7,17.4-19.7h35v-5
		l-35.4,0c-10.5,0-20.1,7-22.5,17.2c-3.4,14.7,7.8,27.8,21.9,27.8h21.6c0,0,11.7,22.5,24.5,22.5c13.6,0,24.7-11.1,24.7-24.7
		S101.5,70.7,87.9,70.7z M87.7,114.3l-4-2L91,97.5H77.6l10.6-21.1l4,2l-7.3,14.1h13.4L87.7,114.3z"/>
	<path class="st0" d="M115.9,25h-3.2v-5h-11c-2.3-4.9-6.7-7.6-11.6-7.5h-2.4V40h2.4c5-0.7,9.3-3.4,11.6-7.5h11v-5h3.2
		c6.8,0.6,12.3,6.1,12.3,12.9s-5.5,12.3-12.3,12.1h-8.2v5h8.2c9.3-0.3,16.8-7.8,16.8-17.1S125.2,23.6,115.9,25z M107.8,27.5h-4.3
		c0.1-0.1,0.2-0.9,0.2-1.6c0-0.8-0.1-1.5-0.2-3.4h4.3V27.5z"/>
	<polygon class="st0" points="72.8,42.5 82.8,42.5 82.8,7.5 72.8,7.5 72.8,15 62.8,15 62.8,20 72.8,20 72.8,32.5 62.8,32.5 
		62.8,37.5 72.8,37.5 	"/>
	<path class="st0" d="M40.5,0h-28c-1.2,0-2.2,1-2.2,2.2v23c0,1.2,1,2.2,2.2,2.2h28c1.2,0,2.2-1,2.2-2.2v-23C42.8,1,41.7,0,40.5,0z
		 M22.8,20h-5V10h5V20z M37.8,20h-5V10h5V20z"/>
	<rect x="80.3" y="52.5" class="st0" width="5" height="5"/>
	<rect x="90.3" y="52.5" class="st0" width="5" height="5"/>
	<rect x="97.8" y="52.5" class="st0" width="5" height="5"/>
</g>
</svg>
