<?xml version="1.0" encoding="utf-8"?>
<!-- Generator: Adobe Illustrator 23.0.2, SVG Export Plug-In . SVG Version: 6.00 Build 0)  -->
<svg version="1.1" id="Capa_1" xmlns="http://www.w3.org/2000/svg" xmlns:xlink="http://www.w3.org/1999/xlink" x="0px" y="0px"
	 viewBox="0 0 512 512" style="enable-background:new 0 0 512 512;" xml:space="preserve">
<style type="text/css">
	.st0{fill:#191919;}
	.st1{fill:#287AA0;}
</style>
<g>
	<path class="st0" d="M463.7,60.5C407.4,60.5,305.1,49,273,6.8c-5.5-8.6-17.4-9.3-23.9-1.2C211.4,47.9,108.7,60.5,48.3,60.5
		c-8.3,0-15,6.7-15,15.1v240.9c0,108.5,124.9,174.8,219.5,195.4c12.2,2.7,225.9-51.5,225.9-195.4V75.6
		C478.7,67.3,472,60.5,463.7,60.5z M448.7,316.5c0,113.1-167.3,158.9-192.7,165.2c-25.3-6.3-192.7-52.1-192.7-165.2v-226
		c115.8-2.7,173.6-36,196.6-54.1c46.3,40.9,127.2,52.7,188.8,54.1V316.5L448.7,316.5z"/>
	<path class="st1" d="M181,195.6v45.7h-15c-8.3,0-15,6.7-15,15.1v120.5c0,8.3,6.7,15.1,15,15.1h180c8.3,0,15-6.7,15-15.1V256.3
		c0-8.3-6.7-15.1-15-15.1H211v-45.7c0-23.5,18.5-44.7,45.4-44.7c24.5,0,44.5,20,44.5,44.7c0,8.3,6.7,15.1,15,15.1s15-6.7,15-15.1
		c0-41.2-33.4-74.8-74.5-74.8C212.8,120.8,181,155.7,181,195.6z M331,361.7H181v-90.3h150V361.7z"/>
	<ellipse class="st1" cx="256" cy="316.5" rx="15" ry="15.1"/>
</g>
</svg>
