<?xml version="1.0" encoding="utf-8"?>
<!-- Generator: Adobe Illustrator 23.0.2, SVG Export Plug-In . SVG Version: 6.00 Build 0)  -->
<svg version="1.1" id="Capa_1" xmlns="http://www.w3.org/2000/svg" xmlns:xlink="http://www.w3.org/1999/xlink" x="0px" y="0px"
	 viewBox="0 0 496 496" style="enable-background:new 0 0 496 496;" xml:space="preserve">
<style type="text/css">
	.st0{fill:#191919;}
	.st1{fill:#287AA0;}
</style>
<path class="st0" d="M279.6,224h115.5c-0.7-2.8-2.1-5.4-3.3-8c-1.2-2.7-2.7-5.3-3.8-8H279.6V224z"/>
<path class="st0" d="M242.9,288.2c1.8,0,3.7-0.1,5.5-0.1c0.6,0,1.2,0,1.8-0.1c0,0,0,0,0-0.1h2.1c0,0,0,0,0.1,0H388
	c2.1-1.8,3.3-4.4,4.4-6.9c1.3-2.9,2.4-6,2.8-9.1H134.4l-2.2,4.6c-11,23.2-29.2,35.4-52.6,35.4c-23,0-44.1-12.5-55.4-32h53.1L88,248
	l-10.7-32H24.2c11.3-19.5,32.3-32,55.4-32c23.5,0,41.7,12.2,52.6,35.4l2.2,4.6h129.2v-16h-12.8c-6.1,0.8-12.2-0.1-18.3-0.2
	c0,0.1-0.1,0.1-0.1,0.2h-33.1c0.1,0.1,0,0.4-0.2,0.4c-6.4,0-12.9,0-19.3-0.4c0,0,0,0-0.1,0h-35.3c-13.9-25.8-36.7-40-64.8-40
	c-33.8,0-64.1,21.4-75.4,53.3L0.4,232h65.4l5.3,16l-5.3,16H0.4l3.8,10.7C15.5,306.6,45.8,328,79.6,328c28,0,50.9-14.2,64.8-40h36.2
	c0,0,0,0,0.1,0c3.6,0,7.1,0,10.7-0.1c1.6,0,3.2,0,4.8-0.1c1.2-0.1,2.2-0.3,3.3,0.3h32.2c0,0,0.1-0.1,0.2-0.1
	C235.5,288.2,239.2,288.2,242.9,288.2z"/>
<path class="st0" d="M319.6,152c-37.7,0-71.2,21.5-86.9,55.3c6,0.1,11.9,0.9,17.9,0.2c14.2-24.4,40.1-39.5,69-39.5
	c29.5,0,55.3,16.1,69.2,40h-0.2c1.2,2.9,2.7,5.8,4.1,8.6c1.1,2.4,2.4,4.8,3,7.4h0.3c2.4,7.6,3.7,15.6,3.7,24s-1.3,16.4-3.7,24h-0.1
	c-0.4,3.3-1.5,6.4-2.9,9.4c-1.1,2.4-2.3,4.9-4.2,6.7c-13.9,23.8-39.6,39.9-69.1,39.9c-28.9,0-54.8-15.1-69-39.5
	c-0.8,0-1.6,0.1-2.4,0.1c-1.8,0-3.5,0-5.3,0.1c-3.5,0-6.9,0-10.3-0.2c15.7,33.9,49.2,55.5,87,55.5c52.9,0,96-43.1,96-96
	C415.6,195.1,372.5,152,319.6,152z"/>
<path class="st1" d="M495.6,288v-80h-37.8c-3-10.2-7-20.1-12.2-29.4l26.7-26.7l-56.6-56.6L389,122c-9.3-5.2-19.2-9.2-29.4-12.2V72
	h-80v37.8c-10.2,3-20.1,7-29.4,12.2l-26.7-26.7l-56.6,56.6l26.7,26.7c-5.1,9.2-9.1,18.9-12,29c5.5,0.2,11.1,0.3,16.6,0.3
	c3.1-9.2,7.1-18.1,12.2-26.4l3.3-5.4l-24.2-24.2l33.9-33.9l24.2,24.2l5.4-3.3c11.3-6.9,23.6-12,36.4-15.1l6.1-1.5V88h48v34.2
	l6.1,1.5c12.9,3.1,25.1,8.2,36.4,15.1l5.4,3.3l24.2-24.2l33.9,33.9L425.3,176l3.3,5.4c6.9,11.3,12,23.6,15.1,36.4l1.5,6.1h34.2v48
	h-34.2l-1.5,6.1c-3.1,12.9-8.2,25.1-15.1,36.4l-3.3,5.4l24.2,24.2l-33.9,33.9l-24.2-24.2L386,357c-11.3,6.9-23.6,12-36.4,15.1
	l-6.1,1.5V408h-48v-34.2l-6.1-1.5c-12.9-3.1-25.1-8.2-36.4-15.1l-5.4-3.3l-24.2,24.2l-33.9-33.9l24.2-24.2l-3.3-5.4
	c-5.1-8.3-9.2-17.2-12.2-26.4c-1.1-0.1-2.3,0.1-3.4,0.2c-1.5,0.1-3,0-4.4,0.1c-2.9,0-5.8,0-8.8,0c2.9,10.1,6.9,19.8,12,29
	l-26.7,26.7l56.6,56.6l26.7-26.7c9.3,5.2,19.2,9.2,29.4,12.2V424h80v-37.8c10.2-3,20.1-7,29.4-12.2l26.7,26.7l56.6-56.6l-26.7-26.7
	c5.2-9.3,9.2-19.2,12.2-29.4H495.6z"/>
</svg>
