<?xml version="1.0" encoding="utf-8"?>
<!-- Generator: Adobe Illustrator 23.0.2, SVG Export Plug-In . SVG Version: 6.00 Build 0)  -->
<svg version="1.1" id="Capa_1" xmlns="http://www.w3.org/2000/svg" xmlns:xlink="http://www.w3.org/1999/xlink" x="0px" y="0px"
	 viewBox="0 0 480 480" style="enable-background:new 0 0 480 480;" xml:space="preserve">
<style type="text/css">
	.st0{fill:#287AA0;}
	.st1{fill:#191919;}
</style>
<g>
	<g>
		<path class="st0" d="M473.7,442.3l-75.9-75.9c4-7.1,7.2-14.6,9.5-22.5H420v-16h-9.3c3-19.4,0.7-39.2-6.7-57.3V192h-16v50.9
			c-4.8-6.1-10.1-11.6-16-16.6V160h-16v55.2c-5.1-3-10.5-5.5-16-7.6V128h-16v74.7c-5.3-1.1-10.6-1.9-16-2.2V144h-16v56.4
			c-5.4,0.4-10.7,1.1-16,2.2V176h-16v31.5c-5.5,2.1-10.9,4.7-16,7.6V168h-16v58.3c-5.9,5-11.2,10.5-16,16.6V184h-16v86.7
			c-7.4,18.1-9.7,38-6.7,57.3H84v16h108.7c17.5,59.2,79.7,92.9,138.9,75.4c11.7-3.5,22.7-8.8,32.6-15.8l74.1,74.1
			c3.1,3.1,8.2,3.1,11.3,0l24-24C476.8,450.5,476.8,445.5,473.7,442.3z M300,408c-53-0.1-95.9-43-96-96c0-53,43-96,96-96
			s96,43,96,96S353,408,300,408z M444,460.7l-67.3-67.3c4.4-4.1,8.4-8.6,12-13.3l67.9,67.9L444,460.7z"/>
	</g>
</g>
<g>
	<g>
		<path class="st0" d="M300,232c-44.2,0-80,35.8-80,80s35.8,80,80,80s80-35.8,80-80S344.2,232,300,232z M300,376
			c-22.8,0-43.9-12.2-55.3-32h110.7C343.9,363.8,322.8,376,300,376z M238.1,328c-6.4-24.4,2.2-50.2,21.9-65.9V312h16v-59.3
			c5.1-2.1,10.5-3.5,16-4.2V312h16v-63.4c5.5,0.7,10.9,2.1,16,4.2V312h16v-49.9c19.7,15.7,28.3,41.5,21.9,65.9H238.1z"/>
	</g>
</g>
<g>
	<g>
		<path class="st1" d="M412,64H92c-22.1,0-40,17.9-40,40v256c0,22.1,17.9,40,40,40h104v-16H92c-13.3,0-24-10.7-24-24V104
			c0-13.3,10.7-24,24-24h320c13.3,0,24,10.7,24,24v256c0,5.8-2.1,11.5-6,15.9l12,10.6c6.4-7.3,10-16.7,10-26.5V104
			C452,81.9,434.1,64,412,64z"/>
	</g>
</g>
<g>
	<g>
		<rect x="84" y="96" class="st1" width="16" height="16"/>
	</g>
</g>
<g>
	<g>
		<rect x="116" y="96" class="st1" width="16" height="16"/>
	</g>
</g>
<g>
	<g>
		<rect x="148" y="96" class="st1" width="16" height="16"/>
	</g>
</g>
<g>
	<g>
		<rect x="100" y="264" class="st1" width="16" height="48"/>
	</g>
</g>
<g>
	<g>
		<rect x="132" y="216" class="st1" width="16" height="96"/>
	</g>
</g>
<g>
	<g>
		<rect x="164" y="240" class="st1" width="16" height="72"/>
	</g>
</g>
</svg>
