<?xml version="1.0" encoding="utf-8"?>
<!-- Generator: Adobe Illustrator 23.0.2, SVG Export Plug-In . SVG Version: 6.00 Build 0)  -->
<svg version="1.1" id="Layer_1" xmlns="http://www.w3.org/2000/svg" xmlns:xlink="http://www.w3.org/1999/xlink" x="0px" y="0px"
	 viewBox="0 0 682 682" style="enable-background:new 0 0 682 682;" xml:space="preserve">
<style type="text/css">
	.st0{fill:#191919;}
	.st1{fill:#287AA0;}
</style>
<path class="st0" d="M551.8,266.8h-70.5c-6.9,0-12.5,5.6-12.5,12.5s5.6,12.5,12.5,12.5h70.5c5.4,19.1,23,33.1,43.8,33.1
	c25.1,0,45.6-20.4,45.6-45.6c0-25.1-20.4-45.6-45.6-45.6C574.8,233.6,557.3,247.7,551.8,266.8z M616.3,279.2
	c0,11.4-9.3,20.6-20.6,20.6s-20.6-9.3-20.6-20.6c0-11.4,9.3-20.6,20.6-20.6S616.3,267.8,616.3,279.2z"/>
<path class="st0" d="M488.8,529.1c0-6.9-5.6-12.5-12.5-12.5H355c0.6,8.3,0.3,16.6,0.2,24.9h108.7v28.7c-19.1,5.4-33.1,23-33.1,43.8
	c0,25.1,20.4,45.6,45.6,45.6c25.1,0,45.6-20.4,45.6-45.6c0-20.8-14-38.4-33.1-43.8v-41.1H488.8z M496.9,614
	c0,11.4-9.3,20.6-20.6,20.6c-11.4,0-20.6-9.3-20.6-20.6s9.3-20.6,20.6-20.6C487.7,593.4,496.9,602.7,496.9,614z"/>
<path class="st0" d="M355.6,479.9h158.6l40.3,34.2c-2.8,5.9-4.4,12.5-4.4,19.5c0,25.1,20.4,45.6,45.6,45.6
	c25.1,0,45.6-20.4,45.6-45.6c0-25.1-20.4-45.6-45.6-45.6c-9.1,0-17.6,2.7-24.7,7.3L526.8,458c0,0,0,0-0.1,0
	c-0.2-0.2-0.4-0.3-0.6-0.5c-0.1-0.1-0.2-0.2-0.3-0.3c-0.2-0.1-0.5-0.3-0.7-0.4c-0.1-0.1-0.2-0.2-0.4-0.2c-0.2-0.1-0.4-0.2-0.6-0.3
	c-0.2-0.1-0.3-0.2-0.5-0.2c-0.1,0-0.2-0.1-0.3-0.1c-0.3-0.1-0.5-0.2-0.8-0.3c-0.1,0-0.2-0.1-0.3-0.1c-0.3-0.1-0.6-0.2-0.9-0.2
	c-0.1,0-0.2,0-0.3-0.1c-0.3,0-0.6-0.1-0.9-0.1c-0.1,0-0.3,0-0.4,0c-0.3,0-0.6,0-0.9,0H355.6V479.9z M616.3,533.6
	c0,11.4-9.3,20.6-20.6,20.6S575,545,575,533.6s9.3-20.6,20.6-20.6S616.3,522.2,616.3,533.6z"/>
<path class="st0" d="M550.1,150.7c0,7,1.6,13.6,4.4,19.5l-40.3,34.2H356c0,3.4,0,6.9-0.2,10.3c-0.3,4.9-0.9,9.8-1.1,14.7h163.9h0.1
	c0.3,0,0.6,0,0.9,0c0.1,0,0.3,0,0.4,0c0.3,0,0.6-0.1,0.9-0.1c0.1,0,0.2,0,0.3-0.1c0.3-0.1,0.6-0.1,0.9-0.2c0.1,0,0.2,0,0.3-0.1
	c0.3-0.1,0.5-0.2,0.8-0.3c0.1,0,0.2-0.1,0.3-0.1c0.2-0.1,0.3-0.1,0.5-0.2c0.2-0.1,0.4-0.2,0.6-0.3c0.1-0.1,0.2-0.1,0.4-0.2
	c0.2-0.1,0.5-0.3,0.7-0.4c0.1-0.1,0.2-0.2,0.3-0.3c0.2-0.2,0.4-0.3,0.6-0.5c0,0,0,0,0.1-0.1l44.2-37.4c7.1,4.6,15.6,7.3,24.7,7.3
	c25.1,0,45.6-20.4,45.6-45.6c0-25.1-20.4-45.6-45.6-45.6C570.5,105.2,550.1,125.6,550.1,150.7z M616.3,150.8
	c0,11.4-9.3,20.6-20.6,20.6s-20.6-9.3-20.6-20.6c0-11.4,9.3-20.6,20.6-20.6S616.3,139.4,616.3,150.8z"/>
<path class="st0" d="M430.7,65.8c0,20.8,14,38.4,33.1,43.8v33.2H356.7c-0.1,8.3-0.5,16.6-1,24.9h120.7c6.9,0,12.5-5.6,12.5-12.5
	c0-0.8-0.1-1.5-0.2-2.3c0.1-0.7,0.2-1.5,0.2-2.3v-41.1c19.1-5.4,33.1-23,33.1-43.8c0-25.1-20.4-45.6-45.6-45.6
	C451.2,20.2,430.7,40.7,430.7,65.8z M496.9,65.8c0,11.4-9.3,20.6-20.6,20.6c-11.4,0-20.6-9.3-20.6-20.6c0-11.4,9.3-20.6,20.6-20.6
	C487.7,45.2,496.9,54.4,496.9,65.8z"/>
<path class="st1" d="M355.1,167.7c0.5-8.3,0.9-16.6,1-24.9H354v-13c0-6.9-5.6-12.5-12.5-12.5h-1.3c-26.6,0-48.2-21.6-48.2-48.2v-2.7
	c0-3.7-1.7-7.3-4.6-9.7s-6.7-3.3-10.4-2.6c-60.3,12.5-114.7,43-157,88.3c-2.6,2.7-3.8,6.5-3.2,10.2c0.5,3.7,2.7,7,5.9,9
	c6,3.6,11.1,8.4,15,14.3c0.1,0.2,0.2,0.2,0.3,0.4c0.8,1.1,19.3,27.4-1.7,55.8c-0.5,0.6-0.7,1-1,1.6c-0.9,1.6-11.8,19.1-42.7,18.3
	c-6.1-0.2-12.7-2.3-19.7-6.3c-3.3-1.9-7.2-2.2-10.7-0.8c-3.5,1.3-6.2,4.2-7.4,7.8c-9.7,29.7-14.6,60.7-14.6,92.2
	c0,29,4.2,57.7,12.5,85.4c1.1,3.5,3.6,6.4,7,7.8c3.4,1.5,7.2,1.4,10.5-0.3c22.7-11.3,50.4-2.9,63.1,19.1l0.7,1.1
	c13,22.6,5.9,51.1-16.2,64.9c-3.1,1.9-5.2,5.2-5.7,8.8s0.6,7.3,3,10c40.2,45.2,92.3,76.7,150.8,91c3.6,0.9,7.3,0.1,10.3-2
	c3-2.2,4.8-5.5,5.1-9.1c1.9-24.9,23-44.5,48-44.5h12.4c6.9,0,12.5-5.6,12.5-12.5v-23.1h0.6c0.1-8.3,0.5-16.6-0.2-24.9h-0.4v-36.7h1
	V455h-1v-37.4h0.1v-24.9h-0.1v-101h30c6.9,0,12.5-5.6,12.5-12.5s-5.6-12.5-12.5-12.5h-30v-37.4h0.2c0.2-4.9,0.8-9.8,1.1-14.7
	c0.2-3.4,0.2-6.8,0.2-10.3h-1.4v-36.7L355.1,167.7L355.1,167.7z M329.2,204.5c-28.5,0.6-55.6,9.8-78.7,26.8
	c-5.5,4.1-6.7,11.9-2.6,17.4c4.1,5.5,11.9,6.7,17.4,2.6c18.8-13.8,40.8-21.4,63.9-22V455c-29.6-0.7-57.2-12.8-77.9-34
	c-4.4-4.5-8.4-9.4-11.9-14.5c-13.1-18.9-20.1-41.1-20.1-64.3c0-5.3,0.4-10.7,1.2-16.1c1-6.8-3.7-13.1-10.6-14.1
	c-6.8-1-13.1,3.7-14.1,10.5c-0.9,6.5-1.4,13.1-1.4,19.6c0,28.2,8.5,55.4,24.5,78.5c4.3,6.3,9.2,12.2,14.6,17.7
	c25.5,26.1,59.4,40.8,95.7,41.6v72.3c-32.9,0-61.3,22.3-70.2,52.9c-44.1-13.1-83.9-37.1-116.2-70.2c24-22.8,30-59.5,12.8-89.4
	l-0.7-1.1c-16.7-28.9-50.6-42.3-81.8-34.2c-5.3-21.3-7.9-43.2-7.9-65.4c0-24.1,3.2-48,9.4-71.1c5.9,2,11.7,3.1,17.4,3.2
	c43.5,1.2,61.4-24.8,64.8-30.6c25-34.4,12-70.2,1.4-84.6c-3-4.4-6.5-8.5-10.3-12.1c33.9-32.8,75.1-56,120.5-67.7
	c5.4,30.7,30,54.8,60.9,59.5v63.1H329.2z"/>
<path class="st0" d="M551.8,392.7H354.7v24.9h197.1c5.4,19.1,23,33.1,43.8,33.1c25.1,0,45.6-20.4,45.6-45.6
	c0-25.1-20.4-45.6-45.6-45.6C574.8,359.6,557.3,373.6,551.8,392.7z M616.3,405.1c0,11.4-9.3,20.6-20.6,20.6s-20.6-9.3-20.6-20.6
	c0-11.4,9.3-20.6,20.6-20.6S616.3,393.8,616.3,405.1z"/>
<path class="st0" d="M442.4,287.1l0.2-0.3c1.7-2.3,2.5-4.9,2.5-7.5c0-3.8-1.7-7.5-4.9-9.9c-5.5-4.2-13.3-3.1-17.5,2.4l-0.2,0.3
	c-4.2,5.5-3.1,13.3,2.4,17.5C430.4,293.6,438.2,292.5,442.4,287.1z"/>
<path class="st0" d="M233.6,287.4l0.2-0.3c1.7-2.3,2.6-4.9,2.6-7.6c0-3.8-1.7-7.5-4.9-9.9c-5.5-4.2-13.3-3.1-17.5,2.4l-0.2,0.3
	c-4.2,5.5-3.1,13.3,2.4,17.5C221.6,293.9,229.4,292.9,233.6,287.4z"/>
</svg>
