<?xml version="1.0" encoding="utf-8"?>
<!-- Generator: Adobe Illustrator 23.0.2, SVG Export Plug-In . SVG Version: 6.00 Build 0)  -->
<svg version="1.1" id="Layer_1" xmlns="http://www.w3.org/2000/svg" xmlns:xlink="http://www.w3.org/1999/xlink" x="0px" y="0px"
	 viewBox="0 0 479 479" style="enable-background:new 0 0 479 479;" xml:space="preserve">
<style type="text/css">
	.st0{fill:#287AA0;}
	.st1{fill:#191919;}
</style>
<path class="st0" d="M415.1,142.7c0-35.3-28.6-63.8-63.9-63.9H327C322.8,33.6,284.9-1,239.5-1S156.2,33.6,152,78.8h-24.3
	c-35.3,0-63.9,28.6-63.9,63.9s28.6,63.9,63.9,63.9h87.8v-16h-87.8c-26.5,0-47.9-21.4-47.9-47.9s21.4-47.9,47.9-47.9h39.9v-8
	c0-39.7,32.2-71.9,71.9-71.9s71.9,32.2,71.9,71.9v8h39.9c26.5,0,47.9,21.4,47.9,47.9s-21.4,47.9-47.9,47.9h-87.8v16h87.8
	C386.5,206.5,415.1,178,415.1,142.7z"/>
<path class="st1" d="M383.2,454.1V318.3c0-13.2-10.7-23.9-23.9-24h-16v-17.4c10.5-3.7,17.1-14.2,15.8-25.2
	c-1.3-11.1-10-19.8-21.1-21.1s-21.5,5.3-25.2,15.8h-65.3V146l18.3,18.3l11.3-11.3l-37.6-37.6L201.9,153l11.3,11.3l18.3-18.3v100.5
	h-65.3c-3.7-10.5-14.2-17.1-25.2-15.8c-11.1,1.3-19.8,10-21.1,21c-1.3,11.1,5.3,21.5,15.8,25.2v25.4H87.8c-13.2,0-23.9,10.7-24,24
	v95.8c0,13.2,10.7,23.9,24,24h47.9v16h-24v16h63.9v-16h-24v-16h47.9c13.2,0,23.9-10.7,24-24v-95.8c0-13.2-10.7-23.9-24-24h-47.9
	v-25.4c6.8-2.4,12.1-7.7,14.5-14.5h146.6c2.4,6.8,7.7,12.1,14.5,14.5v17.4h-47.9c-13.2,0-23.9,10.7-23.9,24V454
	c0,13.2,10.7,23.9,23.9,24h79.8C372.5,478,383.2,467.3,383.2,454.1z M207.6,422.1c0,4.4-3.6,8-8,8H87.8c-4.4,0-8-3.6-8-8v-16h127.7
	v16H207.6z M199.6,318.3c4.4,0,8,3.6,8,8v63.9H79.8v-63.9c0-4.4,3.6-8,8-8H199.6z M143.7,262.5c-4.4,0-8-3.6-8-8s3.6-8,8-8
	s8,3.6,8,8S148.1,262.4,143.7,262.5z M335.3,246.5c4.4,0,8,3.6,8,8s-3.6,8-8,8s-8-3.6-8-8S330.9,246.5,335.3,246.5z M271.4,318.3
	c0-4.4,3.6-8,8-8h79.8c4.4,0,8,3.6,8,8v103.8h-95.8L271.4,318.3L271.4,318.3z M271.4,454.1v-16h95.8v16c0,4.4-3.6,8-8,8h-79.8
	C275,462,271.4,458.5,271.4,454.1z"/>
</svg>
